<svg viewBox="0 0 1498 400" xmlns="http://www.w3.org/2000/svg"><g><g><g><g><g><line x1="58" y1="378" x2="53" y2="378" style="visibility: inherit;" fill="rgb(0, 0, 0)" stroke="rgb(204, 204, 204)" stroke-width="1px"></line><line x1="58" y1="352.79999999999995" x2="53" y2="352.79999999999995" style="visibility: inherit;" fill="rgb(0, 0, 0)" stroke="rgb(204, 204, 204)" stroke-width="1px"></line><line x1="58" y1="327.59999999999997" x2="53" y2="327.59999999999997" style="visibility: inherit;" fill="rgb(0, 0, 0)" stroke="rgb(204, 204, 204)" stroke-width="1px"></line><line x1="58" y1="302.4" x2="53" y2="302.4" style="visibility: inherit;" fill="rgb(0, 0, 0)" stroke="rgb(204, 204, 204)" stroke-width="1px"></line><line x1="58" y1="277.19999999999993" x2="53" y2="277.19999999999993" style="visibility: inherit;" fill="rgb(0, 0, 0)" stroke="rgb(204, 204, 204)" stroke-width="1px"></line><line x1="58" y1="251.9999999999999" x2="53" y2="251.9999999999999" style="visibility: inherit;" fill="rgb(0, 0, 0)" stroke="rgb(204, 204, 204)" stroke-width="1px"></line><line x1="58" y1="226.80000000000004" x2="53" y2="226.80000000000004" style="visibility: inherit;" fill="rgb(0, 0, 0)" stroke="rgb(204, 204, 204)" stroke-width="1px"></line><line x1="58" y1="201.60000000000002" x2="53" y2="201.60000000000002" style="visibility: inherit;" fill="rgb(0, 0, 0)" stroke="rgb(204, 204, 204)" stroke-width="1px"></line><line x1="58" y1="176.4" x2="53" y2="176.4" style="visibility: inherit;" fill="rgb(0, 0, 0)" stroke="rgb(204, 204, 204)" stroke-width="1px"></line><line x1="58" y1="151.19999999999996" x2="53" y2="151.19999999999996" style="visibility: inherit;" fill="rgb(0, 0, 0)" stroke="rgb(204, 204, 204)" stroke-width="1px"></line><line x1="58" y1="125.99999999999997" x2="53" y2="125.99999999999997" style="visibility: inherit;" fill="rgb(0, 0, 0)" stroke="rgb(204, 204, 204)" stroke-width="1px"></line><line x1="58" y1="100.79999999999995" x2="53" y2="100.79999999999995" style="visibility: inherit;" fill="rgb(0, 0, 0)" stroke="rgb(204, 204, 204)" stroke-width="1px"></line><line x1="58" y1="75.60000000000008" x2="53" y2="75.60000000000008" style="visibility: inherit;" fill="rgb(0, 0, 0)" stroke="rgb(204, 204, 204)" stroke-width="1px"></line><line x1="58" y1="50.400000000000034" x2="53" y2="50.400000000000034" style="visibility: inherit;" fill="rgb(0, 0, 0)" stroke="rgb(204, 204, 204)" stroke-width="1px"></line><line x1="58" y1="25.200000000000045" x2="53" y2="25.200000000000045" style="visibility: inherit;" fill="rgb(0, 0, 0)" stroke="rgb(204, 204, 204)" stroke-width="1px"></line><line x1="58" y1="0" x2="53" y2="0" style="visibility: inherit;" fill="rgb(0, 0, 0)" stroke="rgb(204, 204, 204)" stroke-width="1px"></line></g><g transform="translate(48, 0)"><text x="0" y="378" dx="0em" dy="0.3em" style="text-anchor: end; visibility: hidden; font-family: &quot;Helvetica Neue&quot;, sans-serif; font-size: 12px; font-weight: 200;" fill="rgb(50, 49, 63)" stroke="none" stroke-width="1px">0.7</text><text x="0" y="352.79999999999995" dx="0em" dy="0.3em" style="text-anchor: end; visibility: inherit; font-family: &quot;Helvetica Neue&quot;, sans-serif; font-size: 12px; font-weight: 200;" fill="rgb(50, 49, 63)" stroke="none" stroke-width="1px">0.72</text><text x="0" y="327.59999999999997" dx="0em" dy="0.3em" style="text-anchor: end; visibility: inherit; font-family: &quot;Helvetica Neue&quot;, sans-serif; font-size: 12px; font-weight: 200;" fill="rgb(50, 49, 63)" stroke="none" stroke-width="1px">0.74</text><text x="0" y="302.4" dx="0em" dy="0.3em" style="text-anchor: end; visibility: inherit; font-family: &quot;Helvetica Neue&quot;, sans-serif; font-size: 12px; font-weight: 200;" fill="rgb(50, 49, 63)" stroke="none" stroke-width="1px">0.76</text><text x="0" y="277.19999999999993" dx="0em" dy="0.3em" style="text-anchor: end; visibility: inherit; font-family: &quot;Helvetica Neue&quot;, sans-serif; font-size: 12px; font-weight: 200;" fill="rgb(50, 49, 63)" stroke="none" stroke-width="1px">0.78</text><text x="0" y="251.9999999999999" dx="0em" dy="0.3em" style="text-anchor: end; visibility: inherit; font-family: &quot;Helvetica Neue&quot;, sans-serif; font-size: 12px; font-weight: 200;" fill="rgb(50, 49, 63)" stroke="none" stroke-width="1px">0.8</text><text x="0" y="226.80000000000004" dx="0em" dy="0.3em" style="text-anchor: end; visibility: inherit; font-family: &quot;Helvetica Neue&quot;, sans-serif; font-size: 12px; font-weight: 200;" fill="rgb(50, 49, 63)" stroke="none" stroke-width="1px">0.82</text><text x="0" y="201.60000000000002" dx="0em" dy="0.3em" style="text-anchor: end; visibility: inherit; font-family: &quot;Helvetica Neue&quot;, sans-serif; font-size: 12px; font-weight: 200;" fill="rgb(50, 49, 63)" stroke="none" stroke-width="1px">0.84</text><text x="0" y="176.4" dx="0em" dy="0.3em" style="text-anchor: end; visibility: inherit; font-family: &quot;Helvetica Neue&quot;, sans-serif; font-size: 12px; font-weight: 200;" fill="rgb(50, 49, 63)" stroke="none" stroke-width="1px">0.86</text><text x="0" y="151.19999999999996" dx="0em" dy="0.3em" style="text-anchor: end; visibility: inherit; font-family: &quot;Helvetica Neue&quot;, sans-serif; font-size: 12px; font-weight: 200;" fill="rgb(50, 49, 63)" stroke="none" stroke-width="1px">0.88</text><text x="0" y="125.99999999999997" dx="0em" dy="0.3em" style="text-anchor: end; visibility: inherit; font-family: &quot;Helvetica Neue&quot;, sans-serif; font-size: 12px; font-weight: 200;" fill="rgb(50, 49, 63)" stroke="none" stroke-width="1px">0.9</text><text x="0" y="100.79999999999995" dx="0em" dy="0.3em" style="text-anchor: end; visibility: inherit; font-family: &quot;Helvetica Neue&quot;, sans-serif; font-size: 12px; font-weight: 200;" fill="rgb(50, 49, 63)" stroke="none" stroke-width="1px">0.92</text><text x="0" y="75.60000000000008" dx="0em" dy="0.3em" style="text-anchor: end; visibility: inherit; font-family: &quot;Helvetica Neue&quot;, sans-serif; font-size: 12px; font-weight: 200;" fill="rgb(50, 49, 63)" stroke="none" stroke-width="1px">0.94</text><text x="0" y="50.400000000000034" dx="0em" dy="0.3em" style="text-anchor: end; visibility: inherit; font-family: &quot;Helvetica Neue&quot;, sans-serif; font-size: 12px; font-weight: 200;" fill="rgb(50, 49, 63)" stroke="none" stroke-width="1px">0.96</text><text x="0" y="25.200000000000045" dx="0em" dy="0.3em" style="text-anchor: end; visibility: inherit; font-family: &quot;Helvetica Neue&quot;, sans-serif; font-size: 12px; font-weight: 200;" fill="rgb(50, 49, 63)" stroke="none" stroke-width="1px">0.98</text><text x="0" y="0" dx="0em" dy="0.3em" style="text-anchor: end; visibility: hidden; font-family: &quot;Helvetica Neue&quot;, sans-serif; font-size: 12px; font-weight: 200;" fill="rgb(50, 49, 63)" stroke="none" stroke-width="1px">1</text></g><line x1="58" y1="0" x2="58" y2="378" fill="rgb(0, 0, 0)" stroke="rgb(204, 204, 204)" stroke-width="1px"></line></g></g><g transform="translate(58, 0)" clip-path="url(#clip_0)"><clipPath id="clip_0"><rect width="1440" height="378"></rect></clipPath><g><g><g><line x1="0" y1="0" x2="0" y2="378" fill="rgb(0, 0, 0)" stroke="rgb(60, 60, 60)" stroke-width="1px" opacity="0.25"></line><line x1="205.7142857142857" y1="0" x2="205.7142857142857" y2="378" fill="rgb(0, 0, 0)" stroke="rgb(60, 60, 60)" stroke-width="1px" opacity="0.25"></line><line x1="411.4285714285714" y1="0" x2="411.4285714285714" y2="378" fill="rgb(0, 0, 0)" stroke="rgb(60, 60, 60)" stroke-width="1px" opacity="0.25"></line><line x1="617.1428571428571" y1="0" x2="617.1428571428571" y2="378" fill="rgb(0, 0, 0)" stroke="rgb(60, 60, 60)" stroke-width="1px" opacity="0.25"></line><line x1="822.8571428571428" y1="0" x2="822.8571428571428" y2="378" fill="rgb(0, 0, 0)" stroke="rgb(60, 60, 60)" stroke-width="1px" opacity="0.25"></line><line x1="1028.5714285714287" y1="0" x2="1028.5714285714287" y2="378" fill="rgb(0, 0, 0)" stroke="rgb(60, 60, 60)" stroke-width="1px" opacity="0.25"></line><line x1="1234.2857142857142" y1="0" x2="1234.2857142857142" y2="378" fill="rgb(0, 0, 0)" stroke="rgb(60, 60, 60)" stroke-width="1px" opacity="0.25"></line><line x1="1440" y1="0" x2="1440" y2="378" fill="rgb(0, 0, 0)" stroke="rgb(60, 60, 60)" stroke-width="1px" opacity="0.25"></line></g><g><line x1="0" y1="378" x2="1440" y2="378" fill="rgb(0, 0, 0)" stroke="rgb(60, 60, 60)" stroke-width="1px" opacity="0.25"></line><line x1="0" y1="352.79999999999995" x2="1440" y2="352.79999999999995" fill="rgb(0, 0, 0)" stroke="rgb(60, 60, 60)" stroke-width="1px" opacity="0.25"></line><line x1="0" y1="327.59999999999997" x2="1440" y2="327.59999999999997" fill="rgb(0, 0, 0)" stroke="rgb(60, 60, 60)" stroke-width="1px" opacity="0.25"></line><line x1="0" y1="302.4" x2="1440" y2="302.4" fill="rgb(0, 0, 0)" stroke="rgb(60, 60, 60)" stroke-width="1px" opacity="0.25"></line><line x1="0" y1="277.19999999999993" x2="1440" y2="277.19999999999993" fill="rgb(0, 0, 0)" stroke="rgb(60, 60, 60)" stroke-width="1px" opacity="0.25"></line><line x1="0" y1="251.9999999999999" x2="1440" y2="251.9999999999999" fill="rgb(0, 0, 0)" stroke="rgb(60, 60, 60)" stroke-width="1px" opacity="0.25"></line><line x1="0" y1="226.80000000000004" x2="1440" y2="226.80000000000004" fill="rgb(0, 0, 0)" stroke="rgb(60, 60, 60)" stroke-width="1px" opacity="0.25"></line><line x1="0" y1="201.60000000000002" x2="1440" y2="201.60000000000002" fill="rgb(0, 0, 0)" stroke="rgb(60, 60, 60)" stroke-width="1px" opacity="0.25"></line><line x1="0" y1="176.4" x2="1440" y2="176.4" fill="rgb(0, 0, 0)" stroke="rgb(60, 60, 60)" stroke-width="1px" opacity="0.25"></line><line x1="0" y1="151.19999999999996" x2="1440" y2="151.19999999999996" fill="rgb(0, 0, 0)" stroke="rgb(60, 60, 60)" stroke-width="1px" opacity="0.25"></line><line x1="0" y1="125.99999999999997" x2="1440" y2="125.99999999999997" fill="rgb(0, 0, 0)" stroke="rgb(60, 60, 60)" stroke-width="1px" opacity="0.25"></line><line x1="0" y1="100.79999999999995" x2="1440" y2="100.79999999999995" fill="rgb(0, 0, 0)" stroke="rgb(60, 60, 60)" stroke-width="1px" opacity="0.25"></line><line x1="0" y1="75.60000000000008" x2="1440" y2="75.60000000000008" fill="rgb(0, 0, 0)" stroke="rgb(60, 60, 60)" stroke-width="1px" opacity="0.25"></line><line x1="0" y1="50.400000000000034" x2="1440" y2="50.400000000000034" fill="rgb(0, 0, 0)" stroke="rgb(60, 60, 60)" stroke-width="1px" opacity="0.25"></line><line x1="0" y1="25.200000000000045" x2="1440" y2="25.200000000000045" fill="rgb(0, 0, 0)" stroke="rgb(60, 60, 60)" stroke-width="1px" opacity="0.25"></line><line x1="0" y1="0" x2="1440" y2="0" fill="rgb(0, 0, 0)" stroke="rgb(60, 60, 60)" stroke-width="1px" opacity="0.25"></line></g></g></g><g><g><line x1="0" y1="1260" x2="1440" y2="1260" fill="rgb(0, 0, 0)" stroke="rgb(153, 153, 153)" stroke-width="1.5px"></line></g></g><g><g><line x1="-822.8571428571428" y1="0" x2="-822.8571428571428" y2="378" fill="rgb(0, 0, 0)" stroke="rgb(153, 153, 153)" stroke-width="1.5px"></line></g></g><g><g><g><g><g><path stroke="rgb(255, 112, 67)" stroke-width="2px" d="M91.25485714285713,64.20382261276245L92.24228571428571,86.77549660205841L92.36571428571428,71.16467612130293L93.43542857142857,80.87436854839336L94.38171428571428,68.42261106086073L97.01485714285714,68.33613798358391L97.38514285714285,74.89221407852943L99.936,99.92909359198927L100.14171428571429,103.32930648577957L101.00571428571429,71.43531401737357L101.74628571428572,83.03065636936469L103.18628571428573,86.74366296585197L103.26857142857143,71.28717233424044L103.59771428571429,71.66431160814153L107.83542857142858,79.91965524056405L109.44,89.6870258150384L110.01599999999999,84.30812451687319L112.56685714285715,79.47609663513953L113.67771428571429,68.5512308578019L114.336,87.67920550290074L114.62400000000001,108.7863348690554L116.59885714285714,111.81960848505742L117.13371428571429,139.3212789643032L117.70971428571428,120.5098649799894L118.12114285714284,136.50978708899552L119.89028571428572,149.31990033832525L120.21942857142858,145.770285111258L121.98857142857143,170.92714089165506L122.23542857142857,177.99579748494472L122.81142857142856,179.0267754031543L122.89371428571428,152.35875255383422L123.51085714285713,125.12225248124739L123.75771428571429,99.14980250376192L124.9097142857143,72.33064525640907L129.39428571428573,54.634044541584046L130.464,114.64030493024512L130.50514285714286,145.82877028647658L130.752,116.38897472812829L131.86285714285714,95.51491383547636L132.23314285714287,148.79940686097817L134.24914285714286,145.4579926551666L134.37257142857143,162.71430594686308L135.48342857142856,145.78142799224486L135.936,122.78096673856683L138.28114285714287,91.32463501347257L139.06285714285715,122.20878724322512L142.39542857142857,184.07686260017286L144.6582857142857,189.09578148538725L144.7817142857143,171.24089422210764L145.35771428571428,162.13306869490353L145.52228571428572,129.38173750279407L147.49714285714285,138.6226814940128L147.78514285714286,118.48571884357705L148.69028571428572,104.79843442273977L149.184,135.10835733792814L149.59542857142858,90.6955953048398L150.8297142857143,62.44283125440012L151.28228571428573,64.75230458760132L151.85828571428573,95.02973129382303L153.17485714285715,116.40637093800751L154.368,106.76100929986461L155.0262857142857,176.41330266243952L155.68457142857145,145.97538199571784L155.84914285714285,138.9482872876406L156.54857142857142,160.4135595078993L157.98857142857142,211.8150164077121L160.08685714285716,252.28644140895835L160.82742857142858,183.47376113138566L161.19771428571428,220.83584693075412L161.7737142857143,217.57156936527008L161.856,151.409180213217L161.97942857142857,175.91556933474791L163.7897142857143,171.35827104420804L165.64114285714285,189.49013066393945L166.38171428571428,224.44566865028622L166.752,192.45082652128744L167.28685714285714,235.85266706679457L167.4102857142857,226.58166144689434L167.7394285714286,233.85982259750674L169.38514285714285,259.09295788192935L170.08457142857142,256.57681411972163L170.61942857142859,222.96520153564526L172.84114285714287,223.66447257925455L174.28114285714287,134.19868354755275L175.96800000000002,135.09245183919447L176.29714285714286,122.78794829162706L176.4617142857143,182.81925239630198L176.74971428571428,201.1820099262455L180.49371428571428,252.32703480172506L180.98742857142858,162.63187857299047L181.48114285714286,213.14600784676665L182.30399999999997,262.71561717449066L182.50971428571427,247.51472196256185L182.55085714285713,265.6808207111065L183.3737142857143,250.89895091512835L183.57942857142856,261.29096080099964L185.43085714285712,280.36693125507475L185.92457142857143,277.36664217437055L187.36457142857142,293.2225236995503L188.80457142857142,249.76788769385132L188.84571428571428,204.43397432697373L188.92800000000003,137.10625594933364L190.73828571428572,109.5503594045611L191.4377142857143,109.06779966144393L191.52,160.14132190578363L191.7257142857143,181.15485435028788L192.75428571428574,155.24068024933285L192.79542857142854,179.8195761870142L193.20685714285716,215.43315234367827L193.28914285714285,140.4955490981626L193.49485714285711,119.60943940610213L194.688,152.02043439942918L195.30514285714287,190.7281631588836L195.552,204.32224955319762L200.98285714285714,157.9054596791231L203.2457142857143,163.76238887128602L203.82171428571428,151.22556820283745L205.26171428571428,118.0219467566634L209.66400000000002,167.11891699351207L212.58514285714287,106.69171743701287L214.39542857142857,182.89243086046213L215.5062857142857,109.73545851627733L215.6297142857143,65.84127510976646L218.01600000000002,49.13534596795944L220.56685714285715,47.137262554377855L222.00685714285714,39.5180152245822L223.40571428571428,49.39233817985428L223.9817142857143,61.73729919392326L224.064,69.14427580236458L224.10514285714285,70.37827814697664L226.49142857142857,90.37981131720204L229.41257142857143,100.77565442948145L230.72914285714288,92.56728894369951L231.63428571428574,95.66777376447408L232.416,89.50256054469526L233.69142857142856,105.06459441702714L238.6285714285714,130.4527628834316L239.36914285714283,145.6856639632743L239.45142857142858,185.32222410733456L241.50857142857143,202.68379295286516L243.81257142857143,200.25993969689003L244.42971428571428,227.69737044960377L246.56914285714285,210.45279574388346L247.43314285714288,158.3735737323407L247.63885714285715,183.3043890666749L247.72114285714284,170.97627243231454L249.4902857142857,187.65582466620637L252.12342857142858,229.7654823332932L253.27542857142856,290.3433568400088L254.42742857142855,231.9894394351209L256.44342857142857,261.1809416456916L256.56685714285715,273.88055252098434L259.1177142857143,242.97799543776145L259.5702857142857,237.2772557511213L262.5737142857143,238.67210239018692L263.1497142857143,274.8210902800899L263.39657142857146,280.45953487102634L264.4251428571428,253.3457821294335L264.6308571428571,241.8928209355275L265.90628571428573,204.5242247230291L266.0297142857143,243.09670598783973L267.5931428571429,222.9026107280188L268.128,239.67786623768413L268.2102857142857,224.06149049837836L271.54285714285714,189.0101360096898L272.9005714285714,201.6863264330843L275.32800000000003,182.0054348521602L276.0274285714286,210.3243003018601L276.89142857142855,230.52577315139186L280.9234285714286,226.59570871810567L282.40457142857144,171.26953517806788L282.5691428571428,227.95915267117186L282.8982857142857,220.24044597892387L285.9428571428571,228.45001652686858L287.50628571428575,239.7961260965411L288,244.9987150484886L288.0822857142857,244.91005475846336L289.6457142857143,222.38554320053694L290.1394285714286,215.2912035066869L291.86742857142855,153.25117435926123L294.6651428571429,172.20547537132458L295.03542857142855,161.10671055391035L295.1588571428572,205.81050975367188L298.2857142857143,152.37801851776106L298.368,147.6051596519163L300.5897142857143,167.21275971632065L301.7417142857143,230.34037784517324L304.45714285714286,237.72012922633007L306.0617142857143,182.75947793405243L309.7645714285714,180.27990665484066L310.42285714285714,238.18066600828527L310.9988571428571,207.1122222177336L313.50857142857143,125.87241012049608L314.41371428571426,141.33237551565696L317.41714285714284,129.7421161586983L317.49942857142855,138.83890868752857L318.81600000000003,179.6090941520314L320.37942857142855,221.72723036359432L323.3828571428571,194.02997721046617L323.5474285714286,262.48168652540676L324.16457142857143,207.24699321559802L325.8514285714286,209.41825713617646L325.97485714285716,178.6190891617718L329.472,163.34980203832288L330.1714285714286,183.07994242981124L330.29485714285715,177.2619716911021L331.6937142857143,124.01323798826354L331.776,204.42066480833898L332.064,156.3594020016109L333.5451428571429,172.46530512613742L334.40914285714285,113.109763977782L335.3965714285714,122.43910009733204L335.84914285714285,140.8774662916145L336.96000000000004,190.46277957584147L337.78285714285715,141.56427358046577L337.98857142857145,161.98315128359445L342.3497142857143,196.70579328938263L342.76114285714283,252.85148844006028L344.8182857142857,225.54526653815736L345.59999999999997,202.74116615610973L346.13485714285713,256.4727121600966L346.3817142857143,208.45686900672084L346.91657142857144,216.5645798924969L349.2617142857143,194.14257054826066L350.208,259.33905890763066L350.41371428571426,269.5652092169538L351.4011428571429,280.5161898535976L352.3062857142857,328.81925542369424L352.84114285714287,229.39344954022732L353.8285714285714,174.55325646119695L357.7782857142857,191.40712191413272L357.9428571428572,207.9398084268L358.7657142857143,230.70018485695277L360.98742857142855,226.70035574144214L361.39885714285714,225.9055651027327L362.1805714285714,233.45416479100973L364.4022857142857,204.27632148736825L364.77257142857144,188.37472233578038L366.0068571428571,167.5980751121311L366.1302857142857,222.54612305189775L366.62399999999997,147.97354518428807L367.73485714285715,185.08987605008696L367.89942857142853,164.0220605101181L372.17828571428566,156.1966616371866L372.5074285714286,133.84539738056645L373.12457142857147,130.0652197286939L377.11542857142854,145.45313807043172L378.18514285714286,172.3419440490766L379.0902857142857,162.7936985911585L382.8754285714286,126.56793182025302L383.2045714285714,122.48852673131199L384.8914285714286,152.14277996395802L387.4011428571429,173.14554556473948L388.67657142857144,169.6962567822031L391.3097142857143,214.1744511518414L392.05028571428574,277.7785545106849L392.46171428571427,230.8709553191733L392.5028571428571,202.7263958042664L393.2845714285714,243.62311546717905L394.23085714285713,178.27576556631814L395.01257142857145,106.96545933979093L396.6171428571428,97.88627872048215L397.0285714285714,90.83366351829989L397.44000000000005,86.6020943969906L397.5634285714285,88.87844337525479L398.1805714285714,101.47991045416893L399.5382857142857,70.51852717460093L403.5702857142857,47.12640675581048L405.0102857142857,68.40324445174065L405.70971428571426,84.37953068975168L406.7794285714286,53.837902034303966L407.02628571428573,33.90781801043835L409.78285714285715,38.000745779865156L410.60571428571427,37.246318821068485L410.93485714285714,38.398739435646576L411.34628571428567,35.88000818394039L412.78628571428567,39.184059883966654L415.54285714285714,47.58688818562899L416.85942857142857,28.552132911377385L419.2868571428572,33.54590109997571L420.72685714285717,34.57341201313483L421.17942857142856,36.794995350886325L421.67314285714286,26.89228766158169L422.3725714285714,16.135372596949026L427.0628571428572,22.52198808072194L427.22742857142856,18.328483299483025L428.5028571428572,30.258251783889023L428.7497142857143,48.65177056648815L431.5885714285714,45.242010482898195L433.39885714285714,31.960496740788585L433.6457142857143,27.2017721159757L434.59200000000004,22.74143051049134L434.7977142857143,36.11617369020581L435.168,39.32575918772585L438.8708571428572,54.09227500879018L438.99428571428575,70.97765857293166L440.1462857142857,65.05791052767023L440.55771428571427,74.34685626380679L442.94399999999996,63.869275562483324L444.38399999999996,51.16232986004252L445.74171428571424,77.24516555518557L445.7828571428571,110.55092194587371L446.1531428571429,120.90379487818711L448.0457142857143,144.77157361117747L448.25142857142856,93.28331140761225L453.3531428571428,152.27573578408138L453.4765714285714,97.16510692149859L454.3405714285714,93.46066998786006L455.7805714285714,64.10187606421874L456.06857142857143,54.512073781536685L456.768,48.75819241192738L456.8502857142857,58.14662811271438L456.9737142857143,58.964429122877675L457.8377142857143,35.37865747372655L458.12571428571425,22.83227127409191L459.07199999999995,20.119730005360793L459.77142857142854,29.72789297681868L460.51199999999994,33.887683929096625L460.75885714285715,42.803925741369255L461.1702857142857,62.5995421818821L463.0628571428571,79.29220249723966L463.39199999999994,65.23137647194613L470.0982857142857,76.05601262022827L470.38628571428575,100.20684928279991L471.4971428571428,111.48716765988985L473.4308571428571,98.99419688194467L473.8011428571429,72.23728265171923L475.11771428571427,81.86466315868904L475.9817142857143,92.45638191392072L477.7508571428571,118.07254493051795L477.8742857142857,101.34034645446553L478.6971428571428,113.77234275274526L478.9851428571429,114.8111732908074L480.0548571428572,99.38352347063926L482.9348571428572,131.8594107666486L483.30514285714287,87.14112053149177L483.5931428571428,106.85791402955795L484.128,105.8472256058451L485.0331428571428,138.94784570896604L486.59657142857145,144.36234641768917L487.8308571428571,146.00594001232608L488.77714285714285,163.0430743528547L489.5177142857143,142.76853546101697L492.3977142857143,153.07512750982562L495.35999999999996,115.92152876114437L495.48342857142853,175.48921705755942L497.1291428571429,209.62472320481146L498.11657142857143,230.10602689316272L500.79085714285713,229.55407462436196L503.99999999999994,187.49042607497128L504.2057142857143,229.66624317855212L504.32914285714287,181.13732992583843L505.3988571428571,222.64417182787852L507.20914285714287,284.46549374690414L507.86742857142855,172.28437303799834L508.8548571428571,146.7082078415062L509.55428571428575,132.9676155542078L512.4754285714286,201.76784731714383L513.2982857142857,129.08618246178906L513.5862857142857,128.81476756728335L518.2354285714287,107.78568003652475L518.3588571428571,83.93256982611393L519.2228571428572,87.2767286327288L519.4285714285714,90.88833074729467L521.6502857142857,96.26547563648717L522.0617142857143,117.1478175436049L522.2262857142857,113.62627454487023L523.4194285714286,133.9846941702816L524.736,122.12329369027933L524.7771428571428,115.00645340227794L526.9165714285714,126.7872973724825L527.616,153.1169655588044L528.192,197.80647913615553L528.8502857142856,198.93865823746114L529.5497142857143,198.0128588676476L531.1954285714286,189.43193521499765L533.088,227.62093500137408L533.1291428571428,240.90375397110034L534.0342857142857,226.40212996902494L534.3222857142857,249.80305185379032L535.4742857142857,268.6588954356995L535.8857142857144,193.2972335474303L536.0914285714285,221.914639929331L536.544,202.16789702141082L536.9142857142857,217.60648715236056L537.4902857142857,181.92695038162637L539.0537142857142,213.4873631992517L539.1771428571428,229.213457310115L540.576,246.67455780739473L540.7405714285713,265.1767222180062L541.6868571428571,258.6219358500298L541.9337142857142,267.5298585925373L542.016,272.8746122380418L543.6617142857143,269.6610671436979L543.9085714285715,206.73933113552295L544.4434285714286,218.74424079023095L544.6491428571428,248.41853200770782L547.2822857142858,251.77723538504466L548.064,234.5312956072474L548.4342857142857,217.7633644996634L550.2857142857142,188.44144403091371L551.232,260.7336734482723L551.3142857142857,254.3510297983336L551.3554285714285,228.05012822445912L553.7828571428571,244.37148356614514L554.2765714285714,262.1897708426595L557.9382857142857,253.61961144510985L560.3245714285714,277.3691984313971L562.5051428571429,312.48521925796535L563.328,270.95608593099996L564.6034285714285,274.9303486411195L564.9737142857143,250.0282703914893L565.6731428571428,247.9277879642636L566.0022857142858,190.4891499666685L566.3725714285714,223.4399734013267L567.648,212.71364796596697L569.2525714285714,243.19506948255255L569.7462857142857,219.75141516365252L570.6925714285715,202.4750689926008L571.2685714285715,187.29397083891985L571.3508571428571,227.94326320632436L572.832,252.33283862676694L574.3131428571428,300.6735869956402L575.424,230.16213349773824L577.2754285714286,268.1100021140237L579.0034285714286,242.72587885477898L581.472,280.463539779298L582.0068571428571,259.7685823560432L582.0891428571429,305.1350332332061L582.9531428571429,264.9408975262884L583.1588571428572,223.16836112853545L583.7348571428571,254.28318783114355L584.352,276.16226747316125L584.64,318.18142792392985L585.4217142857143,261.53307664876706L585.9154285714286,222.72877543261953L589.9062857142857,271.6754913871963L590.5234285714286,257.705936941235L590.976,263.7700455860667L591.1405714285714,272.22380122401535L591.7988571428572,306.18779731308354L593.1565714285715,329.7763785869772L593.5268571428571,229.96772343819708L596.16,203.78956350627766L596.2834285714285,237.84061880673897L596.9417142857143,234.19482977250772L600.5211428571429,264.10925263797964L600.8914285714285,274.0324322857602L602.1668571428571,247.88441374767683L603.072,251.45676442902604L603.9771428571429,226.31356900287452L606.9805714285715,244.9346248230503L609.9428571428572,154.9862489653329L611.8354285714286,142.74973067955375L612.9874285714286,181.95558734724634L615.4148571428572,250.42176215642513L616.0731428571429,236.92822533126963L617.3485714285714,272.1696572141426L618.5417142857142,288.49922589281664L619.5702857142857,288.6664162386624L619.776,335.31449808533006L620.3108571428571,326.3861304155291L621.0925714285714,298.5577944297374L622.8617142857142,281.8607928382622L623.6845714285714,247.7661396281283L626.0708571428572,240.15014226534134L626.7702857142857,190.63785299836496L627.8811428571429,167.35084667908492L628.2514285714285,158.19393333856658L628.7451428571428,163.93547306695226L629.2388571428571,247.63516765975143L629.856,185.49828733291145L630.0205714285714,157.84674003890694L630.72,202.24945065481384L632.2011428571428,134.19043491544076L632.8182857142857,85.32955140031413L633.3531428571429,67.24867898319388L633.8468571428571,86.89697502907649L633.8879999999999,92.26558541570034L634.0525714285715,87.46124753543086L635.2045714285715,127.91625886671753L638.2491428571428,148.9790520042956L639.7302857142857,182.4829664808977L641.9108571428571,180.1139997829477L642.0754285714286,188.32317062553648L642.8982857142856,204.48436086378618L644.9142857142857,241.467680841697L646.1074285714286,239.5812506139354L647.8354285714286,248.07994333863712L649.9337142857144,264.4148467061547L650.5508571428571,179.51514661774803L650.88,171.9129105834113L651.1268571428571,199.4534952895611L653.3074285714285,248.0797423992616L653.4308571428571,270.83512342417606L655.0765714285715,281.278138377931L656.1051428571428,300.3847118727364L656.3931428571428,318.26905325126637L657.2982857142857,304.9232058231353L658.6971428571428,359.51444318916316L660.1371428571429,302.38383395091245L661.0834285714285,316.2583128369782L661.7417142857142,311.74226568680604L663.9222857142856,273.72052744949815L664.7451428571429,335.97754571393097L664.8685714285714,323.5738054129777L665.2800000000001,362.67932887156593L665.5268571428571,373.30184838342535L666.432,360.4142283270827L669.8057142857143,354.28676312387404L675.6068571428572,278.3809873176839L675.8537142857142,203.94577912767096L676.8,159.28465421366312L678.3222857142857,114.831954332397L678.3634285714286,89.76541119349338L678.6102857142857,90.77643345315653L678.9805714285715,96.19833726000434L679.68,102.6616932053069L680.1737142857143,93.69891220919499L680.4205714285714,101.16203817482125L682.8480000000001,105.63991375419698L684.9051428571429,125.98266403468364L686.8388571428571,138.18831420297573L688.3199999999999,164.7728661081501L689.3074285714285,195.16946860440416L689.4308571428571,198.9615587490071L692.5165714285714,241.36421323402334L692.7634285714286,265.2006990944362L693.9977142857142,240.98029704302635L694.368,202.37160355693152L694.5325714285714,161.55036253241323L694.7794285714286,161.1340401322104L697.2068571428572,180.145378455547L698.5645714285714,124.13817521633356L698.6057142857143,93.74406693399942L698.9348571428571,144.52668498767017L699.0994285714286,179.81154627092246L699.7988571428572,138.3837472587081L701.3211428571428,86.24043197567784L702.432,58.16462642631245L703.2137142857142,55.76501444984268L704.5714285714286,60.74561450486647L704.6125714285714,63.7339745378809L705.6,130.9659983167838L708.768,97.84076079426961L711.36,66.72993054806432L713.088,60.90419692289379L713.2525714285714,47.77817584569175L715.0628571428571,99.29112540182433L715.8445714285715,131.80397192535972L718.6011428571429,115.99956989227633L720.9874285714286,146.64432907068067L721.6868571428572,161.8209709165296L721.9337142857142,177.34735330568563L725.2662857142857,193.0835800208259L726.4182857142856,186.47436790690466L727.1177142857143,204.98015602246306L727.2,190.40209984669323L728.5165714285715,220.1775597088887L729.792,210.75619975050404L732.2194285714286,227.5747592408664L738.1028571428571,248.90155262703928L739.0902857142858,236.0160996136381L739.4605714285714,241.12556228740894L739.7074285714286,218.5097108465664L741.6,203.33512319220492L741.7234285714285,173.36413200553284L742.5051428571429,232.42612442884462L743.2868571428572,259.837845811329L747.9359999999999,279.4950622612724L748.2651428571429,265.6078630861335L748.5120000000001,271.72141493419963L751.1039999999999,182.29401076471908L752.7085714285714,138.26811912438936L753.5725714285715,82.9608714746335L756,126.82111002009503L756.5348571428572,138.69138179422256L756.9462857142856,134.5778871667435L757.1108571428571,177.05248123956028L759.0445714285715,208.95760492415607L762.0068571428573,226.4956023450576L762.912,227.3878198954989L763.6114285714285,234.34351766666936L765.5039999999999,216.04562094546057L766.9028571428572,217.90761739454678L769.5771428571429,215.81463164354568L771.7988571428571,233.81997195640324L772.8685714285714,196.47033171510162L773.0742857142857,191.71657250318216L775.9954285714286,159.9726343512134L776.1600000000001,139.32116462943534L777.4765714285713,146.19141455982674L779.4925714285715,179.20530722436047L782.0434285714285,219.87988141713572L782.0845714285714,247.4948095532539L783.1131428571429,215.9108919651676L783.4834285714286,213.0114895553212L784.0594285714285,265.84511986081725L785.7874285714287,244.57713312330796L786.816,227.0010506297526L792.6582857142857,211.64014072331057L793.9337142857142,189.5828002161518L795.3325714285714,205.24013861815544L796.2788571428571,254.761912016871L797.8422857142856,257.18834018039854L798.2537142857143,239.38306531505677L799.776,233.51519084690148L800.1051428571429,236.41486344765502L800.6811428571428,241.36482058781908L801.1337142857143,237.9144276310118L801.8742857142856,240.6594823079772L801.9565714285714,255.1472796367089L802.9028571428572,257.41956075230115L802.944,252.36256218075084L802.9851428571429,230.06720123362143L803.1085714285714,205.45432697338813L803.8902857142858,221.18342191340287L805.3302857142858,217.78011435485945L806.0297142857142,228.57889434228576L806.6057142857143,241.47852957564734L807.4697142857142,247.61323392580834L807.8811428571429,212.77176296824746L808.2102857142858,193.47198722430784L808.6217142857142,231.65007303755706L810.6377142857143,305.9199826157166L810.9668571428571,267.01694394565055L812.2834285714285,160.21016636739031L812.8594285714286,182.80126785784864L813.1062857142857,273.4005158874388L813.6822857142856,298.8683219988939L814.0525714285715,272.4165284776567L814.3405714285715,227.65373969935652L814.3817142857142,205.61135688342623L814.5462857142857,261.4050402576803L815.5748571428571,282.0404557189392L815.9862857142857,300.84210227734127L816.8091428571429,220.63266176465916L817.3851428571429,235.10571323921533L818.8662857142857,253.42012502604862L819.648,275.6444297901042L821.664,216.74971596427244L821.7051428571427,158.94154224412134L821.9108571428571,183.64517017374325L823.0217142857143,111.79217889410194L824.5851428571427,108.8077845245715L829.1519999999999,127.88338649690837L829.5222857142857,173.0357808376592L830.1805714285715,222.59853282602083L830.304,215.41899728197714L830.6742857142857,222.34693364750663L831.8262857142857,197.61198280126632L833.2251428571428,251.7901253573345L833.2662857142857,290.7173781318812L833.76,206.53232316513947L835.3645714285714,255.5372227450615L836.393142857143,235.18221123340157L837.0925714285713,198.89275207115656L838.9028571428571,164.27834209199807L839.8902857142856,214.1338859581712L840.7954285714286,200.70962825916789L841.9474285714285,208.70602178277116L844.1691428571429,183.00703840077853L845.9794285714286,153.1418070591743L849.6411428571429,115.96153649075359L849.6822857142856,104.88903184165673L853.2617142857143,162.44932162422L853.5908571428572,206.61607639585756L855.4422857142857,270.0333460366416L857.9108571428573,248.69517565939938L860.4205714285714,213.42092800840211L860.7085714285715,253.24998836937235L861.9017142857143,310.85445774330316L863.424,322.94579394300945L864.1234285714287,322.17512159133054L865.8514285714286,313.68724410882044L867.8262857142857,326.2505725929168L869.472,343.41915058547426L870.5005714285713,358.5355577913176L871.2822857142856,247.22323096080135L871.4879999999999,186.85623214413826L872.4342857142857,198.78890732389743L872.8457142857142,265.3370445934656L873.3394285714286,303.6608201246096L874.2034285714286,299.368479608335L876.1371428571429,317.6593138926256L877.0011428571429,355.9204202981608L878.5234285714284,351.590478306521L879.1817142857143,328.1262745174819L881.568,354.1751226015718L883.3782857142857,324.8617706434625L883.5428571428571,313.6941267095029L884.5714285714287,319.83430487167954L885.6411428571429,323.5184117689856L892.1828571428571,293.6269495806174L892.8,365.5774539662048L892.9234285714285,317.2572981090929L893.8285714285713,265.7938892109147L894.0754285714286,260.59737291711275L895.0217142857143,300.81701711879793L896.0502857142857,257.53479740659367L896.6674285714286,270.0877591469287L898.3131428571428,285.64501026263224L898.56,291.7691773116015L899.136,332.3608642780437L899.5885714285714,218.67768037102547L899.9588571428573,136.0218986736651L901.8514285714286,105.68959145944808L902.1394285714287,101.93604844332629L902.3040000000001,126.97055850935519L902.5508571428571,127.5453931958231L904.9782857142857,129.49537079755973L906.0891428571429,143.50615192189522L907.0354285714285,100.54956250628658L909.9154285714286,92.43163378978267L910.8205714285714,110.03222198453244L912.1782857142857,115.77731449107347L912.5074285714286,120.8294467848541L912.8777142857143,125.46580295097831L913.1657142857142,128.2476166506529L914.8114285714285,125.10141441940794L915.3462857142856,108.76785176825234L915.552,118.22884594101725L915.7988571428571,117.48507520377063L915.9222857142857,120.2490264226164L919.0491428571429,112.27681625182424L919.0902857142858,113.91385739025463L919.1725714285715,126.13173976526858L920.9005714285714,115.80644425741554L921.0239999999999,135.29279599780867L922.2994285714286,179.08650332805522L923.4102857142857,181.28627547095422L923.5337142857143,142.47876839918013L923.7394285714287,157.71655772377332L925.4262857142857,142.7827790632802L926.0434285714285,120.98177738517268L926.6605714285714,123.95212452131352L927.0308571428571,85.60693240474359L927.1131428571429,77.04568848795122L928.7177142857144,140.928055201688L929.1291428571428,159.99634346647184L929.7051428571428,153.78123141099886L931.4742857142858,140.4215832756155L932.3794285714287,87.46313358582222L933.3257142857143,70.13393512509572L935.0125714285715,56.52623242820681L935.5474285714286,78.8584303062284L935.5885714285714,72.99658722884197L936.3702857142857,43.79795233730522L936.4114285714285,26.278771402383086L936.4937142857142,22.187630082335488L936.6994285714286,27.758449402550752L937.152,51.96717958873501L941.6777142857143,127.48605669275511L941.7188571428571,172.79738295516714L942.4182857142857,158.25167148376312L942.5828571428572,163.9701159540702L944.1051428571429,172.21644304656314L945.3805714285714,103.32986582793791L945.4217142857142,61.99791949676268L945.5451428571429,106.2178647618698L945.5862857142856,113.48870015747582L947.1908571428571,80.93398461703794L947.5611428571428,48.56039077022285L948.5485714285714,77.28907889114987L949.9062857142857,89.71103135339712L950.8937142857143,116.42533459420372L950.9348571428573,135.6641301998816L952.4159999999999,166.46853932674665L953.9794285714285,194.5817657049652L955.6251428571429,193.7936465582941L955.872,207.7666464234409L955.9542857142857,233.80647127539018L955.9954285714286,241.404922155798L957.2708571428572,220.2824636389377L957.6411428571429,173.90195537147292L957.8057142857143,168.54499583564623L960.4388571428572,157.3053460426474L963.1131428571429,189.0838497345056L964.0594285714285,185.67960652496836L964.7177142857144,201.2931155728484L967.5154285714286,229.9223527650347L967.6388571428571,223.0234728658385L967.8445714285714,271.8523098471277L970.6011428571428,277.0731597806521L971.3417142857143,313.91270289811524L974.4274285714287,295.88902837033885L976.0319999999999,313.96653631923084L976.0731428571429,310.36719977615763L978.6651428571429,308.2075978503136L979.2,269.9946199170058L979.6525714285715,247.06683315702116L982.5325714285715,222.07447336833377L983.0674285714286,224.73514250946457L984.2605714285714,194.2296176673915L984.3017142857143,174.32119593155073L985.9885714285714,133.4844302244884L986.976,161.95053572105778L987.2228571428572,198.2913608231986L988.0457142857143,247.38246171944405L988.2925714285715,246.3403027610366L989.1565714285714,203.9825301978816L989.4034285714285,193.01373801313812L991.872,196.06301356365069L994.2994285714285,125.66328220969311L995.616,117.13044651392624L995.904,134.48209052111812L999.3599999999999,119.21154788032834L1004.7085714285714,180.6734121495226L1005.7371428571428,211.13016347013348L1006.2719999999999,234.21950471354987L1007.3828571428572,244.86289579840582L1007.6708571428571,233.59290551645796L1008.1234285714286,278.19396943749933L1008.3291428571429,226.30491382421224L1008.6171428571428,193.56637362564314L1008.6582857142857,196.3945949311538L1009.2342857142856,153.14886690589685L1010.3862857142857,228.32243944056577L1013.2251428571428,209.22276034860465L1013.3485714285714,229.8648491794387L1014.7474285714285,247.06539292898879L1015.0765714285715,226.88889968256416L1016.4342857142857,248.49003689205807L1016.5165714285714,230.95389972159947L1018.0388571428572,268.58506184834056L1021.7828571428571,291.1637591243852L1021.8651428571428,275.81929486519505L1022.441142857143,237.7208736033821L1026.8434285714286,259.80451169559865L1027.1314285714286,176.74894561141429L1027.6251428571427,126.91560596090389L1029.641142857143,116.27676397479678L1029.7234285714287,164.46670049379532L1030.1760000000002,273.6354331609623L1030.2171428571428,334.3213823102127L1030.422857142857,319.36989370955297L1033.92,201.2525171278314L1034.0434285714286,223.42745841970412L1034.0845714285715,140.47684229272812L1040.0914285714287,182.19693110500685L1040.256,194.38821986982174L1040.297142857143,187.25715181630233L1040.9965714285715,184.58358777404655L1041.6137142857144,226.31703336740028L1042.0251428571428,260.9876515847712L1042.4777142857142,211.16583266152568L1042.6834285714287,186.0880317586281L1042.8891428571428,227.2196997581493L1043.0537142857142,205.35093291870177L1043.3005714285714,240.38254728479035L1044.288,251.77093500234392L1044.6994285714286,234.52751537762697L1045.769142857143,176.0286191737808L1045.8514285714286,184.26683542943937L1046.2217142857144,134.63655351291266L1047.6205714285713,183.50804828816754L1048.566857142857,211.22586836346443L1049.9657142857143,248.72279900269777L1050.6651428571429,272.8260341760938L1051.6525714285715,260.00136944517055L1052.4342857142858,255.5167241863284L1053.0102857142856,300.9788415415211L1054.368,272.0777634133771L1059.017142857143,219.42500658928608L1061.0331428571428,237.59130375444454L1063.5428571428572,274.17261109864444L1064.3657142857141,260.8093155987008L1064.8182857142856,236.74036011498822L1065.641142857143,215.878589543114L1068.1097142857143,142.3679182484209L1068.6445714285715,266.79653105464337L1070.1668571428572,283.6702734072612L1070.9897142857144,261.6926225328212L1071.4422857142856,327.15569593332805L1074.9805714285715,345.5673013795769L1075.392,348.5887905758235L1078.9714285714285,263.72651605615687L1081.193142857143,321.9556648064237L1082.7154285714284,332.8167018013347L1082.7977142857142,337.7282472084254L1083.990857142857,294.12740681351954L1085.5954285714286,271.17708619702887L1087.5702857142858,198.0183616654218L1089.5451428571428,279.32055851078866L1089.6274285714285,257.47768676434066L1089.9565714285716,311.7859699496872L1091.190857142857,278.56204045827667L1092.0137142857143,301.96523674139667L1092.1371428571429,245.38296465760052L1092.7131428571429,200.19791367462625L1095.0582857142856,192.34804488904103L1099.008,161.95659457258475L1100.8594285714287,172.61346708900976L1101.024,217.5298541257813L1103.4925714285714,266.9510317724963L1105.385142857143,246.84578710091228L1106.6194285714287,273.3049038248784L1107.5245714285716,261.89376802429706L1107.8537142857142,288.754089660556L1110.4457142857143,216.59003781504077L1112.8731428571427,239.1005061103501L1114.1074285714285,220.50489080152505L1114.7657142857142,220.5831793081854L1115.0125714285714,191.738439746624L1116.3702857142857,277.15771219010685L1117.5634285714286,225.68315947577685L1118.1394285714287,233.32072141483613L1119.4148571428573,225.06249405571933L1121.0194285714285,231.34324537294572L1124.5577142857144,154.85689536677282L1124.886857142857,102.54471812216332L1127.5611428571428,175.48860474567337L1128.5897142857143,232.09570124233193L1129.1245714285715,241.98353692581912L1129.3714285714286,249.52131512576733L1129.4125714285715,265.27966977843283L1129.4948571428572,252.26333714537998L1132.7451428571428,254.08411846764795L1135.1725714285715,284.06829992656657L1139.8628571428571,310.0842828734204L1140.48,319.2735054006269L1142.537142857143,197.9844704812818L1142.6194285714284,122.00086590922197L1143.7302857142859,97.27697180078218L1144.9234285714285,93.67829302767382L1146.2811428571429,157.32801520716822L1147.3097142857143,147.36494400436686L1149.8194285714285,165.46355353793513L1150.9714285714285,142.6157161414684L1151.1771428571428,148.16814546704657L1152.4937142857143,177.18113210749848L1153.9337142857144,225.08574358792436L1154.5919999999999,231.3571950922687L1155.2914285714285,247.96080047668684L1156.9782857142857,198.5344615863661L1159.1177142857143,265.1843771509468L1160.8457142857144,292.33356196714266L1161.4217142857142,323.06894421000965L1162.0800000000002,253.2298986877184L1162.944,304.4220066526639L1163.3142857142857,301.43026831502357L1163.9725714285714,232.2212190792241L1164.096,200.32637043984397L1166.5645714285713,166.74358990306644L1166.6057142857144,151.40921203204982L1167.1817142857142,174.31048159545063L1171.049142857143,112.61176302877311L1171.7074285714284,133.37598726062333L1172.2422857142856,112.12748864238483L1172.694857142857,100.98349630203865L1175.8217142857143,119.97862994293598L1176.3977142857143,89.64323293936383L1176.809142857143,66.6267042861707L1177.056,84.91871342100677L1179.5657142857144,95.89391890190814L1181.2937142857143,124.95035757436023L1183.5154285714286,84.60079544671567L1187.7942857142857,87.67766400508992L1189.357714285714,68.65754654605934L1191.2502857142856,102.18816691994522L1191.3325714285713,99.83519371962461L1192.9782857142857,103.238700250482L1193.0194285714285,97.2553300974937L1193.0605714285714,96.87549162615375L1193.7188571428571,95.04248171275282L1194.2537142857143,100.36307304635898L1194.336,98.74013739547286L1198.4091428571428,158.7599849565098L1199.6845714285714,201.1922907747787L1203.552,217.02112340438129L1204.1280000000002,253.80502881710396L1204.5805714285716,282.2957393056433L1207.2137142857143,193.45389583863493L1207.4605714285715,159.40992152188815L1207.7074285714286,155.03448507484555L1207.872,171.6703549700782L1207.913142857143,194.49267147051123L1208.489142857143,288.4408321265388L1210.998857142857,333.5740407874589L1212.6445714285715,344.60301784100557L1214.9074285714285,344.8000368322279L1216.1005714285714,341.70803456576743L1219.392,336.64264958543816L1219.8445714285715,365.70534492399247L1220.1737142857144,360.67161670247293L1222.1485714285716,344.81061524700857L1223.136,266.2749013099178L1224.7817142857143,198.28723435360808L1224.905142857143,258.6156435296453L1226.1805714285713,302.83819314751133L1226.592,292.4545061404293L1226.8799999999999,308.6956393608323L1227.4560000000001,307.2046616011186L1227.6205714285713,306.31007494529024L1229.9657142857143,302.5631092905994L1230.7885714285715,308.3404039692877L1230.912,311.8067807765006L1231.776,288.20510785646434L1233.3394285714285,286.884838586254L1234.2445714285714,217.07359400105656" style="fill: none;" fill="none"></path></g></g></g></g><g opacity="0.2"><g><g><g><path stroke="rgb(255, 112, 67)" stroke-width="2px" d="M91.25485714285713,64.20382261276245L92.24228571428571,100.31850099563599L92.36571428571428,56.17828845977783L93.43542857142857,92.29296684265137L94.38171428571428,52.16559648513794L97.01485714285714,68.21651458740234L97.38514285714285,84.26750779151917L99.936,136.4331042766571L100.14171428571429,108.34396004676819L101.00571428571429,24.076452255249023L101.74628571428572,100.31850099563599L103.18628571428573,92.29296684265137L103.26857142857143,48.15290451049805L103.59771428571429,72.22928166389465L107.83542857142858,92.29296684265137L109.44,104.33119297027588L110.01599999999999,76.24204874038696L112.56685714285715,72.22928166389465L113.67771428571429,52.16559648513794L114.336,116.36941909790039L114.62400000000001,140.44587135314939L116.59885714285714,116.36941909790039L117.13371428571429,180.5732417106628L117.70971428571428,92.29296684265137L118.12114285714284,160.5095565319061L119.89028571428572,168.53501558303833L120.21942857142858,140.44587135314939L121.98857142857143,208.66238594055173L122.23542857142857,188.59877586364743L122.81142857142856,180.5732417106628L122.89371428571428,112.3567271232605L123.51085714285713,84.26750779151917L123.75771428571429,60.19113063812256L124.9097142857143,32.101911306381226L129.39428571428573,28.089144229888916L130.464,204.64969396591184L130.50514285714286,192.61146783828733L130.752,72.22928166389465L131.86285714285714,64.20382261276245L132.23314285714287,228.72614622116086L134.24914285714286,140.44587135314939L134.37257142857143,188.59877586364743L135.48342857142856,120.38211107254028L135.936,88.28027486801147L138.28114285714287,44.14013743400574L139.06285714285715,168.53501558303833L142.39542857142857,276.87897562980646L144.6582857142857,196.62415981292722L144.7817142857143,144.45856332778928L145.35771428571428,148.47133040428162L145.52228571428572,80.25474071502686L147.49714285714285,152.4840974807739L147.78514285714286,88.28027486801147L148.69028571428572,84.26750779151917L149.184,180.5732417106628L149.59542857142858,24.076452255249023L150.8297142857143,20.063685178756714L151.28228571428573,68.21651458740234L151.85828571428573,140.44587135314939L153.17485714285715,148.47133040428162L154.368,92.29296684265137L155.0262857142857,280.8917427062988L155.68457142857145,100.31850099563599L155.84914285714285,128.4076452255249L156.54857142857142,192.61146783828733L157.98857142857142,288.917201757431L160.08685714285716,312.9935789108276L160.82742857142858,80.25474071502686L161.19771428571428,276.87897562980646L161.7737142857143,212.67515301704404L161.856,52.16559648513794L161.97942857142857,212.67515301704404L163.7897142857143,164.52232360839844L165.64114285714285,216.68792009353635L166.38171428571428,276.87897562980646L166.752,144.45856332778928L167.28685714285714,300.9554278850555L167.4102857142857,212.67515301704404L167.7394285714286,244.77706432342526L169.38514285714285,296.9426608085632L170.08457142857142,252.80259847640988L170.61942857142859,172.5477826595306L172.84114285714287,224.71337914466855L174.28114285714287,0L175.96800000000002,136.4331042766571L176.29714285714286,104.33119297027588L176.4617142857143,272.86620855331415L176.74971428571428,228.72614622116086L180.49371428571428,329.0445721149444L180.98742857142858,28.089144229888916L181.48114285714286,288.917201757431L182.30399999999997,337.0700311660766L182.50971428571427,224.71337914466855L182.55085714285713,292.9299688339233L183.3737142857143,228.72614622116086L183.57942857142856,276.87897562980646L185.43085714285712,308.9808869361877L185.92457142857143,272.86620855331415L187.36457142857142,317.0063459873199L188.80457142857142,184.5859336853027L188.84571428571428,136.4331042766571L188.92800000000003,36.114678382873535L190.73828571428572,68.21651458740234L191.4377142857143,108.34396004676819L191.52,236.75160527229306L191.7257142857143,212.67515301704404L192.75428571428574,116.36941909790039L192.79542857142854,216.68792009353635L193.20685714285716,268.85351657867426L193.28914285714285,28.089144229888916L193.49485714285711,88.28027486801147L194.688,200.63692688941953L195.30514285714287,248.78975629806516L195.552,224.71337914466855L200.98285714285714,88.28027486801147L203.2457142857143,172.5477826595306L203.82171428571428,132.4203372001648L205.26171428571428,68.21651458740234L209.66400000000002,240.76437234878537L212.58514285714287,16.050918102264404L214.39542857142857,297.19350099563593L215.5062857142857,0L215.6297142857143,0L218.01600000000002,24.076452255249023L220.56685714285715,44.14013743400574L222.00685714285714,28.089144229888916L223.40571428571428,64.20382261276245L223.9817142857143,80.25474071502686L224.064,80.25474071502686L224.10514285714285,72.22928166389465L226.49142857142857,120.38211107254028L229.41257142857143,116.36941909790039L230.72914285714288,80.25474071502686L231.63428571428574,100.31850099563599L232.416,80.25474071502686L233.69142857142856,128.4076452255249L238.6285714285714,168.53501558303833L239.36914285714283,168.53501558303833L239.45142857142858,244.77706432342526L241.50857142857143,228.72614622116086L243.81257142857143,196.62415981292722L244.42971428571428,268.85351657867426L246.56914285714285,184.5859336853027L247.43314285714288,80.25474071502686L247.63885714285715,220.70061206817624L247.72114285714284,152.4840974807739L249.4902857142857,212.67515301704404L252.12342857142858,292.9299688339233L253.27542857142856,381.21016860008234L254.42742857142855,144.45856332778928L256.44342857142857,304.9681949615478L256.56685714285715,292.9299688339233L259.1177142857143,196.62415981292722L259.5702857142857,228.72614622116086L262.5737142857143,240.76437234878537L263.1497142857143,329.0445721149444L263.39657142857146,288.917201757431L264.4251428571428,212.67515301704404L264.6308571428571,224.71337914466855L265.90628571428573,148.47133040428162L266.0297142857143,300.9554278850555L267.5931428571429,192.61146783828733L268.128,264.840749502182L268.2102857142857,200.63692688941953L271.54285714285714,136.4331042766571L272.9005714285714,220.70061206817624L275.32800000000003,152.4840974807739L276.0274285714286,252.80259847640988L276.89142857142855,260.82798242568964L280.9234285714286,220.70061206817624L282.40457142857144,88.28027486801147L282.5691428571428,312.9935789108276L282.8982857142857,208.66238594055173L285.9428571428571,240.76437234878537L287.50628571428575,256.8152904510498L288,252.80259847640988L288.0822857142857,244.77706432342526L289.6457142857143,188.59877586364743L290.1394285714286,204.64969396591184L291.86742857142855,60.19113063812256L294.6651428571429,200.63692688941953L295.03542857142855,144.45856332778928L295.1588571428572,272.86620855331415L298.2857142857143,72.22928166389465L298.368,140.44587135314939L300.5897142857143,196.62415981292722L301.7417142857143,325.0318050384521L304.45714285714286,248.78975629806516L306.0617142857143,100.31850099563599L309.7645714285714,176.56054973602292L310.42285714285714,325.0318050384521L310.9988571428571,160.5095565319061L313.50857142857143,4.012691974639893L314.41371428571426,164.52232360839844L317.41714285714284,112.3567271232605L317.49942857142855,152.4840974807739L318.81600000000003,240.76437234878537L320.37942857142855,284.90443468093866L323.3828571428571,152.4840974807739L323.5474285714286,365.15925049781794L324.16457142857143,124.39495325088501L325.8514285714286,212.67515301704404L325.97485714285716,132.4203372001648L329.472,140.44587135314939L330.1714285714286,212.67515301704404L330.29485714285715,168.53501558303833L331.6937142857143,44.14013743400574L331.776,325.0318050384521L332.064,84.26750779151917L333.5451428571429,196.62415981292722L334.40914285714285,24.076452255249023L335.3965714285714,136.4331042766571L335.84914285714285,168.53501558303833L336.96000000000004,264.840749502182L337.78285714285715,68.21651458740234L337.98857142857145,192.61146783828733L342.3497142857143,248.78975629806516L342.76114285714283,337.0700311660766L344.8182857142857,184.5859336853027L345.59999999999997,168.53501558303833L346.13485714285713,337.0700311660766L346.3817142857143,136.4331042766571L346.91657142857144,228.72614622116086L349.2617142857143,160.5095565319061L350.208,357.13379144668573L350.41371428571426,284.90443468093866L351.4011428571429,296.9426608085632L352.3062857142857,401.27385377883905L352.84114285714287,80.25474071502686L353.8285714285714,92.29296684265137L357.7782857142857,216.68792009353635L357.9428571428572,232.73883819580075L358.7657142857143,264.840749502182L360.98742857142855,220.70061206817624L361.39885714285714,224.71337914466855L362.1805714285714,244.77706432342526L364.4022857142857,160.5095565319061L364.77257142857144,164.52232360839844L366.0068571428571,136.4331042766571L366.1302857142857,304.9681949615478L366.62399999999997,36.114678382873535L367.73485714285715,240.76437234878537L367.89942857142853,132.4203372001648L372.17828571428566,144.45856332778928L372.5074285714286,100.31850099563599L373.12457142857147,124.39495325088501L377.11542857142854,168.53501558303833L378.18514285714286,212.67515301704404L379.0902857142857,148.47133040428162L382.8754285714286,72.22928166389465L383.2045714285714,116.36941909790039L384.8914285714286,196.62415981292722L387.4011428571429,204.64969396591184L388.67657142857144,164.52232360839844L391.3097142857143,280.8917427062988L392.05028571428574,373.18470954895014L392.46171428571427,160.5095565319061L392.5028571428571,160.5095565319061L393.2845714285714,304.9681949615478L394.23085714285713,80.25474071502686L395.01257142857145,0L396.6171428571428,84.26750779151917L397.0285714285714,80.25474071502686L397.44000000000005,80.25474071502686L397.5634285714285,92.29296684265137L398.1805714285714,120.38211107254028L399.5382857142857,24.076452255249023L403.5702857142857,12.038226127624512L405.0102857142857,100.31850099563599L405.70971428571426,108.34396004676819L406.7794285714286,8.025459051132202L407.02628571428573,4.012691974639893L409.78285714285715,44.14013743400574L410.60571428571427,36.114678382873535L410.93485714285714,40.12737035751343L411.34628571428567,32.101911306381226L412.78628571428567,44.14013743400574L415.54285714285714,60.19113063812256L416.85942857142857,0L419.2868571428572,41.036553382873535L420.72685714285717,36.114678382873535L421.17942857142856,40.12737035751343L421.67314285714286,12.038226127624512L422.3725714285714,0L427.0628571428572,32.101911306381226L427.22742857142856,12.038226127624512L428.5028571428572,48.15290451049805L428.7497142857143,76.24204874038696L431.5885714285714,40.12737035751343L433.39885714285714,12.038226127624512L433.6457142857143,20.063685178756714L434.59200000000004,16.050918102264404L434.7977142857143,56.17828845977783L435.168,44.14013743400574L438.8708571428572,76.24204874038696L438.99428571428575,96.30573391914368L440.1462857142857,56.17828845977783L440.55771428571427,88.28027486801147L442.94399999999996,48.15290451049805L444.38399999999996,32.101911306381226L445.74171428571424,116.36941909790039L445.7828571428571,160.5095565319061L446.1531428571429,136.4331042766571L448.0457142857143,180.5732417106628L448.25142857142856,16.050918102264404L453.3531428571428,240.76437234878537L453.4765714285714,14.499163627624512L454.3405714285714,87.90401458740234L455.7805714285714,20.063685178756714L456.06857142857143,40.12737035751343L456.768,40.12737035751343L456.8502857142857,72.22928166389465L456.9737142857143,60.19113063812256L457.8377142857143,0L458.12571428571425,4.012691974639893L459.07199999999995,16.050918102264404L459.77142857142854,44.14013743400574L460.51199999999994,40.12737035751343L460.75885714285715,56.17828845977783L461.1702857142857,92.29296684265137L463.0628571428571,104.33119297027588L463.39199999999994,44.14013743400574L470.0982857142857,92.29296684265137L470.38628571428575,136.4331042766571L471.4971428571428,128.4076452255249L473.4308571428571,80.25474071502686L473.8011428571429,32.101911306381226L475.11771428571427,96.30573391914368L475.9817142857143,108.34396004676819L477.7508571428571,156.4967894554138L477.8742857142857,76.24204874038696L478.6971428571428,132.4203372001648L478.9851428571429,116.36941909790039L480.0548571428572,76.24204874038696L482.9348571428572,180.5732417106628L483.30514285714287,20.063685178756714L483.5931428571428,136.4331042766571L484.128,104.33119297027588L485.0331428571428,188.59877586364743L486.59657142857145,152.4840974807739L487.8308571428571,148.47133040428162L488.77714285714285,188.59877586364743L489.5177142857143,112.3567271232605L492.3977142857143,168.53501558303833L495.35999999999996,60.19113063812256L495.48342857142853,264.840749502182L497.1291428571429,260.82798242568964L498.11657142857143,260.82798242568964L500.79085714285713,228.72614622116086L503.99999999999994,124.39495325088501L504.2057142857143,292.9299688339233L504.32914285714287,108.34396004676819L505.3988571428571,284.90443468093866L507.20914285714287,377.19747662544245L507.86742857142855,4.012691974639893L508.8548571428571,108.34396004676819L509.55428571428575,112.3567271232605L512.4754285714286,304.9681949615478L513.2982857142857,20.063685178756714L513.5862857142857,128.4076452255249L518.2354285714287,76.24204874038696L518.3588571428571,48.15290451049805L519.2228571428572,92.29296684265137L519.4285714285714,96.30573391914368L521.6502857142857,104.33119297027588L522.0617142857143,148.47133040428162L522.2262857142857,108.34396004676819L523.4194285714286,164.52232360839844L524.736,104.33119297027588L524.7771428571428,104.33119297027588L526.9165714285714,144.45856332778928L527.616,192.61146783828733L528.192,264.840749502182L528.8502857142856,200.63692688941953L529.5497142857143,196.62415981292722L531.1954285714286,176.56054973602292L533.088,284.90443468093866L533.1291428571428,260.82798242568964L534.0342857142857,204.64969396591184L534.3222857142857,284.90443468093866L535.4742857142857,296.9426608085632L535.8857142857144,80.25474071502686L536.0914285714285,264.840749502182L536.544,172.5477826595306L536.9142857142857,240.76437234878537L537.4902857142857,128.4076452255249L539.0537142857142,260.82798242568964L539.1771428571428,252.80259847640988L540.576,272.86620855331415L540.7405714285713,292.9299688339233L541.6868571428571,248.78975629806516L541.9337142857142,280.8917427062988L542.016,280.8917427062988L543.6617142857143,264.840749502182L543.9085714285715,112.3567271232605L544.4434285714286,236.75160527229306L544.6491428571428,292.9299688339233L547.2822857142858,256.8152904510498L548.064,208.66238594055173L548.4342857142857,192.61146783828733L550.2857142857142,144.45856332778928L551.232,369.17201757431025L551.3142857142857,244.77706432342526L551.3554285714285,188.59877586364743L553.7828571428571,268.85351657867426L554.2765714285714,288.917201757431L557.9382857142857,240.76437234878537L560.3245714285714,312.9935789108276L562.5051428571429,365.15925049781794L563.328,208.66238594055173L564.6034285714285,280.8917427062988L564.9737142857143,212.67515301704404L565.6731428571428,244.77706432342526L566.0022857142858,104.33119297027588L566.3725714285714,272.86620855331415L567.648,196.62415981292722L569.2525714285714,288.917201757431L569.7462857142857,184.5859336853027L570.6925714285715,176.56054973602292L571.2685714285715,164.52232360839844L571.3508571428571,288.917201757431L572.832,288.917201757431L574.3131428571428,373.18470954895014L575.424,124.39495325088501L577.2754285714286,325.0318050384521L579.0034285714286,204.64969396591184L581.472,337.0700311660766L582.0068571428571,228.72614622116086L582.0891428571429,373.18470954895014L582.9531428571429,204.64969396591184L583.1588571428572,160.5095565319061L583.7348571428571,300.9554278850555L584.352,308.9808869361877L584.64,381.21016860008234L585.4217142857143,176.56054973602292L585.9154285714286,164.52232360839844L589.9062857142857,345.0955653190612L590.5234285714286,236.75160527229306L590.976,272.86620855331415L591.1405714285714,284.90443468093866L591.7988571428572,357.13379144668573L593.1565714285715,365.15925049781794L593.5268571428571,80.25474071502686L596.16,164.52232360839844L596.2834285714285,288.917201757431L596.9417142857143,228.72614622116086L600.5211428571429,308.9808869361877L600.8914285714285,288.917201757431L602.1668571428571,208.66238594055173L603.072,256.8152904510498L603.9771428571429,188.59877586364743L606.9805714285715,272.86620855331415L609.9428571428572,20.063685178756714L611.8354285714286,124.39495325088501L612.9874285714286,240.76437234878537L615.4148571428572,353.1210243701934L616.0731428571429,216.68792009353635L617.3485714285714,325.0318050384521L618.5417142857142,312.9935789108276L619.5702857142857,288.917201757431L619.776,405.28662085533136L620.3108571428571,312.9935789108276L621.0925714285714,256.8152904510498L622.8617142857142,256.8152904510498L623.6845714285714,196.62415981292722L626.0708571428572,228.72614622116086L626.7702857142857,116.36941909790039L627.8811428571429,132.4203372001648L628.2514285714285,144.45856332778928L628.7451428571428,172.5477826595306L629.2388571428571,373.18470954895014L629.856,92.29296684265137L630.0205714285714,116.36941909790039L630.72,268.85351657867426L632.2011428571428,32.101911306381226L632.8182857142857,12.038226127624512L633.3531428571429,40.12737035751343L633.8468571428571,116.36941909790039L633.8879999999999,100.31850099563599L634.0525714285715,80.25474071502686L635.2045714285715,188.59877586364743L638.2491428571428,180.5732417106628L639.7302857142857,232.73883819580075L641.9108571428571,176.56054973602292L642.0754285714286,200.63692688941953L642.8982857142856,228.72614622116086L644.9142857142857,296.9426608085632L646.1074285714286,236.75160527229306L647.8354285714286,260.82798242568964L649.9337142857144,288.917201757431L650.5508571428571,52.16559648513794L650.88,160.5095565319061L651.1268571428571,240.76437234878537L653.3074285714285,321.0191130638122L653.4308571428571,304.9681949615478L655.0765714285715,296.9426608085632L656.1051428571428,329.0445721149444L656.3931428571428,345.0955653190612L657.2982857142857,284.90443468093866L658.6971428571428,441.4012992382049L660.1371428571429,216.68792009353635L661.0834285714285,337.0700311660766L661.7417142857142,304.9681949615478L663.9222857142856,216.68792009353635L664.7451428571429,429.3630731105804L664.8685714285714,304.9681949615478L665.2800000000001,421.3376140594482L665.5268571428571,389.23562765121454L666.432,341.0827982425689L669.8057142857143,345.0955653190612L675.6068571428572,164.52232360839844L675.8537142857142,92.29296684265137L676.8,92.29296684265137L678.3222857142857,48.15290451049805L678.3634285714286,52.16559648513794L678.6102857142857,92.29296684265137L678.9805714285715,104.33119297027588L679.68,112.3567271232605L680.1737142857143,80.25474071502686L680.4205714285714,112.3567271232605L682.8480000000001,112.3567271232605L684.9051428571429,156.4967894554138L686.8388571428571,156.4967894554138L688.3199999999999,204.64969396591184L689.3074285714285,240.76437234878537L689.4308571428571,204.64969396591184L692.5165714285714,304.9681949615478L692.7634285714286,300.9554278850555L693.9977142857142,204.64969396591184L694.368,144.45856332778928L694.5325714285714,100.31850099563599L694.7794285714286,160.5095565319061L697.2068571428572,208.66238594055173L698.5645714285714,40.12737035751343L698.6057142857143,48.15290451049805L698.9348571428571,220.70061206817624L699.0994285714286,232.73883819580075L699.7988571428572,76.24204874038696L701.3211428571428,8.025459051132202L702.432,16.050918102264404L703.2137142857142,52.16559648513794L704.5714285714286,68.21651458740234L704.6125714285714,68.21651458740234L705.6,231.8140339851379L708.768,48.15290451049805L711.36,20.063685178756714L713.088,52.16559648513794L713.2525714285714,28.089144229888916L715.0628571428571,176.56054973602292L715.8445714285715,180.5732417106628L718.6011428571429,92.29296684265137L720.9874285714286,192.61146783828733L721.6868571428572,184.5859336853027L721.9337142857142,200.63692688941953L725.2662857142857,216.68792009353635L726.4182857142856,176.56054973602292L727.1177142857143,232.73883819580075L727.2,168.53501558303833L728.5165714285715,264.840749502182L729.792,196.62415981292722L732.2194285714286,252.80259847640988L738.1028571428571,280.8917427062988L739.0902857142858,216.68792009353635L739.4605714285714,248.78975629806516L739.7074285714286,184.5859336853027L741.6,180.5732417106628L741.7234285714285,128.4076452255249L742.5051428571429,321.0191130638122L743.2868571428572,300.9554278850555L747.9359999999999,308.9808869361877L748.2651428571429,244.77706432342526L748.5120000000001,280.8917427062988L751.1039999999999,48.15290451049805L752.7085714285714,72.22928166389465L753.5725714285715,0L756,192.61146783828733L756.5348571428572,156.4967894554138L756.9462857142856,128.4076452255249L757.1108571428571,240.76437234878537L759.0445714285715,256.8152904510498L762.0068571428573,252.80259847640988L762.912,228.72614622116086L763.6114285714285,244.77706432342526L765.5039999999999,188.59877586364743L766.9028571428572,220.70061206817624L769.5771428571429,212.67515301704404L771.7988571428571,260.82798242568964L772.8685714285714,140.44587135314939L773.0742857142857,184.5859336853027L775.9954285714286,112.3567271232605L776.1600000000001,108.34396004676819L777.4765714285713,156.4967894554138L779.4925714285715,228.72614622116086L782.0434285714285,280.8917427062988L782.0845714285714,288.917201757431L783.1131428571429,168.53501558303833L783.4834285714286,208.66238594055173L784.0594285714285,345.0955653190612L785.7874285714287,212.67515301704404L786.816,200.63692688941953L792.6582857142857,188.59877586364743L793.9337142857142,156.4967894554138L795.3325714285714,228.72614622116086L796.2788571428571,329.0445721149444L797.8422857142856,260.82798242568964L798.2537142857143,212.67515301704404L799.776,224.71337914466855L800.1051428571429,240.76437234878537L800.6811428571428,248.78975629806516L801.1337142857143,232.73883819580075L801.8742857142856,244.77706432342526L801.9565714285714,276.87897562980646L802.9028571428572,260.82798242568964L802.944,244.77706432342526L802.9851428571429,196.62415981292722L803.1085714285714,168.53501558303833L803.8902857142858,244.77706432342526L805.3302857142858,212.67515301704404L806.0297142857142,244.77706432342526L806.6057142857143,260.82798242568964L807.4697142857142,256.8152904510498L807.8811428571429,160.5095565319061L808.2102857142858,164.52232360839844L808.6217142857142,288.917201757431L810.6377142857143,417.3248469829559L810.9668571428571,208.66238594055173L812.2834285714285,0L812.8594285714286,216.68792009353635L813.1062857142857,409.2993879318237L813.6822857142856,337.0700311660766L814.0525714285715,232.73883819580075L814.3405714285715,160.5095565319061L814.3817142857142,172.5477826595306L814.5462857142857,345.0955653190612L815.5748571428571,312.9935789108276L815.9862857142857,329.0445721149444L816.8091428571429,100.31850099563599L817.3851428571429,256.8152904510498L818.8662857142857,280.8917427062988L819.648,308.9808869361877L821.664,128.4076452255249L821.7051428571427,72.22928166389465L821.9108571428571,220.70061206817624L823.0217142857143,4.012691974639893L824.5851428571427,104.33119297027588L829.1519999999999,156.4967894554138L829.5222857142857,240.76437234878537L830.1805714285715,296.9426608085632L830.304,204.64969396591184L830.6742857142857,232.73883819580075L831.8262857142857,160.5095565319061L833.2251428571428,333.0573391914367L833.2662857142857,349.1082572937011L833.76,80.25474071502686L835.3645714285714,329.0445721149444L836.393142857143,204.64969396591184L837.0925714285713,144.45856332778928L838.9028571428571,112.3567271232605L839.8902857142856,288.917201757431L840.7954285714286,180.5732417106628L841.9474285714285,220.70061206817624L844.1691428571429,144.45856332778928L845.9794285714286,108.34396004676819L849.6411428571429,60.19113063812256L849.6822857142856,88.28027486801147L853.2617142857143,248.78975629806516L853.5908571428572,272.86620855331415L855.4422857142857,365.15925049781794L857.9108571428573,216.68792009353635L860.4205714285714,160.5095565319061L860.7085714285715,312.9935789108276L861.9017142857143,397.26116180419916L863.424,341.0827982425689L864.1234285714287,321.0191130638122L865.8514285714286,300.9554278850555L867.8262857142857,345.0955653190612L869.472,369.17201757431025L870.5005714285713,381.21016860008234L871.2822857142856,80.25474071502686L871.4879999999999,96.30573391914368L872.4342857142857,216.68792009353635L872.8457142857142,365.15925049781794L873.3394285714286,361.1464834213256L874.2034285714286,292.9299688339233L876.1371428571429,345.0955653190612L877.0011428571429,413.31207990646357L878.5234285714284,345.0955653190612L879.1817142857143,292.9299688339233L881.568,393.24839472770685L883.3782857142857,280.8917427062988L883.5428571428571,296.9426608085632L884.5714285714287,329.0445721149444L885.6411428571429,329.0445721149444L892.1828571428571,248.78975629806516L892.8,473.5032105445861L892.9234285714285,244.77706432342526L893.8285714285713,188.59877586364743L894.0754285714286,252.80259847640988L895.0217142857143,361.1464834213256L896.0502857142857,192.61146783828733L896.6674285714286,288.917201757431L898.3131428571428,308.9808869361877L898.56,300.9554278850555L899.136,393.24839472770685L899.5885714285714,48.15290451049805L899.9588571428573,12.038226127624512L901.8514285714286,60.19113063812256L902.1394285714287,96.30573391914368L902.3040000000001,164.52232360839844L902.5508571428571,128.4076452255249L904.9782857142857,132.4203372001648L906.0891428571429,164.52232360839844L907.0354285714285,36.114678382873535L909.9154285714286,80.25474071502686L910.8205714285714,136.4331042766571L912.1782857142857,124.39495325088501L912.5074285714286,128.4076452255249L912.8777142857143,132.4203372001648L913.1657142857142,132.4203372001648L914.8114285714285,120.38211107254028L915.3462857142856,84.26750779151917L915.552,132.4203372001648L915.7988571428571,116.36941909790039L915.9222857142857,124.39495325088501L919.0491428571429,100.31850099563599L919.0902857142858,116.36941909790039L919.1725714285715,144.45856332778928L920.9005714285714,100.31850099563599L921.0239999999999,164.52232360839844L922.2994285714286,244.77706432342526L923.4102857142857,184.5859336853027L923.5337142857143,84.26750779151917L923.7394285714287,180.5732417106628L925.4262857142857,120.38211107254028L926.0434285714285,88.28027486801147L926.6605714285714,128.4076452255249L927.0308571428571,28.089144229888916L927.1131428571429,64.20382261276245L928.7177142857144,236.75160527229306L929.1291428571428,188.59877586364743L929.7051428571428,144.45856332778928L931.4742857142858,120.38211107254028L932.3794285714287,8.025459051132202L933.3257142857143,44.14013743400574L935.0125714285715,36.114678382873535L935.5474285714286,112.3567271232605L935.5885714285714,64.20382261276245L936.3702857142857,0L936.4114285714285,0L936.4937142857142,16.050918102264404L936.6994285714286,36.114678382873535L937.152,88.28027486801147L941.6777142857143,240.76437234878537L941.7188571428571,240.76437234878537L942.4182857142857,136.4331042766571L942.5828571428572,172.5477826595306L944.1051428571429,184.5859336853027L945.3805714285714,0L945.4217142857142,0L945.5451428571429,172.5477826595306L945.5862857142856,124.39495325088501L947.1908571428571,32.101911306381226L947.5611428571428,0L948.5485714285714,120.38211107254028L949.9062857142857,108.34396004676819L950.8937142857143,156.4967894554138L950.9348571428573,164.52232360839844L952.4159999999999,212.67515301704404L953.9794285714285,236.75160527229306L955.6251428571429,192.61146783828733L955.872,228.72614622116086L955.9542857142857,272.86620855331415L955.9954285714286,252.80259847640988L957.2708571428572,188.59877586364743L957.6411428571429,104.33119297027588L957.8057142857143,160.5095565319061L960.4388571428572,140.44587135314939L963.1131428571429,236.75160527229306L964.0594285714285,180.5732417106628L964.7177142857144,224.71337914466855L967.5154285714286,272.86620855331415L967.6388571428571,212.67515301704404L967.8445714285714,345.0955653190612L970.6011428571428,284.90443468093866L971.3417142857143,369.17201757431025L974.4274285714287,268.85351657867426L976.0319999999999,341.0827982425689L976.0731428571429,304.9681949615478L978.6651428571429,304.9681949615478L979.2,212.67515301704404L979.6525714285715,212.67515301704404L982.5325714285715,184.5859336853027L983.0674285714286,228.72614622116086L984.2605714285714,148.47133040428162L984.3017142857143,144.45856332778928L985.9885714285714,72.22928166389465L986.976,204.64969396591184L987.2228571428572,252.80259847640988L988.0457142857143,321.0191130638122L988.2925714285715,244.77706432342526L989.1565714285714,140.44587135314939L989.4034285714285,176.56054973602292L991.872,200.63692688941953L994.2994285714285,20.063685178756714L995.616,104.33119297027588L995.904,160.5095565319061L999.3599999999999,96.30573391914368L1004.7085714285714,272.86620855331415L1005.7371428571428,256.8152904510498L1006.2719999999999,268.85351657867426L1007.3828571428572,260.82798242568964L1007.6708571428571,216.68792009353635L1008.1234285714286,345.0955653190612L1008.3291428571429,148.47133040428162L1008.6171428571428,144.45856332778928L1008.6582857142857,200.63692688941953L1009.2342857142856,88.28027486801147L1010.3862857142857,341.0827982425689L1013.2251428571428,180.5732417106628L1013.3485714285714,260.82798242568964L1014.7474285714285,272.86620855331415L1015.0765714285715,196.62415981292722L1016.4342857142857,280.8917427062988L1016.5165714285714,204.64969396591184L1018.0388571428572,325.0318050384521L1021.7828571428571,325.0318050384521L1021.8651428571428,252.80259847640988L1022.441142857143,180.5732417106628L1026.8434285714286,292.9299688339233L1027.1314285714286,52.16559648513794L1027.6251428571427,52.16559648513794L1029.641142857143,100.31850099563599L1029.7234285714287,236.75160527229306L1030.1760000000002,437.3885321617126L1030.2171428571428,425.3503060340881L1030.422857142857,296.9426608085632L1033.92,24.076452255249023L1034.0434285714286,256.6898703575134L1034.0845714285715,16.050918102264404L1040.0914285714287,244.77706432342526L1040.256,212.67515301704404L1040.297142857143,176.56054973602292L1040.9965714285715,180.5732417106628L1041.6137142857144,288.917201757431L1042.0251428571428,312.9935789108276L1042.4777142857142,136.4331042766571L1042.6834285714287,148.47133040428162L1042.8891428571428,288.917201757431L1043.0537142857142,172.5477826595306L1043.3005714285714,292.9299688339233L1044.288,268.85351657867426L1044.6994285714286,208.66238594055173L1045.769142857143,88.28027486801147L1045.8514285714286,196.62415981292722L1046.2217142857144,60.19113063812256L1047.6205714285713,256.8152904510498L1048.566857142857,252.80259847640988L1049.9657142857143,304.9681949615478L1050.6651428571429,308.9808869361877L1051.6525714285715,240.76437234878537L1052.4342857142858,248.78975629806516L1053.0102857142856,369.17201757431025L1054.368,228.72614622116086L1059.017142857143,140.44587135314939L1061.0331428571428,264.840749502182L1063.5428571428572,329.0445721149444L1064.3657142857141,240.76437234878537L1064.8182857142856,200.63692688941953L1065.641142857143,184.5859336853027L1068.1097142857143,32.101911306381226L1068.6445714285715,453.439450263977L1070.1668571428572,308.9808869361877L1070.9897142857144,228.72614622116086L1071.4422857142856,425.3503060340881L1074.9805714285715,373.18470954895014L1075.392,353.1210243701934L1078.9714285714285,136.4331042766571L1081.193142857143,409.2993879318237L1082.7154285714284,349.1082572937011L1082.7977142857142,345.0955653190612L1083.990857142857,228.72614622116086L1085.5954285714286,236.75160527229306L1087.5702857142858,88.28027486801147L1089.5451428571428,401.27385377883905L1089.6274285714285,224.71337914466855L1089.9565714285716,393.24839472770685L1091.190857142857,228.72614622116086L1092.0137142857143,337.0700311660766L1092.1371428571429,160.5095565319061L1092.7131428571429,132.4203372001648L1095.0582857142856,180.5732417106628L1099.008,116.36941909790039L1100.8594285714287,188.59877586364743L1101.024,284.90443468093866L1103.4925714285714,341.0827982425689L1105.385142857143,216.68792009353635L1106.6194285714287,312.9935789108276L1107.5245714285716,244.77706432342526L1107.8537142857142,329.0445721149444L1110.4457142857143,108.34396004676819L1112.8731428571427,272.86620855331415L1114.1074285714285,192.61146783828733L1114.7657142857142,220.70061206817624L1115.0125714285714,148.47133040428162L1116.3702857142857,405.28662085533136L1117.5634285714286,148.47133040428162L1118.1394285714287,244.77706432342526L1119.4148571428573,212.67515301704404L1121.0194285714285,240.76437234878537L1124.5577142857144,40.12737035751343L1124.886857142857,24.076452255249023L1127.5611428571428,284.90443468093866L1128.5897142857143,317.0063459873199L1129.1245714285715,256.8152904510498L1129.3714285714286,260.82798242568964L1129.4125714285715,288.917201757431L1129.4948571428572,232.73883819580075L1132.7451428571428,256.8152904510498L1135.1725714285715,329.0445721149444L1139.8628571428571,349.1082572937011L1140.48,333.0573391914367L1142.537142857143,16.050918102264404L1142.6194285714284,8.025459051132202L1143.7302857142859,60.19113063812256L1144.9234285714285,88.28027486801147L1146.2811428571429,252.80259847640988L1147.3097142857143,132.4203372001648L1149.8194285714285,192.61146783828733L1150.9714285714285,108.34396004676819L1151.1771428571428,156.4967894554138L1152.4937142857143,220.70061206817624L1153.9337142857144,296.9426608085632L1154.5919999999999,240.76437234878537L1155.2914285714285,272.86620855331415L1156.9782857142857,124.39495325088501L1159.1177142857143,365.15925049781794L1160.8457142857144,333.0573391914367L1161.4217142857142,369.17201757431025L1162.0800000000002,148.47133040428162L1162.944,381.21016860008234L1163.3142857142857,296.9426608085632L1163.9725714285714,128.4076452255249L1164.096,152.4840974807739L1166.5645714285713,116.36941909790039L1166.6057142857144,128.4076452255249L1167.1817142857142,208.66238594055173L1171.049142857143,20.063685178756714L1171.7074285714284,164.52232360839844L1172.2422857142856,80.25474071502686L1172.694857142857,84.26750779151917L1175.8217142857143,148.47133040428162L1176.3977142857143,44.14013743400574L1176.809142857143,32.101911306381226L1177.056,112.3567271232605L1179.5657142857144,112.3567271232605L1181.2937142857143,168.53501558303833L1183.5154285714286,24.076452255249023L1187.7942857142857,92.29296684265137L1189.357714285714,40.12737035751343L1191.2502857142856,152.4840974807739L1191.3325714285713,96.30573391914368L1192.9782857142857,108.34396004676819L1193.0194285714285,88.28027486801147L1193.0605714285714,96.30573391914368L1193.7188571428571,92.29296684265137L1194.2537142857143,108.34396004676819L1194.336,96.30573391914368L1198.4091428571428,248.78975629806516L1199.6845714285714,264.840749502182L1203.552,240.76437234878537L1204.1280000000002,308.9808869361877L1204.5805714285716,325.0318050384521L1207.2137142857143,60.19113063812256L1207.4605714285715,108.34396004676819L1207.7074285714286,148.47133040428162L1207.872,196.62415981292722L1207.913142857143,228.72614622116086L1208.489142857143,429.3630731105804L1210.998857142857,401.27385377883905L1212.6445714285715,361.1464834213256L1214.9074285714285,345.0955653190612L1216.1005714285714,337.0700311660766L1219.392,329.0445721149444L1219.8445714285715,409.2993879318237L1220.1737142857144,353.1210243701934L1222.1485714285716,321.0191130638122L1223.136,148.47133040428162L1224.7817142857143,96.30573391914368L1224.905142857143,349.1082572937011L1226.1805714285713,369.17201757431025L1226.592,276.87897562980646L1226.8799999999999,333.0573391914367L1227.4560000000001,304.9681949615478L1227.6205714285713,304.9681949615478L1229.9657142857143,296.9426608085632L1230.7885714285715,317.0063459873199L1230.912,317.0063459873199L1231.776,252.80259847640988L1233.3394285714285,284.90443468093866L1234.2445714285714,112.3567271232605" style="fill: none;" fill="none"></path></g></g></g></g></g></g><g transform="translate(58, 378)" clip-path="url(#clip_1)"><clipPath id="clip_1"><rect width="1440" height="22"></rect></clipPath><g><g><line x1="0" y1="0" x2="0" y2="5" style="visibility: inherit;" fill="rgb(0, 0, 0)" stroke="rgb(204, 204, 204)" stroke-width="1px"></line><line x1="205.7142857142857" y1="0" x2="205.7142857142857" y2="5" style="visibility: inherit;" fill="rgb(0, 0, 0)" stroke="rgb(204, 204, 204)" stroke-width="1px"></line><line x1="411.4285714285714" y1="0" x2="411.4285714285714" y2="5" style="visibility: inherit;" fill="rgb(0, 0, 0)" stroke="rgb(204, 204, 204)" stroke-width="1px"></line><line x1="617.1428571428571" y1="0" x2="617.1428571428571" y2="5" style="visibility: inherit;" fill="rgb(0, 0, 0)" stroke="rgb(204, 204, 204)" stroke-width="1px"></line><line x1="822.8571428571428" y1="0" x2="822.8571428571428" y2="5" style="visibility: inherit;" fill="rgb(0, 0, 0)" stroke="rgb(204, 204, 204)" stroke-width="1px"></line><line x1="1028.5714285714287" y1="0" x2="1028.5714285714287" y2="5" style="visibility: inherit;" fill="rgb(0, 0, 0)" stroke="rgb(204, 204, 204)" stroke-width="1px"></line><line x1="1234.2857142857142" y1="0" x2="1234.2857142857142" y2="5" style="visibility: inherit;" fill="rgb(0, 0, 0)" stroke="rgb(204, 204, 204)" stroke-width="1px"></line><line x1="1440" y1="0" x2="1440" y2="5" style="visibility: inherit;" fill="rgb(0, 0, 0)" stroke="rgb(204, 204, 204)" stroke-width="1px"></line></g><g transform="translate(0, 8)"><text x="0" y="0" dx="0em" dy="0.95em" style="text-anchor: middle; visibility: hidden; font-family: &quot;Helvetica Neue&quot;, sans-serif; font-size: 12px; font-weight: 200;" fill="rgb(50, 49, 63)" stroke="none" stroke-width="1px">20k</text><text x="205.7142857142857" y="0" dx="0em" dy="0.95em" style="text-anchor: middle; visibility: inherit; font-family: &quot;Helvetica Neue&quot;, sans-serif; font-size: 12px; font-weight: 200;" fill="rgb(50, 49, 63)" stroke="none" stroke-width="1px">25k</text><text x="411.4285714285714" y="0" dx="0em" dy="0.95em" style="text-anchor: middle; visibility: inherit; font-family: &quot;Helvetica Neue&quot;, sans-serif; font-size: 12px; font-weight: 200;" fill="rgb(50, 49, 63)" stroke="none" stroke-width="1px">30k</text><text x="617.1428571428571" y="0" dx="0em" dy="0.95em" style="text-anchor: middle; visibility: inherit; font-family: &quot;Helvetica Neue&quot;, sans-serif; font-size: 12px; font-weight: 200;" fill="rgb(50, 49, 63)" stroke="none" stroke-width="1px">35k</text><text x="822.8571428571428" y="0" dx="0em" dy="0.95em" style="text-anchor: middle; visibility: inherit; font-family: &quot;Helvetica Neue&quot;, sans-serif; font-size: 12px; font-weight: 200;" fill="rgb(50, 49, 63)" stroke="none" stroke-width="1px">40k</text><text x="1028.5714285714287" y="0" dx="0em" dy="0.95em" style="text-anchor: middle; visibility: inherit; font-family: &quot;Helvetica Neue&quot;, sans-serif; font-size: 12px; font-weight: 200;" fill="rgb(50, 49, 63)" stroke="none" stroke-width="1px">45k</text><text x="1234.2857142857142" y="0" dx="0em" dy="0.95em" style="text-anchor: middle; visibility: inherit; font-family: &quot;Helvetica Neue&quot;, sans-serif; font-size: 12px; font-weight: 200;" fill="rgb(50, 49, 63)" stroke="none" stroke-width="1px">50k</text><text x="1440" y="0" dx="0em" dy="0.95em" style="text-anchor: middle; visibility: hidden; font-family: &quot;Helvetica Neue&quot;, sans-serif; font-size: 12px; font-weight: 200;" fill="rgb(50, 49, 63)" stroke="none" stroke-width="1px">55k</text></g><line x1="0" y1="0" x2="1440" y2="0" fill="rgb(0, 0, 0)" stroke="rgb(204, 204, 204)" stroke-width="1px"></line></g></g></g></g></svg>