<svg viewBox="0 0 1498 400" xmlns="http://www.w3.org/2000/svg"><g><g><g><g><g><line x1="58" y1="378" x2="53" y2="378" style="visibility: inherit;" fill="rgb(0, 0, 0)" stroke="rgb(204, 204, 204)" stroke-width="1px"></line><line x1="58" y1="346.5" x2="53" y2="346.5" style="visibility: inherit;" fill="rgb(0, 0, 0)" stroke="rgb(204, 204, 204)" stroke-width="1px"></line><line x1="58" y1="315" x2="53" y2="315" style="visibility: inherit;" fill="rgb(0, 0, 0)" stroke="rgb(204, 204, 204)" stroke-width="1px"></line><line x1="58" y1="283.5" x2="53" y2="283.5" style="visibility: inherit;" fill="rgb(0, 0, 0)" stroke="rgb(204, 204, 204)" stroke-width="1px"></line><line x1="58" y1="252.00000000000003" x2="53" y2="252.00000000000003" style="visibility: inherit;" fill="rgb(0, 0, 0)" stroke="rgb(204, 204, 204)" stroke-width="1px"></line><line x1="58" y1="220.5" x2="53" y2="220.5" style="visibility: inherit;" fill="rgb(0, 0, 0)" stroke="rgb(204, 204, 204)" stroke-width="1px"></line><line x1="58" y1="189.00000000000003" x2="53" y2="189.00000000000003" style="visibility: inherit;" fill="rgb(0, 0, 0)" stroke="rgb(204, 204, 204)" stroke-width="1px"></line><line x1="58" y1="157.5" x2="53" y2="157.5" style="visibility: inherit;" fill="rgb(0, 0, 0)" stroke="rgb(204, 204, 204)" stroke-width="1px"></line><line x1="58" y1="125.99999999999997" x2="53" y2="125.99999999999997" style="visibility: inherit;" fill="rgb(0, 0, 0)" stroke="rgb(204, 204, 204)" stroke-width="1px"></line><line x1="58" y1="94.5" x2="53" y2="94.5" style="visibility: inherit;" fill="rgb(0, 0, 0)" stroke="rgb(204, 204, 204)" stroke-width="1px"></line><line x1="58" y1="63" x2="53" y2="63" style="visibility: inherit;" fill="rgb(0, 0, 0)" stroke="rgb(204, 204, 204)" stroke-width="1px"></line><line x1="58" y1="31.5" x2="53" y2="31.5" style="visibility: inherit;" fill="rgb(0, 0, 0)" stroke="rgb(204, 204, 204)" stroke-width="1px"></line><line x1="58" y1="0" x2="53" y2="0" style="visibility: inherit;" fill="rgb(0, 0, 0)" stroke="rgb(204, 204, 204)" stroke-width="1px"></line></g><g transform="translate(48, 0)"><text x="0" y="378" dx="0em" dy="0.3em" style="text-anchor: end; visibility: hidden; font-family: &quot;Helvetica Neue&quot;, sans-serif; font-size: 12px; font-weight: 200;" fill="rgb(50, 49, 63)" stroke="none" stroke-width="1px">0.4</text><text x="0" y="346.5" dx="0em" dy="0.3em" style="text-anchor: end; visibility: inherit; font-family: &quot;Helvetica Neue&quot;, sans-serif; font-size: 12px; font-weight: 200;" fill="rgb(50, 49, 63)" stroke="none" stroke-width="1px">0.45</text><text x="0" y="315" dx="0em" dy="0.3em" style="text-anchor: end; visibility: inherit; font-family: &quot;Helvetica Neue&quot;, sans-serif; font-size: 12px; font-weight: 200;" fill="rgb(50, 49, 63)" stroke="none" stroke-width="1px">0.5</text><text x="0" y="283.5" dx="0em" dy="0.3em" style="text-anchor: end; visibility: inherit; font-family: &quot;Helvetica Neue&quot;, sans-serif; font-size: 12px; font-weight: 200;" fill="rgb(50, 49, 63)" stroke="none" stroke-width="1px">0.55</text><text x="0" y="252.00000000000003" dx="0em" dy="0.3em" style="text-anchor: end; visibility: inherit; font-family: &quot;Helvetica Neue&quot;, sans-serif; font-size: 12px; font-weight: 200;" fill="rgb(50, 49, 63)" stroke="none" stroke-width="1px">0.6</text><text x="0" y="220.5" dx="0em" dy="0.3em" style="text-anchor: end; visibility: inherit; font-family: &quot;Helvetica Neue&quot;, sans-serif; font-size: 12px; font-weight: 200;" fill="rgb(50, 49, 63)" stroke="none" stroke-width="1px">0.65</text><text x="0" y="189.00000000000003" dx="0em" dy="0.3em" style="text-anchor: end; visibility: inherit; font-family: &quot;Helvetica Neue&quot;, sans-serif; font-size: 12px; font-weight: 200;" fill="rgb(50, 49, 63)" stroke="none" stroke-width="1px">0.7</text><text x="0" y="157.5" dx="0em" dy="0.3em" style="text-anchor: end; visibility: inherit; font-family: &quot;Helvetica Neue&quot;, sans-serif; font-size: 12px; font-weight: 200;" fill="rgb(50, 49, 63)" stroke="none" stroke-width="1px">0.75</text><text x="0" y="125.99999999999997" dx="0em" dy="0.3em" style="text-anchor: end; visibility: inherit; font-family: &quot;Helvetica Neue&quot;, sans-serif; font-size: 12px; font-weight: 200;" fill="rgb(50, 49, 63)" stroke="none" stroke-width="1px">0.8</text><text x="0" y="94.5" dx="0em" dy="0.3em" style="text-anchor: end; visibility: inherit; font-family: &quot;Helvetica Neue&quot;, sans-serif; font-size: 12px; font-weight: 200;" fill="rgb(50, 49, 63)" stroke="none" stroke-width="1px">0.85</text><text x="0" y="63" dx="0em" dy="0.3em" style="text-anchor: end; visibility: inherit; font-family: &quot;Helvetica Neue&quot;, sans-serif; font-size: 12px; font-weight: 200;" fill="rgb(50, 49, 63)" stroke="none" stroke-width="1px">0.9</text><text x="0" y="31.5" dx="0em" dy="0.3em" style="text-anchor: end; visibility: inherit; font-family: &quot;Helvetica Neue&quot;, sans-serif; font-size: 12px; font-weight: 200;" fill="rgb(50, 49, 63)" stroke="none" stroke-width="1px">0.95</text><text x="0" y="0" dx="0em" dy="0.3em" style="text-anchor: end; visibility: hidden; font-family: &quot;Helvetica Neue&quot;, sans-serif; font-size: 12px; font-weight: 200;" fill="rgb(50, 49, 63)" stroke="none" stroke-width="1px">1</text></g><line x1="58" y1="0" x2="58" y2="378" fill="rgb(0, 0, 0)" stroke="rgb(204, 204, 204)" stroke-width="1px"></line></g></g><g transform="translate(58, 0)" clip-path="url(#clip_0)"><clipPath id="clip_0"><rect width="1440" height="378"></rect></clipPath><g><g><g><line x1="0" y1="0" x2="0" y2="378" fill="rgb(0, 0, 0)" stroke="rgb(60, 60, 60)" stroke-width="1px" opacity="0.25"></line><line x1="205.7142857142857" y1="0" x2="205.7142857142857" y2="378" fill="rgb(0, 0, 0)" stroke="rgb(60, 60, 60)" stroke-width="1px" opacity="0.25"></line><line x1="411.4285714285714" y1="0" x2="411.4285714285714" y2="378" fill="rgb(0, 0, 0)" stroke="rgb(60, 60, 60)" stroke-width="1px" opacity="0.25"></line><line x1="617.1428571428571" y1="0" x2="617.1428571428571" y2="378" fill="rgb(0, 0, 0)" stroke="rgb(60, 60, 60)" stroke-width="1px" opacity="0.25"></line><line x1="822.8571428571428" y1="0" x2="822.8571428571428" y2="378" fill="rgb(0, 0, 0)" stroke="rgb(60, 60, 60)" stroke-width="1px" opacity="0.25"></line><line x1="1028.5714285714287" y1="0" x2="1028.5714285714287" y2="378" fill="rgb(0, 0, 0)" stroke="rgb(60, 60, 60)" stroke-width="1px" opacity="0.25"></line><line x1="1234.2857142857142" y1="0" x2="1234.2857142857142" y2="378" fill="rgb(0, 0, 0)" stroke="rgb(60, 60, 60)" stroke-width="1px" opacity="0.25"></line><line x1="1440" y1="0" x2="1440" y2="378" fill="rgb(0, 0, 0)" stroke="rgb(60, 60, 60)" stroke-width="1px" opacity="0.25"></line></g><g><line x1="0" y1="378" x2="1440" y2="378" fill="rgb(0, 0, 0)" stroke="rgb(60, 60, 60)" stroke-width="1px" opacity="0.25"></line><line x1="0" y1="346.5" x2="1440" y2="346.5" fill="rgb(0, 0, 0)" stroke="rgb(60, 60, 60)" stroke-width="1px" opacity="0.25"></line><line x1="0" y1="315" x2="1440" y2="315" fill="rgb(0, 0, 0)" stroke="rgb(60, 60, 60)" stroke-width="1px" opacity="0.25"></line><line x1="0" y1="283.5" x2="1440" y2="283.5" fill="rgb(0, 0, 0)" stroke="rgb(60, 60, 60)" stroke-width="1px" opacity="0.25"></line><line x1="0" y1="252.00000000000003" x2="1440" y2="252.00000000000003" fill="rgb(0, 0, 0)" stroke="rgb(60, 60, 60)" stroke-width="1px" opacity="0.25"></line><line x1="0" y1="220.5" x2="1440" y2="220.5" fill="rgb(0, 0, 0)" stroke="rgb(60, 60, 60)" stroke-width="1px" opacity="0.25"></line><line x1="0" y1="189.00000000000003" x2="1440" y2="189.00000000000003" fill="rgb(0, 0, 0)" stroke="rgb(60, 60, 60)" stroke-width="1px" opacity="0.25"></line><line x1="0" y1="157.5" x2="1440" y2="157.5" fill="rgb(0, 0, 0)" stroke="rgb(60, 60, 60)" stroke-width="1px" opacity="0.25"></line><line x1="0" y1="125.99999999999997" x2="1440" y2="125.99999999999997" fill="rgb(0, 0, 0)" stroke="rgb(60, 60, 60)" stroke-width="1px" opacity="0.25"></line><line x1="0" y1="94.5" x2="1440" y2="94.5" fill="rgb(0, 0, 0)" stroke="rgb(60, 60, 60)" stroke-width="1px" opacity="0.25"></line><line x1="0" y1="63" x2="1440" y2="63" fill="rgb(0, 0, 0)" stroke="rgb(60, 60, 60)" stroke-width="1px" opacity="0.25"></line><line x1="0" y1="31.5" x2="1440" y2="31.5" fill="rgb(0, 0, 0)" stroke="rgb(60, 60, 60)" stroke-width="1px" opacity="0.25"></line><line x1="0" y1="0" x2="1440" y2="0" fill="rgb(0, 0, 0)" stroke="rgb(60, 60, 60)" stroke-width="1px" opacity="0.25"></line></g></g></g><g><g><line x1="0" y1="630" x2="1440" y2="630" fill="rgb(0, 0, 0)" stroke="rgb(153, 153, 153)" stroke-width="1.5px"></line></g></g><g><g><line x1="-822.8571428571428" y1="0" x2="-822.8571428571428" y2="378" fill="rgb(0, 0, 0)" stroke="rgb(153, 153, 153)" stroke-width="1.5px"></line></g></g><g><g><g><g><g><path stroke="rgb(255, 112, 67)" stroke-width="2px" d="M91.25485714285713,64.20382261276245L92.24228571428571,86.77547313272953L92.36571428571428,71.1646837847573L93.43542857142857,80.87438994689899L94.38171428571428,68.42262317826567L97.01485714285714,68.33616077227697L97.38514285714285,74.89222748922134L99.936,99.92910154676599L100.14171428571429,103.32931122625297L101.00571428571429,71.43530173837695L101.74628571428572,83.0306339447884L103.18628571428573,86.74366458381206L103.26857142857143,71.28715826415618L103.59771428571429,71.66430317050492L107.83542857142858,79.91966520700578L109.44,89.6870317937786L110.01599999999999,84.30812810371242L112.56685714285715,79.47609878709738L113.67771428571429,68.55123214892416L114.336,87.67920627755518L114.62400000000001,108.78633533384112L116.59885714285714,111.81960876392657L117.13371428571429,139.32127913162387L117.70971428571428,120.50988010082324L118.12114285714284,136.50979616147856L119.89028571428572,149.31990578180887L120.21942857142858,145.77028837734576L121.98857142857143,170.92715787168686L122.23542857142857,177.99579265258535L122.81142857142856,179.0267725037391L122.89371428571428,152.3587357938127L123.51085714285713,125.12224242523513L123.75771428571429,99.14978144978346L124.9097142857143,72.33063262402231L129.39428571428573,54.63405198252269L130.464,114.64030939480841L130.50514285714286,145.8287729652146L130.752,116.3889763353709L131.86285714285714,95.5149147998219L132.23314285714287,148.79939241921502L134.24914285714286,145.45798399010874L134.37257142857143,162.71428572745805L135.48342857142856,145.78143088097224L135.936,122.78095345143274L138.28114285714287,91.32462704119217L139.06285714285715,122.20878245985679L142.39542857142857,184.0768597301519L144.6582857142857,189.0957947837452L144.7817142857143,171.2409172214928L145.35771428571428,162.1330824945347L145.52228571428572,129.3817608029432L147.49714285714285,138.62268045373187L147.78514285714286,118.48570319903814L148.69028571428572,104.79842503601617L149.184,135.10835170589388L149.59542857142858,90.69557690524869L150.8297142857143,62.44282021464551L151.28228571428573,64.7523129841191L151.85828571428573,95.02973633173366L153.17485714285715,116.40637396075391L154.368,106.76102613388315L155.0262857142857,176.41329774248013L155.68457142857145,145.97536402337167L155.84914285714285,138.94827650423295L156.54857142857142,160.41355303785483L157.98857142857142,211.8150125256854L160.08685714285716,252.2864541001129L160.82742857142858,183.47378376644886L161.19771428571428,220.83586051179194L161.7737142857143,217.57157751389275L161.856,151.4091851023908L161.97942857142857,175.9155722682521L163.7897142857143,171.35825778394013L165.64114285714285,189.49010768740817L166.38171428571428,224.4456548643675L166.752,192.45083327010667L167.28685714285714,235.8526711160862L167.4102857142857,226.5816638764694L167.7394285714286,233.85982405525172L169.38514285714285,259.09295875657637L170.08457142857142,256.5767996241393L170.61942857142859,222.96519283829582L172.84114285714287,223.66446736084495L174.28114285714287,134.19868041650693L175.96800000000002,135.09244996056697L176.29714285714286,122.78794716445049L176.4617142857143,182.81926674036646L176.74971428571428,201.1820035123137L180.49371428571428,252.32703846355125L180.98742857142858,162.63189579045675L181.48114285714286,213.14601817724642L182.30399999999997,262.71563839314905L182.50971428571427,247.51473469375685L182.55085714285713,265.680813329453L183.3737142857143,250.8989314657657L183.57942857142856,261.2909491313821L185.43085714285712,280.3669242533044L185.92457142857143,277.36665299367877L187.36457142857142,293.2225377013205L188.80457142857142,249.76791111528388L188.84571428571428,204.43398837983315L188.92800000000003,137.1062493606788L190.73828571428572,109.55037047173874L191.4377142857143,109.06780630175052L191.52,160.14132588996756L191.7257142857143,181.15485674079812L192.75428571428574,155.240681683639L192.79542857142854,179.81956202722748L193.20685714285716,215.4331438478062L193.28914285714285,140.49555902100977L193.49485714285711,119.60943033943994L194.688,152.02042895943177L195.30514285714287,190.72817491525564L195.552,204.3222566070208L200.98285714285714,157.90544889104657L203.2457142857143,163.7623823984402L203.82171428571428,151.22557933950057L205.26171428571428,118.02196845903177L209.66400000000002,167.11891499456274L212.58514285714287,106.69173125801387L214.39542857142857,104.14242413269221L215.5062857142857,62.48545447961533L215.6297142857143,37.4912726877692L218.01600000000002,32.125329494390655L220.56685714285715,36.93125267023669L222.00685714285714,33.39442431446798L223.40571428571428,45.71818363378583L223.9817142857143,59.53282148665272L224.064,67.82160419837288L224.10514285714285,69.5846751845815L226.49142857142857,89.9036645601355L229.41257142857143,100.48996637524147L230.72914285714288,92.39589113152613L231.63428571428574,95.56492005679956L232.416,89.44086334046102L233.69142857142856,105.02757609448656L238.6285714285714,130.43055188990726L239.36914285714283,145.67233736715963L239.45142857142858,185.3142281496659L241.50857142857143,202.67898035789344L243.81257142857143,200.25706716027744L244.42971428571428,227.69564692763623L246.56914285714285,210.45177665107332L247.43314285714288,158.37297729702516L247.63885714285715,183.30404622585613L247.72114285714284,170.9760517074528L249.4902857142857,187.65569223128932L252.12342857142858,229.76538785197252L253.27542857142856,290.3433076614017L254.42742857142855,231.9894249483272L256.44342857142857,261.1809179332449L256.56685714285715,273.88052327314585L259.1177142857143,242.97799290942885L259.5702857142857,237.27723921375116L262.5737142857143,238.67207744739434L263.1497142857143,274.82108282459956L263.39657142857146,280.4595303977321L264.4251428571428,253.34577944545694L264.6308571428571,241.8928193251416L265.90628571428573,204.52422375679762L266.0297142857143,243.0967054081008L267.5931428571429,222.90261038017547L268.128,239.6778660289781L268.2102857142857,224.06149037315464L271.54285714285714,189.01013593455565L272.9005714285714,201.68634140837443L275.32800000000003,182.00542881696373L276.0274285714286,210.3242816603717L276.89142857142855,230.52577698686937L280.9234285714286,226.5957260397626L282.40457142857144,171.26953055069163L282.5691428571428,227.95916491511656L282.8982857142857,220.24046834566107L285.9428571428571,228.45001492654035L287.50628571428575,239.79612513634416L288,244.99869945199998L288.0822857142857,244.9100454005701L289.6457142857143,222.38552256543056L290.1394285714286,215.2911911256231L291.86742857142855,153.2511519102524L294.6651428571429,172.20546190191922L295.03542857142855,161.1067174926377L295.1588571428572,205.81052893727883L298.2857142857143,152.37803002792515L298.368,147.60516655801476L300.5897142857143,167.21277888035024L301.7417142857143,230.34040436396145L304.45714285714286,237.72016015797345L306.0617142857143,182.759481472668L309.7645714285714,180.27989375763948L310.42285714285714,238.18067329033502L310.9988571428571,207.11222658696346L313.50857142857143,125.8724277624045L314.41371428571426,141.33237108043159L317.41714285714284,129.74209847719266L317.49942857142855,138.83888305825468L318.81600000000003,179.6090637540965L320.37942857142855,221.72722714520387L323.3828571428571,194.0299602590614L323.5474285714286,262.4816688443789L324.16457142857143,207.2469675866108L325.8514285714286,209.4182417587841L325.97485714285716,178.61909495570686L329.472,163.3498055146839L330.1714285714286,183.07994451562803L330.29485714285715,177.26197294259214L331.6937142857143,124.0132387391576L331.776,204.42068027924594L332.064,156.3594112841552L333.5451428571429,172.46532571603453L334.40914285714285,113.10976131134981L335.3965714285714,122.43909849747268L335.84914285714285,140.8774653316989L336.96000000000004,190.46277899989218L337.78285714285715,141.56428825526672L337.98857142857145,161.98316008847496L342.3497142857143,196.70581359268152L342.76114285714283,252.85151564241005L344.8182857142857,225.5452978799376L345.59999999999997,202.74118496117788L346.13485714285713,256.4727384635079L346.3817142857143,208.45688478876758L346.91657142857144,216.56457434135444L349.2617142857143,194.14256721757508L350.208,259.33904188884895L350.41371428571426,269.56521402605534L351.4011428571429,280.5161927390585L352.3062857142857,328.81927217534127L352.84114285714287,229.393474611586L353.8285714285714,174.5532865243826L357.7782857142857,191.4071249316736L357.9428571428572,207.93981023732442L358.7657142857143,230.70018594326746L360.98742857142855,226.7003714136015L361.39885714285714,225.90557450602827L362.1805714285714,233.45417043298715L364.4022857142857,204.2763248725547L364.77257142857144,188.37470934652168L366.0068571428571,167.5980673185759L366.1302857142857,222.54610335539422L366.62399999999997,147.97351834601548L367.73485714285715,185.08984492675296L367.89942857142853,164.02205685648823L372.17828571428566,156.1966744653792L372.5074285714286,133.84539005711142L373.12457142857147,130.06520031425038L377.11542857142854,145.45312642176555L378.18514285714286,172.34193705987695L379.0902857142857,162.79369439763883L382.8754285714286,126.56792930414119L383.2045714285714,122.48852522164486L384.8914285714286,152.14279407852834L387.4011428571429,173.14555403348177L388.67657142857144,169.696246843078L391.3097142857143,214.1744301679959L392.05028571428574,277.7785419203776L392.46171428571427,230.87094776498898L392.5028571428571,202.72639127175586L393.2845714285714,243.62309772730214L394.23085714285713,178.27576994276248L395.01257142857145,106.96546196565743L396.6171428571428,97.8862802960021L397.0285714285714,90.83367948398251L397.44000000000005,86.60211899677074L397.5634285714285,88.87847315549345L398.1805714285714,101.47994334268259L399.5382857142857,70.51853188733878L403.5702857142857,47.12640958345304L405.0102857142857,68.40323112795573L405.70971428571426,84.37952269548072L406.7794285714286,53.83789723774129L407.02628571428573,33.90783015287121L409.78285714285715,38.00075306532506L410.60571428571427,37.246308171973965L410.93485714285714,38.39873304618965L411.34628571428567,35.88000435026629L412.78628571428567,39.18405758376201L415.54285714285714,47.58687178513571L416.85942857142857,28.55212307108144L419.2868571428572,31.577130175427783L420.72685714285717,33.39213443803567L421.17942857142856,36.086228805826806L421.67314285714286,26.467027734545923L422.3725714285714,15.880216640727554L427.0628571428572,22.368894506989022L427.22742857142856,18.236627155243184L428.5028571428572,30.203123076974634L428.7497142857143,48.618693342339554L431.5885714285714,45.22216414840915L433.39885714285714,31.94858894009525L433.6457142857143,27.194627435559823L434.59200000000004,22.737158722612094L434.7977142857143,36.113625637848884L435.168,39.3242303563116L438.8708571428572,54.09135770994175L438.99428571428575,70.97710819362254L440.1462857142857,65.05759532045505L440.55771428571427,74.3466521191072L442.94399999999996,63.86913805529309L444.38399999999996,51.16224735572837L445.74171428571424,77.24511605259721L445.7828571428571,110.55089224432078L446.1531428571429,120.90377705725535L448.0457142857143,144.77156291861834L448.25142857142856,93.28332001244729L453.3531428571428,152.27572592661204L453.4765714285714,96.18072600701703L454.3405714285714,84.99505645954162L455.7805714285714,59.022507947227666L456.06857142857143,51.46445291134199L456.768,46.92961988981051L456.8502857142857,57.0494845994441L456.9737142857143,58.306127994544966L457.8377142857143,34.98367679672697L458.12571428571425,22.595297888262678L459.07199999999995,19.97756099423384L459.77142857142854,29.642591570142542L460.51199999999994,33.83650308509084L460.75885714285715,42.773232255336154L461.1702857142857,62.5811411106327L463.0628571428571,79.28116185449L463.39199999999994,65.22475208629623L470.0982857142857,76.0520530092088L470.38628571428575,100.2044735161881L471.4971428571428,111.48574219992281L473.4308571428571,98.99335662633496L473.8011428571429,72.23677849835343L475.11771428571427,81.86436066666948L475.9817142857143,92.45620041870893L477.7508571428571,118.07245105376137L477.8742857142857,101.3402901284116L478.6971428571428,113.77232397748338L478.9851428571429,114.81116202565016L480.0548571428572,99.38351671154487L482.9348571428572,131.85940671119207L483.30514285714287,87.14111809821799L483.5931428571428,106.85791256959368L484.128,105.84722472986653L485.0331428571428,138.94783016300843L486.59657142857145,144.36232206974415L487.8308571428571,146.00592540355922L488.77714285714285,163.043050567224L489.5177142857143,142.76850616926814L492.3977142857143,153.07510993477618L495.35999999999996,115.92150319574421L495.48342857142853,175.48920171831938L497.1291428571429,209.624729021638L498.11657142857143,230.1060454036291L500.79085714285713,229.5540707102714L503.99999999999994,187.49040870614635L504.2057142857143,229.6662177368867L504.32914285714287,181.13731466083925L505.3988571428571,222.64417768924957L507.20914285714287,284.46548975354153L507.86742857142855,172.28438566235138L508.8548571428571,146.70821541611804L509.55428571428575,132.96760507860455L512.4754285714286,201.76782601141142L513.2982857142857,129.08616967834956L513.5862857142857,128.81475989721974L518.2354285714287,107.78567543448662L518.3588571428571,83.93255204452072L519.2228571428572,87.2767329841434L519.4285714285714,90.88833335814348L521.6502857142857,96.26547720299652L522.0617142857143,117.14781848351055L522.2262857142857,113.62627510881362L523.4194285714286,133.98467948827707L524.736,122.12328488107656L524.7771428571428,115.00644811675625L526.9165714285714,126.78730922153997L527.616,153.1169726682389L528.192,197.80648340181617L528.8502857142856,198.93866079685753L529.5497142857143,198.0128754236559L531.1954285714286,189.43193012823227L533.088,227.62094696968535L533.1291428571428,240.90377617245755L534.0342857142857,226.40214328983933L534.3222857142857,249.80307486664955L535.4742857142857,268.658909243415L535.8857142857144,193.29725685243028L536.0914285714285,221.91465391233095L536.544,202.16790541121082L536.9142857142857,217.60647716587022L537.4902857142857,181.92694438973209L539.0537142857142,213.48737462448565L539.1771428571428,229.2134491448849L540.576,246.67456792862708L540.7405714285713,265.1767132703751L541.6868571428571,258.62194550182164L541.9337142857142,267.529849363242L542.016,272.8745916800942L543.6617142857143,269.6610548089294L543.9085714285715,206.73930871429133L544.4434285714286,218.74422733749202L544.6491428571428,248.41850891569408L547.2822857142858,251.77722152983642L548.064,234.53130231449296L548.4342857142857,217.76336852401073L550.2857142857142,188.44146146589264L551.232,260.73366888888927L551.3142857142857,254.3510270627037L551.3554285714285,228.05011156271073L553.7828571428571,244.37147356909617L554.2765714285714,262.18976484443016L557.9382857142857,253.61959282580182L560.3245714285714,277.36920228018266L562.5051428571429,312.4852140570516L563.328,270.95609783082216L564.6034285714285,274.93034076064237L564.9737142857143,250.02826566320306L565.6731428571428,247.92778512729197L566.0022857142858,190.4891482644855L566.3725714285714,223.43998740038745L567.648,212.71367138577384L569.2525714285714,243.1950835344367L569.7462857142857,219.75143861515355L570.6925714285715,202.47506804313076L571.2685714285715,187.29395524886732L571.3508571428571,227.9432538522928L572.832,252.33283301434813L574.3131428571428,300.67358362818896L575.424,230.16211645689685L577.2754285714286,268.11000690988953L579.0034285714286,242.72588173229852L581.472,280.4635565261803L582.0068571428571,259.76857738380204L582.0891428571429,305.1350302498613L582.9531428571429,264.94089573628156L583.1588571428572,223.16836005453138L583.7348571428571,254.28318718674103L584.352,276.16226708651965L584.64,318.18143520213005L585.4217142857143,261.5330659953167L585.9154285714286,222.7287540201789L589.9062857142857,271.6754710295466L590.5234285714286,257.7059247266452L590.976,263.77005327768336L591.1405714285714,272.223820859356L591.7988571428572,306.1877940739175L593.1565714285715,329.77636913329246L593.5268571428571,229.9677327863567L596.16,203.78955409480292L596.2834285714285,237.84061315985417L596.9417142857143,234.19481136400643L600.5211428571429,264.10924159287896L600.8914285714285,274.0324256586998L602.1668571428571,247.88442479181106L603.072,251.45677105550655L603.9771428571429,226.3135579583924L606.9805714285715,244.9346332167316L609.9428571428572,154.98625400154168L611.8354285714286,142.74971868090847L612.9874285714286,181.95556512768877L615.4148571428572,250.42174882469067L616.0731428571429,236.92820231185846L617.3485714285714,272.1696584228664L618.5417142857142,288.4992416384214L619.5702857142857,288.66642568602526L619.776,335.3145037537477L620.3108571428571,326.3861488369502L621.0925714285714,298.5578054825901L622.8617142857142,281.8607994699739L623.6845714285714,247.7661586275257L626.0708571428572,240.15013864460926L626.7702857142857,190.6378508259257L627.8811428571429,167.35086039599184L628.2514285714285,158.19395658908127L628.7451428571428,163.93548701726098L629.2388571428571,247.63517602993667L629.856,185.498307375393L630.0205714285714,157.84675206439601L630.72,202.24945787010734L632.2011428571428,134.19043924461684L632.8182857142857,85.32955399781991L633.3531428571429,67.2486805416973L633.8468571428571,86.89697596417858L633.8879999999999,92.265570956391L634.0525714285715,87.46125388021585L635.2045714285715,127.91624765321797L638.2491428571428,148.979045276196L639.7302857142857,182.4829624440379L641.9108571428571,180.1139823404614L642.0754285714286,188.3231601600446L642.8982857142856,204.4843395641207L644.9142857142857,241.46766806189765L646.1074285714286,239.58124294605582L647.8354285714286,248.07995375827988L649.9337142857144,264.41485295794035L650.5508571428571,179.51515036881935L650.88,171.91291283405408L651.1268571428571,199.4534816195761L653.3074285714285,248.0797341972706L653.4308571428571,270.835103482611L655.0765714285715,281.2781264129919L656.1051428571428,300.3847122039582L656.3931428571428,318.2690459398142L657.2982857142857,304.92321645663446L658.6971428571428,359.5144420590774L660.1371428571429,302.3838182524905L661.0834285714285,316.2583184382955L661.7417142857142,311.7422540272259L663.9222857142856,273.72050543337957L664.7451428571429,335.9775249940747L664.8685714285714,323.57377796069346L665.2800000000001,362.6792973798249L665.5268571428571,373.3018445087513L666.432,360.4142260022784L669.8057142857143,354.28675421880627L675.6068571428572,278.3809669542727L675.8537142857142,203.9457819299946L676.8,159.28467091542777L678.3222857142857,114.83194933308545L678.3634285714286,89.76540819390641L678.6102857142857,90.77644667377484L678.9805714285715,96.1983451923752L679.68,102.66168294435886L680.1737142857143,93.69892107299654L680.4205714285714,101.1620284727316L682.8480000000001,105.63989291257263L684.9051428571429,125.98266655007959L686.8388571428571,138.1883307325838L688.3199999999999,164.77287602591502L689.3074285714285,195.1694595346927L689.4308571428571,198.9615533071804L692.5165714285714,241.36419494855687L692.7634285714286,265.20068812315634L693.9977142857142,240.98029046025857L694.368,202.37161462764132L694.5325714285714,161.55035415446875L694.7794285714286,161.1340351054437L697.2068571428572,180.14539045985737L698.5645714285714,124.1381824189198L698.6057142857143,93.74405623518061L698.9348571428571,144.5266935887494L699.0994285714286,179.81155143156994L699.7988571428572,138.3837503550967L701.3211428571428,86.24043383351085L702.432,58.16464256138278L703.2137142857142,55.76502413088485L704.5714285714286,60.74563533386231L704.6125714285714,63.73400205564883L705.6,59.106639827444496L708.768,54.72513068029548L711.36,40.860552479679995L713.088,45.38257008186315L713.2525714285714,38.46521476144392L715.0628571428571,93.703333730905L715.8445714285715,128.45129692280815L718.6011428571429,113.98797991111593L720.9874285714286,145.4373750819845L721.6868571428572,161.09681354368226L721.9337142857142,176.91285888197714L725.2662857142857,192.82286834623036L726.4182857142856,186.3179258817769L727.1177142857143,204.88629080738642L727.2,190.34578071764716L728.5165714285715,220.14376823146114L729.792,210.73593988441806L732.2194285714286,227.56258830084434L738.1028571428571,248.89423504265568L739.0902857142858,236.0116940426375L739.4605714285714,241.12293396517904L739.7074285714286,218.508148873599L741.6,203.3341860084245L741.7234285714285,173.36356969526463L742.5051428571429,232.4257870426837L743.2868571428572,259.8376433796324L747.9359999999999,279.4949408022546L748.2651428571429,265.6077902107229L748.5120000000001,271.72135618858283L751.1039999999999,182.29396049697846L752.7085714285714,138.26808896374496L753.5725714285715,82.96085337824695L756,126.82109916226315L756.5348571428572,138.6913902998939L756.9462857142856,134.57789227014632L757.1108571428571,177.05246928123145L759.0445714285715,208.9575977491588L762.0068571428573,226.49558301968872L762.912,227.38779327990713L763.6114285714285,234.3435016973144L765.5039999999999,216.04559634347717L766.9028571428572,217.9076176537273L769.5771428571429,215.814631799054L771.7988571428571,233.8199870700788L772.8685714285714,196.47034078330702L773.0742857142857,191.71659296447578L775.9954285714286,159.97263160761915L776.1600000000001,139.32116298327878L777.4765714285713,146.19142859250326L779.4925714285715,179.20530062359586L782.0434285714285,219.87986243630658L782.0845714285714,247.49479816475633L783.1131428571429,215.91088513206913L783.4834285714286,213.0115004758326L784.0594285714285,265.84511890293885L785.7874285714287,244.57713254858098L786.816,227.00105028491643L792.6582857142857,211.6401254960384L793.9337142857142,189.582806100159L795.3325714285714,205.24012712818933L796.2788571428571,254.76191263307663L797.8422857142856,257.1883555704924L798.2537142857143,239.38307454911308L799.776,233.51519638733527L800.1051428571429,236.41485175154483L800.6811428571428,241.36482859052347L801.1337142857143,237.91443243263438L801.8742857142856,240.65948518895073L801.9565714285714,255.14728136529305L802.9028571428572,257.41957680982216L802.944,252.36257181526344L802.9851428571429,230.06722203469945L803.1085714285714,205.45433945403502L803.8902857142858,221.1834294017912L805.3302857142858,217.7801188478924L806.0297142857142,228.57889703810557L806.6057142857143,241.47854621350967L807.4697142857142,247.61324390852573L807.8811428571429,212.77176895787787L808.2102857142858,193.47197579771566L808.6217142857142,231.65006618160183L810.6377142857143,305.9199785021435L810.9668571428571,267.0169564978773L812.2834285714285,160.21017389872637L812.8594285714286,182.80125735627985L813.1062857142857,273.40050207631214L813.6822857142856,298.86832873258845L814.0525714285715,272.4165325178734L814.3405714285715,227.6537421234865L814.3817142857142,205.6113583379042L814.5462857142857,261.40503362018177L815.5748571428571,282.04046675681064L815.9862857142857,300.84211641024945L816.8091428571429,220.63265522403353L817.3851428571429,235.10570931484006L818.8662857142857,253.42010765105312L819.648,275.64441936510696L821.664,216.7497097092741L821.7051428571427,158.94153849112226L821.9108571428571,183.6451829423144L823.0217142857143,111.79220157561502L824.5851428571427,108.80779813347937L829.1519999999999,127.88340968262366L829.5222857142857,173.03577972871784L830.1805714285715,222.59853216065596L830.304,215.41899688275836L830.6742857142857,222.34693340797529L831.8262857142857,197.61198265754757L833.2251428571428,251.790117760918L833.2662857142857,290.7173810842165L833.76,206.53233995691113L835.3645714285714,255.53724033030966L836.393142857143,235.18222178455062L837.0925714285713,198.8927734222166L838.9028571428571,164.27833988226368L839.8902857142856,214.13388463233056L840.7954285714286,200.70962746366345L841.9474285714285,208.7060363258391L844.1691428571429,183.00706214698963L845.9794285714286,153.14182130690105L849.6411428571429,115.96153001901916L849.6822857142856,104.88901293824557L853.2617142857143,162.4493253025439L853.5908571428572,206.6160936232225L855.4422857142857,270.0333488628755L857.9108571428573,248.69516233476935L860.4205714285714,213.420920013624L860.7085714285715,253.24999859287595L861.9017142857143,310.85445636722005L863.424,322.94579311735964L864.1234285714287,322.1751210959407L865.8514285714286,313.68724381158665L867.8262857142857,326.25056490439124L869.472,343.4191309519884L870.5005714285713,358.53555352141126L871.2822857142856,247.223243419228L871.4879999999999,186.85623961919427L872.4342857142857,198.7888967885606L872.8457142857142,265.3370307620783L873.3394285714286,303.66081933596246L874.2034285714286,299.3684641147763L876.1371428571429,317.65929708630506L877.0011428571429,355.9204177245537L878.5234285714284,351.5904692521715L879.1817142857143,328.1262540645018L881.568,354.17511783996906L883.3782857142857,324.8617527661305L883.5428571428571,313.6941159831036L884.5714285714287,319.8343059460252L885.6411428571429,323.51841992377814L892.1828571428571,293.62696949386344L892.8,365.57745464887466L892.9234285714285,317.25729851869494L893.8285714285713,265.7938744363055L894.0754285714286,260.59734903197676L895.0217142857143,300.81701029790156L896.0502857142857,257.53479331405583L896.6674285714286,270.0877566914059L898.3131428571428,285.64500878931864L898.56,291.7691764276134L899.136,332.36087125783604L899.5885714285714,218.67766953853038L899.9588571428573,136.02189217416802L901.8514285714286,105.68957253937936L902.1394285714287,101.93603709128502L902.3040000000001,126.97053667775995L902.5508571428571,127.54538009686593L904.9782857142857,129.49537795855596L906.0891428571429,143.5061411981225L907.0354285714285,100.5495410516524L909.9154285714286,92.43163593737268L910.8205714285714,110.0322232730864L912.1782857142857,115.77730024383538L912.5074285714286,120.82943823651118L912.8777142857143,125.4658128423431L913.1657142857142,128.24763760584233L914.8114285714285,125.101442012892L915.3462857142856,108.76786832434288L915.552,118.22887089504212L915.7988571428571,117.48509017618545L915.9222857142857,120.24902038569473L919.0491428571429,112.27679760930073L919.0902857142858,113.9138462047406L919.1725714285715,126.13174807433055L920.9005714285714,115.80643422248232L921.0239999999999,135.29277495647827L922.2994285714286,179.08649070325706L923.4102857142857,181.28628291644583L923.5337142857143,142.47877286647517L923.7394285714287,157.71656040415021L925.4262857142857,142.78279569187671L926.0434285714285,120.98177234196021L926.6605714285714,123.95212149538605L927.0308571428571,85.60694560955767L927.1131428571429,77.04569641083953L928.7177142857144,140.928059955421L929.1291428571428,159.99633129834106L929.7051428571428,153.78123913049083L931.4742857142858,140.42160292768108L932.3794285714287,87.4631453770615L933.3257142857143,70.13394219983917L935.0125714285715,56.526221652682466L935.5474285714286,78.85840882054316L935.5885714285714,72.99657433743084L936.3702857142857,43.797944602458585L936.4114285714285,26.27876676147514L936.4937142857142,22.187642318161295L936.6994285714286,27.758441723675787L937.152,51.96715996103961L941.6777142857143,127.48602989576742L941.7188571428571,172.79735185660414L942.4182857142857,158.25165282462527L942.5828571428572,163.97010475858738L944.1051428571429,172.21645134964402L945.3805714285714,103.32987080978637L945.4217142857142,61.99792248587187L945.5451428571429,106.21786655533543L945.5862857142856,113.48868621318474L947.1908571428571,80.93397625046333L947.5611428571428,48.56038575027793L948.5485714285714,77.28909089955334L949.9062857142857,89.71103855843927L950.8937142857143,116.42535393759954L950.9348571428573,135.66412678554866L952.4159999999999,166.46853727814684L953.9794285714285,194.58176447580536L955.6251428571429,193.7936458207982L955.872,207.76663096057283L955.9542857142857,233.80647701803989L955.9954285714286,241.40491058101745L957.2708571428572,220.28244167369903L957.6411428571429,173.9019421923297L957.8057142857143,168.54498792816025L960.4388571428572,157.30534129815584L963.1131428571429,189.08384688781078L964.0594285714285,185.6796048169516L964.7177142857144,201.2931145480384L967.5154285714286,229.92236717051918L967.6388571428571,223.0234815091291L967.8445714285714,271.85230752291676L970.6011428571428,277.07317340649604L971.3417142857143,313.91269605325124L974.4274285714287,295.8890242634205L976.0319999999999,313.9665338550799L976.0731428571429,310.3671832772966L978.6651428571429,308.20757293062667L979.2,269.9946049651937L979.6525714285715,247.06682418593383L982.5325714285715,222.07448300605182L983.0674285714286,224.735133271725L984.2605714285714,194.22961212474772L984.3017142857143,174.3212076263348L985.9885714285714,133.4844372413587L986.976,161.95053993118003L987.2228571428572,198.2913483289015L988.0457142857143,247.38245422286582L988.2925714285715,246.3402982630896L989.1565714285714,203.98252749911353L989.4034285714285,193.0137213735068L991.872,196.06300357987192L994.2994285714285,125.66327621942582L995.616,117.13044291976587L995.904,134.482088364622L999.3599999999999,119.21154658643064L1004.7085714285714,180.67342639355456L1005.7371428571428,211.1301720165527L1006.2719999999999,234.21950984140133L1007.3828571428572,244.86291389548722L1007.6708571428571,233.59290135433642L1008.1234285714286,278.19395943004116L1008.3291428571429,226.3049078197374L1008.6171428571428,193.5663850433286L1008.6582857142857,196.39460178176495L1009.2342857142856,153.1488559958931L1010.3862857142857,228.32243289456346L1013.2251428571428,209.22275642100325L1013.3485714285714,229.86486184324835L1014.7474285714285,247.06541554764516L1015.0765714285715,226.88892827412855L1016.4342857142857,248.49003902662616L1016.5165714285714,230.95390100234047L1018.0388571428572,268.5850776371556L1021.7828571428571,291.1637836180447L1021.8651428571428,275.8192945410203L1022.441142857143,237.7208734088774L1026.8434285714286,259.80449655852533L1027.1314285714286,176.7489365291704L1027.6251428571427,126.91560051155744L1029.641142857143,116.27674568481842L1029.7234285714287,164.46668951980828L1030.1760000000002,273.63542657657L1030.2171428571428,334.32138586976254L1030.422857142857,319.36989584528277L1033.92,201.25250338889882L1034.0434285714286,136.80245017634462L1034.0845714285715,88.50185236708302L1040.0914285714287,151.01193714961997L1040.256,175.6772234965896L1040.297142857143,176.03053897199243L1040.9965714285715,177.84762006746067L1041.6137142857144,222.27545274344885L1042.0251428571428,258.5627182307708L1042.4777142857142,209.71087264912538L1042.6834285714287,185.21505575118783L1042.8891428571428,226.69591415368512L1043.0537142857142,205.03666155602332L1043.3005714285714,240.19396944681284L1044.288,251.6577882995574L1044.6994285714286,234.45964237632566L1045.769142857143,175.98788035262953L1045.8514285714286,184.24240715711917L1046.2217142857144,134.62188152915002L1047.6205714285713,183.49924509790995L1048.566857142857,211.22057142893945L1049.9657142857143,248.7196058216124L1050.6651428571429,272.8241182674426L1051.6525714285715,260.0002048796092L1052.4342857142858,255.51604046736207L1053.0102857142856,300.9784162897709L1054.368,272.0774932419564L1059.017142857143,219.4248444864336L1061.0331428571428,237.591206492733L1063.5428571428572,274.1725602518028L1064.3657142857141,260.80927007022535L1064.8182857142856,236.740332797903L1065.641142857143,215.87858817323337L1068.1097142857143,142.36791742649245L1068.6445714285715,266.79654558185683L1070.1668571428572,283.67028212358923L1070.9897142857144,261.6926127422475L1071.4422857142856,327.155697569169L1074.9805714285715,345.5673023610815L1075.392,348.5887911647263L1078.9714285714285,263.7265164094986L1081.193142857143,321.95565750824346L1082.7154285714284,332.8167049326118L1082.7977142857142,337.7282415770063L1083.990857142857,294.1273884142977L1085.5954285714286,271.1770751574959L1087.5702857142858,198.01834002133162L1089.5451428571428,279.32056054470513L1089.6274285714285,257.4776879846905L1089.9565714285716,311.7859781920823L1091.190857142857,278.5620303833433L1092.0137142857143,301.96524571680715L1092.1371428571429,245.38297004284678L1092.7131428571429,200.19793192614452L1095.0582857142856,192.3480558399519L1099.008,161.95660114313125L1100.8594285714287,172.61345601096724L1101.024,217.52986249932633L1103.4925714285714,266.9510367966234L1105.385142857143,246.84577509501813L1106.6194285714287,273.30491164171247L1107.5245714285716,261.8937727143975L1107.8537142857142,288.75409998480154L1110.4457142857143,216.5900440095882L1112.8731428571427,239.1005248474491L1114.1074285714285,220.50490204378443L1114.7657142857142,220.58320107391165L1115.0125714285714,191.73845280605966L1116.3702857142857,277.1577200257684L1117.5634285714286,225.68316417717367L1118.1394285714287,233.3207242356743L1119.4148571428573,225.0624957482222L1121.0194285714285,231.34323136807706L1124.5577142857144,154.85688696385157L1124.886857142857,102.5446980600401L1127.5611428571428,175.48860772877L1128.5897142857143,232.09571054237523L1129.1245714285715,241.983542505845L1129.3714285714286,249.52133349415337L1129.4125714285715,265.2796807994645L1129.4948571428572,252.26334375799897L1132.7451428571428,254.08412243521929L1135.1725714285715,284.0683098172947L1139.8628571428571,310.0842963180425L1140.48,319.273505957215L1142.537142857143,197.98448583560523L1142.6194285714284,122.00087512181602L1143.7302857142859,97.27696230796812L1144.9234285714285,93.67827231161499L1146.2811428571429,157.32798775716248L1147.3097142857143,147.36494255473391L1149.8194285714285,165.46355266815524L1150.9714285714285,142.61571561960045L1151.1771428571428,148.16816017429628L1152.4937142857143,177.1811559522188L1153.9337142857144,225.08575789475654L1154.5919999999999,231.35718865599765L1155.2914285714285,247.96081163529476L1156.9782857142857,198.5344532611604L1159.1177142857143,265.1843646456382L1160.8457142857144,292.3335469537724L1161.4217142857142,323.06892018161705L1162.0800000000002,253.22988427068287L1162.944,304.42200551262795L1163.3142857142857,301.4302676310021L1163.9725714285714,232.22121866881125L1164.096,200.3263551732258L1166.5645714285713,166.74358074309563L1166.6057142857144,151.40920653606733L1167.1817142857142,174.3104933182316L1171.049142857143,112.61177006244168L1171.7074285714284,133.37597646045396L1172.2422857142856,112.1274971826536L1172.694857142857,100.98350142619984L1175.8217142857143,119.97863301743251L1176.3977142857143,89.6432347840618L1176.809142857143,66.62670539298955L1177.056,84.91869906472743L1179.5657142857144,95.89389526777018L1181.2937142857143,124.95034339387738L1183.5154285714286,84.6007719180555L1187.7942857142857,87.67766490826438L1189.357714285714,68.6575470879639L1191.2502857142856,102.18815222471738L1191.3325714285713,99.83518490248792L1192.9782857142857,103.23869496019995L1193.0194285714285,97.25531190295413L1193.0605714285714,96.87548070942995L1193.7188571428571,95.04249018308894L1194.2537142857143,100.36307812856063L1194.336,98.74014044479384L1198.4091428571428,158.76000180647293L1199.6845714285714,201.19230088475655L1203.552,217.02111444999764L1204.1280000000002,253.80502344447376L1204.5805714285716,282.2957511024356L1207.2137142857143,193.4538878963399L1207.4605714285715,159.4099167565112L1207.7074285714286,155.03448221561936L1207.872,171.67036827491302L1207.913142857143,194.49266443304165L1208.489142857143,288.44082039387195L1210.998857142857,333.5740487682293L1212.6445714285715,344.60303013965313L1214.9074285714285,344.80003670123114L1216.1005714285714,341.70804950753984L1219.392,336.6426660606869L1219.8445714285715,365.70534729895644L1220.1737142857144,360.6716181274512L1222.1485714285716,344.81061610199566L1223.136,266.27490182291L1224.7817142857143,198.28723466140346L1224.905142857143,258.6156512245078L1226.1805714285713,302.8381827440583L1226.592,292.45449989835765L1226.8799999999999,308.6956281054041L1227.4560000000001,307.2046398274911L1227.6205714285713,306.31004686074334L1229.9657142857143,302.56309243987124L1230.7885714285715,308.340401369036L1230.912,311.8067867265348L1231.776,288.2050964061144L1233.3394285714285,286.88484673641466L1234.2445714285714,217.0735838707825" style="fill: none;" fill="none"></path></g></g></g></g><g opacity="0.2"><g><g><g><path stroke="rgb(255, 112, 67)" stroke-width="2px" d="M91.25485714285713,64.20382261276245L92.24228571428571,100.31846344470978L92.36571428571428,56.17832601070404L93.43542857142857,92.29300439357758L94.38171428571428,52.16559648513794L97.01485714285714,68.21655213832855L97.38514285714285,84.26750779151917L99.936,136.4331042766571L100.14171428571429,108.34396004676819L101.00571428571429,24.076414704322815L101.74628571428572,100.31846344470978L103.18628571428573,92.29300439357758L103.26857142857143,48.15286695957184L103.59771428571429,72.22928166389465L107.83542857142858,92.29300439357758L109.44,104.33119297027588L110.01599999999999,76.24204874038696L112.56685714285715,72.22928166389465L113.67771428571429,52.16559648513794L114.336,116.36941909790039L114.62400000000001,140.4458713531494L116.59885714285714,116.36941909790039L117.13371428571429,180.57324171066284L117.70971428571428,92.29300439357758L118.12114285714284,160.50955653190613L119.89028571428572,168.53501558303833L120.21942857142858,140.4458713531494L121.98857142857143,208.66242349147797L122.23542857142857,188.59873831272125L122.81142857142856,180.57324171066284L122.89371428571428,112.35668957233429L123.51085714285713,84.26750779151917L123.75771428571429,60.19109308719635L124.9097142857143,32.101911306381226L129.39428571428573,28.089181780815125L130.464,204.64969396591187L130.50514285714286,192.61146783828735L130.752,72.22928166389465L131.86285714285714,64.20382261276245L132.23314285714287,228.72610867023468L134.24914285714286,140.4458713531494L134.37257142857143,188.59873831272125L135.48342857142856,120.38214862346649L135.936,88.28023731708527L138.28114285714287,44.14013743400574L139.06285714285715,168.53501558303833L142.39542857142857,276.8789756298065L144.6582857142857,196.62419736385345L144.7817142857143,144.45860087871552L145.35771428571428,148.47133040428162L145.52228571428572,80.25477826595306L147.49714285714285,152.48405992984772L147.78514285714286,88.28023731708527L148.69028571428572,84.26750779151917L149.184,180.57324171066284L149.59542857142858,24.076414704322815L150.8297142857143,20.063685178756714L151.28228571428573,68.21655213832855L151.85828571428573,140.4458713531494L153.17485714285715,148.47133040428162L154.368,92.29300439357758L155.0262857142857,280.8917051553726L155.68457142857145,100.31846344470978L155.84914285714285,128.4076452255249L156.54857142857142,192.61146783828735L157.98857142857142,288.91720175743103L160.08685714285716,312.99361646175385L160.82742857142858,80.25477826595306L161.19771428571428,276.8789756298065L161.7737142857143,212.67515301704407L161.856,52.16559648513794L161.97942857142857,212.67515301704407L163.7897142857143,164.52228605747223L165.64114285714285,216.68788254261017L166.38171428571428,276.8789756298065L166.752,144.45860087871552L167.28685714285714,300.95542788505554L167.4102857142857,212.67515301704407L167.7394285714286,244.7770643234253L169.38514285714285,296.94266080856323L170.08457142857142,252.8025609254837L170.61942857142859,172.54778265953064L172.84114285714287,224.71337914466858L174.28114285714287,0L175.96800000000002,136.4331042766571L176.29714285714286,104.33119297027588L176.4617142857143,272.8662461042404L176.74971428571428,228.72610867023468L180.49371428571428,329.04459089040756L180.98742857142858,28.089181780815125L181.48114285714286,288.91720175743103L182.30399999999997,337.07006871700287L182.50971428571427,224.71337914466858L182.55085714285713,292.92993128299713L183.3737142857143,228.72610867023468L183.57942857142856,276.8789756298065L185.43085714285712,308.98088693618774L185.92457142857143,272.8662461042404L187.36457142857142,317.00636476278305L188.80457142857142,184.58597123622894L188.84571428571428,136.4331042766571L188.92800000000003,36.11464083194733L190.73828571428572,68.21655213832855L191.4377142857143,108.34396004676819L191.52,236.7516052722931L191.7257142857143,212.67515301704407L192.75428571428574,116.36941909790039L192.79542857142854,216.68788254261017L193.20685714285716,268.8535165786743L193.28914285714285,28.089181780815125L193.49485714285711,88.28023731708527L194.688,200.63692688941956L195.30514285714287,248.7897938489914L195.552,224.71337914466858L200.98285714285714,88.28023731708527L203.2457142857143,172.54778265953064L203.82171428571428,132.420374751091L205.26171428571428,68.21655213832855L209.66400000000002,240.7643347978592L212.58514285714287,16.050955653190613L214.39542857142857,100.31846344470978L215.5062857142857,0L215.6297142857143,0L218.01600000000002,24.076414704322815L220.56685714285715,44.14013743400574L222.00685714285714,28.089181780815125L223.40571428571428,64.20382261276245L223.9817142857143,80.25477826595306L224.064,80.25477826595306L224.10514285714285,72.22928166389465L226.49142857142857,120.38214862346649L229.41257142857143,116.36941909790039L230.72914285714288,80.25477826595306L231.63428571428574,100.31846344470978L232.416,80.25477826595306L233.69142857142856,128.4076452255249L238.6285714285714,168.53501558303833L239.36914285714283,168.53501558303833L239.45142857142858,244.7770643234253L241.50857142857143,228.72610867023468L243.81257142857143,196.62419736385345L244.42971428571428,268.8535165786743L246.56914285714285,184.58597123622894L247.43314285714288,80.25477826595306L247.63885714285715,220.70064961910248L247.72114285714284,152.48405992984772L249.4902857142857,212.67515301704407L252.12342857142858,292.92993128299713L253.27542857142856,381.2101873755455L254.42742857142855,144.45860087871552L256.44342857142857,304.96815741062164L256.56685714285715,292.92993128299713L259.1177142857143,196.62419736385345L259.5702857142857,228.72610867023468L262.5737142857143,240.7643347978592L263.1497142857143,329.04459089040756L263.39657142857146,288.91720175743103L264.4251428571428,212.67515301704407L264.6308571428571,224.71337914466858L265.90628571428573,148.47133040428162L266.0297142857143,300.95542788505554L267.5931428571429,192.61146783828735L268.128,264.840749502182L268.2102857142857,200.63692688941956L271.54285714285714,136.4331042766571L272.9005714285714,220.70064961910248L275.32800000000003,152.48405992984772L276.0274285714286,252.8025609254837L276.89142857142855,260.8280199766159L280.9234285714286,220.70064961910248L282.40457142857144,88.28023731708527L282.5691428571428,312.99361646175385L282.8982857142857,208.66242349147797L285.9428571428571,240.7643347978592L287.50628571428575,256.8152904510498L288,252.8025609254837L288.0822857142857,244.7770643234253L289.6457142857143,188.59873831272125L290.1394285714286,204.64969396591187L291.86742857142855,60.19109308719635L294.6651428571429,200.63692688941956L295.03542857142855,144.45860087871552L295.1588571428572,272.8662461042404L298.2857142857143,72.22928166389465L298.368,140.4458713531494L300.5897142857143,196.62419736385345L301.7417142857143,325.03184258937836L304.45714285714286,248.7897938489914L306.0617142857143,100.31846344470978L309.7645714285714,176.56051218509674L310.42285714285714,325.03184258937836L310.9988571428571,160.50955653190613L313.50857142857143,4.012729525566101L314.41371428571426,164.52228605747223L317.41714285714284,112.35668957233429L317.49942857142855,152.48405992984772L318.81600000000003,240.7643347978592L320.37942857142855,284.90447223186493L323.3828571428571,152.48405992984772L323.5474285714286,365.1592317223549L324.16457142857143,124.3949156999588L325.8514285714286,212.67515301704407L325.97485714285716,132.420374751091L329.472,140.4458713531494L330.1714285714286,212.67515301704407L330.29485714285715,168.53501558303833L331.6937142857143,44.14013743400574L331.776,325.03184258937836L332.064,84.26750779151917L333.5451428571429,196.62419736385345L334.40914285714285,24.076414704322815L335.3965714285714,136.4331042766571L335.84914285714285,168.53501558303833L336.96000000000004,264.840749502182L337.78285714285715,68.21655213832855L337.98857142857145,192.61146783828735L342.3497142857143,248.7897938489914L342.76114285714283,337.07006871700287L344.8182857142857,184.58597123622894L345.59999999999997,168.53501558303833L346.13485714285713,337.07006871700287L346.3817142857143,136.4331042766571L346.91657142857144,228.72610867023468L349.2617142857143,160.50955653190613L350.208,357.1337538957596L350.41371428571426,284.90447223186493L351.4011428571429,296.94266080856323L352.3062857142857,401.2738913297653L352.84114285714287,80.25477826595306L353.8285714285714,92.29300439357758L357.7782857142857,216.68788254261017L357.9428571428572,232.73883819580078L358.7657142857143,264.840749502182L360.98742857142855,220.70064961910248L361.39885714285714,224.71337914466858L362.1805714285714,244.7770643234253L364.4022857142857,160.50955653190613L364.77257142857144,164.52228605747223L366.0068571428571,136.4331042766571L366.1302857142857,304.96815741062164L366.62399999999997,36.11464083194733L367.73485714285715,240.7643347978592L367.89942857142853,132.420374751091L372.17828571428566,144.45860087871552L372.5074285714286,100.31846344470978L373.12457142857147,124.3949156999588L377.11542857142854,168.53501558303833L378.18514285714286,212.67515301704407L379.0902857142857,148.47133040428162L382.8754285714286,72.22928166389465L383.2045714285714,116.36941909790039L384.8914285714286,196.62419736385345L387.4011428571429,204.64969396591187L388.67657142857144,164.52228605747223L391.3097142857143,280.8917051553726L392.05028571428574,373.1847095489502L392.46171428571427,160.50955653190613L392.5028571428571,160.50955653190613L393.2845714285714,304.96815741062164L394.23085714285713,80.25477826595306L395.01257142857145,0L396.6171428571428,84.26750779151917L397.0285714285714,80.25477826595306L397.44000000000005,80.25477826595306L397.5634285714285,92.29300439357758L398.1805714285714,120.38214862346649L399.5382857142857,24.076414704322815L403.5702857142857,12.038226127624512L405.0102857142857,100.31846344470978L405.70971428571426,108.34396004676819L406.7794285714286,8.025459051132202L407.02628571428573,4.012729525566101L409.78285714285715,44.14013743400574L410.60571428571427,36.11464083194733L410.93485714285714,40.12737035751343L411.34628571428567,32.101911306381226L412.78628571428567,44.14013743400574L415.54285714285714,60.19109308719635L416.85942857142857,0L419.2868571428572,36.11464083194733L420.72685714285717,36.11464083194733L421.17942857142856,40.12737035751343L421.67314285714286,12.038226127624512L422.3725714285714,0L427.0628571428572,32.101911306381226L427.22742857142856,12.038226127624512L428.5028571428572,48.15286695957184L428.7497142857143,76.24204874038696L431.5885714285714,40.12737035751343L433.39885714285714,12.038226127624512L433.6457142857143,20.063685178756714L434.59200000000004,16.050955653190613L434.7977142857143,56.17832601070404L435.168,44.14013743400574L438.8708571428572,76.24204874038696L438.99428571428575,96.30573391914368L440.1462857142857,56.17832601070404L440.55771428571427,88.28023731708527L442.94399999999996,48.15286695957184L444.38399999999996,32.101911306381226L445.74171428571424,116.36941909790039L445.7828571428571,160.50955653190613L446.1531428571429,136.4331042766571L448.0457142857143,180.57324171066284L448.25142857142856,16.050955653190613L453.3531428571428,240.7643347978592L453.4765714285714,12.038226127624512L454.3405714285714,68.21655213832855L455.7805714285714,20.063685178756714L456.06857142857143,40.12737035751343L456.768,40.12737035751343L456.8502857142857,72.22928166389465L456.9737142857143,60.19109308719635L457.8377142857143,0L458.12571428571425,4.012729525566101L459.07199999999995,16.050955653190613L459.77142857142854,44.14013743400574L460.51199999999994,40.12737035751343L460.75885714285715,56.17832601070404L461.1702857142857,92.29300439357758L463.0628571428571,104.33119297027588L463.39199999999994,44.14013743400574L470.0982857142857,92.29300439357758L470.38628571428575,136.4331042766571L471.4971428571428,128.4076452255249L473.4308571428571,80.25477826595306L473.8011428571429,32.101911306381226L475.11771428571427,96.30573391914368L475.9817142857143,108.34396004676819L477.7508571428571,156.49682700634003L477.8742857142857,76.24204874038696L478.6971428571428,132.420374751091L478.9851428571429,116.36941909790039L480.0548571428572,76.24204874038696L482.9348571428572,180.57324171066284L483.30514285714287,20.063685178756714L483.5931428571428,136.4331042766571L484.128,104.33119297027588L485.0331428571428,188.59873831272125L486.59657142857145,152.48405992984772L487.8308571428571,148.47133040428162L488.77714285714285,188.59873831272125L489.5177142857143,112.35668957233429L492.3977142857143,168.53501558303833L495.35999999999996,60.19109308719635L495.48342857142853,264.840749502182L497.1291428571429,260.8280199766159L498.11657142857143,260.8280199766159L500.79085714285713,228.72610867023468L503.99999999999994,124.3949156999588L504.2057142857143,292.92993128299713L504.32914285714287,108.34396004676819L505.3988571428571,284.90447223186493L507.20914285714287,377.1974578499794L507.86742857142855,4.012729525566101L508.8548571428571,108.34396004676819L509.55428571428575,112.35668957233429L512.4754285714286,304.96815741062164L513.2982857142857,20.063685178756714L513.5862857142857,128.4076452255249L518.2354285714287,76.24204874038696L518.3588571428571,48.15286695957184L519.2228571428572,92.29300439357758L519.4285714285714,96.30573391914368L521.6502857142857,104.33119297027588L522.0617142857143,148.47133040428162L522.2262857142857,108.34396004676819L523.4194285714286,164.52228605747223L524.736,104.33119297027588L524.7771428571428,104.33119297027588L526.9165714285714,144.45860087871552L527.616,192.61146783828735L528.192,264.840749502182L528.8502857142856,200.63692688941956L529.5497142857143,196.62419736385345L531.1954285714286,176.56051218509674L533.088,284.90447223186493L533.1291428571428,260.8280199766159L534.0342857142857,204.64969396591187L534.3222857142857,284.90447223186493L535.4742857142857,296.94266080856323L535.8857142857144,80.25477826595306L536.0914285714285,264.840749502182L536.544,172.54778265953064L536.9142857142857,240.7643347978592L537.4902857142857,128.4076452255249L539.0537142857142,260.8280199766159L539.1771428571428,252.8025609254837L540.576,272.8662461042404L540.7405714285713,292.92993128299713L541.6868571428571,248.7897938489914L541.9337142857142,280.8917051553726L542.016,280.8917051553726L543.6617142857143,264.840749502182L543.9085714285715,112.35668957233429L544.4434285714286,236.7516052722931L544.6491428571428,292.92993128299713L547.2822857142858,256.8152904510498L548.064,208.66242349147797L548.4342857142857,192.61146783828735L550.2857142857142,144.45860087871552L551.232,369.1719800233841L551.3142857142857,244.7770643234253L551.3554285714285,188.59873831272125L553.7828571428571,268.8535165786743L554.2765714285714,288.91720175743103L557.9382857142857,240.7643347978592L560.3245714285714,312.99361646175385L562.5051428571429,365.1592317223549L563.328,208.66242349147797L564.6034285714285,280.8917051553726L564.9737142857143,212.67515301704407L565.6731428571428,244.7770643234253L566.0022857142858,104.33119297027588L566.3725714285714,272.8662461042404L567.648,196.62419736385345L569.2525714285714,288.91720175743103L569.7462857142857,184.58597123622894L570.6925714285715,176.56051218509674L571.2685714285715,164.52228605747223L571.3508571428571,288.91720175743103L572.832,288.91720175743103L574.3131428571428,373.1847095489502L575.424,124.3949156999588L577.2754285714286,325.03184258937836L579.0034285714286,204.64969396591187L581.472,337.07006871700287L582.0068571428571,228.72610867023468L582.0891428571429,373.1847095489502L582.9531428571429,204.64969396591187L583.1588571428572,160.50955653190613L583.7348571428571,300.95542788505554L584.352,308.98088693618774L584.64,381.2101873755455L585.4217142857143,176.56051218509674L585.9154285714286,164.52228605747223L589.9062857142857,345.0955465435982L590.5234285714286,236.7516052722931L590.976,272.8662461042404L591.1405714285714,284.90447223186493L591.7988571428572,357.1337538957596L593.1565714285715,365.1592317223549L593.5268571428571,80.25477826595306L596.16,164.52228605747223L596.2834285714285,288.91720175743103L596.9417142857143,228.72610867023468L600.5211428571429,308.98088693618774L600.8914285714285,288.91720175743103L602.1668571428571,208.66242349147797L603.072,256.8152904510498L603.9771428571429,188.59873831272125L606.9805714285715,272.8662461042404L609.9428571428572,20.063685178756714L611.8354285714286,124.3949156999588L612.9874285714286,240.7643347978592L615.4148571428572,353.1210243701935L616.0731428571429,216.68788254261017L617.3485714285714,325.03184258937836L618.5417142857142,312.99361646175385L619.5702857142857,288.91720175743103L619.776,405.2866208553314L620.3108571428571,312.99361646175385L621.0925714285714,256.8152904510498L622.8617142857142,256.8152904510498L623.6845714285714,196.62419736385345L626.0708571428572,228.72610867023468L626.7702857142857,116.36941909790039L627.8811428571429,132.420374751091L628.2514285714285,144.45860087871552L628.7451428571428,172.54778265953064L629.2388571428571,373.1847095489502L629.856,92.29300439357758L630.0205714285714,116.36941909790039L630.72,268.8535165786743L632.2011428571428,32.101911306381226L632.8182857142857,12.038226127624512L633.3531428571429,40.12737035751343L633.8468571428571,116.36941909790039L633.8879999999999,100.31846344470978L634.0525714285715,80.25477826595306L635.2045714285715,188.59873831272125L638.2491428571428,180.57324171066284L639.7302857142857,232.73883819580078L641.9108571428571,176.56051218509674L642.0754285714286,200.63692688941956L642.8982857142856,228.72610867023468L644.9142857142857,296.94266080856323L646.1074285714286,236.7516052722931L647.8354285714286,260.8280199766159L649.9337142857144,288.91720175743103L650.5508571428571,52.16559648513794L650.88,160.50955653190613L651.1268571428571,240.7643347978592L653.3074285714285,321.01911306381226L653.4308571428571,304.96815741062164L655.0765714285715,296.94266080856323L656.1051428571428,329.04459089040756L656.3931428571428,345.0955465435982L657.2982857142857,284.90447223186493L658.6971428571428,441.40128046274185L660.1371428571429,216.68788254261017L661.0834285714285,337.07006871700287L661.7417142857142,304.96815741062164L663.9222857142856,216.68788254261017L664.7451428571429,429.36305433511734L664.8685714285714,304.96815741062164L665.2800000000001,421.33757650852203L665.5268571428571,389.2356652021408L666.432,341.08279824256897L669.8057142857143,345.0955465435982L675.6068571428572,164.52228605747223L675.8537142857142,92.29300439357758L676.8,92.29300439357758L678.3222857142857,48.15286695957184L678.3634285714286,52.16559648513794L678.6102857142857,92.29300439357758L678.9805714285715,104.33119297027588L679.68,112.35668957233429L680.1737142857143,80.25477826595306L680.4205714285714,112.35668957233429L682.8480000000001,112.35668957233429L684.9051428571429,156.49682700634003L686.8388571428571,156.49682700634003L688.3199999999999,204.64969396591187L689.3074285714285,240.7643347978592L689.4308571428571,204.64969396591187L692.5165714285714,304.96815741062164L692.7634285714286,300.95542788505554L693.9977142857142,204.64969396591187L694.368,144.45860087871552L694.5325714285714,100.31846344470978L694.7794285714286,160.50955653190613L697.2068571428572,208.66242349147797L698.5645714285714,40.12737035751343L698.6057142857143,48.15286695957184L698.9348571428571,220.70064961910248L699.0994285714286,232.73883819580078L699.7988571428572,76.24204874038696L701.3211428571428,8.025459051132202L702.432,16.050955653190613L703.2137142857142,52.16559648513794L704.5714285714286,68.21655213832855L704.6125714285714,68.21655213832855L705.6,52.16559648513794L708.768,48.15286695957184L711.36,20.063685178756714L713.088,52.16559648513794L713.2525714285714,28.089181780815125L715.0628571428571,176.56051218509674L715.8445714285715,180.57324171066284L718.6011428571429,92.29300439357758L720.9874285714286,192.61146783828735L721.6868571428572,184.58597123622894L721.9337142857142,200.63692688941956L725.2662857142857,216.68788254261017L726.4182857142856,176.56051218509674L727.1177142857143,232.73883819580078L727.2,168.53501558303833L728.5165714285715,264.840749502182L729.792,196.62419736385345L732.2194285714286,252.8025609254837L738.1028571428571,280.8917051553726L739.0902857142858,216.68788254261017L739.4605714285714,248.7897938489914L739.7074285714286,184.58597123622894L741.6,180.57324171066284L741.7234285714285,128.4076452255249L742.5051428571429,321.01911306381226L743.2868571428572,300.95542788505554L747.9359999999999,308.98088693618774L748.2651428571429,244.7770643234253L748.5120000000001,280.8917051553726L751.1039999999999,48.15286695957184L752.7085714285714,72.22928166389465L753.5725714285715,0L756,192.61146783828735L756.5348571428572,156.49682700634003L756.9462857142856,128.4076452255249L757.1108571428571,240.7643347978592L759.0445714285715,256.8152904510498L762.0068571428573,252.8025609254837L762.912,228.72610867023468L763.6114285714285,244.7770643234253L765.5039999999999,188.59873831272125L766.9028571428572,220.70064961910248L769.5771428571429,212.67515301704407L771.7988571428571,260.8280199766159L772.8685714285714,140.4458713531494L773.0742857142857,184.58597123622894L775.9954285714286,112.35668957233429L776.1600000000001,108.34396004676819L777.4765714285713,156.49682700634003L779.4925714285715,228.72610867023468L782.0434285714285,280.8917051553726L782.0845714285714,288.91720175743103L783.1131428571429,168.53501558303833L783.4834285714286,208.66242349147797L784.0594285714285,345.0955465435982L785.7874285714287,212.67515301704407L786.816,200.63692688941956L792.6582857142857,188.59873831272125L793.9337142857142,156.49682700634003L795.3325714285714,228.72610867023468L796.2788571428571,329.04459089040756L797.8422857142856,260.8280199766159L798.2537142857143,212.67515301704407L799.776,224.71337914466858L800.1051428571429,240.7643347978592L800.6811428571428,248.7897938489914L801.1337142857143,232.73883819580078L801.8742857142856,244.7770643234253L801.9565714285714,276.8789756298065L802.9028571428572,260.8280199766159L802.944,244.7770643234253L802.9851428571429,196.62419736385345L803.1085714285714,168.53501558303833L803.8902857142858,244.7770643234253L805.3302857142858,212.67515301704407L806.0297142857142,244.7770643234253L806.6057142857143,260.8280199766159L807.4697142857142,256.8152904510498L807.8811428571429,160.50955653190613L808.2102857142858,164.52228605747223L808.6217142857142,288.91720175743103L810.6377142857143,417.32484698295593L810.9668571428571,208.66242349147797L812.2834285714285,0L812.8594285714286,216.68788254261017L813.1062857142857,409.2993691563606L813.6822857142856,337.07006871700287L814.0525714285715,232.73883819580078L814.3405714285715,160.50955653190613L814.3817142857142,172.54778265953064L814.5462857142857,345.0955465435982L815.5748571428571,312.99361646175385L815.9862857142857,329.04459089040756L816.8091428571429,100.31846344470978L817.3851428571429,256.8152904510498L818.8662857142857,280.8917051553726L819.648,308.98088693618774L821.664,128.4076452255249L821.7051428571427,72.22928166389465L821.9108571428571,220.70064961910248L823.0217142857143,4.012729525566101L824.5851428571427,104.33119297027588L829.1519999999999,156.49682700634003L829.5222857142857,240.7643347978592L830.1805714285715,296.94266080856323L830.304,204.64969396591187L830.6742857142857,232.73883819580078L831.8262857142857,160.50955653190613L833.2251428571428,333.05732041597366L833.2662857142857,349.1082760691643L833.76,80.25477826595306L835.3645714285714,329.04459089040756L836.393142857143,204.64969396591187L837.0925714285713,144.45860087871552L838.9028571428571,112.35668957233429L839.8902857142856,288.91720175743103L840.7954285714286,180.57324171066284L841.9474285714285,220.70064961910248L844.1691428571429,144.45860087871552L845.9794285714286,108.34396004676819L849.6411428571429,60.19109308719635L849.6822857142856,88.28023731708527L853.2617142857143,248.7897938489914L853.5908571428572,272.8662461042404L855.4422857142857,365.1592317223549L857.9108571428573,216.68788254261017L860.4205714285714,160.50955653190613L860.7085714285715,312.99361646175385L861.9017142857143,397.2611430287361L863.424,341.08279824256897L864.1234285714287,321.01911306381226L865.8514285714286,300.95542788505554L867.8262857142857,345.0955465435982L869.472,369.1719800233841L870.5005714285713,381.2101873755455L871.2822857142856,80.25477826595306L871.4879999999999,96.30573391914368L872.4342857142857,216.68788254261017L872.8457142857142,365.1592317223549L873.3394285714286,361.1465021967888L874.2034285714286,292.92993128299713L876.1371428571429,345.0955465435982L877.0011428571429,413.3120986819267L878.5234285714284,345.0955465435982L879.1817142857143,292.92993128299713L881.568,393.24841350317L883.3782857142857,280.8917051553726L883.5428571428571,296.94266080856323L884.5714285714287,329.04459089040756L885.6411428571429,329.04459089040756L892.1828571428571,248.7897938489914L892.8,473.5031823813915L892.9234285714285,244.7770643234253L893.8285714285713,188.59873831272125L894.0754285714286,252.8025609254837L895.0217142857143,361.1465021967888L896.0502857142857,192.61146783828735L896.6674285714286,288.91720175743103L898.3131428571428,308.98088693618774L898.56,300.95542788505554L899.136,393.24841350317L899.5885714285714,48.15286695957184L899.9588571428573,12.038226127624512L901.8514285714286,60.19109308719635L902.1394285714287,96.30573391914368L902.3040000000001,164.52228605747223L902.5508571428571,128.4076452255249L904.9782857142857,132.420374751091L906.0891428571429,164.52228605747223L907.0354285714285,36.11464083194733L909.9154285714286,80.25477826595306L910.8205714285714,136.4331042766571L912.1782857142857,124.3949156999588L912.5074285714286,128.4076452255249L912.8777142857143,132.420374751091L913.1657142857142,132.420374751091L914.8114285714285,120.38214862346649L915.3462857142856,84.26750779151917L915.552,132.420374751091L915.7988571428571,116.36941909790039L915.9222857142857,124.3949156999588L919.0491428571429,100.31846344470978L919.0902857142858,116.36941909790039L919.1725714285715,144.45860087871552L920.9005714285714,100.31846344470978L921.0239999999999,164.52228605747223L922.2994285714286,244.7770643234253L923.4102857142857,184.58597123622894L923.5337142857143,84.26750779151917L923.7394285714287,180.57324171066284L925.4262857142857,120.38214862346649L926.0434285714285,88.28023731708527L926.6605714285714,128.4076452255249L927.0308571428571,28.089181780815125L927.1131428571429,64.20382261276245L928.7177142857144,236.7516052722931L929.1291428571428,188.59873831272125L929.7051428571428,144.45860087871552L931.4742857142858,120.38214862346649L932.3794285714287,8.025459051132202L933.3257142857143,44.14013743400574L935.0125714285715,36.11464083194733L935.5474285714286,112.35668957233429L935.5885714285714,64.20382261276245L936.3702857142857,0L936.4114285714285,0L936.4937142857142,16.050955653190613L936.6994285714286,36.11464083194733L937.152,88.28023731708527L941.6777142857143,240.7643347978592L941.7188571428571,240.7643347978592L942.4182857142857,136.4331042766571L942.5828571428572,172.54778265953064L944.1051428571429,184.58597123622894L945.3805714285714,0L945.4217142857142,0L945.5451428571429,172.54778265953064L945.5862857142856,124.3949156999588L947.1908571428571,32.101911306381226L947.5611428571428,0L948.5485714285714,120.38214862346649L949.9062857142857,108.34396004676819L950.8937142857143,156.49682700634003L950.9348571428573,164.52228605747223L952.4159999999999,212.67515301704407L953.9794285714285,236.7516052722931L955.6251428571429,192.61146783828735L955.872,228.72610867023468L955.9542857142857,272.8662461042404L955.9954285714286,252.8025609254837L957.2708571428572,188.59873831272125L957.6411428571429,104.33119297027588L957.8057142857143,160.50955653190613L960.4388571428572,140.4458713531494L963.1131428571429,236.7516052722931L964.0594285714285,180.57324171066284L964.7177142857144,224.71337914466858L967.5154285714286,272.8662461042404L967.6388571428571,212.67515301704407L967.8445714285714,345.0955465435982L970.6011428571428,284.90447223186493L971.3417142857143,369.1719800233841L974.4274285714287,268.8535165786743L976.0319999999999,341.08279824256897L976.0731428571429,304.96815741062164L978.6651428571429,304.96815741062164L979.2,212.67515301704407L979.6525714285715,212.67515301704407L982.5325714285715,184.58597123622894L983.0674285714286,228.72610867023468L984.2605714285714,148.47133040428162L984.3017142857143,144.45860087871552L985.9885714285714,72.22928166389465L986.976,204.64969396591187L987.2228571428572,252.8025609254837L988.0457142857143,321.01911306381226L988.2925714285715,244.7770643234253L989.1565714285714,140.4458713531494L989.4034285714285,176.56051218509674L991.872,200.63692688941956L994.2994285714285,20.063685178756714L995.616,104.33119297027588L995.904,160.50955653190613L999.3599999999999,96.30573391914368L1004.7085714285714,272.8662461042404L1005.7371428571428,256.8152904510498L1006.2719999999999,268.8535165786743L1007.3828571428572,260.8280199766159L1007.6708571428571,216.68788254261017L1008.1234285714286,345.0955465435982L1008.3291428571429,148.47133040428162L1008.6171428571428,144.45860087871552L1008.6582857142857,200.63692688941956L1009.2342857142856,88.28023731708527L1010.3862857142857,341.08279824256897L1013.2251428571428,180.57324171066284L1013.3485714285714,260.8280199766159L1014.7474285714285,272.8662461042404L1015.0765714285715,196.62419736385345L1016.4342857142857,280.8917051553726L1016.5165714285714,204.64969396591187L1018.0388571428572,325.03184258937836L1021.7828571428571,325.03184258937836L1021.8651428571428,252.8025609254837L1022.441142857143,180.57324171066284L1026.8434285714286,292.92993128299713L1027.1314285714286,52.16559648513794L1027.6251428571427,52.16559648513794L1029.641142857143,100.31846344470978L1029.7234285714287,236.7516052722931L1030.1760000000002,437.38853216171265L1030.2171428571428,425.35032480955124L1030.422857142857,296.94266080856323L1033.92,24.076414704322815L1034.0434285714286,40.12737035751343L1034.0845714285715,16.050955653190613L1040.0914285714287,244.7770643234253L1040.256,212.67515301704407L1040.297142857143,176.56051218509674L1040.9965714285715,180.57324171066284L1041.6137142857144,288.91720175743103L1042.0251428571428,312.99361646175385L1042.4777142857142,136.4331042766571L1042.6834285714287,148.47133040428162L1042.8891428571428,288.91720175743103L1043.0537142857142,172.54778265953064L1043.3005714285714,292.92993128299713L1044.288,268.8535165786743L1044.6994285714286,208.66242349147797L1045.769142857143,88.28023731708527L1045.8514285714286,196.62419736385345L1046.2217142857144,60.19109308719635L1047.6205714285713,256.8152904510498L1048.566857142857,252.8025609254837L1049.9657142857143,304.96815741062164L1050.6651428571429,308.98088693618774L1051.6525714285715,240.7643347978592L1052.4342857142858,248.7897938489914L1053.0102857142856,369.1719800233841L1054.368,228.72610867023468L1059.017142857143,140.4458713531494L1061.0331428571428,264.840749502182L1063.5428571428572,329.04459089040756L1064.3657142857141,240.7643347978592L1064.8182857142856,200.63692688941956L1065.641142857143,184.58597123622894L1068.1097142857143,32.101911306381226L1068.6445714285715,453.43948781490326L1070.1668571428572,308.98088693618774L1070.9897142857144,228.72610867023468L1071.4422857142856,425.35032480955124L1074.9805714285715,373.1847095489502L1075.392,353.1210243701935L1078.9714285714285,136.4331042766571L1081.193142857143,409.2993691563606L1082.7154285714284,349.1082760691643L1082.7977142857142,345.0955465435982L1083.990857142857,228.72610867023468L1085.5954285714286,236.7516052722931L1087.5702857142858,88.28023731708527L1089.5451428571428,401.2738913297653L1089.6274285714285,224.71337914466858L1089.9565714285716,393.24841350317L1091.190857142857,228.72610867023468L1092.0137142857143,337.07006871700287L1092.1371428571429,160.50955653190613L1092.7131428571429,132.420374751091L1095.0582857142856,180.57324171066284L1099.008,116.36941909790039L1100.8594285714287,188.59873831272125L1101.024,284.90447223186493L1103.4925714285714,341.08279824256897L1105.385142857143,216.68788254261017L1106.6194285714287,312.99361646175385L1107.5245714285716,244.7770643234253L1107.8537142857142,329.04459089040756L1110.4457142857143,108.34396004676819L1112.8731428571427,272.8662461042404L1114.1074285714285,192.61146783828735L1114.7657142857142,220.70064961910248L1115.0125714285714,148.47133040428162L1116.3702857142857,405.2866208553314L1117.5634285714286,148.47133040428162L1118.1394285714287,244.7770643234253L1119.4148571428573,212.67515301704407L1121.0194285714285,240.7643347978592L1124.5577142857144,40.12737035751343L1124.886857142857,24.076414704322815L1127.5611428571428,284.90447223186493L1128.5897142857143,317.00636476278305L1129.1245714285715,256.8152904510498L1129.3714285714286,260.8280199766159L1129.4125714285715,288.91720175743103L1129.4948571428572,232.73883819580078L1132.7451428571428,256.8152904510498L1135.1725714285715,329.04459089040756L1139.8628571428571,349.1082760691643L1140.48,333.05732041597366L1142.537142857143,16.050955653190613L1142.6194285714284,8.025459051132202L1143.7302857142859,60.19109308719635L1144.9234285714285,88.28023731708527L1146.2811428571429,252.8025609254837L1147.3097142857143,132.420374751091L1149.8194285714285,192.61146783828735L1150.9714285714285,108.34396004676819L1151.1771428571428,156.49682700634003L1152.4937142857143,220.70064961910248L1153.9337142857144,296.94266080856323L1154.5919999999999,240.7643347978592L1155.2914285714285,272.8662461042404L1156.9782857142857,124.3949156999588L1159.1177142857143,365.1592317223549L1160.8457142857144,333.05732041597366L1161.4217142857142,369.1719800233841L1162.0800000000002,148.47133040428162L1162.944,381.2101873755455L1163.3142857142857,296.94266080856323L1163.9725714285714,128.4076452255249L1164.096,152.48405992984772L1166.5645714285713,116.36941909790039L1166.6057142857144,128.4076452255249L1167.1817142857142,208.66242349147797L1171.049142857143,20.063685178756714L1171.7074285714284,164.52228605747223L1172.2422857142856,80.25477826595306L1172.694857142857,84.26750779151917L1175.8217142857143,148.47133040428162L1176.3977142857143,44.14013743400574L1176.809142857143,32.101911306381226L1177.056,112.35668957233429L1179.5657142857144,112.35668957233429L1181.2937142857143,168.53501558303833L1183.5154285714286,24.076414704322815L1187.7942857142857,92.29300439357758L1189.357714285714,40.12737035751343L1191.2502857142856,152.48405992984772L1191.3325714285713,96.30573391914368L1192.9782857142857,108.34396004676819L1193.0194285714285,88.28023731708527L1193.0605714285714,96.30573391914368L1193.7188571428571,92.29300439357758L1194.2537142857143,108.34396004676819L1194.336,96.30573391914368L1198.4091428571428,248.7897938489914L1199.6845714285714,264.840749502182L1203.552,240.7643347978592L1204.1280000000002,308.98088693618774L1204.5805714285716,325.03184258937836L1207.2137142857143,60.19109308719635L1207.4605714285715,108.34396004676819L1207.7074285714286,148.47133040428162L1207.872,196.62419736385345L1207.913142857143,228.72610867023468L1208.489142857143,429.36305433511734L1210.998857142857,401.2738913297653L1212.6445714285715,361.1465021967888L1214.9074285714285,345.0955465435982L1216.1005714285714,337.07006871700287L1219.392,329.04459089040756L1219.8445714285715,409.2993691563606L1220.1737142857144,353.1210243701935L1222.1485714285716,321.01911306381226L1223.136,148.47133040428162L1224.7817142857143,96.30573391914368L1224.905142857143,349.1082760691643L1226.1805714285713,369.1719800233841L1226.592,276.8789756298065L1226.8799999999999,333.05732041597366L1227.4560000000001,304.96815741062164L1227.6205714285713,304.96815741062164L1229.9657142857143,296.94266080856323L1230.7885714285715,317.00636476278305L1230.912,317.00636476278305L1231.776,252.8025609254837L1233.3394285714285,284.90447223186493L1234.2445714285714,112.35668957233429" style="fill: none;" fill="none"></path></g></g></g></g></g></g><g transform="translate(58, 378)" clip-path="url(#clip_1)"><clipPath id="clip_1"><rect width="1440" height="22"></rect></clipPath><g><g><line x1="0" y1="0" x2="0" y2="5" style="visibility: inherit;" fill="rgb(0, 0, 0)" stroke="rgb(204, 204, 204)" stroke-width="1px"></line><line x1="205.7142857142857" y1="0" x2="205.7142857142857" y2="5" style="visibility: inherit;" fill="rgb(0, 0, 0)" stroke="rgb(204, 204, 204)" stroke-width="1px"></line><line x1="411.4285714285714" y1="0" x2="411.4285714285714" y2="5" style="visibility: inherit;" fill="rgb(0, 0, 0)" stroke="rgb(204, 204, 204)" stroke-width="1px"></line><line x1="617.1428571428571" y1="0" x2="617.1428571428571" y2="5" style="visibility: inherit;" fill="rgb(0, 0, 0)" stroke="rgb(204, 204, 204)" stroke-width="1px"></line><line x1="822.8571428571428" y1="0" x2="822.8571428571428" y2="5" style="visibility: inherit;" fill="rgb(0, 0, 0)" stroke="rgb(204, 204, 204)" stroke-width="1px"></line><line x1="1028.5714285714287" y1="0" x2="1028.5714285714287" y2="5" style="visibility: inherit;" fill="rgb(0, 0, 0)" stroke="rgb(204, 204, 204)" stroke-width="1px"></line><line x1="1234.2857142857142" y1="0" x2="1234.2857142857142" y2="5" style="visibility: inherit;" fill="rgb(0, 0, 0)" stroke="rgb(204, 204, 204)" stroke-width="1px"></line><line x1="1440" y1="0" x2="1440" y2="5" style="visibility: inherit;" fill="rgb(0, 0, 0)" stroke="rgb(204, 204, 204)" stroke-width="1px"></line></g><g transform="translate(0, 8)"><text x="0" y="0" dx="0em" dy="0.95em" style="text-anchor: middle; visibility: hidden; font-family: &quot;Helvetica Neue&quot;, sans-serif; font-size: 12px; font-weight: 200;" fill="rgb(50, 49, 63)" stroke="none" stroke-width="1px">20k</text><text x="205.7142857142857" y="0" dx="0em" dy="0.95em" style="text-anchor: middle; visibility: inherit; font-family: &quot;Helvetica Neue&quot;, sans-serif; font-size: 12px; font-weight: 200;" fill="rgb(50, 49, 63)" stroke="none" stroke-width="1px">25k</text><text x="411.4285714285714" y="0" dx="0em" dy="0.95em" style="text-anchor: middle; visibility: inherit; font-family: &quot;Helvetica Neue&quot;, sans-serif; font-size: 12px; font-weight: 200;" fill="rgb(50, 49, 63)" stroke="none" stroke-width="1px">30k</text><text x="617.1428571428571" y="0" dx="0em" dy="0.95em" style="text-anchor: middle; visibility: inherit; font-family: &quot;Helvetica Neue&quot;, sans-serif; font-size: 12px; font-weight: 200;" fill="rgb(50, 49, 63)" stroke="none" stroke-width="1px">35k</text><text x="822.8571428571428" y="0" dx="0em" dy="0.95em" style="text-anchor: middle; visibility: inherit; font-family: &quot;Helvetica Neue&quot;, sans-serif; font-size: 12px; font-weight: 200;" fill="rgb(50, 49, 63)" stroke="none" stroke-width="1px">40k</text><text x="1028.5714285714287" y="0" dx="0em" dy="0.95em" style="text-anchor: middle; visibility: inherit; font-family: &quot;Helvetica Neue&quot;, sans-serif; font-size: 12px; font-weight: 200;" fill="rgb(50, 49, 63)" stroke="none" stroke-width="1px">45k</text><text x="1234.2857142857142" y="0" dx="0em" dy="0.95em" style="text-anchor: middle; visibility: inherit; font-family: &quot;Helvetica Neue&quot;, sans-serif; font-size: 12px; font-weight: 200;" fill="rgb(50, 49, 63)" stroke="none" stroke-width="1px">50k</text><text x="1440" y="0" dx="0em" dy="0.95em" style="text-anchor: middle; visibility: hidden; font-family: &quot;Helvetica Neue&quot;, sans-serif; font-size: 12px; font-weight: 200;" fill="rgb(50, 49, 63)" stroke="none" stroke-width="1px">55k</text></g><line x1="0" y1="0" x2="1440" y2="0" fill="rgb(0, 0, 0)" stroke="rgb(204, 204, 204)" stroke-width="1px"></line></g></g></g></g></svg>