<svg viewBox="0 0 1498 400" xmlns="http://www.w3.org/2000/svg"><g><g><g><g><g><line x1="22" y1="378" x2="17" y2="378" style="visibility: inherit;" fill="rgb(0, 0, 0)" stroke="rgb(204, 204, 204)" stroke-width="1px"></line><line x1="22" y1="340.2" x2="17" y2="340.2" style="visibility: inherit;" fill="rgb(0, 0, 0)" stroke="rgb(204, 204, 204)" stroke-width="1px"></line><line x1="22" y1="302.4" x2="17" y2="302.4" style="visibility: inherit;" fill="rgb(0, 0, 0)" stroke="rgb(204, 204, 204)" stroke-width="1px"></line><line x1="22" y1="264.6" x2="17" y2="264.6" style="visibility: inherit;" fill="rgb(0, 0, 0)" stroke="rgb(204, 204, 204)" stroke-width="1px"></line><line x1="22" y1="226.79999999999998" x2="17" y2="226.79999999999998" style="visibility: inherit;" fill="rgb(0, 0, 0)" stroke="rgb(204, 204, 204)" stroke-width="1px"></line><line x1="22" y1="189" x2="17" y2="189" style="visibility: inherit;" fill="rgb(0, 0, 0)" stroke="rgb(204, 204, 204)" stroke-width="1px"></line><line x1="22" y1="151.20000000000002" x2="17" y2="151.20000000000002" style="visibility: inherit;" fill="rgb(0, 0, 0)" stroke="rgb(204, 204, 204)" stroke-width="1px"></line><line x1="22" y1="113.40000000000003" x2="17" y2="113.40000000000003" style="visibility: inherit;" fill="rgb(0, 0, 0)" stroke="rgb(204, 204, 204)" stroke-width="1px"></line><line x1="22" y1="75.59999999999997" x2="17" y2="75.59999999999997" style="visibility: inherit;" fill="rgb(0, 0, 0)" stroke="rgb(204, 204, 204)" stroke-width="1px"></line><line x1="22" y1="37.799999999916054" x2="17" y2="37.799999999916054" style="visibility: inherit;" fill="rgb(0, 0, 0)" stroke="rgb(204, 204, 204)" stroke-width="1px"></line><line x1="22" y1="0" x2="17" y2="0" style="visibility: inherit;" fill="rgb(0, 0, 0)" stroke="rgb(204, 204, 204)" stroke-width="1px"></line></g><g transform="translate(12, 0)"><text x="0" y="378" dx="0em" dy="0.3em" style="text-anchor: end; visibility: hidden; font-family: &quot;Helvetica Neue&quot;, sans-serif; font-size: 12px; font-weight: 200;" fill="rgb(50, 49, 63)" stroke="none" stroke-width="1px">1</text><text x="0" y="340.2" dx="0em" dy="0.3em" style="text-anchor: end; visibility: inherit; font-family: &quot;Helvetica Neue&quot;, sans-serif; font-size: 12px; font-weight: 200;" fill="rgb(50, 49, 63)" stroke="none" stroke-width="1px">1</text><text x="0" y="302.4" dx="0em" dy="0.3em" style="text-anchor: end; visibility: inherit; font-family: &quot;Helvetica Neue&quot;, sans-serif; font-size: 12px; font-weight: 200;" fill="rgb(50, 49, 63)" stroke="none" stroke-width="1px">1</text><text x="0" y="264.6" dx="0em" dy="0.3em" style="text-anchor: end; visibility: inherit; font-family: &quot;Helvetica Neue&quot;, sans-serif; font-size: 12px; font-weight: 200;" fill="rgb(50, 49, 63)" stroke="none" stroke-width="1px">1</text><text x="0" y="226.79999999999998" dx="0em" dy="0.3em" style="text-anchor: end; visibility: inherit; font-family: &quot;Helvetica Neue&quot;, sans-serif; font-size: 12px; font-weight: 200;" fill="rgb(50, 49, 63)" stroke="none" stroke-width="1px">1</text><text x="0" y="189" dx="0em" dy="0.3em" style="text-anchor: end; visibility: inherit; font-family: &quot;Helvetica Neue&quot;, sans-serif; font-size: 12px; font-weight: 200;" fill="rgb(50, 49, 63)" stroke="none" stroke-width="1px">1</text><text x="0" y="151.20000000000002" dx="0em" dy="0.3em" style="text-anchor: end; visibility: inherit; font-family: &quot;Helvetica Neue&quot;, sans-serif; font-size: 12px; font-weight: 200;" fill="rgb(50, 49, 63)" stroke="none" stroke-width="1px">1</text><text x="0" y="113.40000000000003" dx="0em" dy="0.3em" style="text-anchor: end; visibility: inherit; font-family: &quot;Helvetica Neue&quot;, sans-serif; font-size: 12px; font-weight: 200;" fill="rgb(50, 49, 63)" stroke="none" stroke-width="1px">1</text><text x="0" y="75.59999999999997" dx="0em" dy="0.3em" style="text-anchor: end; visibility: inherit; font-family: &quot;Helvetica Neue&quot;, sans-serif; font-size: 12px; font-weight: 200;" fill="rgb(50, 49, 63)" stroke="none" stroke-width="1px">1</text><text x="0" y="37.799999999916054" dx="0em" dy="0.3em" style="text-anchor: end; visibility: inherit; font-family: &quot;Helvetica Neue&quot;, sans-serif; font-size: 12px; font-weight: 200;" fill="rgb(50, 49, 63)" stroke="none" stroke-width="1px">1</text><text x="0" y="0" dx="0em" dy="0.3em" style="text-anchor: end; visibility: hidden; font-family: &quot;Helvetica Neue&quot;, sans-serif; font-size: 12px; font-weight: 200;" fill="rgb(50, 49, 63)" stroke="none" stroke-width="1px">1</text></g><line x1="22" y1="0" x2="22" y2="378" fill="rgb(0, 0, 0)" stroke="rgb(204, 204, 204)" stroke-width="1px"></line></g></g><g transform="translate(22, 0)" clip-path="url(#clip_0)"><clipPath id="clip_0"><rect width="1476" height="378"></rect></clipPath><g><g><g><line x1="0" y1="0" x2="0" y2="378" fill="rgb(0, 0, 0)" stroke="rgb(60, 60, 60)" stroke-width="1px" opacity="0.25"></line><line x1="210.85714285714283" y1="0" x2="210.85714285714283" y2="378" fill="rgb(0, 0, 0)" stroke="rgb(60, 60, 60)" stroke-width="1px" opacity="0.25"></line><line x1="421.71428571428567" y1="0" x2="421.71428571428567" y2="378" fill="rgb(0, 0, 0)" stroke="rgb(60, 60, 60)" stroke-width="1px" opacity="0.25"></line><line x1="632.5714285714286" y1="0" x2="632.5714285714286" y2="378" fill="rgb(0, 0, 0)" stroke="rgb(60, 60, 60)" stroke-width="1px" opacity="0.25"></line><line x1="843.4285714285713" y1="0" x2="843.4285714285713" y2="378" fill="rgb(0, 0, 0)" stroke="rgb(60, 60, 60)" stroke-width="1px" opacity="0.25"></line><line x1="1054.2857142857142" y1="0" x2="1054.2857142857142" y2="378" fill="rgb(0, 0, 0)" stroke="rgb(60, 60, 60)" stroke-width="1px" opacity="0.25"></line><line x1="1265.142857142857" y1="0" x2="1265.142857142857" y2="378" fill="rgb(0, 0, 0)" stroke="rgb(60, 60, 60)" stroke-width="1px" opacity="0.25"></line><line x1="1476" y1="0" x2="1476" y2="378" fill="rgb(0, 0, 0)" stroke="rgb(60, 60, 60)" stroke-width="1px" opacity="0.25"></line></g><g><line x1="0" y1="378" x2="1476" y2="378" fill="rgb(0, 0, 0)" stroke="rgb(60, 60, 60)" stroke-width="1px" opacity="0.25"></line><line x1="0" y1="340.2" x2="1476" y2="340.2" fill="rgb(0, 0, 0)" stroke="rgb(60, 60, 60)" stroke-width="1px" opacity="0.25"></line><line x1="0" y1="302.4" x2="1476" y2="302.4" fill="rgb(0, 0, 0)" stroke="rgb(60, 60, 60)" stroke-width="1px" opacity="0.25"></line><line x1="0" y1="264.6" x2="1476" y2="264.6" fill="rgb(0, 0, 0)" stroke="rgb(60, 60, 60)" stroke-width="1px" opacity="0.25"></line><line x1="0" y1="226.79999999999998" x2="1476" y2="226.79999999999998" fill="rgb(0, 0, 0)" stroke="rgb(60, 60, 60)" stroke-width="1px" opacity="0.25"></line><line x1="0" y1="189" x2="1476" y2="189" fill="rgb(0, 0, 0)" stroke="rgb(60, 60, 60)" stroke-width="1px" opacity="0.25"></line><line x1="0" y1="151.20000000000002" x2="1476" y2="151.20000000000002" fill="rgb(0, 0, 0)" stroke="rgb(60, 60, 60)" stroke-width="1px" opacity="0.25"></line><line x1="0" y1="113.40000000000003" x2="1476" y2="113.40000000000003" fill="rgb(0, 0, 0)" stroke="rgb(60, 60, 60)" stroke-width="1px" opacity="0.25"></line><line x1="0" y1="75.59999999999997" x2="1476" y2="75.59999999999997" fill="rgb(0, 0, 0)" stroke="rgb(60, 60, 60)" stroke-width="1px" opacity="0.25"></line><line x1="0" y1="37.799999999916054" x2="1476" y2="37.799999999916054" fill="rgb(0, 0, 0)" stroke="rgb(60, 60, 60)" stroke-width="1px" opacity="0.25"></line><line x1="0" y1="0" x2="1476" y2="0" fill="rgb(0, 0, 0)" stroke="rgb(60, 60, 60)" stroke-width="1px" opacity="0.25"></line></g></g></g><g><g><line x1="0" y1="756075.6000000833" x2="1476" y2="756075.6000000833" fill="rgb(0, 0, 0)" stroke="rgb(153, 153, 153)" stroke-width="1.5px"></line></g></g><g><g><line x1="-843.4285714285713" y1="0" x2="-843.4285714285713" y2="378" fill="rgb(0, 0, 0)" stroke="rgb(153, 153, 153)" stroke-width="1.5px"></line></g></g><g><g><g><g><g><path stroke="rgb(255, 112, 67)" stroke-width="2px" d="M93.53622857142857,75.59999999999997L94.54834285714286,75.59999999999997L94.67485714285714,75.59999999999997L95.77131428571428,75.59999999999997L96.74125714285714,75.59999999999997L99.44022857142856,75.59999999983211L99.81977142857143,75.59999999999997L102.43440000000001,75.59999999999997L102.64525714285715,75.59999999999997L103.53085714285714,75.59999999999997L104.28994285714286,75.59999999999997L105.76594285714286,75.59999999983211L105.85028571428572,75.59999999983211L106.18765714285715,75.59999999999997L110.53131428571429,75.59999999999997L112.176,75.59999999999997L112.76639999999999,75.59999999999997L115.38102857142857,75.59999999999997L116.51965714285716,75.59999999999997L117.1944,75.59999999983211L117.48960000000001,75.59999999999997L119.51382857142856,75.59999999983211L120.06205714285714,75.59999999999997L120.65245714285714,75.59999999999997L121.07417142857142,75.59999999983211L122.88754285714286,75.59999999999997L123.22491428571429,75.59999999983211L125.03828571428572,75.59999999983211L125.2913142857143,75.59999999999997L125.88171428571428,75.59999999999997L125.96605714285714,75.59999999999997L126.59862857142856,75.59999999999997L126.85165714285714,75.59999999983211L128.03245714285714,75.59999999999997L132.62914285714285,75.59999999999997L133.7256,75.59999999999997L133.76777142857142,75.59999999983211L134.0208,75.59999999983211L135.15942857142858,75.59999999999997L135.53897142857141,75.59999999999997L137.60537142857143,75.59999999999997L137.7318857142857,75.59999999999997L138.87051428571428,75.59999999999997L139.3344,75.59999999999997L141.73817142857143,75.59999999999997L142.53942857142857,75.59999999999997L145.95531428571428,75.59999999999997L148.27474285714285,75.59999999999997L148.40125714285713,75.59999999999997L148.99165714285715,75.59999999983211L149.16034285714287,75.59999999999997L151.18457142857142,75.59999999999997L151.47977142857144,75.59999999983211L152.40754285714286,75.59999999999997L152.9136,75.59999999999997L153.3353142857143,75.59999999999997L154.60045714285712,75.59999999999997L155.06434285714286,75.59999999999997L155.65474285714285,75.59999999999997L157.00422857142857,75.59999999999997L158.2272,75.59999999999997L158.90194285714284,75.59999999999997L159.57668571428573,75.59999999999997L159.74537142857142,75.59999999999997L160.4622857142857,75.59999999999997L161.9382857142857,75.59999999983211L164.08902857142857,75.59999999999997L164.8481142857143,75.59999999999997L165.22765714285714,75.59999999999997L165.81805714285716,75.59999999983211L165.9024,75.59999999983211L166.02891428571428,75.59999999999997L167.88445714285714,75.59999999999997L169.78217142857142,75.60000000008392L170.54125714285715,75.60000000008392L170.9208,75.60000000008392L171.4690285714286,75.60000000008392L171.59554285714285,75.60000000008392L171.9329142857143,75.60000000008392L173.61977142857143,75.60000000008392L174.33668571428572,75.60000000008392L174.8849142857143,75.60000000008392L177.16217142857144,75.60000000008392L178.63817142857144,75.60000000008392L180.3672,75.60000000008392L180.70457142857143,75.60000000008392L180.87325714285714,75.60000000008392L181.16845714285714,75.60000000008392L185.00605714285714,75.60000000008392L185.5121142857143,75.60000000008392L186.01817142857143,75.60000000008392L186.86159999999998,75.60000000008392L187.07245714285713,75.60000000008392L187.11462857142857,75.60000000008392L187.95805714285714,75.60000000008392L188.1689142857143,75.60000000008392L190.06662857142857,75.60000000008392L190.5726857142857,75.60000000008392L192.0486857142857,75.60000000008392L193.5246857142857,75.60000000008392L193.56685714285715,75.60000000008392L193.65120000000002,75.60000000008392L195.50674285714285,75.60000000008392L196.22365714285715,75.60000000008392L196.30800000000002,75.60000000008392L196.51885714285714,75.60000000008392L197.57314285714287,75.60000000008392L197.61531428571428,75.60000000008392L198.03702857142858,75.60000000008392L198.12137142857142,75.60000000008392L198.33222857142854,75.60000000008392L199.55519999999999,75.60000000008392L200.18777142857144,75.60000000008392L200.4408,75.60000000008392L206.00742857142856,75.60000000008392L208.32685714285716,75.60000000008392L208.91725714285712,75.60000000008392L210.39325714285712,75.60000000008392L214.90560000000002,75.60000000008392L217.89977142857146,75.60000000008392L219.7553142857143,94575.6000000105L235.1478857142857,418.44321792005604L236.49737142857145,281.3059307520168L237.42514285714287,199.02355845117654L238.22639999999998,149.6541350707395L239.53371428571427,120.03248104244369L244.5942857142857,102.25948862548296L245.35337142857142,91.5956931752898L245.4377142857143,85.1974159051739L247.5462857142857,81.35844954308754L249.90788571428573,79.05506972588609L250.54045714285715,77.67304183556524L252.73337142857142,76.84382510135595L253.61897142857146,76.34629506081353L253.82982857142858,76.04777703652172L253.91417142857142,75.8686662219298L255.72754285714285,75.76119973315787L258.4265142857143,75.69671983986115L259.60731428571427,75.6580319039503L260.7881142857143,75.63481914235336L262.8545142857143,75.62089148544555L262.98102857142857,75.61253489130092L265.59565714285714,75.60752093474696L266.05954285714284,75.60451256086498L269.1380571428571,75.60270753651895L269.72845714285717,75.60162452194493L269.9814857142857,75.60097471315015L271.0357714285714,75.60058482789009L271.2466285714286,75.60035089676762L272.55394285714283,75.600210538027L272.68045714285716,75.60012632281621L274.28297142857144,75.6000757937233L274.8312,75.60004547625073L274.91554285714284,75.60002728573363L278.3314285714286,75.60001637144018L279.72308571428573,75.60000982283054L282.2112,75.6000058936815L282.9281142857143,75.60000353617534L283.8137142857143,75.60000212173878L287.9465142857143,75.6000012730097L289.46468571428574,75.60000076378901L289.6333714285714,75.60000045827343L289.97074285714285,75.60000027496403L293.09142857142854,75.60000016501198L294.6939428571429,75.60000009904076L295.2,75.60000005942447L295.28434285714286,75.60000003567143L296.88685714285714,75.60000002140288L297.3929142857143,75.60000001284169L299.1641142857143,75.6000000077218L302.03177142857146,75.60000000461628L302.4113142857143,75.60000000276978L302.5378285714286,75.60000000167867L305.7428571428572,75.60000000100717L305.8272,75.6000000005875L308.10445714285714,75.60000000033574L309.2852571428571,75.60000000016782L312.06857142857143,75.60000000008392L313.7132571428572,75.60000000008392L317.5086857142857,75.60000000008392L318.1834285714286,75.60000000008392L318.77382857142857,75.60000000008392L321.3462857142857,75.60000000008392L322.27405714285715,75.60000000008392L325.3525714285714,75.60000000008392L325.4369142857143,75.60000000008392L326.7864,75.60000000008392L328.3889142857143,75.60000000008392L331.46742857142857,75.60000000008392L331.6361142857143,75.60000000008392L332.2686857142857,75.60000000008392L333.99771428571427,75.60000000008392L334.1242285714286,75.60000000008392L337.7088,75.60000000008392L338.42571428571426,75.60000000008392L338.55222857142854,75.60000000008392L339.98605714285713,75.60000000008392L340.0704,75.60000000008392L340.3656,75.60000000008392L341.88377142857144,75.60000000008392L342.76937142857145,75.60000000008392L343.78148571428574,75.60000000008392L344.24537142857145,75.60000000008392L345.384,75.60000000008392L346.22742857142856,75.60000000008392L346.4382857142857,75.60000000008392L350.9084571428572,75.60000000008392L351.3301714285714,75.60000000008392L353.43874285714287,75.60000000008392L354.24,75.60000000008392L354.7882285714286,75.60000000008392L355.04125714285715,75.60000000008392L355.58948571428573,75.60000000008392L357.99325714285715,75.60000000008392L358.9632,75.60000000008392L359.1740571428571,75.60000000008392L360.1861714285714,75.60000000008392L361.11394285714283,75.60000000008392L361.6621714285714,75.60000000008392L362.6742857142857,75.60000000008392L366.72274285714286,75.60000000008392L366.8914285714286,75.60000000008392L367.73485714285715,75.60000000008392L370.0121142857143,75.60000000008392L370.4338285714286,75.60000000008392L371.2350857142857,75.60000000008392L373.51234285714287,75.60000000008392L373.8918857142857,75.60000000008392L375.15702857142855,75.60000000008392L375.28354285714283,75.60000000008392L375.7896,75.60000000008392L376.9282285714286,75.60000000008392L377.09691428571426,75.60000000008392L381.4827428571428,75.60000000008392L381.8201142857143,75.60000000008392L382.45268571428574,75.60000000008392L386.54331428571425,75.60000000008392L387.6397714285714,75.60000000008392L388.5675428571429,75.60000000008392L392.4473142857143,75.60000000008392L392.7846857142857,75.60000000008392L394.5137142857143,75.60000000008392L397.08617142857145,75.60000000008392L398.3934857142857,75.60000000008392L401.0924571428571,75.60000000008392L401.8515428571429,75.60000000008392L402.2732571428571,75.60000000008392L402.3154285714286,75.60000000008392L403.11668571428567,75.60000000008392L404.08662857142855,75.60000000008392L404.88788571428574,75.60000000008392L406.53257142857143,75.60000000008392L406.9542857142857,75.60000000008392L407.37600000000003,75.60000000008392L407.50251428571426,75.60000000008392L408.1350857142857,75.60000000008392L409.52674285714284,75.60000000008392L413.65954285714287,75.60000000008392L415.13554285714287,75.60000000008392L415.85245714285713,75.60000000008392L416.9489142857143,75.60000000008392L417.2019428571429,75.60000000008392L420.0274285714286,75.60000000008392L420.8708571428571,75.60000000008392L421.20822857142855,75.60000000008392L421.6299428571428,75.60000000008392L423.1059428571428,75.60000000008392L425.9314285714286,75.60000000008392L427.2809142857143,75.60000000008392L429.7690285714286,2438.1000000002937L432.93188571428567,381.78000000002515L437.7394285714286,259.3080000000151L437.90811428571425,185.82479999999228L439.2154285714286,141.73488000002894L439.4684571428571,115.28092800001741L442.3782857142857,99.40855680002721L444.23382857142855,89.88513408001631L444.48685714285716,84.17108044797624L445.45680000000004,80.7426482688025L445.66765714285714,78.68558896129827L446.04720000000003,77.45135337677897L449.8426285714286,76.7108120260338L449.9691428571429,76.26648721563708L451.14994285714283,75.99989232938225L451.57165714285713,75.83993539764612L454.01759999999996,75.7439612385541L455.49359999999996,75.68637674316608L456.8852571428571,75.65182604588284L456.92742857142855,75.63109562751288L457.30697142857144,75.61865737650771L459.24685714285715,75.61119442593821L459.45771428571425,75.6067166555797L464.6869714285714,75.60402999333104L464.8134857142857,1256.8524179961623L469.2836571428571,549.5667076884364L469.5788571428571,359.98002461309545L470.54879999999997,246.2280147678908L471.2657142857143,177.9768088607177L472.02479999999997,137.02608531646422L472.2778285714286,112.45565118986173L472.69954285714283,97.71339071391702L474.63942857142854,88.86803442836703L474.97679999999997,83.56082065700343L481.85074285714285,80.37649239420205L482.14594285714287,78.465895436538L483.2845714285714,77.31953726193962L485.26662857142856,76.63172235716377L485.64617142857145,76.21903341426469L486.99565714285717,75.9714200485252L487.8812571428571,75.82285202909833L489.69462857142855,75.73371121744225L489.82114285714283,75.68022673049893L490.6645714285714,75.64813603829936L490.95977142857146,75.62888162301317L492.0562285714286,75.6173289738079L495.0082285714286,75.6103973843015L495.38777142857145,75.60623843056413L495.6829714285714,75.60374305835524L496.2312,75.60224583502992L497.1589714285714,75.60134750103475L498.76148571428575,75.60080850065441L500.02662857142855,75.60048510037586L500.99657142857143,75.60029106019192L501.75565714285716,75.60017463608159L504.70765714285716,75.60010478161536L507.74399999999997,75.60006286898602L507.87051428571425,75.60003772135804L509.55737142857146,75.60002263283161L510.56948571428575,75.60001357966536L513.3106285714285,75.60000814778243L516.6,75.60000488866945L516.8108571428571,75.60000293320167L516.9373714285714,75.60000175990422L518.0338285714286,75.6000010559593L519.8893714285715,75.60000063360917L520.5641142857143,75.60000038013192L521.5762285714286,75.60000022804559L522.2931428571429,75.60000013681054L525.2873142857143,75.6000000820863L526.1307428571429,75.60000004926854L526.4259428571428,75.60000002954433L531.1913142857143,75.60000001770982L531.3178285714285,75.60000001065947L532.2034285714286,75.60000000637888L532.4142857142857,75.60000000386088L534.6915428571428,75.6000000023501L535.1132571428572,75.60000000142685L535.2819428571429,75.60000000083932L536.5049142857143,75.6000000005036L537.8544,75.60000000033574L537.8965714285714,75.60000000016782L540.0894857142857,75.60000000008392L540.8064,75.60000000008392L541.3968,75.60000000008392L542.0715428571428,75.60000000008392L542.7884571428572,75.60000000008392L544.4753142857143,75.60000000008392L546.4151999999999,75.60000000008392L546.4573714285714,75.60000000008392L547.3851428571428,75.60000000008392L547.6803428571428,75.60000000008392L548.8611428571428,75.60000000008392L549.2828571428572,75.60000000008392L549.4937142857143,75.60000000008392L549.9576,75.60000000008392L550.3371428571428,75.60000000008392L550.9275428571428,75.60000000008392L552.5300571428571,75.60000000008392L552.6565714285714,75.60000000008392L554.0904,75.60000000008392L554.2590857142857,75.60000000008392L555.2290285714286,75.60000000008392L555.4820571428571,75.60000000008392L555.5664,75.60000000008392L557.2532571428571,75.60000000008392L557.5062857142857,75.60000000008392L558.0545142857143,75.60000000008392L558.2653714285714,75.60000000008392L560.9643428571429,75.60000000008392L561.7656,75.60000000008392L562.1451428571428,75.60000000008392L564.0428571428571,75.60000000008392L565.0128,75.60000000008392L565.0971428571428,75.60000000008392L565.1393142857142,75.60000000008392L567.6274285714286,75.60000000008392L568.1334857142857,75.60000000008392L571.8867428571428,75.60000000008392L574.3326857142857,75.60000000008392L576.5677714285714,75.60000000008392L577.4112,75.60000000008392L578.7185142857143,75.60000000008392L579.0980571428572,75.60000000008392L579.8149714285714,75.60000000008392L580.1523428571429,75.60000000008392L580.5318857142857,75.60000000008392L581.8392,75.60000000008392L583.4838857142857,75.60000000008392L583.9899428571429,75.60000000008392L584.9598857142857,75.60000000008392L585.5502857142858,75.60000000008392L585.6346285714285,75.60000000008392L587.1528,75.60000000008392L588.6709714285714,75.60000000008392L589.8096,75.60000000008392L591.7073142857143,75.60000000008392L593.4785142857143,75.60000000008392L596.0088,75.60000000008392L596.5570285714285,75.60000000008392L596.6413714285715,75.60000000008392L597.5269714285714,75.60000000008392L597.7378285714286,75.60000000008392L598.3282285714286,75.60000000008392L598.9608,75.60000000008392L599.2560000000001,75.60000000008392L600.0572571428571,75.60000000008392L600.5633142857143,75.60000000008392L604.6539428571429,75.60000000008392L605.2865142857142,75.60000000008392L605.7504,75.60000000008392L605.9190857142858,75.60000000008392L606.5938285714286,75.60000000008392L607.9854857142857,75.60000000008392L608.3650285714285,75.60000000008392L611.064,75.60000000008392L611.1905142857142,75.60000000008392L611.8652571428572,75.60000000008392L615.5341714285714,75.60000000008392L615.9137142857143,75.60000000008392L617.2210285714286,75.60000000008392L618.1488,75.60000000008392L619.0765714285715,75.60000000008392L622.1550857142857,75.60000000008392L625.1914285714286,75.60000000008392L627.1313142857143,75.60000000008392L628.3121142857143,75.60000000008392L630.8002285714285,75.60000000008392L631.4749714285715,75.60000000008392L632.7822857142858,75.60000000008392L634.0052571428571,75.60000000008392L635.0595428571428,75.60000000008392L635.2704,75.60000000008392L635.8186285714286,75.60000000008392L636.6198857142857,75.60000000008392L638.4332571428571,75.60000000008392L639.2766857142857,75.60000000008392L641.7226285714286,75.60000000008392L642.4395428571428,75.60000000008392L643.5781714285714,75.60000000008392L643.9577142857142,75.60000000008392L644.4637714285714,75.60000000008392L644.9698285714286,75.60000000008392L645.6024,75.60000000008392L645.7710857142857,75.60000000008392L646.488,75.60000000008392L648.0061714285714,75.60000000008392L648.6387428571429,75.60000000008392L649.1869714285714,75.60000000008392L649.6930285714285,75.60000000008392L649.7352,75.60000000008392L649.9038857142857,75.60000000008392L651.0846857142858,75.60000000008392L654.2053714285714,75.60000000008392L655.7235428571429,75.60000000008392L657.9586285714286,75.60000000008392L658.1273142857143,75.60000000008392L658.9707428571428,75.60000000008392L661.0371428571428,75.60000000008392L662.2601142857143,75.60000000008392L664.0313142857143,75.60000000008392L666.1820571428572,75.60000000008392L666.8146285714286,75.60000000008392L667.152,75.60000000008392L667.4050285714286,75.60000000008392L669.6401142857143,75.60000000008392L669.7666285714286,75.60000000008392L671.4534857142858,75.60000000008392L672.5077714285715,75.60000000008392L672.8029714285714,75.60000000008392L673.7307428571428,75.60000000008392L675.1645714285714,75.60000000008392L676.6405714285714,75.60000000008392L677.6105142857142,75.60000000008392L678.2852571428572,75.60000000008392L680.5203428571429,75.60000000008392L681.3637714285715,75.60000000008392L681.4902857142856,75.60000000008392L681.912,75.60000000008392L682.1650285714286,75.60000000008392L683.0928,75.60000000008392L686.5508571428571,75.60000000008392L692.4970285714286,75.60000000008392L692.7500571428571,75.60000000008392L693.7199999999999,75.60000000008392L695.2803428571428,75.60000000008392L695.3225142857143,75.60000000008392L695.5755428571429,75.60000000008392L695.9550857142857,75.60000000008392L696.6719999999999,75.60000000008392L697.1780571428571,75.60000000008392L697.4310857142857,75.60000000008392L699.9192,75.60000000008392L702.0277714285714,75.60000000008392L704.0098285714286,75.60000000008392L705.528,75.60000000008392L706.5401142857143,75.60000000008392L706.6666285714285,75.60000000008392L709.8294857142857,75.60000000008392L710.0825142857143,75.60000000008392L711.3476571428571,75.60000000008392L711.7272,75.60000000008392L711.8958857142857,75.60000000008392L712.1489142857143,75.60000000008392L714.6370285714286,75.60000000008392L716.0286857142858,75.60000000008392L716.0708571428571,75.60000000008392L716.4082285714286,75.60000000008392L716.5769142857143,75.60000000008392L717.2938285714285,75.60000000008392L718.8541714285714,75.60000000008392L719.9928,75.60000000008392L720.7940571428571,75.60000000008392L722.1857142857143,75.60000000008392L722.2278857142857,75.60000000008392L723.24,86306.85000000964L743.3979428571428,388.4444363519714L744.5787428571429,263.306661811166L745.2956571428572,188.22399708671642L745.38,143.17439825201308L746.7294857142858,116.1446389512414L748.0368000000001,99.92678337071123L750.5249142857143,90.19607002240997L756.5554285714286,84.35764201341237L757.5675428571428,80.85458520806424L757.9470857142857,78.752751124805L758.2001142857143,77.49165067484938L760.14,76.73499040489287L760.2665142857143,76.28099424295249L761.0677714285714,76.00859654573793L761.8690285714287,75.84515792744276L766.6343999999999,75.74709475649922L766.9717714285714,75.68825685393313L767.2248000000001,75.65295411234308L769.8815999999999,75.63177246738906L771.5262857142857,75.61906348045022L772.4118857142857,75.61143808823653L774.9,75.6068628529419L775.4482285714286,75.60411771173159L775.8699428571429,75.60247062703894L776.0386285714286,75.60148237618978L778.0206857142858,75.60088942569706L781.0570285714286,75.60053365545178L781.9848000000001,75.60032019328787L782.7017142857143,75.60019211593914L784.6415999999999,75.60011526952991L786.0754285714286,75.60006916168436L788.8165714285715,75.60004149699381L791.0938285714285,75.60002489817953L792.1902857142857,75.6000149388741L792.4011428571428,75.60000896335805L795.3953142857143,75.600005377998L795.5640000000001,75.60000322679883L796.9134857142857,75.60000193607925L798.9798857142857,75.60000116163076L801.5945142857142,75.60000069697844L801.6366857142856,75.60000041815351L802.6909714285714,75.60000025087533L803.0705142857142,75.60000015049161L803.6609142857142,75.60000009031177L805.4321142857143,75.60000005422063L806.4864,75.60000003256596L812.4747428571429,75.60000001955632L813.7820571428572,75.60000001175058L815.2158857142858,75.60000000705037L816.1858285714286,75.6000000041966L817.7883428571428,75.60000000251796L818.2100571428572,75.60000000151075L819.7704,75.60000000092322L820.1077714285715,75.6000000005875L820.6981714285714,75.60000000033574L821.1620571428572,75.60000000016782L821.9211428571429,75.60000000008392L822.0054857142857,75.60000000008392L822.9754285714287,75.60000000008392L823.0176,75.60000000008392L823.0597714285715,75.60000000008392L823.1862857142858,75.60000000008392L823.9875428571429,75.60000000008392L825.4635428571429,75.60000000008392L826.1804571428571,75.60000000008392L826.7708571428572,75.60000000008392L827.6564571428571,75.60000000008392L828.0781714285714,75.60000000008392L828.4155428571429,75.60000000008392L828.8372571428571,75.60000000008392L830.9036571428572,75.60000000008392L831.2410285714285,75.60000000008392L832.5905142857143,75.60000000008392L833.1809142857143,75.60000000008392L833.4339428571428,75.60000000008392L834.0243428571428,75.60000000008392L834.4038857142858,75.60000000008392L834.6990857142857,75.60000000008392L834.7412571428571,75.60000000008392L834.9099428571428,75.60000000008392L835.9642285714285,75.60000000008392L836.3859428571428,75.60000000008392L837.2293714285714,75.60000000008392L837.8197714285715,75.60000000008392L839.3379428571428,75.60000000008392L840.1392000000001,75.60000000008392L842.2056,75.60000000008392L842.2477714285714,75.60000000008392L842.4586285714286,75.60000000008392L843.5972571428571,75.60000000008392L845.1997714285714,75.60000000008392L849.8808,75.60000000008392L850.2603428571429,75.60000000008392L850.9350857142858,75.60000000008392L851.0616,75.60000000008392L851.4411428571428,75.60000000008392L852.6219428571429,75.60000000008392L854.0557714285713,75.60000000008392L854.0979428571429,75.60000000008392L854.6039999999999,75.60000000008392L856.2486857142857,75.60000000008392L857.3029714285715,75.60000000008392L858.0198857142857,75.60000000008392L859.8754285714285,75.60000000008392L860.8875428571428,75.60000000008392L861.8153142857144,75.60000000008392L862.9961142857143,75.60000000008392L865.2733714285714,75.60000000008392L867.1289142857142,75.60000000008392L870.8821714285715,75.60000000008392L870.9243428571428,75.60000000008392L874.5932571428572,75.60000000008392L874.9306285714287,75.60000000008392L876.8283428571428,75.60000000008392L879.3586285714287,75.60000000008392L881.9310857142856,75.60000000008392L882.2262857142857,75.60000000008392L883.4492571428572,75.60000000008392L885.0096,75.60000000008392L885.7265142857143,75.60000000008392L887.4977142857143,75.60000000008392L889.5219428571429,75.60000000008392L891.2088,75.60000000008392L892.2630857142857,75.60000000008392L893.0643428571428,75.60000000008392L893.2751999999999,75.60000000008392L894.2451428571429,75.60000000008392L894.6668571428571,75.60000000008392L895.1729142857143,75.60000000008392L896.0585142857144,75.60000000008392L898.0405714285714,75.60000000008392L898.9261714285715,75.60000000008392L900.4865142857142,75.60000000008392L901.1612571428572,75.60000000008392L903.6071999999999,75.60000000008392L905.4627428571428,75.60000000008392L905.6314285714285,75.60000000008392L906.6857142857143,75.60000000008392L907.7821714285715,75.60000000008392L914.4874285714285,75.60000000008392L915.12,75.60000000008392L915.2465142857142,75.60000000008392L916.1742857142856,75.60000000008392L916.4273142857143,75.60000000008392L917.3972571428571,75.60000000008392L918.4515428571428,75.60000000008392L919.0841142857142,75.60000000008392L920.7709714285713,75.60000000008392L921.024,75.60000000008392L921.6143999999999,75.60000000008392L922.0782857142857,75.60000000008392L922.4578285714286,75.60000000008392L924.3977142857143,75.60000000008392L924.6929142857143,75.60000000008392L924.8616000000001,75.60000000008392L925.1146285714285,75.60000000008392L927.6027428571429,75.60000000008392L928.7413714285715,75.60000000008392L929.7113142857143,75.60000000008392L932.6633142857143,75.60000000008392L933.5910857142857,75.60000000008392L934.9827428571429,75.60000000008392L935.3201142857143,75.60000000008392L935.6996571428572,75.60000000008392L935.9948571428571,75.60000000008392L937.6817142857142,75.60000000008392L938.2299428571428,75.60000000008392L938.4408000000001,75.60000000008392L938.6938285714285,75.60000000008392L938.8203428571429,75.60000000008392L942.0253714285715,75.60000000008392L942.0675428571428,75.60000000008392L942.1518857142858,75.60000000008392L943.9230857142857,75.60000000008392L944.0495999999999,75.60000000008392L945.3569142857143,75.60000000008392L946.4955428571428,75.60000000008392L946.6220571428571,75.60000000008392L946.8329142857143,75.60000000008392L948.5619428571428,75.60000000008392L949.1945142857143,75.60000000008392L949.8270857142857,75.60000000008392L950.2066285714285,75.60000000008392L950.2909714285714,75.60000000008392L951.9356571428572,75.60000000008392L952.3573714285714,75.60000000008392L952.9477714285714,75.60000000008392L954.7611428571429,75.60000000008392L955.6889142857143,75.60000000008392L956.6588571428571,75.60000000008392L958.3878857142857,75.60000000008392L958.9361142857143,75.60000000008392L958.9782857142857,75.60000000008392L959.7795428571428,75.60000000008392L959.8217142857143,75.60000000008392L959.9060571428571,75.60000000008392L960.1169142857143,75.60000000008392L960.5808000000001,75.60000000008392L965.2196571428572,75.60000000008392L965.2618285714285,75.60000000008392L965.9787428571428,75.60000000008392L966.1474285714286,75.60000000008392L967.7077714285715,75.60000000008392L969.0150857142858,75.60000000008392L969.0572571428571,75.60000000008392L969.1837714285715,75.60000000008392L969.2259428571429,75.60000000008392L970.8706285714286,75.60000000008392L971.2501714285714,75.60000000008392L972.2622857142857,75.60000000008392L973.6539428571429,75.60000000008392L974.6660571428571,75.60000000008392L974.7082285714287,75.60000000008392L976.2264,75.60000000008392L977.8289142857142,75.60000000008392L979.5157714285715,75.60000000008392L979.7687999999999,75.60000000008392L979.8531428571428,75.60000000008392L979.8953142857143,75.60000000008392L981.2026285714286,75.60000000008392L981.5821714285714,75.60000000008392L981.7508571428572,75.60000000008392L984.4498285714285,75.60000000008392L987.1909714285714,75.60000000008392L988.1609142857142,75.60000000008392L988.8356571428571,75.60000000008392L991.7033142857143,75.60000000008392L991.8298285714285,75.60000000008392L992.0406857142856,75.60000000008392L994.8661714285714,75.60000000008392L995.6252571428571,75.60000000008392L998.7881142857144,75.60000000008392L1000.4327999999999,75.60000000008392L1000.4749714285715,75.60000000008392L1003.1317714285715,75.60000000008392L1003.6800000000001,75.60000000008392L1004.1438857142858,75.60000000008392L1007.0958857142858,75.60000000008392L1007.6441142857144,75.60000000008392L1008.8670857142857,75.60000000008392L1008.9092571428571,75.60000000008392L1010.6382857142858,75.60000000008392L1011.6504,75.60000000008392L1011.9034285714287,75.60000000008392L1012.7468571428572,75.60000000008392L1012.9998857142858,75.60000000008392L1013.8854857142857,75.60000000008392L1014.1385142857143,75.60000000008392L1016.6687999999999,75.60000000008392L1019.1569142857143,75.60000000008392L1020.5064,75.60000000008392L1020.8016,75.60000000008392L1024.3439999999998,75.60000000008392L1029.8262857142856,75.60000000008392L1030.8805714285713,75.60000000008392L1031.4288,75.60000000008392L1032.5674285714285,75.60000000008392L1032.8626285714286,75.60000000008392L1033.3265142857142,75.60000000008392L1033.5373714285715,75.60000000008392L1033.8325714285713,75.60000000008392L1033.8747428571428,75.60000000008392L1034.4651428571428,75.60000000008392L1035.645942857143,75.60000000008392L1038.5557714285715,75.60000000008392L1038.6822857142859,75.60000000008392L1040.1161142857143,75.60000000008392L1040.4534857142858,75.60000000008392L1041.845142857143,75.60000000008392L1041.9294857142856,75.60000000008392L1043.4898285714287,75.60000000008392L1047.3274285714285,75.60000000008392L1047.4117714285715,75.60000000008392L1048.0021714285715,75.60000000008392L1052.5145142857143,75.60000000008392L1052.8097142857143,75.60000000008392L1053.3157714285715,75.60000000008392L1055.3821714285714,75.60000000008392L1055.4665142857143,75.60000000008392L1055.9304,75.60000000008392L1055.9725714285714,75.60000000008392L1056.1834285714285,75.60000000008392L1059.768,75.60000000008392L1059.8945142857144,104025.60000001157L1069.1300571428571,452.72753971204486L1069.3830857142857,301.8765238272269L1070.3952,211.3659142963697L1070.8169142857143,157.0595485778554L1071.9133714285715,124.47572914674683L1071.9977142857144,104.92543748803126L1072.3772571428572,93.19526249281881L1073.8110857142856,86.15715749567448L1074.7810285714286,81.9342944973879L1076.214857142857,79.4005766984663L1076.9317714285714,77.88034601909658L1077.9438857142857,76.9682076114915L1078.7451428571428,76.42092456692848L1079.3355428571429,76.09255474019068L1080.7272,75.89553284408083L1085.4925714285714,75.77731970648205L1087.5589714285713,75.70639182392284L1090.1314285714286,75.66383509437048L1090.974857142857,75.63830105662231L1091.4387428571429,75.62298063393979L1092.2821714285715,75.61378838039741L1094.812457142857,75.60827302823844L1095.3606857142856,75.6049638169095L1096.9210285714287,75.60297829016247L1097.764457142857,75.60178697408071L1098.228342857143,75.60107218446518L1101.8550857142857,75.60064331071266L1102.2768,75.6003859864108L1105.9457142857143,75.6002315918297L1108.2229714285713,75.6001389551314L1109.7833142857144,75.6000833731124L1109.867657142857,75.60005002390102L1111.0906285714286,75.60003001430704L1112.7353142857144,75.60001800855065L1114.7595428571428,75.60001080509682L1116.7837714285715,75.60000648305805L1116.8681142857142,75.60000388986839L1117.2054857142857,75.60000233392105L1118.4706285714285,75.60000140033583L1119.314057142857,75.60000084016792L1119.4405714285715,75.60000050410076L1120.0309714285713,75.60000030249404L1122.4347428571427,75.6000001814628L1126.4832,75.60000010886091L1128.3809142857144,75.60000006529975L1128.5495999999998,75.60000003919663L1131.0798857142856,75.6000000235012L1133.0197714285714,75.60000001410071L1134.2849142857144,75.6000000084772L1135.2126857142857,75.60000000511991L1135.550057142857,75.60000000310549L1138.2068571428572,75.60000000184652L1140.6949714285713,75.60000000109113L1141.9601142857143,75.60000000067146L1142.634857142857,75.60000000041964L1142.8878857142856,75.60000000025178L1144.2795428571428,75.60000000016782L1145.5025142857144,75.60000000008392L1146.0929142857144,75.60000000008392L1147.4002285714287,75.60000000008392L1149.0449142857144,75.60000000008392L1152.6716571428572,75.60000000008392L1153.0090285714284,75.60000000008392L1155.7501714285713,75.60000000008392L1156.8044571428572,75.60000000008392L1157.3526857142858,75.60000000008392L1157.6057142857142,75.60000000008392L1157.6478857142858,75.60000000008392L1157.7322285714285,75.60000000008392L1161.0637714285715,75.60000000008392L1163.5518857142858,75.60000000008392L1168.3594285714287,75.60000000008392L1168.992,75.60000000008392L1171.1005714285716,75.60000000008392L1171.1849142857143,75.60000000008392L1172.323542857143,75.60000000008392L1173.5465142857142,75.60000000008392L1174.9381714285714,75.60000000008392L1175.9924571428571,75.60000000008392L1178.5649142857142,75.60000000008392L1179.7457142857143,75.60000000008392L1179.9565714285714,75.60000000008392L1181.306057142857,75.60000000008392L1182.7820571428572,75.60000000008392L1183.4568,75.60000000008392L1184.1737142857144,75.60000000008392L1185.9027428571428,75.60000000008392L1188.0956571428571,75.60000000008392L1189.8668571428573,75.60000000008392L1190.457257142857,75.60000000008392L1191.132,75.60000000008392L1192.0176,75.60000000008392L1192.3971428571429,75.60000000008392L1193.0718857142858,75.60000000008392L1193.1984,75.60000000008392L1195.7286857142856,75.60000000008392L1195.7708571428573,75.60000000008392L1196.361257142857,75.60000000008392L1200.3253714285713,75.60000000008392L1201.0001142857143,75.60000000008392L1201.5483428571429,75.60000000008392L1202.0122285714285,75.60000000008392L1205.217257142857,75.60000000008392L1205.8076571428571,75.60000000008392L1206.2293714285713,75.60000000008392L1206.4824,75.60000000008392L1209.0548571428571,75.60000000008392L1210.826057142857,75.60000000008392L1213.1033142857143,75.60000000008392L1217.489142857143,75.60000000008392L1219.091657142857,75.60000000008392L1221.0315428571428,75.60000000008392L1221.1158857142857,75.60000000008392L1222.802742857143,75.60000000008392L1222.8449142857144,75.60000000008392L1222.8870857142858,75.60000000008392L1223.5618285714286,75.60000000008392L1224.1100571428572,75.60000000008392L1224.1944,75.60000000008392L1228.3693714285714,75.60000000008392L1229.6766857142857,75.60000000008392L1233.6408,75.60000000008392L1234.2312000000002,75.60000000008392L1234.6950857142858,75.60000000008392L1237.3940571428573,75.60000000008392L1237.6470857142858,75.60000000008392L1237.9001142857142,75.60000000008392L1238.0688,75.60000000008392L1238.1109714285715,75.60000000008392L1238.7013714285715,75.60000000008392L1241.2738285714286,75.60000000008392L1242.9606857142858,75.60000000008392L1245.2801142857143,75.60000000008392L1246.5030857142856,75.60000000008392L1249.8768,75.60000000008392L1250.3406857142857,75.60000000008392L1250.6780571428571,75.60000000008392L1252.7022857142858,75.60000000008392L1253.7144,75.60000000008392L1255.4012571428573,75.60000000008392L1255.5277714285714,75.60000000008392L1256.8350857142857,75.60000000008392L1257.2568,75.60000000008392L1257.552,75.60000000008392L1258.1424000000002,75.60000000008392L1258.3110857142856,75.60000000008392L1260.714857142857,75.60000000008392L1261.5582857142858,75.60000000008392L1261.6848,75.60000000008392L1262.5704,75.60000000008392L1264.1729142857143,75.60000000008392L1265.1006857142856,75.60000000008392" style="fill: none;" fill="none"></path></g></g></g></g><g opacity="0.2"><g><g><g><path stroke="rgb(255, 112, 67)" stroke-width="2px" d="M93.53622857142857,75.59999999999997L94.54834285714286,75.59999999999997L94.67485714285714,75.59999999999997L95.77131428571428,75.59999999999997L96.74125714285714,75.59999999999997L99.44022857142856,75.59999999999997L99.81977142857143,75.59999999999997L102.43440000000001,75.59999999999997L102.64525714285715,75.59999999999997L103.53085714285714,75.59999999999997L104.28994285714286,75.59999999999997L105.76594285714286,75.59999999999997L105.85028571428572,75.59999999999997L106.18765714285715,75.59999999999997L110.53131428571429,75.59999999999997L112.176,75.59999999999997L112.76639999999999,75.59999999999997L115.38102857142857,75.59999999999997L116.51965714285716,75.59999999999997L117.1944,75.59999999999997L117.48960000000001,75.59999999999997L119.51382857142856,75.59999999999997L120.06205714285714,75.59999999999997L120.65245714285714,75.59999999999997L121.07417142857142,75.59999999999997L122.88754285714286,75.59999999999997L123.22491428571429,75.59999999999997L125.03828571428572,75.59999999999997L125.2913142857143,75.59999999999997L125.88171428571428,75.59999999999997L125.96605714285714,75.59999999999997L126.59862857142856,75.59999999999997L126.85165714285714,75.59999999999997L128.03245714285714,75.59999999999997L132.62914285714285,75.59999999999997L133.7256,75.59999999999997L133.76777142857142,75.59999999999997L134.0208,75.59999999999997L135.15942857142858,75.59999999999997L135.53897142857141,75.59999999999997L137.60537142857143,75.59999999999997L137.7318857142857,75.59999999999997L138.87051428571428,75.59999999999997L139.3344,75.59999999999997L141.73817142857143,75.59999999999997L142.53942857142857,75.59999999999997L145.95531428571428,75.59999999999997L148.27474285714285,75.59999999999997L148.40125714285713,75.59999999999997L148.99165714285715,75.59999999999997L149.16034285714287,75.59999999999997L151.18457142857142,75.59999999999997L151.47977142857144,75.59999999999997L152.40754285714286,75.59999999999997L152.9136,75.59999999999997L153.3353142857143,75.59999999999997L154.60045714285712,75.59999999999997L155.06434285714286,75.59999999999997L155.65474285714285,75.59999999999997L157.00422857142857,75.59999999999997L158.2272,75.59999999999997L158.90194285714284,75.59999999999997L159.57668571428573,75.59999999999997L159.74537142857142,75.59999999999997L160.4622857142857,75.59999999999997L161.9382857142857,75.59999999999997L164.08902857142857,75.59999999999997L164.8481142857143,75.59999999999997L165.22765714285714,75.59999999999997L165.81805714285716,75.59999999999997L165.9024,75.59999999999997L166.02891428571428,75.59999999999997L167.88445714285714,75.59999999999997L169.78217142857142,75.59999999999997L170.54125714285715,75.59999999999997L170.9208,75.59999999999997L171.4690285714286,75.59999999999997L171.59554285714285,75.59999999999997L171.9329142857143,75.59999999999997L173.61977142857143,75.59999999999997L174.33668571428572,75.59999999999997L174.8849142857143,75.59999999999997L177.16217142857144,75.59999999999997L178.63817142857144,75.59999999999997L180.3672,75.59999999999997L180.70457142857143,75.59999999999997L180.87325714285714,75.59999999999997L181.16845714285714,75.59999999999997L185.00605714285714,75.59999999999997L185.5121142857143,75.59999999999997L186.01817142857143,75.59999999999997L186.86159999999998,75.59999999999997L187.07245714285713,75.59999999999997L187.11462857142857,75.59999999999997L187.95805714285714,75.59999999999997L188.1689142857143,75.59999999999997L190.06662857142857,75.59999999999997L190.5726857142857,75.59999999999997L192.0486857142857,75.59999999999997L193.5246857142857,75.59999999999997L193.56685714285715,75.59999999999997L193.65120000000002,75.59999999999997L195.50674285714285,75.59999999999997L196.22365714285715,75.59999999999997L196.30800000000002,75.59999999999997L196.51885714285714,75.59999999999997L197.57314285714287,75.59999999999997L197.61531428571428,75.59999999999997L198.03702857142858,75.59999999999997L198.12137142857142,75.59999999999997L198.33222857142854,75.59999999999997L199.55519999999999,75.59999999999997L200.18777142857144,75.59999999999997L200.4408,75.59999999999997L206.00742857142856,75.59999999999997L208.32685714285716,75.59999999999997L208.91725714285712,75.59999999999997L210.39325714285712,75.59999999999997L214.90560000000002,75.59999999999997L217.89977142857146,75.59999999999997L219.7553142857143,236325.60000002602L220.89394285714283,75.59999999999997L221.02045714285714,75.59999999999997L223.46640000000002,75.59999999999997L226.08102857142856,75.59999999999997L227.55702857142856,75.59999999999997L228.99085714285712,75.59999999999997L229.58125714285714,75.59999999999997L229.66559999999998,75.59999999999997L229.70777142857142,75.59999999999997L232.15371428571427,75.59999999999997L235.1478857142857,75.59999999999997L236.49737142857145,75.59999999999997L237.42514285714287,75.59999999999997L238.22639999999998,75.59999999999997L239.53371428571427,75.59999999999997L244.5942857142857,75.59999999999997L245.35337142857142,75.59999999999997L245.4377142857143,75.59999999999997L247.5462857142857,75.59999999999997L249.90788571428573,75.59999999999997L250.54045714285715,75.59999999999997L252.73337142857142,75.59999999999997L253.61897142857146,75.59999999999997L253.82982857142858,75.59999999999997L253.91417142857142,75.59999999999997L255.72754285714285,75.59999999999997L258.4265142857143,75.59999999999997L259.60731428571427,75.59999999999997L260.7881142857143,75.59999999999997L262.8545142857143,75.59999999999997L262.98102857142857,75.59999999999997L265.59565714285714,75.59999999999997L266.05954285714284,75.59999999999997L269.1380571428571,75.59999999999997L269.72845714285717,75.59999999999997L269.9814857142857,75.59999999999997L271.0357714285714,75.59999999999997L271.2466285714286,75.59999999999997L272.55394285714283,75.59999999999997L272.68045714285716,75.59999999999997L274.28297142857144,75.59999999999997L274.8312,75.59999999999997L274.91554285714284,75.59999999999997L278.3314285714286,75.59999999999997L279.72308571428573,75.59999999999997L282.2112,75.59999999999997L282.9281142857143,75.59999999999997L283.8137142857143,75.59999999999997L287.9465142857143,75.59999999999997L289.46468571428574,75.59999999999997L289.6333714285714,75.59999999999997L289.97074285714285,75.59999999999997L293.09142857142854,75.59999999999997L294.6939428571429,75.59999999999997L295.2,75.59999999999997L295.28434285714286,75.59999999999997L296.88685714285714,75.59999999999997L297.3929142857143,75.59999999999997L299.1641142857143,75.59999999999997L302.03177142857146,75.59999999999997L302.4113142857143,75.59999999999997L302.5378285714286,75.59999999999997L305.7428571428572,75.59999999999997L305.8272,75.59999999999997L308.10445714285714,75.59999999999997L309.2852571428571,75.59999999999997L312.06857142857143,75.59999999999997L313.7132571428572,75.59999999999997L317.5086857142857,75.59999999999997L318.1834285714286,75.59999999999997L318.77382857142857,75.59999999999997L321.3462857142857,75.59999999999997L322.27405714285715,75.59999999999997L325.3525714285714,75.59999999999997L325.4369142857143,75.59999999999997L326.7864,75.59999999999997L328.3889142857143,75.59999999999997L331.46742857142857,75.59999999999997L331.6361142857143,75.59999999999997L332.2686857142857,75.59999999999997L333.99771428571427,75.59999999999997L334.1242285714286,75.59999999999997L337.7088,75.59999999999997L338.42571428571426,75.59999999999997L338.55222857142854,75.59999999999997L339.98605714285713,75.59999999999997L340.0704,75.59999999999997L340.3656,75.59999999999997L341.88377142857144,75.59999999999997L342.76937142857145,75.59999999999997L343.78148571428574,75.59999999999997L344.24537142857145,75.59999999999997L345.384,75.59999999999997L346.22742857142856,75.59999999999997L346.4382857142857,75.59999999999997L350.9084571428572,75.59999999999997L351.3301714285714,75.59999999999997L353.43874285714287,75.59999999999997L354.24,75.59999999999997L354.7882285714286,75.59999999999997L355.04125714285715,75.59999999999997L355.58948571428573,75.59999999999997L357.99325714285715,75.59999999999997L358.9632,75.59999999999997L359.1740571428571,75.59999999999997L360.1861714285714,75.59999999999997L361.11394285714283,75.59999999999997L361.6621714285714,75.59999999999997L362.6742857142857,75.59999999999997L366.72274285714286,75.59999999999997L366.8914285714286,75.59999999999997L367.73485714285715,75.59999999999997L370.0121142857143,75.59999999999997L370.4338285714286,75.59999999999997L371.2350857142857,75.59999999999997L373.51234285714287,75.59999999999997L373.8918857142857,75.59999999999997L375.15702857142855,75.59999999999997L375.28354285714283,75.59999999999997L375.7896,75.59999999999997L376.9282285714286,75.59999999999997L377.09691428571426,75.59999999999997L381.4827428571428,75.59999999999997L381.8201142857143,75.59999999999997L382.45268571428574,75.59999999999997L386.54331428571425,75.59999999999997L387.6397714285714,75.59999999999997L388.5675428571429,75.59999999999997L392.4473142857143,75.59999999999997L392.7846857142857,75.59999999999997L394.5137142857143,75.59999999999997L397.08617142857145,75.59999999999997L398.3934857142857,75.59999999999997L401.0924571428571,75.59999999999997L401.8515428571429,75.59999999999997L402.2732571428571,75.59999999999997L402.3154285714286,75.59999999999997L403.11668571428567,75.59999999999997L404.08662857142855,75.59999999999997L404.88788571428574,75.59999999999997L406.53257142857143,75.59999999999997L406.9542857142857,75.59999999999997L407.37600000000003,75.59999999999997L407.50251428571426,75.59999999999997L408.1350857142857,75.59999999999997L409.52674285714284,75.59999999999997L413.65954285714287,75.59999999999997L415.13554285714287,75.59999999999997L415.85245714285713,75.59999999999997L416.9489142857143,75.59999999999997L417.2019428571429,75.59999999999997L420.0274285714286,75.59999999999997L420.8708571428571,75.59999999999997L421.20822857142855,75.59999999999997L421.6299428571428,75.59999999999997L423.1059428571428,75.59999999999997L425.9314285714286,75.59999999999997L427.2809142857143,75.59999999999997L429.7690285714286,5981.850000000651L431.2450285714286,75.59999999999997L431.7089142857143,75.59999999999997L432.21497142857146,75.59999999999997L432.93188571428567,75.59999999999997L437.7394285714286,75.59999999999997L437.90811428571425,75.59999999999997L439.2154285714286,75.59999999999997L439.4684571428571,75.59999999999997L442.3782857142857,75.59999999999997L444.23382857142855,75.59999999999997L444.48685714285716,75.59999999999997L445.45680000000004,75.59999999999997L445.66765714285714,75.59999999999997L446.04720000000003,75.59999999999997L449.8426285714286,75.59999999999997L449.9691428571429,75.59999999999997L451.14994285714283,75.59999999999997L451.57165714285713,75.59999999999997L454.01759999999996,75.59999999999997L455.49359999999996,75.59999999999997L456.8852571428571,75.59999999999997L456.92742857142855,75.59999999999997L457.30697142857144,75.59999999999997L459.24685714285715,75.59999999999997L459.45771428571425,75.59999999999997L464.6869714285714,75.59999999999997L464.8134857142857,3028.7250000003255L465.6990857142857,23700.6000000026L467.1750857142857,75.59999999999997L467.47028571428575,75.59999999999997L468.18719999999996,75.59999999999997L468.27154285714283,75.59999999999997L468.39805714285717,75.59999999999997L469.2836571428571,75.59999999999997L469.5788571428571,75.59999999999997L470.54879999999997,75.59999999999997L471.2657142857143,75.59999999999997L472.02479999999997,75.59999999999997L472.2778285714286,75.59999999999997L472.69954285714283,75.59999999999997L474.63942857142854,75.59999999999997L474.97679999999997,75.59999999999997L481.85074285714285,75.59999999999997L482.14594285714287,75.59999999999997L483.2845714285714,75.59999999999997L485.26662857142856,75.59999999999997L485.64617142857145,75.59999999999997L486.99565714285717,75.59999999999997L487.8812571428571,75.59999999999997L489.69462857142855,75.59999999999997L489.82114285714283,75.59999999999997L490.6645714285714,75.59999999999997L490.95977142857146,75.59999999999997L492.0562285714286,75.59999999999997L495.0082285714286,75.59999999999997L495.38777142857145,75.59999999999997L495.6829714285714,75.59999999999997L496.2312,75.59999999999997L497.1589714285714,75.59999999999997L498.76148571428575,75.59999999999997L500.02662857142855,75.59999999999997L500.99657142857143,75.59999999999997L501.75565714285716,75.59999999999997L504.70765714285716,75.59999999999997L507.74399999999997,75.59999999999997L507.87051428571425,75.59999999999997L509.55737142857146,75.59999999999997L510.56948571428575,75.59999999999997L513.3106285714285,75.59999999999997L516.6,75.59999999999997L516.8108571428571,75.59999999999997L516.9373714285714,75.59999999999997L518.0338285714286,75.59999999999997L519.8893714285715,75.59999999999997L520.5641142857143,75.59999999999997L521.5762285714286,75.59999999999997L522.2931428571429,75.59999999999997L525.2873142857143,75.59999999999997L526.1307428571429,75.59999999999997L526.4259428571428,75.59999999999997L531.1913142857143,75.59999999999997L531.3178285714285,75.59999999999997L532.2034285714286,75.59999999999997L532.4142857142857,75.59999999999997L534.6915428571428,75.59999999999997L535.1132571428572,75.59999999999997L535.2819428571429,75.59999999999997L536.5049142857143,75.59999999999997L537.8544,75.59999999999997L537.8965714285714,75.59999999999997L540.0894857142857,75.59999999999997L540.8064,75.59999999999997L541.3968,75.59999999999997L542.0715428571428,75.59999999999997L542.7884571428572,75.59999999999997L544.4753142857143,75.59999999999997L546.4151999999999,75.59999999999997L546.4573714285714,75.59999999999997L547.3851428571428,75.59999999999997L547.6803428571428,75.59999999999997L548.8611428571428,75.59999999999997L549.2828571428572,75.59999999999997L549.4937142857143,75.59999999999997L549.9576,75.59999999999997L550.3371428571428,75.59999999999997L550.9275428571428,75.59999999999997L552.5300571428571,75.59999999999997L552.6565714285714,75.59999999999997L554.0904,75.59999999999997L554.2590857142857,75.59999999999997L555.2290285714286,75.59999999999997L555.4820571428571,75.59999999999997L555.5664,75.59999999999997L557.2532571428571,75.59999999999997L557.5062857142857,75.59999999999997L558.0545142857143,75.59999999999997L558.2653714285714,75.59999999999997L560.9643428571429,75.59999999999997L561.7656,75.59999999999997L562.1451428571428,75.59999999999997L564.0428571428571,75.59999999999997L565.0128,75.59999999999997L565.0971428571428,75.59999999999997L565.1393142857142,75.59999999999997L567.6274285714286,75.59999999999997L568.1334857142857,75.59999999999997L571.8867428571428,75.59999999999997L574.3326857142857,75.59999999999997L576.5677714285714,75.59999999999997L577.4112,75.59999999999997L578.7185142857143,75.59999999999997L579.0980571428572,75.59999999999997L579.8149714285714,75.59999999999997L580.1523428571429,75.59999999999997L580.5318857142857,75.59999999999997L581.8392,75.59999999999997L583.4838857142857,75.59999999999997L583.9899428571429,75.59999999999997L584.9598857142857,75.59999999999997L585.5502857142858,75.59999999999997L585.6346285714285,75.59999999999997L587.1528,75.59999999999997L588.6709714285714,75.59999999999997L589.8096,75.59999999999997L591.7073142857143,75.59999999999997L593.4785142857143,75.59999999999997L596.0088,75.59999999999997L596.5570285714285,75.59999999999997L596.6413714285715,75.59999999999997L597.5269714285714,75.59999999999997L597.7378285714286,75.59999999999997L598.3282285714286,75.59999999999997L598.9608,75.59999999999997L599.2560000000001,75.59999999999997L600.0572571428571,75.59999999999997L600.5633142857143,75.59999999999997L604.6539428571429,75.59999999999997L605.2865142857142,75.59999999999997L605.7504,75.59999999999997L605.9190857142858,75.59999999999997L606.5938285714286,75.59999999999997L607.9854857142857,75.59999999999997L608.3650285714285,75.59999999999997L611.064,75.59999999999997L611.1905142857142,75.59999999999997L611.8652571428572,75.59999999999997L615.5341714285714,75.59999999999997L615.9137142857143,75.59999999999997L617.2210285714286,75.59999999999997L618.1488,75.59999999999997L619.0765714285715,75.59999999999997L622.1550857142857,75.59999999999997L625.1914285714286,75.59999999999997L627.1313142857143,75.59999999999997L628.3121142857143,75.59999999999997L630.8002285714285,75.59999999999997L631.4749714285715,75.59999999999997L632.7822857142858,75.59999999999997L634.0052571428571,75.59999999999997L635.0595428571428,75.59999999999997L635.2704,75.59999999999997L635.8186285714286,75.59999999999997L636.6198857142857,75.59999999999997L638.4332571428571,75.59999999999997L639.2766857142857,75.59999999999997L641.7226285714286,75.59999999999997L642.4395428571428,75.59999999999997L643.5781714285714,75.59999999999997L643.9577142857142,75.59999999999997L644.4637714285714,75.59999999999997L644.9698285714286,75.59999999999997L645.6024,75.59999999999997L645.7710857142857,75.59999999999997L646.488,75.59999999999997L648.0061714285714,75.59999999999997L648.6387428571429,75.59999999999997L649.1869714285714,75.59999999999997L649.6930285714285,75.59999999999997L649.7352,75.59999999999997L649.9038857142857,75.59999999999997L651.0846857142858,75.59999999999997L654.2053714285714,75.59999999999997L655.7235428571429,75.59999999999997L657.9586285714286,75.59999999999997L658.1273142857143,75.59999999999997L658.9707428571428,75.59999999999997L661.0371428571428,75.59999999999997L662.2601142857143,75.59999999999997L664.0313142857143,75.59999999999997L666.1820571428572,75.59999999999997L666.8146285714286,75.59999999999997L667.152,75.59999999999997L667.4050285714286,75.59999999999997L669.6401142857143,75.59999999999997L669.7666285714286,75.59999999999997L671.4534857142858,75.59999999999997L672.5077714285715,75.59999999999997L672.8029714285714,75.59999999999997L673.7307428571428,75.59999999999997L675.1645714285714,75.59999999999997L676.6405714285714,75.59999999999997L677.6105142857142,75.59999999999997L678.2852571428572,75.59999999999997L680.5203428571429,75.59999999999997L681.3637714285715,75.59999999999997L681.4902857142856,75.59999999999997L681.912,75.59999999999997L682.1650285714286,75.59999999999997L683.0928,75.59999999999997L686.5508571428571,75.59999999999997L692.4970285714286,75.59999999999997L692.7500571428571,75.59999999999997L693.7199999999999,75.59999999999997L695.2803428571428,75.59999999999997L695.3225142857143,75.59999999999997L695.5755428571429,75.59999999999997L695.9550857142857,75.59999999999997L696.6719999999999,75.59999999999997L697.1780571428571,75.59999999999997L697.4310857142857,75.59999999999997L699.9192,75.59999999999997L702.0277714285714,75.59999999999997L704.0098285714286,75.59999999999997L705.528,75.59999999999997L706.5401142857143,75.59999999999997L706.6666285714285,75.59999999999997L709.8294857142857,75.59999999999997L710.0825142857143,75.59999999999997L711.3476571428571,75.59999999999997L711.7272,75.59999999999997L711.8958857142857,75.59999999999997L712.1489142857143,75.59999999999997L714.6370285714286,75.59999999999997L716.0286857142858,75.59999999999997L716.0708571428571,75.59999999999997L716.4082285714286,75.59999999999997L716.5769142857143,75.59999999999997L717.2938285714285,75.59999999999997L718.8541714285714,75.59999999999997L719.9928,75.59999999999997L720.7940571428571,75.59999999999997L722.1857142857143,75.59999999999997L722.2278857142857,75.59999999999997L723.24,215653.72500002373L726.4872,75.59999999999997L729.144,75.59999999999997L730.9151999999999,75.59999999999997L731.0838857142857,75.59999999999997L732.9394285714285,75.59999999999997L733.7406857142857,75.59999999999997L736.5661714285715,75.59999999999997L739.0121142857143,75.59999999999997L739.7290285714287,75.59999999999997L739.9820571428571,75.59999999999997L743.3979428571428,75.59999999999997L744.5787428571429,75.59999999999997L745.2956571428572,75.59999999999997L745.38,75.59999999999997L746.7294857142858,75.59999999999997L748.0368000000001,75.59999999999997L750.5249142857143,75.59999999999997L756.5554285714286,75.59999999999997L757.5675428571428,75.59999999999997L757.9470857142857,75.59999999999997L758.2001142857143,75.59999999999997L760.14,75.59999999999997L760.2665142857143,75.59999999999997L761.0677714285714,75.59999999999997L761.8690285714287,75.59999999999997L766.6343999999999,75.59999999999997L766.9717714285714,75.59999999999997L767.2248000000001,75.59999999999997L769.8815999999999,75.59999999999997L771.5262857142857,75.59999999999997L772.4118857142857,75.59999999999997L774.9,75.59999999999997L775.4482285714286,75.59999999999997L775.8699428571429,75.59999999999997L776.0386285714286,75.59999999999997L778.0206857142858,75.59999999999997L781.0570285714286,75.59999999999997L781.9848000000001,75.59999999999997L782.7017142857143,75.59999999999997L784.6415999999999,75.59999999999997L786.0754285714286,75.59999999999997L788.8165714285715,75.59999999999997L791.0938285714285,75.59999999999997L792.1902857142857,75.59999999999997L792.4011428571428,75.59999999999997L795.3953142857143,75.59999999999997L795.5640000000001,75.59999999999997L796.9134857142857,75.59999999999997L798.9798857142857,75.59999999999997L801.5945142857142,75.59999999999997L801.6366857142856,75.59999999999997L802.6909714285714,75.59999999999997L803.0705142857142,75.59999999999997L803.6609142857142,75.59999999999997L805.4321142857143,75.59999999999997L806.4864,75.59999999999997L812.4747428571429,75.59999999999997L813.7820571428572,75.59999999999997L815.2158857142858,75.59999999999997L816.1858285714286,75.59999999999997L817.7883428571428,75.59999999999997L818.2100571428572,75.59999999999997L819.7704,75.59999999999997L820.1077714285715,75.59999999999997L820.6981714285714,75.59999999999997L821.1620571428572,75.59999999999997L821.9211428571429,75.59999999999997L822.0054857142857,75.59999999999997L822.9754285714287,75.59999999999997L823.0176,75.59999999999997L823.0597714285715,75.59999999999997L823.1862857142858,75.59999999999997L823.9875428571429,75.59999999999997L825.4635428571429,75.59999999999997L826.1804571428571,75.59999999999997L826.7708571428572,75.59999999999997L827.6564571428571,75.59999999999997L828.0781714285714,75.59999999999997L828.4155428571429,75.59999999999997L828.8372571428571,75.59999999999997L830.9036571428572,75.59999999999997L831.2410285714285,75.59999999999997L832.5905142857143,75.59999999999997L833.1809142857143,75.59999999999997L833.4339428571428,75.59999999999997L834.0243428571428,75.59999999999997L834.4038857142858,75.59999999999997L834.6990857142857,75.59999999999997L834.7412571428571,75.59999999999997L834.9099428571428,75.59999999999997L835.9642285714285,75.59999999999997L836.3859428571428,75.59999999999997L837.2293714285714,75.59999999999997L837.8197714285715,75.59999999999997L839.3379428571428,75.59999999999997L840.1392000000001,75.59999999999997L842.2056,75.59999999999997L842.2477714285714,75.59999999999997L842.4586285714286,75.59999999999997L843.5972571428571,75.59999999999997L845.1997714285714,75.59999999999997L849.8808,75.59999999999997L850.2603428571429,75.59999999999997L850.9350857142858,75.59999999999997L851.0616,75.59999999999997L851.4411428571428,75.59999999999997L852.6219428571429,75.59999999999997L854.0557714285713,75.59999999999997L854.0979428571429,75.59999999999997L854.6039999999999,75.59999999999997L856.2486857142857,75.59999999999997L857.3029714285715,75.59999999999997L858.0198857142857,75.59999999999997L859.8754285714285,75.59999999999997L860.8875428571428,75.59999999999997L861.8153142857144,75.59999999999997L862.9961142857143,75.59999999999997L865.2733714285714,75.59999999999997L867.1289142857142,75.59999999999997L870.8821714285715,75.59999999999997L870.9243428571428,75.59999999999997L874.5932571428572,75.59999999999997L874.9306285714287,75.59999999999997L876.8283428571428,75.59999999999997L879.3586285714287,75.59999999999997L881.9310857142856,75.59999999999997L882.2262857142857,75.59999999999997L883.4492571428572,75.59999999999997L885.0096,75.59999999999997L885.7265142857143,75.59999999999997L887.4977142857143,75.59999999999997L889.5219428571429,75.59999999999997L891.2088,75.59999999999997L892.2630857142857,75.59999999999997L893.0643428571428,75.59999999999997L893.2751999999999,75.59999999999997L894.2451428571429,75.59999999999997L894.6668571428571,75.59999999999997L895.1729142857143,75.59999999999997L896.0585142857144,75.59999999999997L898.0405714285714,75.59999999999997L898.9261714285715,75.59999999999997L900.4865142857142,75.59999999999997L901.1612571428572,75.59999999999997L903.6071999999999,75.59999999999997L905.4627428571428,75.59999999999997L905.6314285714285,75.59999999999997L906.6857142857143,75.59999999999997L907.7821714285715,75.59999999999997L914.4874285714285,75.59999999999997L915.12,75.59999999999997L915.2465142857142,75.59999999999997L916.1742857142856,75.59999999999997L916.4273142857143,75.59999999999997L917.3972571428571,75.59999999999997L918.4515428571428,75.59999999999997L919.0841142857142,75.59999999999997L920.7709714285713,75.59999999999997L921.024,75.59999999999997L921.6143999999999,75.59999999999997L922.0782857142857,75.59999999999997L922.4578285714286,75.59999999999997L924.3977142857143,75.59999999999997L924.6929142857143,75.59999999999997L924.8616000000001,75.59999999999997L925.1146285714285,75.59999999999997L927.6027428571429,75.59999999999997L928.7413714285715,75.59999999999997L929.7113142857143,75.59999999999997L932.6633142857143,75.59999999999997L933.5910857142857,75.59999999999997L934.9827428571429,75.59999999999997L935.3201142857143,75.59999999999997L935.6996571428572,75.59999999999997L935.9948571428571,75.59999999999997L937.6817142857142,75.59999999999997L938.2299428571428,75.59999999999997L938.4408000000001,75.59999999999997L938.6938285714285,75.59999999999997L938.8203428571429,75.59999999999997L942.0253714285715,75.59999999999997L942.0675428571428,75.59999999999997L942.1518857142858,75.59999999999997L943.9230857142857,75.59999999999997L944.0495999999999,75.59999999999997L945.3569142857143,75.59999999999997L946.4955428571428,75.59999999999997L946.6220571428571,75.59999999999997L946.8329142857143,75.59999999999997L948.5619428571428,75.59999999999997L949.1945142857143,75.59999999999997L949.8270857142857,75.59999999999997L950.2066285714285,75.59999999999997L950.2909714285714,75.59999999999997L951.9356571428572,75.59999999999997L952.3573714285714,75.59999999999997L952.9477714285714,75.59999999999997L954.7611428571429,75.59999999999997L955.6889142857143,75.59999999999997L956.6588571428571,75.59999999999997L958.3878857142857,75.59999999999997L958.9361142857143,75.59999999999997L958.9782857142857,75.59999999999997L959.7795428571428,75.59999999999997L959.8217142857143,75.59999999999997L959.9060571428571,75.59999999999997L960.1169142857143,75.59999999999997L960.5808000000001,75.59999999999997L965.2196571428572,75.59999999999997L965.2618285714285,75.59999999999997L965.9787428571428,75.59999999999997L966.1474285714286,75.59999999999997L967.7077714285715,75.59999999999997L969.0150857142858,75.59999999999997L969.0572571428571,75.59999999999997L969.1837714285715,75.59999999999997L969.2259428571429,75.59999999999997L970.8706285714286,75.59999999999997L971.2501714285714,75.59999999999997L972.2622857142857,75.59999999999997L973.6539428571429,75.59999999999997L974.6660571428571,75.59999999999997L974.7082285714287,75.59999999999997L976.2264,75.59999999999997L977.8289142857142,75.59999999999997L979.5157714285715,75.59999999999997L979.7687999999999,75.59999999999997L979.8531428571428,75.59999999999997L979.8953142857143,75.59999999999997L981.2026285714286,75.59999999999997L981.5821714285714,75.59999999999997L981.7508571428572,75.59999999999997L984.4498285714285,75.59999999999997L987.1909714285714,75.59999999999997L988.1609142857142,75.59999999999997L988.8356571428571,75.59999999999997L991.7033142857143,75.59999999999997L991.8298285714285,75.59999999999997L992.0406857142856,75.59999999999997L994.8661714285714,75.59999999999997L995.6252571428571,75.59999999999997L998.7881142857144,75.59999999999997L1000.4327999999999,75.59999999999997L1000.4749714285715,75.59999999999997L1003.1317714285715,75.59999999999997L1003.6800000000001,75.59999999999997L1004.1438857142858,75.59999999999997L1007.0958857142858,75.59999999999997L1007.6441142857144,75.59999999999997L1008.8670857142857,75.59999999999997L1008.9092571428571,75.59999999999997L1010.6382857142858,75.59999999999997L1011.6504,75.59999999999997L1011.9034285714287,75.59999999999997L1012.7468571428572,75.59999999999997L1012.9998857142858,75.59999999999997L1013.8854857142857,75.59999999999997L1014.1385142857143,75.59999999999997L1016.6687999999999,75.59999999999997L1019.1569142857143,75.59999999999997L1020.5064,75.59999999999997L1020.8016,75.59999999999997L1024.3439999999998,75.59999999999997L1029.8262857142856,75.59999999999997L1030.8805714285713,75.59999999999997L1031.4288,75.59999999999997L1032.5674285714285,75.59999999999997L1032.8626285714286,75.59999999999997L1033.3265142857142,75.59999999999997L1033.5373714285715,75.59999999999997L1033.8325714285713,75.59999999999997L1033.8747428571428,75.59999999999997L1034.4651428571428,75.59999999999997L1035.645942857143,75.59999999999997L1038.5557714285715,75.59999999999997L1038.6822857142859,75.59999999999997L1040.1161142857143,75.59999999999997L1040.4534857142858,75.59999999999997L1041.845142857143,75.59999999999997L1041.9294857142856,75.59999999999997L1043.4898285714287,75.59999999999997L1047.3274285714285,75.59999999999997L1047.4117714285715,75.59999999999997L1048.0021714285715,75.59999999999997L1052.5145142857143,75.59999999999997L1052.8097142857143,75.59999999999997L1053.3157714285715,75.59999999999997L1055.3821714285714,75.59999999999997L1055.4665142857143,75.59999999999997L1055.9304,75.59999999999997L1055.9725714285714,75.59999999999997L1056.1834285714285,75.59999999999997L1059.768,75.59999999999997L1059.8945142857144,259950.60000002864L1059.9366857142857,75.59999999999997L1066.0937142857142,75.59999999999997L1066.2624,75.59999999999997L1066.3045714285713,75.59999999999997L1067.0214857142857,75.59999999999997L1067.6540571428573,75.59999999999997L1068.0757714285714,75.59999999999997L1068.539657142857,75.59999999999997L1068.7505142857144,75.59999999999997L1068.9613714285715,75.59999999999997L1069.1300571428571,75.59999999999997L1069.3830857142857,75.59999999999997L1070.3952,75.59999999999997L1070.8169142857143,75.59999999999997L1071.9133714285715,75.59999999999997L1071.9977142857144,75.59999999999997L1072.3772571428572,75.59999999999997L1073.8110857142856,75.59999999999997L1074.7810285714286,75.59999999999997L1076.214857142857,75.59999999999997L1076.9317714285714,75.59999999999997L1077.9438857142857,75.59999999999997L1078.7451428571428,75.59999999999997L1079.3355428571429,75.59999999999997L1080.7272,75.59999999999997L1085.4925714285714,75.59999999999997L1087.5589714285713,75.59999999999997L1090.1314285714286,75.59999999999997L1090.974857142857,75.59999999999997L1091.4387428571429,75.59999999999997L1092.2821714285715,75.59999999999997L1094.812457142857,75.59999999999997L1095.3606857142856,75.59999999999997L1096.9210285714287,75.59999999999997L1097.764457142857,75.59999999999997L1098.228342857143,75.59999999999997L1101.8550857142857,75.59999999999997L1102.2768,75.59999999999997L1105.9457142857143,75.59999999999997L1108.2229714285713,75.59999999999997L1109.7833142857144,75.59999999999997L1109.867657142857,75.59999999999997L1111.0906285714286,75.59999999999997L1112.7353142857144,75.59999999999997L1114.7595428571428,75.59999999999997L1116.7837714285715,75.59999999999997L1116.8681142857142,75.59999999999997L1117.2054857142857,75.59999999999997L1118.4706285714285,75.59999999999997L1119.314057142857,75.59999999999997L1119.4405714285715,75.59999999999997L1120.0309714285713,75.59999999999997L1122.4347428571427,75.59999999999997L1126.4832,75.59999999999997L1128.3809142857144,75.59999999999997L1128.5495999999998,75.59999999999997L1131.0798857142856,75.59999999999997L1133.0197714285714,75.59999999999997L1134.2849142857144,75.59999999999997L1135.2126857142857,75.59999999999997L1135.550057142857,75.59999999999997L1138.2068571428572,75.59999999999997L1140.6949714285713,75.59999999999997L1141.9601142857143,75.59999999999997L1142.634857142857,75.59999999999997L1142.8878857142856,75.59999999999997L1144.2795428571428,75.59999999999997L1145.5025142857144,75.59999999999997L1146.0929142857144,75.59999999999997L1147.4002285714287,75.59999999999997L1149.0449142857144,75.59999999999997L1152.6716571428572,75.59999999999997L1153.0090285714284,75.59999999999997L1155.7501714285713,75.59999999999997L1156.8044571428572,75.59999999999997L1157.3526857142858,75.59999999999997L1157.6057142857142,75.59999999999997L1157.6478857142858,75.59999999999997L1157.7322285714285,75.59999999999997L1161.0637714285715,75.59999999999997L1163.5518857142858,75.59999999999997L1168.3594285714287,75.59999999999997L1168.992,75.59999999999997L1171.1005714285716,75.59999999999997L1171.1849142857143,75.59999999999997L1172.323542857143,75.59999999999997L1173.5465142857142,75.59999999999997L1174.9381714285714,75.59999999999997L1175.9924571428571,75.59999999999997L1178.5649142857142,75.59999999999997L1179.7457142857143,75.59999999999997L1179.9565714285714,75.59999999999997L1181.306057142857,75.59999999999997L1182.7820571428572,75.59999999999997L1183.4568,75.59999999999997L1184.1737142857144,75.59999999999997L1185.9027428571428,75.59999999999997L1188.0956571428571,75.59999999999997L1189.8668571428573,75.59999999999997L1190.457257142857,75.59999999999997L1191.132,75.59999999999997L1192.0176,75.59999999999997L1192.3971428571429,75.59999999999997L1193.0718857142858,75.59999999999997L1193.1984,75.59999999999997L1195.7286857142856,75.59999999999997L1195.7708571428573,75.59999999999997L1196.361257142857,75.59999999999997L1200.3253714285713,75.59999999999997L1201.0001142857143,75.59999999999997L1201.5483428571429,75.59999999999997L1202.0122285714285,75.59999999999997L1205.217257142857,75.59999999999997L1205.8076571428571,75.59999999999997L1206.2293714285713,75.59999999999997L1206.4824,75.59999999999997L1209.0548571428571,75.59999999999997L1210.826057142857,75.59999999999997L1213.1033142857143,75.59999999999997L1217.489142857143,75.59999999999997L1219.091657142857,75.59999999999997L1221.0315428571428,75.59999999999997L1221.1158857142857,75.59999999999997L1222.802742857143,75.59999999999997L1222.8449142857144,75.59999999999997L1222.8870857142858,75.59999999999997L1223.5618285714286,75.59999999999997L1224.1100571428572,75.59999999999997L1224.1944,75.59999999999997L1228.3693714285714,75.59999999999997L1229.6766857142857,75.59999999999997L1233.6408,75.59999999999997L1234.2312000000002,75.59999999999997L1234.6950857142858,75.59999999999997L1237.3940571428573,75.59999999999997L1237.6470857142858,75.59999999999997L1237.9001142857142,75.59999999999997L1238.0688,75.59999999999997L1238.1109714285715,75.59999999999997L1238.7013714285715,75.59999999999997L1241.2738285714286,75.59999999999997L1242.9606857142858,75.59999999999997L1245.2801142857143,75.59999999999997L1246.5030857142856,75.59999999999997L1249.8768,75.59999999999997L1250.3406857142857,75.59999999999997L1250.6780571428571,75.59999999999997L1252.7022857142858,75.59999999999997L1253.7144,75.59999999999997L1255.4012571428573,75.59999999999997L1255.5277714285714,75.59999999999997L1256.8350857142857,75.59999999999997L1257.2568,75.59999999999997L1257.552,75.59999999999997L1258.1424000000002,75.59999999999997L1258.3110857142856,75.59999999999997L1260.714857142857,75.59999999999997L1261.5582857142858,75.59999999999997L1261.6848,75.59999999999997L1262.5704,75.59999999999997L1264.1729142857143,75.59999999999997L1265.1006857142856,75.59999999999997" style="fill: none;" fill="none"></path></g></g></g></g></g></g><g transform="translate(22, 378)" clip-path="url(#clip_1)"><clipPath id="clip_1"><rect width="1476" height="22"></rect></clipPath><g><g><line x1="0" y1="0" x2="0" y2="5" style="visibility: inherit;" fill="rgb(0, 0, 0)" stroke="rgb(204, 204, 204)" stroke-width="1px"></line><line x1="210.85714285714283" y1="0" x2="210.85714285714283" y2="5" style="visibility: inherit;" fill="rgb(0, 0, 0)" stroke="rgb(204, 204, 204)" stroke-width="1px"></line><line x1="421.71428571428567" y1="0" x2="421.71428571428567" y2="5" style="visibility: inherit;" fill="rgb(0, 0, 0)" stroke="rgb(204, 204, 204)" stroke-width="1px"></line><line x1="632.5714285714286" y1="0" x2="632.5714285714286" y2="5" style="visibility: inherit;" fill="rgb(0, 0, 0)" stroke="rgb(204, 204, 204)" stroke-width="1px"></line><line x1="843.4285714285713" y1="0" x2="843.4285714285713" y2="5" style="visibility: inherit;" fill="rgb(0, 0, 0)" stroke="rgb(204, 204, 204)" stroke-width="1px"></line><line x1="1054.2857142857142" y1="0" x2="1054.2857142857142" y2="5" style="visibility: inherit;" fill="rgb(0, 0, 0)" stroke="rgb(204, 204, 204)" stroke-width="1px"></line><line x1="1265.142857142857" y1="0" x2="1265.142857142857" y2="5" style="visibility: inherit;" fill="rgb(0, 0, 0)" stroke="rgb(204, 204, 204)" stroke-width="1px"></line><line x1="1476" y1="0" x2="1476" y2="5" style="visibility: inherit;" fill="rgb(0, 0, 0)" stroke="rgb(204, 204, 204)" stroke-width="1px"></line></g><g transform="translate(0, 8)"><text x="0" y="0" dx="0em" dy="0.95em" style="text-anchor: middle; visibility: hidden; font-family: &quot;Helvetica Neue&quot;, sans-serif; font-size: 12px; font-weight: 200;" fill="rgb(50, 49, 63)" stroke="none" stroke-width="1px">20k</text><text x="210.85714285714283" y="0" dx="0em" dy="0.95em" style="text-anchor: middle; visibility: inherit; font-family: &quot;Helvetica Neue&quot;, sans-serif; font-size: 12px; font-weight: 200;" fill="rgb(50, 49, 63)" stroke="none" stroke-width="1px">25k</text><text x="421.71428571428567" y="0" dx="0em" dy="0.95em" style="text-anchor: middle; visibility: inherit; font-family: &quot;Helvetica Neue&quot;, sans-serif; font-size: 12px; font-weight: 200;" fill="rgb(50, 49, 63)" stroke="none" stroke-width="1px">30k</text><text x="632.5714285714286" y="0" dx="0em" dy="0.95em" style="text-anchor: middle; visibility: inherit; font-family: &quot;Helvetica Neue&quot;, sans-serif; font-size: 12px; font-weight: 200;" fill="rgb(50, 49, 63)" stroke="none" stroke-width="1px">35k</text><text x="843.4285714285713" y="0" dx="0em" dy="0.95em" style="text-anchor: middle; visibility: inherit; font-family: &quot;Helvetica Neue&quot;, sans-serif; font-size: 12px; font-weight: 200;" fill="rgb(50, 49, 63)" stroke="none" stroke-width="1px">40k</text><text x="1054.2857142857142" y="0" dx="0em" dy="0.95em" style="text-anchor: middle; visibility: inherit; font-family: &quot;Helvetica Neue&quot;, sans-serif; font-size: 12px; font-weight: 200;" fill="rgb(50, 49, 63)" stroke="none" stroke-width="1px">45k</text><text x="1265.142857142857" y="0" dx="0em" dy="0.95em" style="text-anchor: middle; visibility: inherit; font-family: &quot;Helvetica Neue&quot;, sans-serif; font-size: 12px; font-weight: 200;" fill="rgb(50, 49, 63)" stroke="none" stroke-width="1px">50k</text><text x="1476" y="0" dx="0em" dy="0.95em" style="text-anchor: middle; visibility: hidden; font-family: &quot;Helvetica Neue&quot;, sans-serif; font-size: 12px; font-weight: 200;" fill="rgb(50, 49, 63)" stroke="none" stroke-width="1px">55k</text></g><line x1="0" y1="0" x2="1476" y2="0" fill="rgb(0, 0, 0)" stroke="rgb(204, 204, 204)" stroke-width="1px"></line></g></g></g></g></svg>