<svg viewBox="0 0 1498 400" xmlns="http://www.w3.org/2000/svg"><g><g><g><g><g><line x1="34" y1="378" x2="29" y2="378" style="visibility: inherit;" fill="rgb(0, 0, 0)" stroke="rgb(204, 204, 204)" stroke-width="1px"></line><line x1="34" y1="340.2" x2="29" y2="340.2" style="visibility: inherit;" fill="rgb(0, 0, 0)" stroke="rgb(204, 204, 204)" stroke-width="1px"></line><line x1="34" y1="302.4" x2="29" y2="302.4" style="visibility: inherit;" fill="rgb(0, 0, 0)" stroke="rgb(204, 204, 204)" stroke-width="1px"></line><line x1="34" y1="264.6" x2="29" y2="264.6" style="visibility: inherit;" fill="rgb(0, 0, 0)" stroke="rgb(204, 204, 204)" stroke-width="1px"></line><line x1="34" y1="226.79999999999998" x2="29" y2="226.79999999999998" style="visibility: inherit;" fill="rgb(0, 0, 0)" stroke="rgb(204, 204, 204)" stroke-width="1px"></line><line x1="34" y1="189" x2="29" y2="189" style="visibility: inherit;" fill="rgb(0, 0, 0)" stroke="rgb(204, 204, 204)" stroke-width="1px"></line><line x1="34" y1="151.20000000000002" x2="29" y2="151.20000000000002" style="visibility: inherit;" fill="rgb(0, 0, 0)" stroke="rgb(204, 204, 204)" stroke-width="1px"></line><line x1="34" y1="113.40000000000003" x2="29" y2="113.40000000000003" style="visibility: inherit;" fill="rgb(0, 0, 0)" stroke="rgb(204, 204, 204)" stroke-width="1px"></line><line x1="34" y1="75.59999999999997" x2="29" y2="75.59999999999997" style="visibility: inherit;" fill="rgb(0, 0, 0)" stroke="rgb(204, 204, 204)" stroke-width="1px"></line><line x1="34" y1="37.80000000000001" x2="29" y2="37.80000000000001" style="visibility: inherit;" fill="rgb(0, 0, 0)" stroke="rgb(204, 204, 204)" stroke-width="1px"></line><line x1="34" y1="0" x2="29" y2="0" style="visibility: inherit;" fill="rgb(0, 0, 0)" stroke="rgb(204, 204, 204)" stroke-width="1px"></line></g><g transform="translate(24, 0)"><text x="0" y="378" dx="0em" dy="0.3em" style="text-anchor: end; visibility: hidden; font-family: &quot;Helvetica Neue&quot;, sans-serif; font-size: 12px; font-weight: 200;" fill="rgb(50, 49, 63)" stroke="none" stroke-width="1px">-2</text><text x="0" y="340.2" dx="0em" dy="0.3em" style="text-anchor: end; visibility: inherit; font-family: &quot;Helvetica Neue&quot;, sans-serif; font-size: 12px; font-weight: 200;" fill="rgb(50, 49, 63)" stroke="none" stroke-width="1px">0</text><text x="0" y="302.4" dx="0em" dy="0.3em" style="text-anchor: end; visibility: inherit; font-family: &quot;Helvetica Neue&quot;, sans-serif; font-size: 12px; font-weight: 200;" fill="rgb(50, 49, 63)" stroke="none" stroke-width="1px">2</text><text x="0" y="264.6" dx="0em" dy="0.3em" style="text-anchor: end; visibility: inherit; font-family: &quot;Helvetica Neue&quot;, sans-serif; font-size: 12px; font-weight: 200;" fill="rgb(50, 49, 63)" stroke="none" stroke-width="1px">4</text><text x="0" y="226.79999999999998" dx="0em" dy="0.3em" style="text-anchor: end; visibility: inherit; font-family: &quot;Helvetica Neue&quot;, sans-serif; font-size: 12px; font-weight: 200;" fill="rgb(50, 49, 63)" stroke="none" stroke-width="1px">6</text><text x="0" y="189" dx="0em" dy="0.3em" style="text-anchor: end; visibility: inherit; font-family: &quot;Helvetica Neue&quot;, sans-serif; font-size: 12px; font-weight: 200;" fill="rgb(50, 49, 63)" stroke="none" stroke-width="1px">8</text><text x="0" y="151.20000000000002" dx="0em" dy="0.3em" style="text-anchor: end; visibility: inherit; font-family: &quot;Helvetica Neue&quot;, sans-serif; font-size: 12px; font-weight: 200;" fill="rgb(50, 49, 63)" stroke="none" stroke-width="1px">10</text><text x="0" y="113.40000000000003" dx="0em" dy="0.3em" style="text-anchor: end; visibility: inherit; font-family: &quot;Helvetica Neue&quot;, sans-serif; font-size: 12px; font-weight: 200;" fill="rgb(50, 49, 63)" stroke="none" stroke-width="1px">12</text><text x="0" y="75.59999999999997" dx="0em" dy="0.3em" style="text-anchor: end; visibility: inherit; font-family: &quot;Helvetica Neue&quot;, sans-serif; font-size: 12px; font-weight: 200;" fill="rgb(50, 49, 63)" stroke="none" stroke-width="1px">14</text><text x="0" y="37.80000000000001" dx="0em" dy="0.3em" style="text-anchor: end; visibility: inherit; font-family: &quot;Helvetica Neue&quot;, sans-serif; font-size: 12px; font-weight: 200;" fill="rgb(50, 49, 63)" stroke="none" stroke-width="1px">16</text><text x="0" y="0" dx="0em" dy="0.3em" style="text-anchor: end; visibility: hidden; font-family: &quot;Helvetica Neue&quot;, sans-serif; font-size: 12px; font-weight: 200;" fill="rgb(50, 49, 63)" stroke="none" stroke-width="1px">18</text></g><line x1="34" y1="0" x2="34" y2="378" fill="rgb(0, 0, 0)" stroke="rgb(204, 204, 204)" stroke-width="1px"></line></g></g><g transform="translate(34, 0)" clip-path="url(#clip_0)"><clipPath id="clip_0"><rect width="1464" height="378"></rect></clipPath><g><g><g><line x1="0" y1="0" x2="0" y2="378" fill="rgb(0, 0, 0)" stroke="rgb(60, 60, 60)" stroke-width="1px" opacity="0.25"></line><line x1="122" y1="0" x2="122" y2="378" fill="rgb(0, 0, 0)" stroke="rgb(60, 60, 60)" stroke-width="1px" opacity="0.25"></line><line x1="244" y1="0" x2="244" y2="378" fill="rgb(0, 0, 0)" stroke="rgb(60, 60, 60)" stroke-width="1px" opacity="0.25"></line><line x1="366" y1="0" x2="366" y2="378" fill="rgb(0, 0, 0)" stroke="rgb(60, 60, 60)" stroke-width="1px" opacity="0.25"></line><line x1="488" y1="0" x2="488" y2="378" fill="rgb(0, 0, 0)" stroke="rgb(60, 60, 60)" stroke-width="1px" opacity="0.25"></line><line x1="610" y1="0" x2="610" y2="378" fill="rgb(0, 0, 0)" stroke="rgb(60, 60, 60)" stroke-width="1px" opacity="0.25"></line><line x1="732" y1="0" x2="732" y2="378" fill="rgb(0, 0, 0)" stroke="rgb(60, 60, 60)" stroke-width="1px" opacity="0.25"></line><line x1="854" y1="0" x2="854" y2="378" fill="rgb(0, 0, 0)" stroke="rgb(60, 60, 60)" stroke-width="1px" opacity="0.25"></line><line x1="976" y1="0" x2="976" y2="378" fill="rgb(0, 0, 0)" stroke="rgb(60, 60, 60)" stroke-width="1px" opacity="0.25"></line><line x1="1098" y1="0" x2="1098" y2="378" fill="rgb(0, 0, 0)" stroke="rgb(60, 60, 60)" stroke-width="1px" opacity="0.25"></line><line x1="1220" y1="0" x2="1220" y2="378" fill="rgb(0, 0, 0)" stroke="rgb(60, 60, 60)" stroke-width="1px" opacity="0.25"></line><line x1="1342" y1="0" x2="1342" y2="378" fill="rgb(0, 0, 0)" stroke="rgb(60, 60, 60)" stroke-width="1px" opacity="0.25"></line><line x1="1464" y1="0" x2="1464" y2="378" fill="rgb(0, 0, 0)" stroke="rgb(60, 60, 60)" stroke-width="1px" opacity="0.25"></line></g><g><line x1="0" y1="378" x2="1464" y2="378" fill="rgb(0, 0, 0)" stroke="rgb(60, 60, 60)" stroke-width="1px" opacity="0.25"></line><line x1="0" y1="340.2" x2="1464" y2="340.2" fill="rgb(0, 0, 0)" stroke="rgb(60, 60, 60)" stroke-width="1px" opacity="0.25"></line><line x1="0" y1="302.4" x2="1464" y2="302.4" fill="rgb(0, 0, 0)" stroke="rgb(60, 60, 60)" stroke-width="1px" opacity="0.25"></line><line x1="0" y1="264.6" x2="1464" y2="264.6" fill="rgb(0, 0, 0)" stroke="rgb(60, 60, 60)" stroke-width="1px" opacity="0.25"></line><line x1="0" y1="226.79999999999998" x2="1464" y2="226.79999999999998" fill="rgb(0, 0, 0)" stroke="rgb(60, 60, 60)" stroke-width="1px" opacity="0.25"></line><line x1="0" y1="189" x2="1464" y2="189" fill="rgb(0, 0, 0)" stroke="rgb(60, 60, 60)" stroke-width="1px" opacity="0.25"></line><line x1="0" y1="151.20000000000002" x2="1464" y2="151.20000000000002" fill="rgb(0, 0, 0)" stroke="rgb(60, 60, 60)" stroke-width="1px" opacity="0.25"></line><line x1="0" y1="113.40000000000003" x2="1464" y2="113.40000000000003" fill="rgb(0, 0, 0)" stroke="rgb(60, 60, 60)" stroke-width="1px" opacity="0.25"></line><line x1="0" y1="75.59999999999997" x2="1464" y2="75.59999999999997" fill="rgb(0, 0, 0)" stroke="rgb(60, 60, 60)" stroke-width="1px" opacity="0.25"></line><line x1="0" y1="37.80000000000001" x2="1464" y2="37.80000000000001" fill="rgb(0, 0, 0)" stroke="rgb(60, 60, 60)" stroke-width="1px" opacity="0.25"></line><line x1="0" y1="0" x2="1464" y2="0" fill="rgb(0, 0, 0)" stroke="rgb(60, 60, 60)" stroke-width="1px" opacity="0.25"></line></g></g></g><g><g><line x1="0" y1="340.2" x2="1464" y2="340.2" fill="rgb(0, 0, 0)" stroke="rgb(153, 153, 153)" stroke-width="1.5px"></line></g></g><g><g><line x1="122" y1="0" x2="122" y2="378" fill="rgb(0, 0, 0)" stroke="rgb(153, 153, 153)" stroke-width="1.5px"></line></g></g><g><g><g><g><g><path stroke="rgb(255, 112, 67)" stroke-width="2px" d="M123.0248,215.9975448131561L123.098,216.34177227616308L123.73240000000001,197.09466973032272L124.2936,177.36554847868052L126.0748,181.54693531348093L127.58760000000001,172.93403903743376L127.7096,167.41860209414438L128.222,162.89501598330042L128.66119999999998,157.54669647657545L129.5152,151.8397513975847L129.564,148.33080118030492L129.7592,147.58324133442142L133.5656,149.37176032958564L135.0784,164.27459414545058L136.1276,183.6561980702116L136.29840000000002,191.1688386525921L137.46959999999999,181.15362986289182L137.7868,191.57084331135655L138.3724,189.3451867552551L139.4216,174.6084169729833L139.6168,177.12523311112585L141.154,196.84774681265017L141.56879999999998,212.50022128487262L141.71519999999998,225.1209701416616L142.3984,218.242674243213L145.6924,210.05521670114223L146.74159999999998,187.8602398726997L148.0104,185.0904443619866L148.9376,156.37143716494174L150.792,179.05692933729853L152.76839999999999,180.03870412695414L154.1104,135.90079827094232L154.1836,130.51794868385625L154.5252,148.90264897137106L154.62279999999998,138.20663711154828L155.794,167.302409786426L155.9648,187.253789440152L157.0384,207.4122788124909L157.7704,203.29121214983414L159.1612,197.97572431114588L159.86880000000002,195.26491572846473L160.2592,169.97843791215388L160.6496,166.49722761750297L163.2604,168.12510586552256L164.30960000000002,169.67486595630325L164.3828,168.89086409277607L166.9936,195.87239141962698L167.5304,213.572433990052L167.7988,221.97598997712169L168.7748,218.00652852985053L169.18959999999998,215.29666978437055L169.5068,216.19699219655269L171.6784,238.0294169652323L173.1424,238.93663102554535L175.36280000000002,241.56462130408008L175.6556,237.32539584076554L176.4364,243.25098110339866L176.5828,246.11421521843604L177.1928,244.8111902829475L178.2908,245.9720103047173L180.2916,244.8261805785823L181.4384,246.44121181089452L181.85320000000002,242.35905299138287L181.902,235.26974656075984L182.024,235.1597698229L182.634,228.24658207043674L182.6584,233.70360033479136L182.9512,223.19636062125443L183.07319999999999,210.82697504127074L183.7808,222.7364091000798L184.14679999999998,226.14609243880764L187.51399999999998,232.73530976778898L188.856,237.38148352150102L194.3948,235.46216535475241L196.12720000000002,244.70260763112537L196.2004,251.70772178616426L197.61560000000003,252.46883873728694L199.1284,255.29281061999666L200.81199999999998,244.86431281395357L201.15359999999998,235.69986040489437L201.20239999999998,230.60112254557944L201.2268,227.2933407636758L202.642,242.64893359257437L206.912,244.07121591039692L210.2792,251.62738237064002L210.328,257.40633344460076L211.54799999999997,260.0264434421572L213.2804,258.29095897224624L214.5492,232.74661828724788L215.0616,238.8459739592567L215.23239999999998,247.3947503988084L217.8432,252.40083360339025L218.5264,248.3598456553508L219.2096,252.0007488543921L220.47840000000002,258.5535113129099L221.99120000000002,259.74378775316956L224.3824,263.08330769752547L225.1388,267.17777232298306L225.26080000000002,269.70990502815874L227.3348,265.6995265816536L227.3836,259.45496520131144L229.36,259.6507656045515L231.6048,258.1330321853017L232.0196,264.79421977428524L232.53199999999998,261.0982435764547L235.8016,259.78673947701907L235.89919999999998,258.2977164080742L236.0944,261.8193758470418L238.82719999999998,251.55005032435668L239.16879999999998,252.50934349188574L240.096,250.78794185334067L240.38880000000003,245.38887383469117L241.41359999999997,255.047956277896L243.2924,255.57315548060478L245.22000000000003,262.3270482051262L245.2688,260.99531101154616L246.5864,259.5147428164919L247.2696,253.47554555714368L249.83159999999998,248.26890779006624L252.418,252.15873399059856L252.7596,258.60598640609317L254.248,250.86934787850697L257.3956,254.4859273458786L260.56759999999997,261.5275128951828L261.64119999999997,261.4181242341495L263.7152,260.30160463539937L264.2032,263.00588872842894L265.0816,267.4097156978423L265.2524,268.1080430875286L266.13079999999997,267.48519418061164L266.64320000000004,266.0299532736563L268.156,268.60121880562446L268.644,266.34975323314274L271.3524,262.39344042560344L271.5964,269.60909705412917L273.28000000000003,268.54824302823863L273.59720000000004,265.9540326013059L273.7436,263.90733517968005L275.45160000000004,267.2490523586473L276.01279999999997,267.7569074112058L277.57439999999997,269.74414646851307L281.088,266.04276668207217L282.4056,267.436047229626L283.1132,269.9552265128244L284.4308,264.24910840754205L285.38239999999996,265.189007776764L285.4556,261.4137390052002L285.7484,260.6720722910596L286.50480000000005,262.7402187679311L289.2376,252.63208181465268L291.9704,253.9079430890357L292.6048,242.87839309646344L295.38640000000004,253.15647283717186L295.5816,259.4804956407797L296.582,262.625153330055L298.8268,261.7186853474898L300.3884,267.6817299882485L301.5596,259.2039358544298L302.12080000000003,261.4291673140495L303.78,261.73808443765455L304.024,259.87094434392816L304.0972,249.1557581728242L304.4632,248.07305722150457L305.2684,251.26683583207875L309.7092,254.95161824195355L311.344,255.42409129124147L312.0272,245.36890151012696L312.27119999999996,247.2429492587373L313.1252,257.185503966482L316.9804,250.35419844083282L318.8104,251.89171662385638L321.59200000000004,253.03363549265487L322.5924,262.77973278256195L325.3496,253.4847380345579L326.0572,244.34032509002185L326.1792,239.64355174346625L326.3988,234.898440292143L328.5948,235.34101119677015L328.668,230.5117714443194L329.3512,231.31765254249498L329.5952,246.6817859358211L331.8644,249.29583009878513L332.694,255.92642546176742L334.158,245.87319597530265L338.6232,213.317163358497L339.2576,222.59202437541924L339.3308,157.6582228955152L339.84319999999997,193.8119344888045L340.014,208.43491660224876L341.4292,228.75046429316689L341.5756,234.28966687012013L342.942,234.49656367950615L347.944,227.2770383587657L349.3104,238.49278728909366L350.0912,236.26588653056066L352.214,238.7372297485366L353.0192,240.51534096954433L354.9468,210.2012315211187L355.11760000000004,193.86604645356476L355.4348,152.70123385968773L356.8988,177.16459928264L357.63079999999997,199.220553621708L358.192,218.72000715318842L358.6312,224.62254565467552L362.1692,231.72297731345958L363.7308,230.2288422543172L367.4152,233.71752473583007L368.0496,235.7330092148196L372.7344,230.73677202440567L372.9052,219.95671621070665L375.6624,220.89227380219913L375.7356,226.02048350968252L376.248,214.6047393131154L377.68760000000003,221.35621784018855L378.73679999999996,201.74770710639586L380.8108,176.4931423912789L381.5672,209.38060963215506L381.9576,210.75886294878768L382.37239999999997,190.53988945506362L383.3484,165.4172932006261L384.4708,187.54645942791348L384.4952,202.13758429017093L385.03200000000004,215.1481297786619L385.886,221.92000896308338L386.5204,225.3019278250546L386.74,230.689159338618L388.0088,227.66059567030948L388.082,227.93918847976136L388.9116,233.58869527779822L389.00919999999996,237.37979292275193L389.5704,243.06389416338018L389.7168,240.393840972668L389.7656,243.2947911596811L390.88800000000003,235.84011156180597L392.88879999999995,237.4768082548326L393.3524,240.2427415996281L393.57199999999995,241.23629116949365L395.23120000000006,241.81899270020082L395.28000000000003,243.1376005494723L396.744,240.88692394281205L400.6236,232.12574596038326L401.9168,231.52963062066354L402.40479999999997,236.7518355890424L403.16119999999995,240.26276707913345L403.3808,240.5674727169625L403.7956,242.69837086009693L404.2104,240.01599118594953L406.21119999999996,235.33268181255238L406.7724,231.56686710221038L407.11400000000003,230.20360412897148L408.9196,230.5865105456202L411.70120000000003,237.14198729432155L414.04359999999997,237.18208704135736L414.1656,236.02690481270503L415.044,235.90847965672702L415.80039999999997,239.43727744934014L418.16720000000004,236.70447729418905L418.8016,236.8449634456052L418.8992,232.4951047839769L419.2896,241.3180082668095L420.31440000000003,243.00905681784323L421.87600000000003,237.49660558423622L421.9492,234.43396447969215L422.33959999999996,236.08673780723055L424.682,234.4712992761352L425.9752,235.91751720987668L431.1724,236.7609726481611L431.8556,225.8172301800832L432.83160000000004,228.17113091658263L434.5884,226.01880579299157L436.1012,236.27934934798733L438.00440000000003,223.3261629420749L438.4192,219.42201932896563L439.078,218.25602470773094L439.59040000000005,213.167223337517L439.8832,201.60109106732952L440.24920000000003,200.43929161091773L441.64000000000004,203.2530456963785L443.4212,201.75881209037348L446.1052,199.85493979252365L447.3984,209.77116831658475L447.496,215.44671397518033L449.8872,208.97753686136554L450.912,202.64857057110396L452.1564,225.07178651914552L452.71760000000006,215.1111082197759L454.1572,213.17227415809234L454.23040000000003,208.51663664680245L456.524,205.83825370133832L457.35360000000003,197.08407744205542L458.2076,198.18222518227427L459.1592,198.96395762599664L461.404,127.50589944742416L461.9408,124.74973630083977L463.9416,134.91667825206147L467.38199999999995,153.93129307642002L468.99240000000003,167.97394161352165L469.1632,179.16432191925435L469.3828,175.65648022888416L469.79760000000005,152.35504280804582L470.23679999999996,116.41459577607509L471.6764,150.70701426343558L472.8964,178.08242860124372L474.04319999999996,181.77190386942544L475.58040000000005,189.13646700198362L477.4104,204.4518395937378L477.5568,225.51187583189576L478.2888,223.22024363268238L478.50839999999994,208.9158039020826L478.7524,217.7220030741292L480.9972,220.41206989028439L481.2168,218.8329678710603L481.7292,229.90128995038884L483.2908,229.88326750432145L483.75440000000003,233.93249622723275L487.0484,230.97780021512995L488.5856,224.3156429319649L489.708,222.31303814107594L490.78159999999997,224.93526745709428L492.88,220.2485892729321L494.2952,209.20883797385446L497.93080000000003,211.2742691157946L497.9796,219.57372437230882L498.7604,221.82008423276028L499.5168,220.0767151133256L500.95640000000003,214.89541020965797L504.4456,218.055381291963L505.03119999999996,220.06606069198688L505.2508,204.20273532266285L506.5928,206.75609635946074L510.27720000000005,192.61222829602312L510.6188,186.14619535316322L513.1075999999999,189.66434477155974L513.62,178.662144575033L516.8652,190.6089079913577L518.622,190.74720915180924L519.1588,201.5384546948819L519.5735999999999,198.03606632431442L520.696,199.9269576542383L521.5256,193.57078202204738L523.1116,201.59773082516693L525.0636000000001,185.61895419944585L526.918,187.25749976270947L527.7964,188.3931030871484L530.5048,197.81452907335836L530.5292,206.12617769486948L531.3588,200.8814250770047L531.7004000000001,200.25642762081833L532.7252,206.73323790488845L536.8,207.34908781205536L537.5563999999999,209.63619678589654L538.3860000000001,207.00626042230695L541.0212,207.46314664568766L541.8263999999999,203.3421004813091L542.2656000000001,207.6733978009925L542.3144,201.98944643358618L542.9,188.11101172459266L542.9244,184.0438409214743L542.9976,193.35913887295297L543.4612,186.5891722886155L544.3152,175.515842011475L545.0716,-43.65609812563457L546.0232,20.88304690464861L546.2672,78.56415446725202L548.4388,94.73953676299283L548.7804,110.11154336974641L549.488,144.04418443707002L549.6832,164.31038443009479L550.3908,178.8348682961489L552.8063999999999,176.25421237478412L558.4428,172.96638061243146L559.126,145.55904894851358L559.3456,137.78082453359792L560.0288,135.27858962982674L560.8828,126.25078136426083L561.1756,139.00569976032895L562.7372,162.10309080041122L566.0312,161.2064122805397L567.3488,167.6797554951549L570.5939999999999,173.68263582120184L570.6184,179.2321431763759L574.0344,181.36208288000765L576.9868,168.0255386455461L577.1576,164.81034222266706L580.2076,144.86158871067542L582.9648,110.36308584817039L583.4284,121.30343084697591L584.1116000000001,97.99513464191358L584.6483999999999,-32.19392034400221L585.1608,24.6991756332593L586.8199999999999,88.9095688183711L588.1132,119.67654809949437L589.5284,161.63542396544L590.602,164.5084156722938L595.8235999999999,177.9112072402903L596.2628,178.83298143951112L596.7996,176.47801090960508L596.946,182.44681730320934L599.6056,195.1322372821026L599.9472,207.6418555871876L600.2156,204.22081533290338L601.5576,204.25509742270347L601.826,202.3521952829983L601.9724,203.44781388534463L603.412,199.6586591106257L604.0708000000001,198.51390382895477L604.632,200.48434045105938L606.34,209.94344900482753L606.8768,203.92472659131204L607.682,201.01814798939415L608.2676,200.36810436980838L609.2436,200.30813461742946L609.6827999999999,208.33516094089833L609.8292,208.42646325231368L609.9024000000001,200.88956487536893L611.7568,201.85069260335243L611.7812,210.08675963244605L612.928,218.06865141011338L613.6844,213.87119855175652L614.3432,218.31939456516648L614.4164000000001,205.47076141866532L614.5384,196.0460148956328L616.2708,191.9579093829363L616.5392,186.38120074603376L617.7348,179.11325829704654L619.1256,170.52632293629674L620.2236,171.7264590449812L621.224,158.85650603459365L621.5412,157.21091335586365L621.5656,160.71863793356215L622.1024,170.87695500745176L622.4928,185.04567797120686L625.2012,185.1385227724092L625.7136,196.86203662181953L627.3972,190.35326941266692L627.4703999999999,186.7665010229053L627.4947999999999,188.12025574298514L628.666,198.7294538989771L629.2516,103.64424948782374L632.4724,132.5843489175478L634.4244,153.4094263747596L634.7416,175.68519256801986L636.3032,177.78391804630508L637.8892,178.06240004500717L638.4504,174.09494841933827L640.5,179.45913427377093L640.5732,184.0685741502306L640.6952,194.78820196618204L642.3299999999999,187.54212528127172L642.7692,187.53356149231038L644.5992,186.81636393090872L645.5508,168.38377809060088L649.406,144.43350431163591L650.4308,143.9550750830143L650.4552,142.56771172156152L652.0412,161.28278222245106L652.1876,153.00607340909315L652.822,148.2983456216888L653.3344,145.97393775478818L653.4808,106.55003651914484L657.336,135.31991540513928L663.1676,159.339816236034L663.4848,173.27549683543143L664.3144,180.62299413855135L664.9,188.33195938214817L663.8996000000001,187.67103929963798L664.5828,185.74149381904064L665.7052,196.39269769065535L666.5591999999999,205.49342770023912L667.462,204.26481407787662L669.6824,200.53743741218008L672.8544,200.08699594797943L674.6844,203.06881311215315L676.8804,201.7224214999518L676.9535999999999,198.92560709766397L680.5404,197.7568820503464L680.6379999999999,208.46595677537388L681.6872,210.03739345075292L681.9556,210.73211653233528L682.1996,214.43371795178032L683.0292000000001,209.2856513986622L683.2732,210.71304513988702L683.9076,208.59019210086947L685.0056,208.61592737523728L685.5668,210.6116241436482L686.8112,203.17570094950682L687.3968,196.8147743218403L687.8604,196.84251514394649L689.0072,197.04267732214672L691.7643999999999,192.53552479691348L692.96,184.45393584219838L694.9364,185.37710897236005L695.2048,189.6628587443169L695.6928,190.918625090035L697.4739999999999,183.71419167847168L698.8648,170.7653208466216L701.4756,165.07289020847347L704.9159999999999,178.64279601473254L705.8676,180.63163391529702L706.5752,185.1283991800498L708.698,179.75184602658456L709.8692,186.50666913938824L709.918,182.0824864766139L710.8452,180.59792915708647L711.4064,187.36988363103166L713.1388,121.02550226113851L716.5792,124.57392795122658L718.1408,133.45752861521837L720.5319999999999,145.69547088159442L720.7272,157.2817744875748L724.436,173.3422710028171L724.9728,170.39873586218835L725.778,174.44717082334324L727.5836,171.70571078868372L728.5352,179.5968257880906L730.6336,181.38241447309846L732.4147999999999,175.58101091683022L733.0248,171.65099241435595L733.342,176.21509621918244L733.5616,171.13508796679997L735.4892,74.42826942436716L736.9287999999999,-103.28390153507706L746.2984,-15.783410129900744L747.2012,61.15876163842927L748.0552,105.57428766848233L749.8607999999999,141.6601858899688L752.8864,145.1462065199432L753.3987999999999,172.2129723631988L753.6184000000001,181.69097763560117L754.0088000000001,181.68204549707116L755.546,180.9177056917974L755.5704,186.272987344827L755.9119999999999,176.8801121395622L758.9132,188.30834499369826L759.1815999999999,192.14774394613963L761.6216,184.24351670612373L763.2564,199.13729334276601L768.1363999999999,200.30434599162152L771.2352000000001,202.20995870733864L771.2596000000001,198.8603694314039L771.9671999999999,196.46760362829426L772.016,193.82823208359275L774.4316,190.9589543639862L778.0916,195.06665172453185L779.6532,199.76619312212148L779.7995999999999,203.1137205615358L779.9459999999999,194.32087592212656L780.0436000000001,191.53831031279742L780.0680000000001,186.8699359557449L782.8739999999999,173.4171278942477L784.2159999999999,185.61377237253495L787.1439999999999,185.82671767004194L788.5104,180.60512529807013L790.9016,180.9123081576629L791.1456,192.5538344414117L791.3163999999999,198.4554630679537L791.7556,198.17589966312943L793.1464,193.3026316252702L794.22,199.41872283502542L796.3184000000001,201.35498114516807L798.5388,193.81143408352418L798.5876,193.5954336007493L799.3684000000001,187.03095519066198L799.8076,184.6219162387868L806.7128,191.20150190849424L807.3472,170.07507354652478L808.4208,169.29770754954575L809.7628000000001,179.76537745941496L811.2756,192.6005326279927L811.5928,190.7000329404431L813.8376,203.1074932711933L814.5452,194.25323207721794L815.4968000000001,188.63009255138448L822.3288,172.15181758527405L824.2564000000001,173.81482296541003L824.8908,165.06504982325234L825.4276,165.61200593002317L825.8912,160.02032474331662L826.5012,176.074719279126L826.8915999999999,179.40163744516116L827.1843999999999,167.35819518224562L828.2335999999999,166.72616379056075L829.8928,171.90354236002983L831.4055999999999,149.69134943030014L836.4808,152.92808007443986L836.6516,135.93347116020342L836.8712,137.29617865864645L838.0912000000001,150.78759763708243L838.1644,157.59439337534025L838.6768,160.1543526237149L839.4332,165.77325419813033L839.8968,169.5336419643738L843.2152,165.53115300546756L845.1916,128.78278272277518L845.216,101.82780233935358L846.0455999999999,-9.628254280591989L849.3884,18.42234228485529L849.5104000000001,22.46744978924812L850.1448,47.811557367445346L851.2672,68.93610315978606L851.6332,60.59150923168704L853.6339999999999,98.0548864655259L854.6831999999999,121.17105024174231L855.3176000000001,139.64497030922996L856.318,146.60781680315273L857.3672,95.15500151377643L860.588,63.46653102911546L860.7588,-35.28789090706687L863.3452,-2.6344404930845826L864.3212000000001,22.945932841600438L866.6148,66.3959530307659L866.9563999999999,52.04593188010506L867.3956000000001,47.163446426647L868.4204,66.70565025344916L875.0572,-104.48362889089924L884.5975999999999,-25.575784003113142L886.8912,54.9417596701536L890.7708000000001,54.164974930510084L891.4052,96.1384249607475L892.3812,125.4047865438313L893.5035999999999,138.1915719537646L895.0896000000001,140.19392438106007L895.2604000000001,145.79045966251056L895.4556,141.0250520502529L896.6268000000001,142.8962436553837L896.8464,131.7696830676198L898.2860000000001,151.33203883684874L898.6032,154.75698220561267L902.1411999999999,176.31854648965788L902.434,196.83365730511065L903.2392,203.93146032850095L904.264,187.72363045430274L905.85,195.38644010195785L907.6556,192.13420269948034L908.8024,194.95737340725537L910.3884,192.98421339677026L911.0959999999999,139.64789917758853L911.4132000000001,112.71022975618689L913.0968,149.3129206906262L913.1700000000001,149.72609546247145L914.2191999999999,163.57027866877925L915.4147999999999,172.42482543491013L916.7812,108.02575021089723L920.002,143.8993625754214L920.1972000000001,171.16611082757095L920.368,187.9957830775057L922.6372,184.0594474618599L922.93,171.61903998285325L923.418,163.83531582015627L926.1996,166.4979156426065L926.2972000000001,164.6326048237963L926.956,167.2539015402129L927.0047999999999,169.135286900385L929.2008000000001,164.33292949496735L930.9088,168.7722657841386L931.5676,167.90384065639626L931.7384,165.77159489829333L932.4216,185.49981690906876L935.74,182.49063515581722L937.9848000000001,167.98671744297766L938.1556,165.99876802224412L940.3516,166.80163603459889L940.5712,167.9199225463575L940.864,161.69205270994343L941.3276000000001,160.74658187621017L941.7424,155.7857761215757L943.06,147.82507231662223L943.3528,150.68328565376723L943.9628,145.39053310643268L944.8656,142.97820238644266L946.2808,149.5771755669974L947.4032,159.7850720485725L947.8668,158.57333467964395L948.0375999999999,156.7971902761702L949.16,154.10421351872947L950.4288,160.44996162106432L950.502,162.720725645124L951.3560000000001,166.3427933201188L954.528,178.36371445566385L955.7968000000001,172.66869921630604L955.8212000000001,174.7363771530746L956.3336,180.3027280481314L957.6756,176.59570894191597L959.7983999999999,165.61137227982238L959.8227999999999,142.49689676266885L960.75,140.44431634129268L961.604,149.14807265389672L961.8236,166.96738725536292L962.7751999999999,141.94761260529293L963.9707999999999,146.1294092761274L965.3128,140.41169097583273L966.0936,144.52320137596593L968.4116,139.50335895881932L972.1204,143.829897035753L973.316,156.50371222352697L974.1944,160.2723634806616L975.7072,158.76939411683935L977.5859999999999,143.5688927109483L977.6591999999999,135.71308596226234L979.5136,128.40615830953516L980.026,129.87244082770107L980.2212,130.19706465531206L980.5383999999999,114.54514381485473L980.5871999999999,108.60174311874681L980.7336,110.62963233517632L983.1247999999999,125.36224076585191L983.1736,140.58732580564148L985.2964000000001,104.31492207182481L985.3696000000001,100.16498870452068L986.0284,124.13756652593509L990.2008,136.49678784799514L990.3716,151.07023133153874L991.982,142.6644133121679L992.1039999999999,153.96151625817475L994.6416,138.23374275508797L995.0563999999999,123.71999636258647L996.6912,121.82506067613338L997.1792,122.14436623966446L999.79,136.52735903212874L1001.0587999999999,142.8104008623925L1001.4248000000001,143.90502347641987L1001.7908,149.88649915512684L1002.1812,144.46915359769037L1002.4984,142.6949987427817L1003.3524,152.93705246069587L1003.8159999999999,156.96253791104886L1003.9867999999999,139.9205061450668L1009.672,148.3164993962686L1011.136,148.01643005615716L1011.868,128.97909917596724L1012.3316,116.4958467278704L1014.5031999999999,127.27423220359233L1015.4548,123.77391867091029L1015.5524,141.30148552566627L1015.7719999999999,140.77813985055604L1015.9183999999999,129.79490133587072L1016.5284,135.2961738184902L1017.9192,137.7382311389335L1021.4816,126.36925349506669L1024.312,114.32841313524796L1025.1172000000001,77.31300598051399L1027.7767999999999,-30.341406235299985L1038.83,-61.23375218636244L1039.8792,28.124108314952593L1041.5628000000002,87.37806770351011L1046.8088,124.47996157852697L1049.2732,144.7517039063447L1050.6152,145.54556412237127L1050.9812,157.47989710531974L1052.6648,168.37224185205903L1053.4944,178.18731535278206L1055.3,166.14312937737964L1055.6904,166.5865380649654L1055.9588,160.72282295494603L1056.7884,-75.55221107322376L1058.7404,29.44264190007209L1060.2287999999999,77.88671085720637L1060.2531999999999,113.0939795630299L1061.6684,133.50068671090145L1062.1564,144.92832622636996L1063.2056,160.90308712070967L1063.3276,167.78947522011867L1065.0844,180.56318571190516L1068.5248,184.7941554571419L1069.086,172.31477368505173L1069.1104,171.7160296620808L1072.4288000000001,171.685203048103L1074.7712,172.2881466701704L1076.2108,182.6907325074123L1076.4792,183.83939788610022L1083.4088,166.619393622102L1084.4092,173.7310664100776L1086.1172,166.38239701767742L1086.8003999999999,165.14298141586767L1088.0448,163.1705191504239L1090.4116000000001,165.75955083199023L1091.168,157.7379162444334L1091.29,159.94993392787345L1091.7048,150.62306117154338L1092.9492,157.80374530277953L1093.8763999999999,162.0504256637234L1098.854,154.95470714994298L1100.6108,121.93108440654294L1103.1728,144.48595605621824L1105.2956,159.3109793801909L1105.5883999999999,164.53251784204278L1106.3692,165.51255079006452L1107.0524,160.84989844736634L1109.1752000000001,150.71573084698426L1109.4192,141.64502539936487L1109.5656000000001,134.52164963903297L1109.6632,133.33845593942561L1110.4196,134.9934189463458L1110.4684,147.77390766053207L1110.81,152.10734699194916L1110.9564,135.04330391660503L1112.7376,119.62437151774861L1118.7644,128.94467879596414L1120.9116000000001,136.80017103948032L1121.546,135.99513848184247L1123.742,143.0824793980044L1124.4008000000001,151.22940405878558L1126.1088,156.94439059658725L1127.768,158.5659272656672L1128.1584,146.4986538783212L1129.7688,147.69266286227108L1130.94,142.95394126136893L1131.3304,164.36455593800423L1132.038,146.59514751849102L1132.648,154.1848675943466L1133.1116,165.6032733092935L1136.6252,153.0538716393847L1136.8204,150.4333539437138L1138.3819999999998,151.50397484486595L1139.0408,142.03451140991035L1142.3348,137.42066633386122L1142.5056,163.31573949147887L1142.9448,162.71632727795614L1145.458,172.47049861439334L1146.0436,158.8527872972981L1146.2876,135.20924909194088L1146.6292,125.76771513509618L1148.142,106.9992758934967L1150.46,96.84956355245544L1152.0704,72.05341961951041L1153.1684,85.30150195938933L1153.6076,100.10309378732796L1153.8516,120.6552011896942L1154.364,108.47937094269832L1157.0236,122.80307651459356L1158.7316,72.07217649042116L1161.1228,86.65584396493142L1163.9776,81.91345713121711L1164.9048,103.91588986863508L1165.71,110.15954620450623L1166.1248,96.40807784324812L1167.0764,114.90345384553632L1172.9812,127.73827195331788L1173.3716,129.00936038115816L1176.8852,135.19099060308454L1178.154,100.1129501510353L1179.2276,117.86449986509626L1180.0816,139.12000351555432L1180.8136,147.47391369227938L1181.3992,161.48571357181297L1181.9848,175.1677012792267L1182.18,178.74474502748473L1182.4484,170.4041187068595L1182.4728,162.11274752263864L1183.9368,173.13933457162761L1184.5956,174.86362557665578L1184.6932,172.5364393917088L1185.0592,169.33608986183197L1185.6935999999998,173.75714650895708L1185.962,171.43414699045726L1186.2304000000001,168.59580340270944L1187.0356,160.65178284576388L1189.1096,165.5054275413206L1190.4028,142.48410838483872L1190.5004000000001,147.96596570991937L1190.8176,138.94190429320017L1192.7695999999999,143.83587080162812L1192.8672,151.0741016359451L1193.526,147.84531703778043L1193.7456,143.87909223072495L1195.8683999999998,147.01393616576652L1196.0392,164.82912925469674L1197.1127999999999,152.69677484743474L1198.406,145.0361596197646L1199.26,129.20440435950522L1199.3576,88.82535364475586L1200.846,94.59440575985155L1203.2128,120.77610363810089L1204.14,130.7185401812126L1205.2624,141.33719271987258L1205.2868,155.57598220449432L1205.3600000000001,152.05935957873908L1206.7264,158.06089795854714L1208.776,157.60089920298475L1209.3616,164.82776967010625L1210.5572,150.07627190185622L1210.8988,134.77568623681682L1214.51,127.64742506301292L1215.242,123.94570769283709L1216.6816,143.55649016746008L1217.926,150.14999452619625L1222.9524000000001,153.71940070741698L1223.172,150.31213263483838L1223.66,40.64233519918912L1224.4164,51.83846149854185L1224.4652,58.07120041139319L1227.7592,85.71931780390383L1228.6376,100.55037951596046L1229.7112,111.56820817069689L1231.1508,123.87752818153191L1231.4435999999998,143.06368079594307L1234.2007999999998,146.2649714780541L1235.1036,152.4567822261269L1235.86,146.6826474835643L1236.714,148.17372812331732L1240.374,136.26599564016468L1240.5936000000002,147.07839651739957L1241.2524,153.34264395139436L1241.9844,173.88871308745036L1242.814,157.14910424102004L1243.912,168.97612788885033L1244.1072,157.43970226889368L1244.7903999999999,158.6246003988118L1247.5475999999999,153.31376700656L1247.938,151.6834758869194L1248.4992,159.01049664207596L1249.4508,172.64302569978415L1249.8656,164.9764031502782L1251.964,169.53713728506435L1252.1835999999998,158.78627521466655L1253.0132,164.0223968808141L1255.8192,116.7515008344821L1256.7708,105.86646683064532L1258.0395999999998,106.58849734692234L1265.0668,104.50723353998933L1265.5792000000001,96.32550242410343L1269.0196,109.70609117308999L1270.0688,110.30708991503559L1271.3619999999999,92.90139067540076L1271.5328000000002,75.15687425356805L1272.0208,109.86161360395971L1272.6552,76.00579773696074L1274.8512,97.09581285543334L1276.1200000000001,105.78600143091137L1277.584,29.08866064248241L1277.7548,30.891818516837077L1278.4624,44.0730903013864L1279.7556,68.62631763603201L1279.8532,84.30326124659723L1280.1704,106.33379886526791L1280.512,123.713122146004L1281.0976,134.21450819055656L1281.3904,113.73992645669233L1282.1712,113.27070552306321L1282.342,96.07910048363772L1282.6836,103.99072979091511L1285.4408,123.68388684152907L1285.7092,112.63807304119672L1285.8555999999999,114.69897987971075L1286.856,188.0797530992589L1286.9536,41.702312156186224L1287.2952,-75.97612216673747L1290.4428,-7.888316005477122L1291.492,15.678944066757595L1292.5656000000001,61.37578391289395L1293.0048,75.65798984083938L1293.3952,99.3817328769768L1294.1272000000001,124.71683757774858L1295.8108,90.73738865657344L1298.8608,100.24764418484983L1299.91,84.7384350292815L1299.9588,83.98445586162404L1300.8616,72.16979735730644L1300.886,71.16320688270667L1301.13,104.14484185423339L1301.3252,65.33041265038179L1301.9352,87.86257528798296L1303.9604000000002,77.2697081824333L1304.0824,25.493584400426755L1304.4484,21.96904515624732L1309.182,-45.975333541627606L1319.6252,-17.238886415719094L1320.9428,45.699705984736L1321.5528,82.71026876601252L1324.6272000000001,106.70388873000553L1326.6036,109.27846196877721L1327.7992000000002,116.67518791429853L1328.092,130.26325346513187L1328.5556,142.48105205466504L1329.9952,156.58456045490598L1332.8256,153.0916209775334L1334.7531999999999,153.0077890538052L1335.778,146.57717537777873L1337.5348,146.45657950340066L1338.7548,137.97209833680606L1339.6576,119.10566550385363L1341.0240000000001,124.48380987817885L1341.4144000000001,122.19551206216121L1341.9756,137.88019721379823" style="fill: none;" fill="none"></path></g></g></g></g><g opacity="0.2"><g><g><g><path stroke="rgb(255, 112, 67)" stroke-width="2px" d="M123.0248,215.9975448131561L123.098,216.5483087539673L123.73240000000001,178.6174512863159L124.2936,154.16410188674925L126.0748,187.00615396499634L127.58760000000001,161.01930284500122L127.7096,159.53143901824953L128.222,156.29958400726318L128.66119999999998,149.65896406173707L129.5152,143.36560306549072L129.564,143.09920177459716L129.7592,146.4659697532654L133.5656,152.04869899749755L135.0784,186.59964866638185L136.1276,212.70582160949706L136.29840000000002,202.43250102996828L137.46959999999999,166.13505477905275L137.7868,207.19401855468752L138.3724,186.00704097747803L139.4216,152.50460929870607L139.6168,180.90031929016115L141.154,226.4308683872223L141.56879999999998,235.97862396240234L141.71519999999998,244.05194392204285L142.3984,207.92527928352357L145.6924,197.77406530380247L146.74159999999998,154.56783142089844L148.0104,180.93575534820556L148.9376,113.29295282363893L150.792,213.0851550579071L152.76839999999999,181.51136598587036L154.1104,69.69394826889038L154.1836,122.4436749458313L154.5252,176.47969808578492L154.62279999999998,122.16261978149416L155.794,210.94606804847717L155.9648,217.18085861206055L157.0384,237.65001268386843L157.7704,197.1096121788025L159.1612,190.00249257087708L159.86880000000002,191.19870285987852L160.2592,132.04872121810914L160.6496,161.27541217803955L163.2604,170.56692323684692L164.30960000000002,171.99950609207153L164.3828,167.71486129760743L166.9936,236.34468240737917L167.5304,240.12249784469603L167.7988,234.58132395744323L168.7748,212.05233635902405L169.18959999999998,211.23188166618345L169.5068,217.54747581481934L171.6784,270.77805411815643L173.1424,240.29745211601258L175.36280000000002,245.50660672187806L175.6556,230.96655764579774L176.4364,252.13935899734497L176.5828,250.4090663909912L177.1928,242.85665287971497L178.2908,247.71324033737184L180.2916,243.10743598937987L181.4384,248.8637586593628L181.85320000000002,236.2358147621155L181.902,224.63578691482545L182.024,234.99480471611022L182.634,217.87680044174195L182.6584,241.88912773132324L182.9512,207.4355010509491L183.07319999999999,192.27289667129517L183.7808,240.60056018829346L184.14679999999998,231.26061744689943L187.51399999999998,242.619135761261L188.856,244.3507441520691L194.3948,232.5831881046295L196.12720000000002,258.5632710456848L196.2004,262.2153930187225L197.61560000000003,253.61051416397095L199.1284,259.52876844406126L200.81199999999998,229.22156610488892L201.15359999999998,221.95318179130552L201.20239999999998,222.95301575660707L201.2268,222.33166809082033L202.642,265.68232283592226L206.912,246.20463938713075L210.2792,262.96163206100465L210.328,266.074760055542L211.54799999999997,263.9566084384918L213.2804,255.68773226737977L214.5492,194.43010725975037L215.0616,247.99500746726991L215.23239999999998,260.217915058136L217.8432,259.9099584102631L218.5264,242.2983637332916L219.2096,257.4621036529541L220.47840000000002,268.38265500068667L221.99120000000002,261.52920241355895L224.3824,268.0925876140594L225.1388,273.31946926116944L225.26080000000002,273.50810408592224L227.3348,259.68395891189573L227.3836,250.08812313079835L229.36,259.94446620941164L231.6048,255.85643205642702L232.0196,274.7860011577606L232.53199999999998,255.55427927970885L235.8016,257.8194833278656L235.89919999999998,256.064181804657L236.0944,267.10186500549315L238.82719999999998,236.14606204032899L239.16879999999998,253.94828324317933L240.096,248.20583939552307L240.38880000000003,237.2902718067169L241.41359999999997,269.53657994270327L243.2924,256.36095428466797L245.22000000000003,272.45788729190826L245.2688,258.99770522117615L246.5864,257.29389052391053L247.2696,244.41674966812135L249.83159999999998,240.45895113945008L252.418,257.9934732913971L252.7596,268.276865029335L254.248,239.26439008712768L257.3956,259.910796546936L260.56759999999997,272.0898912191391L261.64119999999997,261.2540412425995L263.7152,258.62682523727415L264.2032,267.0623148679733L265.0816,274.01545615196227L265.2524,269.1555341720581L266.13079999999997,266.55092082023623L266.64320000000004,263.84709191322327L268.156,272.4581171035767L268.644,262.97255487442015L271.3524,256.4589712142944L271.5964,280.43258199691775L273.28000000000003,266.95696198940277L273.59720000000004,262.062716960907L273.7436,260.8372890472412L275.45160000000004,272.2616281270981L276.01279999999997,268.51868999004364L277.57439999999997,272.72500505447385L281.088,260.4906970024109L282.4056,269.52596805095675L283.1132,273.73399543762207L284.4308,255.68993124961855L285.38239999999996,266.5988568305969L285.4556,255.7508358478546L285.7484,259.55957221984863L286.50480000000005,265.8424384832382L289.2376,237.4698763847351L291.9704,255.82173500061037L292.6048,226.33406810760496L295.38640000000004,268.57359244823454L295.5816,268.9665298461914L296.582,267.3421398639679L298.8268,260.358983373642L300.3884,276.6262969493866L301.5596,246.48724465370177L302.12080000000003,264.767014503479L303.78,262.20146012306213L304.024,257.0702342033386L304.0972,233.08297891616823L304.4632,246.44900579452516L305.2684,256.0575037479401L309.7092,260.4787918567657L311.344,256.13280086517335L312.0272,230.2861168384552L312.27119999999996,250.05402088165283L313.1252,272.09933602809906L316.9804,240.10724015235903L318.8104,254.1979938983917L321.59200000000004,254.74651379585265L322.5924,277.39887871742246L325.3496,239.54224591255186L326.0572,230.62370567321776L326.1792,232.59839172363283L326.3988,227.7807731151581L328.5948,236.00486755371094L328.668,223.26791181564332L329.3512,232.52647418975832L329.5952,269.72798602581025L331.8644,253.2168963432312L332.694,265.87231850624084L334.158,230.79335174560546L338.6232,164.4831144332886L339.2576,236.5043159008026L339.3308,60.25752067565918L339.84319999999997,248.04250187873842L340.014,230.36938977241516L341.4292,259.22378582954406L341.5756,242.5984707355499L342.942,234.8069088935852L347.944,216.447750377655L349.3104,255.31641068458555L350.0912,232.92553539276125L352.214,242.4442445755005L353.0192,243.1825078010559L354.9468,164.73006734848022L355.11760000000004,169.3632688522339L355.4348,90.95401496887206L356.8988,213.8596474170685L357.63079999999997,232.30448513031004L358.192,247.96918745040895L358.6312,233.47635340690613L362.1692,242.37362480163574L363.7308,227.98763966560364L367.4152,238.95054845809935L368.0496,238.75623593330383L372.7344,223.24241623878478L372.9052,203.7866324901581L375.6624,222.29561018943787L375.7356,233.7127980709076L376.248,197.48112301826475L377.68760000000003,231.48343563079834L378.73679999999996,172.33494100570678L380.8108,138.6112953186035L381.5672,258.7118104934692L381.9576,212.82624292373657L382.37239999999997,160.21142921447753L383.3484,127.73339881896973L384.4708,220.7402087688446L384.4952,224.02427158355712L385.03200000000004,234.66394801139833L385.886,232.07782773971556L386.5204,230.3748061180115L386.74,238.77000660896303L388.0088,223.11775016784668L388.082,228.3570776939392L388.9116,242.0629554748535L389.00919999999996,243.0664393901825L389.5704,251.59004602432253L389.7168,236.38876118659974L389.7656,247.6462164402008L390.88800000000003,224.6580921649933L392.88879999999995,239.93185329437256L393.3524,244.3916416168213L393.57199999999995,242.726615524292L395.23120000000006,242.6930449962616L395.28000000000003,245.11551232337953L396.744,237.51090903282167L400.6236,218.9839789867401L401.9168,230.63545761108398L402.40479999999997,244.58514304161073L403.16119999999995,245.52916431427002L403.3808,241.02453117370604L403.7956,245.8947180747986L404.2104,235.99242167472838L406.21119999999996,228.30771775245668L406.7724,225.91814503669738L407.11400000000003,228.15870966911316L408.9196,231.16087017059326L411.70120000000003,246.97520241737365L414.04359999999997,237.242236661911L414.1656,234.29413146972658L415.044,235.73084192276L415.80039999999997,244.7304741382599L418.16720000000004,232.6052770614624L418.8016,237.0556926727295L418.8992,225.97031679153443L419.2896,254.55236349105837L420.31440000000003,245.54562964439393L421.87600000000003,229.22792873382568L421.9492,229.84000282287596L422.33959999999996,238.5658977985382L424.682,232.0481414794922L425.9752,238.0868441104889L431.1724,238.02615580558776L431.8556,209.40161647796631L432.83160000000004,231.7019820213318L434.5884,222.79031810760497L436.1012,251.67016468048098L438.00440000000003,203.89638333320616L438.4192,213.56580390930176L439.078,216.5070327758789L439.59040000000005,205.53402128219605L439.8832,184.25189266204833L440.24920000000003,198.69659242630004L441.64000000000004,207.4736768245697L443.4212,199.51746168136597L446.1052,196.9991313457489L447.3984,224.6455111026764L447.496,223.96003246307373L449.8872,199.27377119064332L450.912,193.15512113571165L452.1564,258.7066104412079L452.71760000000006,200.17009077072143L454.1572,210.26402306556702L454.23040000000003,201.53318037986756L456.524,201.82067928314208L457.35360000000003,183.9528130531311L458.2076,199.82944679260254L459.1592,200.1365562915802L461.404,20.31881217956544L461.9408,120.61549158096312L463.9416,150.16709117889403L467.38199999999995,182.45321531295778L468.99240000000003,189.0379144191742L469.1632,195.9498923778534L469.3828,170.39471769332886L469.79760000000005,117.40288667678834L470.23679999999996,62.50392522811893L471.6764,202.14564199447634L472.8964,219.14555010795593L474.04319999999996,187.30611677169802L475.58040000000005,200.18331170082092L477.4104,227.424898481369L477.5568,257.1019301891327L478.2888,219.7827953338623L478.50839999999994,187.45914430618288L478.7524,230.9313018321991L480.9972,224.4471701145172L481.2168,216.46431484222413L481.7292,246.5037730693817L483.2908,229.85623383522034L483.75440000000003,240.00633931159973L487.0484,226.5457561969757L488.5856,214.3224070072174L489.708,219.30913095474241L490.78159999999997,228.86861143112182L492.88,213.21857199668884L494.2952,192.64921102523803L497.93080000000003,214.37241582870482L497.9796,232.02290725708008L498.7604,225.18962402343752L499.5168,217.46166143417358L500.95640000000003,207.1234528541565L504.4456,222.79533791542053L505.03119999999996,223.0820797920227L505.2508,180.40774726867676L506.5928,210.5861379146576L510.27720000000005,171.3964262008667L510.6188,176.4471459388733L513.1075999999999,194.94156889915465L513.62,162.1588442802429L516.8652,208.52905311584473L518.622,190.95466089248657L519.1588,217.72532300949095L519.5735999999999,192.78248376846315L520.696,202.76329464912416L521.5256,184.036518573761L523.1116,213.6381540298462L525.0636000000001,161.65078926086426L526.918,189.715318107605L527.7964,190.09650807380675L530.5048,211.94666805267335L530.5292,218.5936506271362L531.3588,193.0142961502075L531.7004000000001,199.3189314365387L532.7252,216.44845333099366L536.8,208.2728626728058L537.5563999999999,213.0668602466583L538.3860000000001,203.0613558769226L541.0212,208.14847598075866L541.8263999999999,197.16053123474123L542.2656000000001,214.17034378051758L542.3144,193.4635193824768L542.9,167.2933596611023L542.9244,177.94308471679688L542.9976,207.33208580017092L543.4612,176.4342224121094L544.3152,158.90584659576416L545.0716,-372.41400833129876L546.0232,117.69176445007321L546.2672,165.08581581115723L548.4388,119.002610206604L548.7804,133.1695532798767L549.488,194.9431460380554L549.6832,194.70968441963194L550.3908,200.6215940952301L552.8063999999999,172.38322849273683L558.4428,168.03463296890257L559.126,104.44805145263672L559.3456,126.11348791122438L560.0288,131.52523727416994L560.8828,112.70906896591185L561.1756,158.13807735443115L562.7372,196.74917736053467L566.0312,159.86139450073242L567.3488,177.38977031707762L570.5939999999999,182.68695631027222L570.6184,187.55640420913696L574.0344,184.55699243545533L576.9868,148.02072229385377L577.1576,159.9875475883484L580.2076,114.93845844268799L582.9648,58.615331554412876L583.4284,137.71394834518432L584.1116000000001,63.03269033432008L584.6483999999999,-227.47750282287598L585.1608,110.03881959915162L586.8199999999999,185.22515859603882L588.1132,165.82701702117922L589.5284,224.57373776435853L590.602,168.81790323257448L595.8235999999999,198.01539459228516L596.2628,180.21564273834227L596.7996,172.9455551147461L596.946,191.40002689361572L599.6056,214.1603672504425L599.9472,226.40628304481507L600.2156,199.08925495147705L601.5576,204.30652055740356L601.826,199.49784207344055L601.9724,205.09124178886415L603.412,193.97492694854736L604.0708000000001,196.79677090644836L604.632,203.4399953842163L606.34,224.13211183547972L606.8768,194.8966429710388L607.682,196.65828008651735L608.2676,199.3930389404297L609.2436,200.21817998886107L609.6827999999999,220.3757004261017L609.8292,208.56341671943665L609.9024000000001,189.58421730995178L611.7568,203.29238419532774L611.7812,222.44086017608643L612.928,230.0414890766144L613.6844,207.5750192642212L614.3432,224.99168858528137L614.4164000000001,186.19781169891357L614.5384,181.90889511108398L616.2708,185.82575111389158L616.5392,178.01613779067995L617.7348,168.21134462356568L619.1256,157.6459198951721L620.2236,173.52666320800782L621.224,139.55157651901246L621.5412,154.74252433776857L621.5656,165.98022480010988L622.1024,186.11443061828615L622.4928,206.2987624168396L625.2012,185.27778997421265L625.7136,214.44730739593504L627.3972,180.590118598938L627.4703999999999,181.38634843826296L627.4947999999999,190.15088782310485L628.666,214.6432511329651L629.2516,-38.983557128906284L632.4724,175.99449806213377L634.4244,184.64704256057738L634.7416,209.09884185791017L636.3032,180.93200626373292L637.8892,178.4801230430603L638.4504,168.14377098083494L640.5,187.50541305541992L640.5732,190.98273396492004L640.6952,210.86764369010925L642.3299999999999,176.67301025390626L642.7692,187.5207158088684L644.5992,185.74056758880616L645.5508,140.73489933013914L649.406,108.50809364318849L650.4308,143.2374312400818L650.4552,140.48666667938232L652.0412,189.35538797378538L652.1876,140.5910101890564L652.822,141.23675394058228L653.3344,142.48732595443724L653.4808,47.4141846656799L657.336,178.47473373413087L663.1676,195.36966748237612L663.4848,194.1790177345276L664.3144,191.64424009323122L664.9,199.89540724754332L663.8996000000001,186.67965917587279L664.5828,182.84717559814453L665.7052,212.3695034980774L666.5591999999999,219.14452271461485L667.462,202.42189364433287L669.6824,194.94637241363526L672.8544,199.41133375167848L674.6844,207.5415388584137L676.8804,199.7028340816498L676.9535999999999,194.7303854942322L680.5404,196.0037944793701L680.6379999999999,224.52956886291506L681.6872,212.3945484638214L681.9556,211.77420115470886L682.1996,219.98612008094787L683.0292000000001,201.563551568985L683.2732,212.85413575172424L683.9076,205.40591254234315L685.0056,208.65453028678894L685.5668,213.60516929626465L686.8112,192.02181615829468L687.3968,187.27338438034056L687.8604,196.88412637710573L689.0072,197.342920589447L691.7643999999999,185.77479600906372L692.96,172.33155241012574L694.9364,186.76186866760256L695.2048,196.09148340225218L695.6928,192.80227460861207L697.4739999999999,172.9075415611267L698.8648,151.34201459884642L701.4756,156.53424425125124L704.9159999999999,198.99765472412108L705.8676,183.61489076614382L706.5752,191.87354707717896L708.698,171.6870162963867L709.8692,196.63890380859377L709.918,175.4462124824524L710.8452,178.37109317779542L711.4064,197.52781534194946L713.1388,21.508930206298828L716.5792,129.89656648635864L718.1408,146.78292961120607L720.5319999999999,164.05238428115845L720.7272,174.6612298965454L724.436,197.43301577568056L724.9728,165.98343315124512L725.778,180.5198232650757L727.5836,167.59352073669433L728.5352,191.43349828720093L730.6336,184.06079750061033L732.4147999999999,166.87890558242796L733.0248,165.75596466064454L733.342,183.0612519264221L733.5616,163.51507558822632L735.4892,-70.63195838928226L742.004,-90.01573448181153L744.1268,78.46604890823363L746.2984,81.14826650619506L747.2012,176.5720192909241L748.0552,172.19757671356203L749.8607999999999,195.78903322219847L752.8864,150.37523746490479L753.3987999999999,212.81312112808226L753.6184000000001,195.9079855442047L754.0088000000001,181.66864728927612L755.546,179.7711959838867L755.5704,194.30590982437135L755.9119999999999,162.79079933166506L758.9132,205.45069427490236L759.1815999999999,197.90684237480164L761.6216,172.38717584609984L763.2564,221.4779582977295L768.1363999999999,202.05492496490479L771.2352000000001,205.0683777809143L771.2596000000001,193.83598551750183L771.9671999999999,192.87845492362976L772.016,189.8691747665405L774.4316,186.65503778457642L778.0916,201.22819776535036L779.6532,206.81550521850588L779.7995999999999,208.13501172065733L779.9459999999999,181.1316089630127L780.0436000000001,187.3644618988037L780.0680000000001,179.86737442016602L782.8739999999999,153.23791580200194L784.2159999999999,203.90873908996582L787.1439999999999,186.14613561630247L788.5104,172.77273674011232L790.9016,181.37308244705198L791.1456,210.0161238670349L791.3163999999999,207.30790600776672L791.7556,197.75655455589296L793.1464,185.99272956848145L794.22,208.5928596496582L796.3184000000001,204.2593686103821L798.5388,182.49611349105837L798.5876,193.2714328765869L799.3684000000001,177.184237575531L799.8076,181.0083578109741L806.7128,201.07088041305542L807.3472,138.38543100357057L808.4208,168.13165855407715L809.7628000000001,195.46688232421874L811.2756,211.85326538085937L811.5928,187.84928340911867L813.8376,221.7186837673187L814.5452,180.9718402862549L815.4968000000001,180.1953832626343L822.3288,147.43440513610838L824.2564000000001,176.309331035614L824.8908,151.94039011001587L825.4276,166.43244009017943L825.8912,151.63280296325684L826.5012,200.15631108283995L826.8915999999999,184.39201469421388L827.1843999999999,149.2930317878723L828.2335999999999,165.77811670303345L829.8928,179.66961021423342L831.4055999999999,116.37306003570558L836.4808,157.7831760406494L836.6516,110.44155778884891L836.8712,139.34023990631104L838.0912000000001,171.02472610473635L838.1644,167.80458698272705L838.6768,163.99429149627687L839.4332,174.2016065597534L839.8968,175.17422361373903L843.2152,159.52741956710815L845.1916,73.66022729873657L845.216,61.395331764221226L846.0455999999999,-176.81233921051023L849.3884,60.49823713302612L849.5104000000001,28.53511104583737L850.1448,85.82771873474121L851.2672,100.62292184829715L851.6332,48.074618339538574L853.6339999999999,154.24995231628418L854.6831999999999,155.8452959060669L855.3176000000001,167.35585041046144L856.318,157.05208654403688L857.3672,17.975778579711914L860.588,15.933825302124035L860.7588,-183.41952381134035L860.8563999999999,-120.26010360717777L863.3452,97.32906274795533L864.3212000000001,61.31649284362794L866.6148,131.57098331451417L866.9563999999999,30.520900154113804L867.3956000000001,39.839718246459995L868.4204,96.01895599365236L875.0572,-361.2675476074219L879.254,-227.2096235275268L883.6948,112.06927328109742L884.5975999999999,38.77254495620724L886.8912,175.71807518005372L890.7708000000001,52.99979782104492L891.4052,159.0986000061035L892.3812,169.30432891845703L893.5035999999999,157.37175006866457L895.0896000000001,143.19745302200317L895.2604000000001,154.18526258468628L895.4556,133.87694063186646L896.6268000000001,145.70303106307983L896.8464,115.07984218597409L898.2860000000001,180.67557249069213L898.6032,159.89439725875854L902.1411999999999,208.66089291572573L902.434,227.60632352828978L903.2392,214.5781648635864L904.264,163.41188564300538L905.85,206.88065457344055L907.6556,187.25584659576415L908.8024,199.19212946891784L910.3884,190.0244733810425L911.0959999999999,59.64342784881592L911.4132000000001,72.3037256240845L913.0968,204.21695709228516L913.1700000000001,150.34585762023926L914.2191999999999,184.33655347824097L915.4147999999999,185.70664558410644L916.7812,11.42713737487793L920.002,197.70978112220766L920.1972000000001,212.06623320579527L920.368,213.24029145240783L922.6372,178.1549440383911L922.93,152.95842876434327L923.418,152.15972957611083L926.1996,170.49181537628172L926.2972000000001,161.83463859558105L926.956,171.18584661483763L927.0047999999999,171.95736494064332L929.2008000000001,157.1293933868408L930.9088,175.4312702178955L931.5676,166.60120296478271L931.7384,162.5732262611389L932.4216,215.09214992523195L935.74,177.97686252593994L937.9848000000001,146.23084087371828L938.1556,163.0168438911438L940.3516,168.0059380531311L940.5712,169.59735231399534L940.864,152.35024795532226L941.3276000000001,159.32837562561033L941.7424,148.34456748962404L943.06,135.8840166091919L943.3528,154.97060565948485L943.9628,137.45140428543093L944.8656,139.35970630645753L946.2808,159.47563533782957L947.4032,175.09691677093505L947.8668,156.75572862625123L948.0375999999999,154.13297367095947L949.16,150.06474838256835L950.4288,169.96858377456667L950.502,166.12687168121337L951.3560000000001,171.7758948326111L954.528,196.39509615898132L955.7968000000001,164.1261763572693L955.8212000000001,177.83789405822753L956.3336,188.65225439071654L957.6756,171.0351802825928L959.7983999999999,149.13486728668212L959.8227999999999,107.82518348693844L960.75,137.3654457092285L961.604,162.20370712280274L961.8236,193.69635915756226L962.7751999999999,104.41795063018799L963.9707999999999,152.40210428237916L965.3128,131.83511352539062L966.0936,150.69046697616577L968.4116,131.97359533309938L972.1204,150.31970415115356L973.316,175.514435005188L974.1944,165.92534036636354L975.7072,156.51494007110594L977.5859999999999,120.76814060211183L977.6591999999999,123.92937583923342L979.5136,117.44576683044437L980.026,132.07186460494995L980.2212,130.68400039672852L980.5383999999999,91.06726255416874L980.5871999999999,99.686642074585L980.7336,113.67146615982057L983.1247999999999,147.46115341186524L983.1736,163.42495336532593L985.2964000000001,49.90631647109984L985.3696000000001,93.94008865356449L986.0284,160.09643325805663L990.2008,155.0356198310852L990.3716,172.93039655685425L991.982,130.05568628311156L992.1039999999999,170.90717067718506L994.6416,114.64208250045778L995.0563999999999,101.94937677383422L996.6912,118.98265714645385L997.1792,122.62332458496095L999.79,158.1018482208252L1001.0587999999999,152.2349636077881L1001.4248000000001,145.54695739746094L1001.7908,158.85871267318726L1002.1812,136.34313526153565L1002.4984,140.03376646041872L1003.3524,168.30013303756712L1003.8159999999999,163.00076608657835L1003.9867999999999,114.35745849609378L1009.672,160.9104892730713L1011.136,147.56632604599L1011.868,100.42310285568237L1012.3316,97.77096805572506L1014.5031999999999,143.44181041717528L1015.4548,118.52344837188724L1015.5524,167.5928358078003L1015.7719999999999,139.99312133789064L1015.9183999999999,113.32004356384277L1016.5284,143.54808254241945L1017.9192,141.4013171195984L1021.4816,109.31578702926635L1024.312,96.26715259552003L1025.1172000000001,21.789895248413075L1027.7767999999999,-191.82302455902106L1032.12,-362.46739883422845L1038.3664,176.9244692802429L1038.83,113.77804470062256L1039.8792,162.16089906692505L1041.5628000000002,176.25900678634642L1046.8088,180.13280239105225L1049.2732,175.1593173980713L1050.6152,146.73635444641113L1050.9812,175.38139657974241L1052.6648,184.71075897216795L1053.4944,192.90992560386658L1055.3,148.07685041427612L1055.6904,167.25165109634398L1055.9588,151.927250289917L1056.7884,-429.9647621154785L1058.7404,186.93492136001586L1060.2287999999999,150.5528142929077L1060.2531999999999,165.90488262176515L1061.6684,164.11074743270873L1062.1564,162.06978549957276L1063.2056,184.86522846221922L1063.3276,178.1190573692322L1065.0844,199.72375144958497L1068.5248,191.14061007499694L1069.086,153.5957010269165L1069.1104,170.8179136276245L1072.4288000000001,171.63896312713624L1074.7712,173.19256210327148L1076.2108,198.29461126327513L1076.4792,185.56239595413209L1083.4088,140.78938722610474L1084.4092,184.398575592041L1086.1172,155.35939292907713L1086.8003999999999,163.2838580131531L1088.0448,160.2118257522583L1090.4116000000001,169.6430983543396L1091.168,145.70546436309814L1091.29,163.26796045303345L1091.7048,136.63275203704833L1092.9492,168.57477149963378L1093.8763999999999,168.42044620513914L1098.854,144.31112937927244L1100.6108,72.3956502914429L1103.1728,178.3182635307312L1105.2956,181.5485143661499L1105.5883999999999,172.36482553482054L1106.3692,166.98260021209717L1107.0524,153.8559199333191L1109.1752000000001,135.51447944641112L1109.4192,128.03896722793579L1109.5656000000001,123.83658599853516L1109.6632,131.56366539001465L1110.4196,137.47586345672607L1110.4684,166.94464073181152L1110.81,158.60750598907472L1110.9564,109.4472393035889L1112.7376,96.49597291946412L1118.7644,142.92513971328734L1120.9116000000001,148.58340940475463L1121.546,134.78758964538574L1123.742,153.7134907722473L1124.4008000000001,163.44979104995727L1126.1088,165.5168704032898L1127.768,160.99823226928712L1128.1584,128.39774379730224L1129.7688,149.4836763381958L1130.94,135.84585886001585L1131.3304,196.48047795295716L1132.038,119.94103488922116L1132.648,165.5694477081299L1133.1116,182.73088188171388L1136.6252,134.2297691345215L1136.8204,146.5025774002075L1138.3819999999998,153.10990619659424L1139.0408,127.83031625747682L1142.3348,130.49989871978758L1142.5056,202.1583492279053L1142.9448,161.81720895767214L1145.458,187.10175561904907L1146.0436,138.42622032165528L1146.2876,99.74394178390503L1146.6292,111.60541419982911L1148.142,78.84661703109742L1150.46,81.62499504089357L1152.0704,34.85920372009281L1153.1684,105.17362546920776L1153.6076,122.30548152923583L1153.8516,151.4833622932434L1154.364,90.2156255722046L1157.0236,144.28863487243652L1158.7316,-4.024173545837414L1161.1228,108.53134517669679L1163.9776,74.79987688064574L1164.9048,136.91953897476196L1165.71,119.52503070831295L1166.1248,75.78087530136105L1167.0764,142.6465178489685L1172.9812,146.99049911499023L1173.3716,130.91599302291868L1176.8852,144.4634359359741L1178.154,47.49588947296144L1179.2276,144.49182443618773L1180.0816,171.00325899124144L1180.8136,160.00477895736694L1181.3992,182.5034133911133L1181.9848,195.6906828403473L1182.18,184.11031064987182L1182.4484,157.8931792259216L1182.4728,149.67569074630737L1183.9368,189.6792151451111L1184.5956,177.45006208419798L1184.6932,169.04566011428832L1185.0592,164.53556556701662L1185.6935999999998,180.38873147964478L1185.962,167.9496477127075L1186.2304000000001,164.33828802108766L1187.0356,148.73575201034546L1189.1096,172.78589458465578L1190.4028,107.95212965011598L1190.5004000000001,156.18875169754028L1190.8176,125.40581216812134L1192.7695999999999,151.17682056427L1192.8672,161.93144788742066L1193.526,143.00214014053344L1193.7456,137.92975502014158L1195.8683999999998,151.71620206832884L1196.0392,191.55191888809205L1197.1127999999999,134.49824323654175L1198.406,133.5452367782593L1199.26,105.45677146911618L1199.3576,28.256777572631847L1200.846,103.24798393249512L1203.2128,160.04865045547487L1204.14,145.63219499588013L1205.2624,157.26517152786255L1205.2868,176.934166431427L1205.3600000000001,146.7844256401062L1206.7264,167.06320552825926L1208.776,156.9109010696411L1209.3616,175.66807537078856L1210.5572,127.9490252494812L1210.8988,111.82480773925778L1214.51,116.95503330230713L1215.242,118.39313163757328L1216.6816,172.97266387939453L1217.926,160.04025106430052L1222.9524000000001,159.07350997924803L1223.172,145.20123052597046L1223.66,-123.86236095428467L1224.4164,68.63265094757077L1224.4652,67.42030878067015L1227.7592,127.19149389266968L1228.6376,122.7969720840454L1229.7112,128.0949511528015L1231.1508,142.3415081977844L1231.4435999999998,171.84290971755982L1234.2007999999998,151.0669075012207L1235.1036,161.74449834823608L1235.86,138.02144536972045L1236.714,150.4103490829468L1240.374,118.40439691543583L1240.5936000000002,163.29699783325194L1241.2524,162.73901510238647L1241.9844,204.70781679153444L1242.814,132.0396909713745L1243.912,186.7166633605957L1244.1072,140.13506383895876L1244.7903999999999,160.40194759368896L1247.5475999999999,145.34751691818238L1247.938,149.2380392074585L1248.4992,170.0010277748108L1249.4508,193.09181928634644L1249.8656,153.47646932601927L1251.964,176.37823848724364L1252.1835999999998,142.65998210906983L1253.0132,171.8765793800354L1255.8192,45.8451567649841L1256.7708,89.53891582489013L1258.0395999999998,107.67154312133789L1265.0668,101.38533782958984L1265.5792000000001,84.05290575027465L1269.0196,129.77697429656982L1270.0688,111.20858802795414L1271.3619999999999,66.79284181594852L1271.5328000000002,48.54009962081909L1272.0208,161.91872262954712L1272.6552,25.222073936462436L1274.8512,128.73083553314208L1276.1200000000001,118.82128429412842L1277.584,-85.95735054016114L1277.7548,33.59655532836911L1278.4624,63.844997978210415L1279.7556,105.45615863800049L1279.8532,107.81867666244506L1280.1704,139.37960529327393L1280.512,149.78210706710817L1281.0976,149.96658725738527L1281.3904,83.02805385589596L1282.1712,112.5668741226196L1282.342,70.2916929244995L1282.6836,115.85817375183109L1285.4408,153.22362241744995L1285.7092,96.06935234069823L1285.8555999999999,117.79034013748168L1286.856,298.15091292858125L1286.9536,-177.86384925842287L1287.8564000000001,-49.2372671127319L1290.4428,78.20008020401002L1291.492,51.0298341751099L1292.5656000000001,129.92104368209837L1293.0048,97.0812987327576L1293.3952,134.96734743118284L1294.1272000000001,162.71949462890623L1295.8108,39.76821527481076L1298.8608,114.51302747726442L1299.91,61.474621295928955L1299.9588,82.8534871101379L1300.8616,54.44780960083011L1300.886,69.65332117080692L1301.13,153.61729431152344L1301.3252,7.108768844604526L1301.9352,121.66081924438475L1303.9604000000002,61.380407524108875L1304.0824,-52.17060127258304L1304.4484,16.682236289977993L1309.182,-147.89190158843996L1312.5492,-579.0111293792725L1317.722,70.11516151428219L1319.6252,148.10437374114989L1320.9428,140.1075945854187L1321.5528,138.22611293792724L1324.6272000000001,142.69431867599488L1326.6036,113.14032182693478L1327.7992000000002,127.77027683258055L1328.092,150.64535179138184L1328.5556,160.80774993896486L1329.9952,177.73982305526735L1332.8256,147.8522117614746L1334.7531999999999,152.8820411682129L1335.778,136.931254863739L1337.5348,146.2756856918335L1338.7548,125.24537658691406L1339.6576,90.80601625442506L1341.0240000000001,132.55102643966674L1341.4144000000001,118.76306533813477L1341.9756,161.40722494125365" style="fill: none;" fill="none"></path></g></g></g></g></g></g><g transform="translate(34, 378)" clip-path="url(#clip_1)"><clipPath id="clip_1"><rect width="1464" height="22"></rect></clipPath><g><g><line x1="0" y1="0" x2="0" y2="5" style="visibility: inherit;" fill="rgb(0, 0, 0)" stroke="rgb(204, 204, 204)" stroke-width="1px"></line><line x1="122" y1="0" x2="122" y2="5" style="visibility: inherit;" fill="rgb(0, 0, 0)" stroke="rgb(204, 204, 204)" stroke-width="1px"></line><line x1="244" y1="0" x2="244" y2="5" style="visibility: inherit;" fill="rgb(0, 0, 0)" stroke="rgb(204, 204, 204)" stroke-width="1px"></line><line x1="366" y1="0" x2="366" y2="5" style="visibility: inherit;" fill="rgb(0, 0, 0)" stroke="rgb(204, 204, 204)" stroke-width="1px"></line><line x1="488" y1="0" x2="488" y2="5" style="visibility: inherit;" fill="rgb(0, 0, 0)" stroke="rgb(204, 204, 204)" stroke-width="1px"></line><line x1="610" y1="0" x2="610" y2="5" style="visibility: inherit;" fill="rgb(0, 0, 0)" stroke="rgb(204, 204, 204)" stroke-width="1px"></line><line x1="732" y1="0" x2="732" y2="5" style="visibility: inherit;" fill="rgb(0, 0, 0)" stroke="rgb(204, 204, 204)" stroke-width="1px"></line><line x1="854" y1="0" x2="854" y2="5" style="visibility: inherit;" fill="rgb(0, 0, 0)" stroke="rgb(204, 204, 204)" stroke-width="1px"></line><line x1="976" y1="0" x2="976" y2="5" style="visibility: inherit;" fill="rgb(0, 0, 0)" stroke="rgb(204, 204, 204)" stroke-width="1px"></line><line x1="1098" y1="0" x2="1098" y2="5" style="visibility: inherit;" fill="rgb(0, 0, 0)" stroke="rgb(204, 204, 204)" stroke-width="1px"></line><line x1="1220" y1="0" x2="1220" y2="5" style="visibility: inherit;" fill="rgb(0, 0, 0)" stroke="rgb(204, 204, 204)" stroke-width="1px"></line><line x1="1342" y1="0" x2="1342" y2="5" style="visibility: inherit;" fill="rgb(0, 0, 0)" stroke="rgb(204, 204, 204)" stroke-width="1px"></line><line x1="1464" y1="0" x2="1464" y2="5" style="visibility: inherit;" fill="rgb(0, 0, 0)" stroke="rgb(204, 204, 204)" stroke-width="1px"></line></g><g transform="translate(0, 8)"><text x="0" y="0" dx="0em" dy="0.95em" style="text-anchor: middle; visibility: hidden; font-family: &quot;Helvetica Neue&quot;, sans-serif; font-size: 12px; font-weight: 200;" fill="rgb(50, 49, 63)" stroke="none" stroke-width="1px">-5k</text><text x="122" y="0" dx="0em" dy="0.95em" style="text-anchor: middle; visibility: inherit; font-family: &quot;Helvetica Neue&quot;, sans-serif; font-size: 12px; font-weight: 200;" fill="rgb(50, 49, 63)" stroke="none" stroke-width="1px">0</text><text x="244" y="0" dx="0em" dy="0.95em" style="text-anchor: middle; visibility: inherit; font-family: &quot;Helvetica Neue&quot;, sans-serif; font-size: 12px; font-weight: 200;" fill="rgb(50, 49, 63)" stroke="none" stroke-width="1px">5k</text><text x="366" y="0" dx="0em" dy="0.95em" style="text-anchor: middle; visibility: inherit; font-family: &quot;Helvetica Neue&quot;, sans-serif; font-size: 12px; font-weight: 200;" fill="rgb(50, 49, 63)" stroke="none" stroke-width="1px">10k</text><text x="488" y="0" dx="0em" dy="0.95em" style="text-anchor: middle; visibility: inherit; font-family: &quot;Helvetica Neue&quot;, sans-serif; font-size: 12px; font-weight: 200;" fill="rgb(50, 49, 63)" stroke="none" stroke-width="1px">15k</text><text x="610" y="0" dx="0em" dy="0.95em" style="text-anchor: middle; visibility: inherit; font-family: &quot;Helvetica Neue&quot;, sans-serif; font-size: 12px; font-weight: 200;" fill="rgb(50, 49, 63)" stroke="none" stroke-width="1px">20k</text><text x="732" y="0" dx="0em" dy="0.95em" style="text-anchor: middle; visibility: inherit; font-family: &quot;Helvetica Neue&quot;, sans-serif; font-size: 12px; font-weight: 200;" fill="rgb(50, 49, 63)" stroke="none" stroke-width="1px">25k</text><text x="854" y="0" dx="0em" dy="0.95em" style="text-anchor: middle; visibility: inherit; font-family: &quot;Helvetica Neue&quot;, sans-serif; font-size: 12px; font-weight: 200;" fill="rgb(50, 49, 63)" stroke="none" stroke-width="1px">30k</text><text x="976" y="0" dx="0em" dy="0.95em" style="text-anchor: middle; visibility: inherit; font-family: &quot;Helvetica Neue&quot;, sans-serif; font-size: 12px; font-weight: 200;" fill="rgb(50, 49, 63)" stroke="none" stroke-width="1px">35k</text><text x="1098" y="0" dx="0em" dy="0.95em" style="text-anchor: middle; visibility: inherit; font-family: &quot;Helvetica Neue&quot;, sans-serif; font-size: 12px; font-weight: 200;" fill="rgb(50, 49, 63)" stroke="none" stroke-width="1px">40k</text><text x="1220" y="0" dx="0em" dy="0.95em" style="text-anchor: middle; visibility: inherit; font-family: &quot;Helvetica Neue&quot;, sans-serif; font-size: 12px; font-weight: 200;" fill="rgb(50, 49, 63)" stroke="none" stroke-width="1px">45k</text><text x="1342" y="0" dx="0em" dy="0.95em" style="text-anchor: middle; visibility: inherit; font-family: &quot;Helvetica Neue&quot;, sans-serif; font-size: 12px; font-weight: 200;" fill="rgb(50, 49, 63)" stroke="none" stroke-width="1px">50k</text><text x="1464" y="0" dx="0em" dy="0.95em" style="text-anchor: middle; visibility: hidden; font-family: &quot;Helvetica Neue&quot;, sans-serif; font-size: 12px; font-weight: 200;" fill="rgb(50, 49, 63)" stroke="none" stroke-width="1px">55k</text></g><line x1="0" y1="0" x2="1464" y2="0" fill="rgb(0, 0, 0)" stroke="rgb(204, 204, 204)" stroke-width="1px"></line></g></g></g></g></svg>