<svg viewBox="0 0 1498 400" xmlns="http://www.w3.org/2000/svg"><g><g><g><g><g><line x1="70" y1="378" x2="65" y2="378" style="visibility: inherit;" fill="rgb(0, 0, 0)" stroke="rgb(204, 204, 204)" stroke-width="1px"></line><line x1="70" y1="336" x2="65" y2="336" style="visibility: inherit;" fill="rgb(0, 0, 0)" stroke="rgb(204, 204, 204)" stroke-width="1px"></line><line x1="70" y1="294" x2="65" y2="294" style="visibility: inherit;" fill="rgb(0, 0, 0)" stroke="rgb(204, 204, 204)" stroke-width="1px"></line><line x1="70" y1="252" x2="65" y2="252" style="visibility: inherit;" fill="rgb(0, 0, 0)" stroke="rgb(204, 204, 204)" stroke-width="1px"></line><line x1="70" y1="210" x2="65" y2="210" style="visibility: inherit;" fill="rgb(0, 0, 0)" stroke="rgb(204, 204, 204)" stroke-width="1px"></line><line x1="70" y1="168" x2="65" y2="168" style="visibility: inherit;" fill="rgb(0, 0, 0)" stroke="rgb(204, 204, 204)" stroke-width="1px"></line><line x1="70" y1="125.99999999999997" x2="65" y2="125.99999999999997" style="visibility: inherit;" fill="rgb(0, 0, 0)" stroke="rgb(204, 204, 204)" stroke-width="1px"></line><line x1="70" y1="84.00000000000006" x2="65" y2="84.00000000000006" style="visibility: inherit;" fill="rgb(0, 0, 0)" stroke="rgb(204, 204, 204)" stroke-width="1px"></line><line x1="70" y1="42" x2="65" y2="42" style="visibility: inherit;" fill="rgb(0, 0, 0)" stroke="rgb(204, 204, 204)" stroke-width="1px"></line><line x1="70" y1="0" x2="65" y2="0" style="visibility: inherit;" fill="rgb(0, 0, 0)" stroke="rgb(204, 204, 204)" stroke-width="1px"></line></g><g transform="translate(60, 0)"><text x="0" y="378" dx="0em" dy="0.3em" style="text-anchor: end; visibility: hidden; font-family: &quot;Helvetica Neue&quot;, sans-serif; font-size: 12px; font-weight: 200;" fill="rgb(50, 49, 63)" stroke="none" stroke-width="1px">-0.02</text><text x="0" y="336" dx="0em" dy="0.3em" style="text-anchor: end; visibility: inherit; font-family: &quot;Helvetica Neue&quot;, sans-serif; font-size: 12px; font-weight: 200;" fill="rgb(50, 49, 63)" stroke="none" stroke-width="1px">0</text><text x="0" y="294" dx="0em" dy="0.3em" style="text-anchor: end; visibility: inherit; font-family: &quot;Helvetica Neue&quot;, sans-serif; font-size: 12px; font-weight: 200;" fill="rgb(50, 49, 63)" stroke="none" stroke-width="1px">0.02</text><text x="0" y="252" dx="0em" dy="0.3em" style="text-anchor: end; visibility: inherit; font-family: &quot;Helvetica Neue&quot;, sans-serif; font-size: 12px; font-weight: 200;" fill="rgb(50, 49, 63)" stroke="none" stroke-width="1px">0.04</text><text x="0" y="210" dx="0em" dy="0.3em" style="text-anchor: end; visibility: inherit; font-family: &quot;Helvetica Neue&quot;, sans-serif; font-size: 12px; font-weight: 200;" fill="rgb(50, 49, 63)" stroke="none" stroke-width="1px">0.06</text><text x="0" y="168" dx="0em" dy="0.3em" style="text-anchor: end; visibility: inherit; font-family: &quot;Helvetica Neue&quot;, sans-serif; font-size: 12px; font-weight: 200;" fill="rgb(50, 49, 63)" stroke="none" stroke-width="1px">0.08</text><text x="0" y="125.99999999999997" dx="0em" dy="0.3em" style="text-anchor: end; visibility: inherit; font-family: &quot;Helvetica Neue&quot;, sans-serif; font-size: 12px; font-weight: 200;" fill="rgb(50, 49, 63)" stroke="none" stroke-width="1px">0.1</text><text x="0" y="84.00000000000006" dx="0em" dy="0.3em" style="text-anchor: end; visibility: inherit; font-family: &quot;Helvetica Neue&quot;, sans-serif; font-size: 12px; font-weight: 200;" fill="rgb(50, 49, 63)" stroke="none" stroke-width="1px">0.12</text><text x="0" y="42" dx="0em" dy="0.3em" style="text-anchor: end; visibility: inherit; font-family: &quot;Helvetica Neue&quot;, sans-serif; font-size: 12px; font-weight: 200;" fill="rgb(50, 49, 63)" stroke="none" stroke-width="1px">0.14</text><text x="0" y="0" dx="0em" dy="0.3em" style="text-anchor: end; visibility: hidden; font-family: &quot;Helvetica Neue&quot;, sans-serif; font-size: 12px; font-weight: 200;" fill="rgb(50, 49, 63)" stroke="none" stroke-width="1px">0.16</text></g><line x1="70" y1="0" x2="70" y2="378" fill="rgb(0, 0, 0)" stroke="rgb(204, 204, 204)" stroke-width="1px"></line></g></g><g transform="translate(70, 0)" clip-path="url(#clip_0)"><clipPath id="clip_0"><rect width="1428" height="378"></rect></clipPath><g><g><g><line x1="0" y1="0" x2="0" y2="378" fill="rgb(0, 0, 0)" stroke="rgb(60, 60, 60)" stroke-width="1px" opacity="0.25"></line><line x1="119" y1="0" x2="119" y2="378" fill="rgb(0, 0, 0)" stroke="rgb(60, 60, 60)" stroke-width="1px" opacity="0.25"></line><line x1="238" y1="0" x2="238" y2="378" fill="rgb(0, 0, 0)" stroke="rgb(60, 60, 60)" stroke-width="1px" opacity="0.25"></line><line x1="357" y1="0" x2="357" y2="378" fill="rgb(0, 0, 0)" stroke="rgb(60, 60, 60)" stroke-width="1px" opacity="0.25"></line><line x1="476" y1="0" x2="476" y2="378" fill="rgb(0, 0, 0)" stroke="rgb(60, 60, 60)" stroke-width="1px" opacity="0.25"></line><line x1="595" y1="0" x2="595" y2="378" fill="rgb(0, 0, 0)" stroke="rgb(60, 60, 60)" stroke-width="1px" opacity="0.25"></line><line x1="714" y1="0" x2="714" y2="378" fill="rgb(0, 0, 0)" stroke="rgb(60, 60, 60)" stroke-width="1px" opacity="0.25"></line><line x1="833" y1="0" x2="833" y2="378" fill="rgb(0, 0, 0)" stroke="rgb(60, 60, 60)" stroke-width="1px" opacity="0.25"></line><line x1="952" y1="0" x2="952" y2="378" fill="rgb(0, 0, 0)" stroke="rgb(60, 60, 60)" stroke-width="1px" opacity="0.25"></line><line x1="1071" y1="0" x2="1071" y2="378" fill="rgb(0, 0, 0)" stroke="rgb(60, 60, 60)" stroke-width="1px" opacity="0.25"></line><line x1="1190" y1="0" x2="1190" y2="378" fill="rgb(0, 0, 0)" stroke="rgb(60, 60, 60)" stroke-width="1px" opacity="0.25"></line><line x1="1309" y1="0" x2="1309" y2="378" fill="rgb(0, 0, 0)" stroke="rgb(60, 60, 60)" stroke-width="1px" opacity="0.25"></line><line x1="1428" y1="0" x2="1428" y2="378" fill="rgb(0, 0, 0)" stroke="rgb(60, 60, 60)" stroke-width="1px" opacity="0.25"></line></g><g><line x1="0" y1="378" x2="1428" y2="378" fill="rgb(0, 0, 0)" stroke="rgb(60, 60, 60)" stroke-width="1px" opacity="0.25"></line><line x1="0" y1="336" x2="1428" y2="336" fill="rgb(0, 0, 0)" stroke="rgb(60, 60, 60)" stroke-width="1px" opacity="0.25"></line><line x1="0" y1="294" x2="1428" y2="294" fill="rgb(0, 0, 0)" stroke="rgb(60, 60, 60)" stroke-width="1px" opacity="0.25"></line><line x1="0" y1="252" x2="1428" y2="252" fill="rgb(0, 0, 0)" stroke="rgb(60, 60, 60)" stroke-width="1px" opacity="0.25"></line><line x1="0" y1="210" x2="1428" y2="210" fill="rgb(0, 0, 0)" stroke="rgb(60, 60, 60)" stroke-width="1px" opacity="0.25"></line><line x1="0" y1="168" x2="1428" y2="168" fill="rgb(0, 0, 0)" stroke="rgb(60, 60, 60)" stroke-width="1px" opacity="0.25"></line><line x1="0" y1="125.99999999999997" x2="1428" y2="125.99999999999997" fill="rgb(0, 0, 0)" stroke="rgb(60, 60, 60)" stroke-width="1px" opacity="0.25"></line><line x1="0" y1="84.00000000000006" x2="1428" y2="84.00000000000006" fill="rgb(0, 0, 0)" stroke="rgb(60, 60, 60)" stroke-width="1px" opacity="0.25"></line><line x1="0" y1="42" x2="1428" y2="42" fill="rgb(0, 0, 0)" stroke="rgb(60, 60, 60)" stroke-width="1px" opacity="0.25"></line><line x1="0" y1="0" x2="1428" y2="0" fill="rgb(0, 0, 0)" stroke="rgb(60, 60, 60)" stroke-width="1px" opacity="0.25"></line></g></g></g><g><g><line x1="0" y1="336" x2="1428" y2="336" fill="rgb(0, 0, 0)" stroke="rgb(153, 153, 153)" stroke-width="1.5px"></line></g></g><g><g><line x1="119" y1="0" x2="119" y2="378" fill="rgb(0, 0, 0)" stroke="rgb(153, 153, 153)" stroke-width="1.5px"></line></g></g><g><g><g><g><g><path stroke="rgb(255, 112, 67)" stroke-width="2px" d="M119.9996,331.5475270282477L120.071,330.92518154438585L120.6898,320.6291353260832L121.2372,322.12206861982804L122.9746,327.58418567767245L124.45020000000001,330.92336186335604L124.5692,332.8442987742029L125.069,334.00472765490923L125.49739999999998,334.70455399257094L126.3304,335.11771358420935L126.378,335.3657701381028L126.5684,335.5250318244298L130.2812,146.97329669411306L131.7568,197.2680121389115L132.7802,184.17451819624483L132.9468,158.77692501161337L134.0892,210.02910725934396L134.3986,215.72152548669325L134.9698,225.15051587582553L135.9932,244.0259673326131L136.1836,239.6660908410424L137.683,236.97772062368762L138.08759999999998,250.20836901939794L138.2304,259.04947136148513L138.8968,251.0194822439658L142.1098,235.63643839620664L143.1332,226.28426906330756L144.3708,236.17070409323065L145.27519999999998,263.1175192441331L147.084,277.5226513191755L149.0118,269.0581094448375L150.3208,240.5834069015977L150.3922,267.3055917454209L150.7254,272.3776218754354L150.82059999999998,69.04372151007186L151.96300000000002,85.35259608943466L152.12959999999998,127.54656697707486L153.1768,46.69716166871979L153.89079999999998,68.05457186342011L155.2474,109.03445944089447L155.9376,173.01702485983586L156.3184,209.80227272793613L156.6992,231.27438715770913L159.2458,257.87903023629394L160.2692,235.69574210931148L160.3406,212.8057644227134L162.8872,229.2155240994268L163.4108,242.01222243466339L163.67260000000002,250.12119464025906L164.62460000000002,240.48441652019585L165.0292,257.161918476661L165.3386,261.9973035070083L167.45680000000002,231.82458620142324L168.8848,241.95104744954804L171.0506,246.03996387675005L171.3362,265.53129548165697L172.09779999999998,262.1490752597652L172.2406,252.36013837456585L172.8356,261.0204726415873L173.9066,263.29312237250815L175.85819999999998,273.43962351172L176.9768,271.74687214904327L177.3814,279.526865525325L177.429,284.8222154875278L177.548,279.75037724671836L178.143,265.6193572872762L178.1668,272.21972027384544L178.4524,276.10249397434774L178.57139999999998,280.5460390822767L179.2616,283.35294456938976L179.6186,284.77585545575664L182.903,253.6244719350102L184.21200000000002,228.75299093268885L189.6146,219.78309447254284L191.30440000000002,195.11449395826781L191.3758,204.53735791570736L192.7562,197.57153992013212L194.23180000000002,208.88949160668898L195.874,229.18157609637765L196.2072,240.3695941647064L196.2548,242.792127196799L196.27859999999998,249.251229289061L197.659,224.87684086733233L201.824,211.66653215749963L205.1084,212.33474632420481L205.156,193.38142677735294L206.34599999999998,199.7654030239046L208.0358,192.8310584971583L209.2734,139.2218650787637L209.7732,112.4313510542849L209.9398,10.064325778826458L212.48639999999997,61.271442228045714L213.15279999999998,118.23574858515656L213.8192,160.8229485846114L215.0568,165.00717688182306L216.53240000000002,184.73539869534554L218.8648,153.0856586965774L219.6026,134.24197541909544L219.72160000000002,116.0615176632233L221.7446,147.71015203441547L221.79219999999998,142.94243878391603L223.72000000000003,143.4990264789296L225.9096,116.10036839342314L226.3142,108.35601540384408L226.814,66.43089685426781L230.0032,99.35920409909863L230.0984,119.68991653056133L230.2888,127.92592644650452L232.9544,124.12103923534579L233.2876,141.3672296188785L234.192,176.19616379633626L234.47760000000002,166.2872764128153L235.47719999999998,151.753915730578L237.3098,164.33511908260718L239.19000000000003,167.73927652482823L239.23760000000001,142.13334320571803L240.5228,183.70291413418522L241.1892,186.57195940942805L243.6882,168.97647040683768L246.21099999999998,156.3959518766328L246.5442,146.01683289384388L247.996,139.30146857843124L251.0662,137.22494821992703L254.1602,104.96672740725995L255.2074,124.58496245830247L257.23040000000003,129.46305547409645L257.7064,134.42117856891986L258.5632,115.95115656228086L258.7298,110.14088033778205L259.5866,133.67015268291672L260.0864,112.85194277695206L261.562,128.1799633737289L262.038,85.46075521921415L264.6798,97.58281888374864L264.9178,95.37238291388257L266.56,93.17082175901834L266.86940000000004,38.64167459780754L267.0122,-83.01817398086325L268.6782,-29.097873072714435L269.2256,15.13393726295783L270.74879999999996,39.16071003882024L274.176,65.43434858446079L275.46119999999996,103.41164442375157L276.15139999999997,101.37142107769762L277.4366,123.29825919797963L278.3648,129.41932747322883L278.4362,127.2965963098917L278.7218,127.18881999334775L279.4596,121.89185821343108L282.1252,156.3046303828278L284.7908,144.8363946580719L285.4096,157.44131726645415L288.12280000000004,141.2934269107758L288.3132,114.83916795238133L289.289,129.22612524023216L291.47860000000003,69.43116188043695L293.0018,80.04898967739547L294.1442,130.62347886798742L294.6916,162.72071478866314L296.31,149.75797404112086L296.548,136.72869487560786L296.6194,101.37370638821722L296.9764,79.14313326343421L297.7618,133.2494071368248L302.0934,154.74321911596482L303.688,182.17122345485225L304.3544,176.1367830235835L304.5924,179.0586854814932L305.4254,153.30843962427645L309.1858,166.29962647674483L310.9708,171.92084091137647L313.684,184.44498062867402L314.65979999999996,163.41786911927744L317.3492,173.17265412117888L318.0394,194.55901649538188L318.1584,187.9779188093156L318.37260000000003,202.70386151412788L320.51460000000003,212.58092710935867L320.586,204.18672647216198L321.2524,178.95137512766286L321.49039999999997,182.1142443900285L323.7038,180.7903843691932L324.51300000000003,159.73211157148998L325.94100000000003,175.47923315659713L330.2964,-121.19924132170945L331.4864,-48.79318233520604L331.653,18.201294230277426L333.0334,102.08295031002467L333.1762,153.84606702692093L334.509,197.02819548587073L339.388,186.49821648919627L340.7208,195.99048643662954L341.4824,204.83317615601075L343.553,223.562132096366L344.33840000000004,224.55393571619746L346.2186,162.35615255215498L346.3852,221.638114948742L346.6946,-95.91170266886212L348.1226,67.51035802591059L348.8366,143.94456241743686L349.384,196.99654742012575L349.8124,239.82268951344582L353.2634,251.48911795620972L354.7866,232.2222961521438L358.3804,232.25268447019405L358.99920000000003,250.96380138467399L363.5688,246.41090737623364L363.73539999999997,261.92414588238233L366.4248,274.91198900643246L366.4962,274.18149830283676L366.996,275.3133817784903L368.40020000000004,259.3752772911141L369.42359999999996,285.17355463378135L371.4466,303.1654894547761L372.1844,50.15445057136418L372.5652,90.79353277434467L372.96979999999996,98.69109909862016L373.9218,149.52645495611267L375.0166,206.83887332128188L375.0404,245.70536909071626L375.564,257.9525936488391L376.397,262.5539138462592L377.0158,269.4261991200715L377.23,270.34236914622005L378.4676,281.9666654211713L378.539,282.762050523903L379.3482,276.52204047712445L379.4434,268.6612231437728L379.9908,245.65479685690195L380.1336,235.66115220681542L380.1812,228.56022342619724L381.276,234.91365136848347L383.22759999999994,233.22992042390376L383.6798,231.67400431446953L383.89399999999995,225.261824582891L385.5124,235.71240740709086L385.56,244.42832688505996L386.988,240.78372790822712L390.7722,216.60766558891135L392.03360000000004,212.68700218823906L392.5096,219.1814959682665L393.24739999999997,229.0510425590063L393.46160000000003,238.7778121246448L393.8662,239.48226442417806L394.2708,248.1711463599283L396.22239999999994,252.80575629287233L396.7698,229.82929992802897L397.103,240.64530344085668L398.8642,246.79345497653946L401.5774,253.985550035036L403.8622,251.9823348933437L403.9812,259.82305686557163L404.83799999999997,266.64140379359645L405.57579999999996,264.4470659490247L407.8844,268.59473633741254L408.50320000000005,264.3865157781536L408.5984,267.6263390492496L408.9792,262.8287809438167L409.97880000000004,268.51623506824126L411.502,263.22480339097945L411.5734,263.3087827401636L411.95419999999996,266.69761041028966L414.23900000000003,271.8390722764949L415.50039999999996,270.487291818465L420.5698,266.3438479576142L421.2362,272.1385963781852L422.18820000000005,265.3938235893356L423.9018,276.06340102580236L425.3774,274.2318847401562L427.23380000000003,284.4234401150717L427.6384,270.5751009025677L428.281,242.3034022831025L428.7808,259.84940266508477L429.0664,278.6936873713053L429.4234,273.25681104772787L430.78000000000003,278.5230998457283L432.5174,280.31107364063325L435.13540000000006,279.13253281691584L436.3968,286.52270229565454L436.49199999999996,292.1202255541524L438.8244,258.37197817292457L439.824,284.14134168432145L441.0378,267.40253754142515L441.58520000000004,284.57510946949475L442.9894,282.0291442141542L443.06080000000003,287.9964044908052L445.298,295.08199723776374L446.10720000000003,300.3785602299344L446.9402,308.9711616529805L447.8684,315.89772745184797L450.058,223.71789931185663L450.5816,-10.401756626799L452.5332,114.60236071203093L455.88899999999995,183.96501526328294L457.45980000000003,237.56213107164126L457.6264,254.50959055099142L457.8406,257.2708550242976L458.2452,284.3355341880557L458.67359999999996,293.3283076527141L460.07779999999997,286.4955071355356L461.2678,282.4644793060692L462.3864,282.9978535704179L463.8858,290.9313143362023L465.6708,293.03738051470623L465.8136,266.43174605260197L466.5276,273.86416641288935L466.74179999999996,274.4257761622306L466.9798,286.27545857339123L469.1694,258.86883528774393L469.3836,275.64827797261125L469.8834,265.81187487511187L471.4066,258.8011040977737L471.85880000000003,265.7134646232188L475.0718,276.5520742210901L476.5712,283.1999096168969L477.66600000000005,276.5262929078277L478.7132,281.0574797020159L480.76,267.6058304384828L482.1404,276.82151615473515L485.6866,282.20036088736583L485.7342,283.69586907811004L486.49580000000003,286.5517051338377L487.2336,278.99123887534273L488.6378,284.9634731669148L492.0412,288.1805107151818L492.6124,289.2066399339051L492.82660000000004,289.3248443593509L494.1356,296.5772768223242L497.72940000000006,303.0696186506126L498.0626,302.46218344470105L500.49019999999996,300.09263116061834L500.99,290.0440548326978L504.1554,297.10912588187506L505.869,303.4569847178367L506.3926,304.4755261684601L506.7972,305.303805698165L507.89200000000005,300.3440613563112L508.70120000000003,305.19999707730125L510.2482,302.1136136292905L512.1522,304.4193235391075L513.961,307.9765186237511L514.8178,308.95756380571225L517.4596,311.91128280498566L517.4834,300.63383901559104L518.2926,299.54195762242546L518.6258,303.5705151323418L519.6254,294.5561557301247L523.5999999999999,302.5346807577231L524.3378,298.5839213334333L525.147,290.9740131081826L527.7174,298.32474821100755L528.5028,302.52118576192925L528.9312,305.1275738187079L528.9788,309.14295642122295L529.5500000000001,295.8226459178011L529.5738,292.08033888653995L529.6452,278.6331848091845L530.0974,298.5141756254861L530.9304000000001,300.90897191425734L531.6682000000001,-423.54049436533114L532.5964,-129.09746154119762L532.8344,54.51995752583326L534.9526,160.1929722805642L535.2858,222.42580947904725L535.976,253.36648740845285L536.1664,270.57204505787706L536.8566,289.8577131851698L539.2128,304.88865781496077L544.7106,313.2202554318017L545.3770000000001,313.305362774295L545.5912,312.76921518347405L546.2576,311.39924167365876L547.0906,319.69709592287865L547.3762,314.56709385648446L548.8994,309.55356141766947L552.1124,255.56092849279074L553.3976,278.5168369928278L556.563,296.15364406819805L556.5867999999999,302.6801868204216L559.9188,313.9454176153356L562.7986,318.3454701990255L562.9652,322.1490969935279L565.9402,323.87768792833214L568.6296,316.4092275677641L569.0818,323.02575963458537L569.7482,245.2842915756769L570.2718,281.51201370147436L570.7716,290.14209757320623L572.39,286.61555843992556L573.6514,302.6597791996212L575.0318,293.5585350982315L576.079,307.94569406834046L581.1722,305.46018933014153L581.6006,301.1259183809524L582.1242,294.28359692843947L582.267,297.8774535182249L584.8612,292.92783516187257L585.1944,288.9522657188105L585.4562,289.17514880253833L586.7651999999999,295.97156295927743L587.027,303.66172293575033L587.1698,308.64503683895725L588.5740000000001,300.9504755213908L589.2166000000001,299.9792655721337L589.764,303.273206476273L591.4300000000001,300.1995800816428L591.9535999999999,302.1879683380372L592.739,308.0027872827677L593.3102,310.0247595403807L594.2622,308.9587456193099L594.6906,304.1720333162862L594.8334,298.80928898536666L594.9048,302.92399739434427L596.7136,308.23398575460976L596.7374,306.53067998156587L597.856,298.20897952357313L598.5938,296.2240262606107L599.2364,296.7546719567992L599.3078,282.5415784810196L599.4268000000001,285.8861048575765L601.1166,293.75610522666733L601.3784,299.4552423506329L602.5446,303.0389504715413L603.9012,312.5734057827061L604.9722,308.4274858804504L605.948,302.1798767728781L606.2574,310.4653552015528L606.2812,317.43648802428874L606.8048,309.80805819743534L607.1856,307.8427266747574L609.8274,314.55361181174635L610.3272,305.7833950977022L611.9694,313.16867909046977L612.0408,317.67127877973303L612.0645999999999,320.03151984067426L613.207,311.4024873975019L613.7782,-80.12371022682788L616.9198,70.55666607510216L618.8238,170.89768292541004L619.1332,217.61054722091376L620.6564,257.5345071799804L622.2034,271.70553694947057L622.7508,295.6877875948459L624.75,299.7089005052751L624.8214,300.63722316561376L624.9404,293.2176302411451L626.535,295.70176368584L626.9634,300.12400415319064L628.7484000000001,293.48673139976177L629.6766,301.7020679650707L633.437,255.92419520247L634.4366,219.50023006932744L634.4603999999999,239.15718576632028L636.0074000000001,265.0967836995249L636.1502,277.96498990174086L636.769,292.1617413915154L637.2687999999999,304.9444634918545L637.4116,305.692561394225L641.172,303.04618803635265L646.8602000000001,299.38748050913233L647.1696,309.4995587583483L647.9788,306.043290788895L648.55,309.385758256892L647.5742,313.8451194016514L648.2406,315.13536155363187L649.3353999999999,310.1262879171387L650.1684,308.329698015655L651.0490000000001,301.8718580808669L653.2148000000001,303.1087880317229L656.3088,294.98480620288L658.0938,296.22839706422775L660.2357999999999,302.95326532442505L660.3072,303.26494232129534L663.8058,301.94142183251074L663.901,299.553529319685L664.9244,297.52246361227117L665.1862,293.48399996907284L665.4242,296.82960928470357L666.2334000000001,297.0430967211155L666.4714,302.68185018893644L667.0902,301.3281092548166L668.1612,300.6238236071941L668.7086,298.8780530209706L669.9224,300.95796010287796L670.4936,298.6015301966202L670.9458,301.75612419387886L672.0644,299.8436418386769L674.7538,305.01584813669155L675.92,305.09854098960653L677.8478,308.68958611670075L678.1096,306.4715627335485L678.5856,307.8994736539111L680.323,301.65288907985604L681.6795999999999,305.4146009933991L684.2262000000001,313.2185140566255L687.582,295.20211009479914L688.5102,298.143219752892L689.2004000000001,298.18513823675164L691.271,299.0907192953053L692.4134,305.1017472074999L692.461,309.7900097788318L693.3654,312.2594999519553L693.9128,309.3822160451154L695.6025999999999,315.979669547888L698.9584,305.980056358464L700.4816,308.0476089555546L702.814,309.21690562448055L703.0044,313.19411898005694L706.6220000000001,291.30990182369163L707.1456,299.80243715053325L707.931,308.3811603570314L709.6922,315.47567813750095L710.6204,311.50781127456423L712.6672,313.2164589935159L714.4046,309.8176110698948L714.9996000000001,316.24339040006214L715.309,299.0394536845983L715.5232,307.15472706962237L717.4033999999999,236.63168318753603L718.8076,245.61628041675783L721.5208,279.7647140537119L721.8778,147.05051139083002L723.758,214.1193096136242L725.8285999999999,247.55168093414247L727.9468,257.4150337259241L728.8273999999999,282.83248019249845L729.6604,290.0148898424602L731.4216,295.4655481777726L734.3728,268.71084921372756L734.8725999999999,270.53782042451394L735.0868,275.9962707792979L735.4676000000001,255.51695051403414L736.967,275.4407196588014L736.9908,239.46000812928042L737.324,269.2262333704839L740.2514,271.3041927649861L740.5132,276.80011073555266L742.8932,270.12083103540965L744.4878,273.2219570832457L749.2477999999999,275.6484469388131L752.2704000000001,286.9373364233496L752.2942,290.3966796179725L752.9843999999999,298.7114016521044L753.0319999999999,295.935491902117L755.3882,299.2082495823408L758.9581999999999,298.69037626593735L760.4814,300.4914631689157L760.6242,297.37386856344733L760.7669999999999,302.2077151856863L760.8622,302.92271180433295L760.8860000000001,303.14072442044176L763.6229999999999,290.3829025536141L764.9319999999999,294.1020141666747L767.7879999999999,298.0260109022627L769.1207999999999,300.0512390890938L771.4532,304.4484586989416L771.6912,294.82021559032995L771.8578,299.5243864596081L772.2861999999999,302.0325087154026L773.6428,306.2472978558609L774.6899999999999,291.88235385575706L776.7368,290.12916438197385L778.9026,297.6397756124454L778.9502,302.19940364568936L779.7118,302.1215239865154L780.1402,302.8242383585912L786.8756000000001,306.2423002473439L787.4944,298.18774660837204L788.5416,309.48318260557386L789.8506000000001,304.1814205595668L791.3262000000001,306.5982582687626L791.6356000000001,312.51438134055076L793.8251999999999,297.2114081063314L794.5154,295.2404925393131L795.4436000000001,301.8547969053427L802.1075999999999,301.74473404230116L803.9878000000001,289.4729555150356L804.6066,294.876070523291L805.1302,302.5842662492568L805.5824,306.2213964008793L806.1774,311.0290897425118L806.5581999999999,312.2904824725451L806.8437999999999,301.5031776822604L807.8671999999999,306.3129486827253L809.4856,308.31629802067266L810.9612,315.3366855615627L815.9116,284.01385037507123L816.0782,301.04303113314813L816.2924,314.1713945860389L817.4824,316.3075954732134L817.5538,318.8580644043883L818.0536,318.9337421841979L818.7914000000001,312.78414724991086L819.2436,316.5278902812324L822.4803999999999,291.38902166864403L824.4082000000001,236.47991414893346L824.432,245.76594546454356L825.2411999999999,280.1079202273024L828.5018000000001,300.9191690195595L828.6208,314.02265979198336L829.2396,310.408968149708L830.3344000000001,319.4670944323905L830.6914,325.79888392671864L832.6429999999999,329.0940396686862L833.6664,329.25906887131754L834.2852,330.723081531616L835.261,327.1617572635364L836.2844,328.90105790264613L839.4259999999999,331.72610743786805L839.5926,333.1839901610313L839.6877999999999,334.3047859041411L842.1154,334.61618850825835L843.0674,334.4807452372006L845.3045999999999,324.1972602120812L845.6378,325.10440829689946L846.0662000000001,329.15043046692585L847.0658,311.70886815857637L853.5394,321.3091752814261L854.8008,282.71494461816593L857.633,295.52425698323276L861.9646,306.26466075261374L862.8452,283.234379164457L865.0824,270.0507488918779L868.8666000000001,294.84857960440087L869.4854,310.665893209207L870.4374,299.93022222353693L871.5321999999999,290.1768435867648L873.0792000000001,298.7311165918124L873.2458,300.84002974863125L873.4362,305.05067671677637L874.5786,314.11748729998567L874.7928,315.6693011930865L876.197,286.2284932024051L876.5064,289.13003892521675L879.9574,297.7452822093404L880.2429999999999,291.5247370579384L881.0284,285.8086195694531L882.028,278.91508579296624L883.575,268.51528328086584L885.3362,279.51424655571964L886.4548,287.6069215908968L888.0018,295.0201334953501L888.6919999999999,308.2237537756678L889.0014000000001,318.251207864962L890.6436,309.26073644261476L890.715,305.3273974072988L891.7384,307.83786020350783L892.9046,304.77954273326594L894.2374,300.05741799714207L897.3789999999999,299.5210926314714L897.5694000000001,292.579008101256L897.7360000000001,296.3594081990906L899.9494,285.5257796283357L900.2349999999999,290.472831796753L900.711,287.56422267028546L903.4242,291.30616281729255L903.5194,285.1665508645851L904.162,279.7620344041633L904.2096,271.1591613756923L906.3516000000001,287.9734787563865L908.0176,296.08775726678283L908.6601999999999,283.86096167994924L908.8267999999999,285.03780916293493L909.4932,268.83070980882667L912.73,285.44276412949574L914.9196000000001,296.6201480738855L915.0862000000001,297.4737244494281L917.2282,300.09665790483484L917.4423999999999,303.01804327091656L917.7280000000001,290.53272343946145L918.1802,302.2919043378392L918.5848,300.2311604396319L919.87,298.9135149166474L920.1555999999999,304.4916601297551L920.7506000000001,310.03712895317636L921.6311999999999,305.88801458062983L923.0115999999999,308.6851265047923L924.1064,300.8312725374064L924.5586,281.24994806939134L924.7252,296.06749569024896L925.8199999999999,300.82687085060036L927.0576,300.7483416747317L927.129,300.23242119558245L927.9620000000001,302.35306549881454L931.056,304.9482546467457L932.2936000000001,306.98720128052673L932.3174,305.4290344698026L932.8172,297.494673030543L934.1262,303.3024404716299L936.1967999999999,308.27262652944364L936.2206,306.7555520357539L937.125,303.43678310941755L937.9580000000001,309.31161154467526L938.1722000000001,298.1793228576104L939.1003999999999,285.7929035538149L940.2665999999999,280.51810547195146L941.5756,292.16514643867174L942.3372,294.17757992946724L944.5982,305.74778059276116L948.2158000000001,307.9523885214458L949.3820000000001,310.58217115635455L950.2388,314.04104720911255L951.7144,309.08267286634964L953.5469999999999,313.94605636949257L953.6184,313.3159389606411L955.4272000000001,295.40077080793947L955.927,303.629979994701L956.1174,308.55940076518453L956.4268,316.9186313353234L956.4744,317.7129736424836L956.6172,323.30375231989336L958.9495999999999,321.1145090114362L958.9972,299.8519599408678L961.0678,311.9208181684179L961.1392000000001,300.0074169895031L961.7818,307.8924217677699L965.8516,313.3448072638563L966.0182,313.90636149891924L967.5889999999999,312.7540688982529L967.708,303.4763048095061L970.1832,312.8815444612535L970.5878,310.89485050463867L972.1823999999999,313.8878379179489L972.6584,308.34351326903413L975.2049999999999,308.84475506771037L976.4426,312.56713976072325L976.7996,315.8251335165325L977.1566,316.29312588074345L977.5373999999999,318.99788756548486L977.8467999999999,320.3693399518974L978.6798,298.4378783458619L979.132,304.04160016501834L979.2986,310.572561514973L984.8439999999999,313.40147655165157L986.2719999999999,304.3574019071815L986.9860000000001,289.19170196040614L987.4382,286.36572747936333L989.5563999999999,293.10072783237985L990.4846,302.44119560036836L990.5798,296.51045523174867L990.794,304.61406134717623L990.9368,308.3398455882249L991.5318,302.4212866219388L992.8884,298.57026172235646L996.3632,300.3683001491728L999.124,314.1494839125977L999.9094,309.385947011954L1002.5035999999999,221.26549760284803L1002.6464000000001,30.850869320528375L1002.8606000000001,2.775735224900586L1005.9308,-23.451769587029275L1006.7399999999999,-96.19881462849929L1012.8328,24.538684202446063L1013.285,142.83216616702882L1014.3084,213.33131007965093L1015.9506,232.23693708548353L1021.0676,244.9786816177929L1023.4714,253.7542083584168L1024.7804,269.74697756009687L1025.1374,285.10777410857315L1026.7795999999998,280.77142260070104L1027.5888,282.1516214346615L1029.35,302.9659828491384L1029.7308,265.82280256434524L1029.9926,264.125832540299L1030.8018,251.13671878725614L1032.7058,246.30260460823968L1034.1576,235.367718024553L1034.1814,245.72529329270193L1035.5618,257.67397753840726L1036.0378,271.4397154834631L1037.0611999999999,273.12017652313483L1037.1802,276.7903991903101L1038.8938,222.29146503002846L1042.2496,226.4984534477675L1042.797,235.0877281543901L1042.8208,233.24194114907326L1046.0576,238.86439913811532L1048.3424,268.548482691063L1049.7466,279.950756177195L1050.0084,290.41178860359673L1056.7676,304.23314406480364L1057.7434,297.76920140091164L1059.4094,302.1673666048263L1060.0757999999998,308.42393291045516L1061.2896,308.1626601132708L1063.5982000000001,302.8877959408139L1064.336,294.2551011537179L1064.455,288.96878645388273L1064.8596,302.90713153149477L1066.0734,293.9117382965433L1066.9778,297.15197891902613L1071.833,298.7522146994572L1073.5466000000001,312.1182733372421L1076.0456000000001,301.570902928446L1078.1162,291.2448638407792L1078.4017999999999,294.713717572594L1079.1634000000001,305.03393067431705L1079.8298,305.05892050273576L1081.9004,300.8233748585424L1082.1384,302.3996301359201L1082.2812000000001,312.04516936935573L1082.3764,302.999773792014L1083.1142,303.1535655403647L1083.1617999999999,290.4468569484063L1083.4950000000001,288.32476533810546L1083.6378,295.9383516839757L1085.3752,297.0537865746984L1091.2538,300.2617913105469L1093.3482000000001,300.65349701156504L1093.967,306.27560603386337L1096.109,307.0115760223041L1096.7516,309.0559269878847L1098.4176,298.14680420122045L1100.036,296.16426874257024L1100.4168,291.1490857038313L1101.9876000000002,304.22746975844586L1103.1299999999999,309.62840430364304L1103.5108,295.21435717597774L1104.201,304.8942097580741L1104.7959999999998,308.740399901945L1105.2482,269.3985534697048L1108.6754,281.4590994053645L1108.8658,290.26315310201426L1110.389,300.7483209079586L1111.0316,311.2679073955764L1114.2446,311.22360058999953L1114.4112,298.24838069007933L1114.8396,304.6353125180372L1117.291,304.40602758559993L1117.8622,303.20713289399987L1118.1002,314.0349673755917L1118.4334000000001,308.78520774411874L1119.909,311.03743368576596L1122.17,318.7208336893656L1123.7408,311.3929167511426L1124.8118,314.0514646036841L1125.2402,315.63512150725234L1125.4782,319.89305117819015L1125.978,314.9089414810735L1128.5722,261.2323277792691L1130.2382,288.92960875861996L1132.5706,289.08395876665804L1135.3552,298.70426357793747L1136.2595999999999,293.19690081481895L1137.045,271.455131721525L1137.4496,296.0713930678538L1138.3778,304.9594340862138L1144.1374,312.6910943972351L1144.5182,314.47204460723884L1147.9453999999998,304.7216750027161L1149.183,310.35937758484016L1150.2302,288.64528743146974L1151.0632,299.89399373065896L1151.7772,303.3031705828397L1152.3484,304.2807142711811L1152.9196,299.0386217044075L1153.11,297.82431927956816L1153.3718,297.58535026989983L1153.3956,306.69332053725486L1154.8236,290.4305042950187L1155.4662,286.37766391205037L1155.5614,295.48493920515324L1155.9184,291.66688361913174L1156.5372,294.02429636210326L1156.799,276.7592016153939L1157.0608,280.8869494464044L1157.8462,289.5321216503408L1159.8692,293.41308015403905L1161.1306,295.4241277534828L1161.2258000000002,306.1970675533453L1161.5352,270.7465892997646L1163.4392,286.2625743518629L1163.5344,291.4032599908327L1164.1770000000001,294.7368123818764L1164.3912,301.3845225998359L1166.4618,297.90178879967914L1166.6283999999998,239.07772927803745L1167.6756,264.4867580880102L1168.937,283.47116803523164L1169.77,254.8135963046328L1169.8652,182.44096501849742L1171.317,221.52323301543387L1173.6255999999998,242.55364450758452L1174.53,262.6793980118379L1175.6248,283.03136683504255L1175.6486,277.27294824123663L1175.72,263.5165921783464L1177.0528000000002,266.9090919098864L1179.052,288.4964269020623L1179.6232,290.87657858541405L1180.7894,297.8148017591882L1181.1226,300.42792444924396L1184.645,292.76962467729976L1185.359,296.11921447634654L1186.7631999999999,304.76989659440494L1187.9769999999999,309.35498337013706L1192.8798000000002,299.5439910981845L1193.094,262.8493657406444L1193.57,292.01202411045006L1194.3078,276.29270239227634L1194.3554000000001,286.97810433836946L1197.5684,279.51935390551193L1198.4252000000001,266.61738791417656L1199.4723999999999,270.09863118738883L1200.8766,271.7255946362671L1201.1622,262.252726809064L1203.8516,279.1177654316303L1204.7322,275.7935828387902L1205.47,289.95871852756534L1206.303,293.0507732327044L1209.8729999999998,298.0830232900536L1210.0872000000002,305.05329559011193L1210.7298,308.9005101845439L1211.4438,302.2176060542927L1212.253,291.1085011133829L1213.324,288.8659880739021L1213.5144,296.92226758340405L1214.1807999999999,295.04669004523396L1216.8701999999998,301.6394810995081L1217.251,301.1707569671046L1217.7984,304.2564292795879L1218.7266,292.15620378836525L1219.1312,303.56988280525525L1221.1779999999999,294.36900428539946L1221.3922,300.7112168705847L1222.2014,307.04187237241183L1224.9384,303.9726706565518L1225.8666,293.33407849795213L1227.1042,305.35866964445466L1233.9586,303.99818921140405L1234.4584,303.9324571299647L1237.8142,306.6772320871409L1238.8376,315.6013869605128L1240.099,314.12801042268654L1240.2656000000002,297.84768856507526L1240.7416,225.00853890742056L1241.3604,264.625746286304L1243.5024,283.7612154357977L1244.74,297.8044542401044L1246.1680000000001,312.7351426335578L1246.3346000000001,321.93911066773944L1247.0248,299.4597117312158L1248.2862,295.6412559364679L1248.3814,304.80845017817273L1248.6907999999999,307.64343327335513L1249.0240000000001,310.77803847969767L1249.5952,302.14169700015304L1249.8808,287.41007198732325L1250.6424,295.0669380133821L1250.809,305.8314054835125L1251.1422,275.80617949535156L1253.8316,274.3950214336497L1254.0934,295.0600294694413L1254.2362,276.9443059757417L1255.212,-3521.7928638938033L1259.734,-128.47746254223222L1260.7812000000001,50.88147321884253L1261.2096,155.29835356649406L1261.5904,210.64229898081214L1262.3044,253.36581939563746L1263.9466,263.5477028227186L1266.9216,211.52320667125792L1267.945,234.92082368146188L1267.9926,265.6811999667335L1268.8732,267.8738410942941L1268.897,270.7707641168349L1269.135,223.11918604635676L1269.3254,267.797873336809L1269.9204,273.7548688553197L1271.8958,221.9210144819273L1272.0148000000002,260.25847035446486L1272.3718000000001,290.31251156587325L1276.989,285.38954765056917L1280.2734,295.7803561655006L1285.319,288.7286711345506L1287.1754,263.86855655970527L1288.4605999999999,287.3562025982878L1289.0556,292.0165678625549L1292.0544,282.1685749986914L1293.9822,240.27075881356876L1295.1484,259.85185515043065L1295.434,272.47491130326347L1295.8862,281.4950502103219L1297.2903999999999,277.93391103062925L1300.0511999999999,265.4770876974695L1301.9314,280.7801205388208L1302.931,281.4352928919494L1304.6445999999999,289.26178990142944L1305.8346,299.66586385570406L1306.7152,286.0750793421414L1308.048,279.9846171977607L1308.4288,269.19612393036414L1308.9762,275.6911292478736" style="fill: none;" fill="none"></path></g></g></g></g><g opacity="0.2"><g><g><g><path stroke="rgb(255, 112, 67)" stroke-width="2px" d="M119.9996,331.5475270282477L120.071,330.55177425406873L120.6898,310.7449309565127L121.2372,323.877758173272L122.9746,334.7155257083941L124.45020000000001,335.54264463158324L124.5692,335.5912692917045L125.069,335.69664410309633L125.49739999999998,335.73666190635413L126.3304,335.731207426521L126.378,335.73560511425603L126.5684,335.76305765885627L130.2812,-135.2386518716812L131.7568,272.6115527227521L132.7802,164.54966819286344L132.9468,120.6984475851059L134.0892,286.8856924250722L134.3986,224.25870752334595L134.9698,239.29256504774094L135.9932,272.33741922676563L136.1836,233.12651520967484L137.683,232.94525375962257L138.08759999999998,270.05408039689064L138.2304,272.3110201433301L138.8968,238.9745556414127L142.1098,212.561938226223L143.1332,212.25603899359703L144.3708,251.00034146010876L145.27519999999998,303.5377171486616L147.084,299.13034147024155L149.0118,256.3612994402647L150.3208,197.87135875225064L150.3922,307.3888658210635L150.7254,279.9856667071581L150.82059999999998,-235.9571202993393L151.96300000000002,109.81590753793716L152.12959999999998,190.83752265572548L153.1768,-74.57694554328913L153.89079999999998,100.09068703651428L155.2474,170.50429067015645L155.9376,268.99087285995483L156.3184,264.98014448583126L156.6992,263.48255878686905L159.2458,297.7859948426485L160.2692,202.42080992460248L160.3406,178.47079789638516L162.8872,253.83016361296177L163.4108,261.2072699368L163.67260000000002,262.2846529483795L164.62460000000002,226.0292493402958L165.0292,282.17817141115665L165.3386,269.25038105249405L167.45680000000002,186.5655102431774L168.8848,257.1407393217087L171.0506,252.17333851754665L171.3362,294.768292888999L172.09779999999998,257.0757449269295L172.2406,237.67673304677007L172.8356,274.0109740421176L173.9066,266.70209696888924L175.85819999999998,288.6593752205372L176.9768,269.20774510502815L177.3814,291.19685558974743L177.429,292.7652404308319L177.548,272.14261988550425L178.143,244.42282734811303L178.1668,282.1202647536993L178.4524,281.9266545251012L178.57139999999998,287.2113567441702L179.2616,287.5633028000593L179.6186,286.91022178530693L182.903,206.8973966538906L184.21200000000002,191.44576942920685L189.6146,206.32824978232384L191.30440000000002,158.11159318685532L191.3758,218.67165385186672L192.7562,187.12281292676923L194.23180000000002,225.86641913652417L195.874,259.6197028309107L196.2072,257.1516212671995L196.2548,246.4259267449379L196.27859999999998,258.939882427454L197.659,188.31525823473928L201.824,191.85106909275055L205.1084,213.3370675742626L205.156,164.95144745707512L206.34599999999998,209.34136739373207L208.0358,182.42954170703888L209.2734,58.808074951171875L209.7732,72.24558001756668L209.9398,-143.48621213436127L212.48639999999997,138.0821169018745L213.15279999999998,203.68220812082288L213.8192,224.70374858379364L215.0568,171.28351932764053L216.53240000000002,214.3277314156294L218.8648,105.6110486984253L219.6026,105.97645050287247L219.72160000000002,88.79083102941513L221.7446,195.1831035912037L221.79219999999998,135.79086890816689L223.72000000000003,144.33390802145001L225.9096,75.00238126516342L226.3142,96.73948591947556L226.814,3.543219029903412L230.0032,148.7516649663448L230.0984,150.18598517775536L230.2888,140.2799413204193L232.9544,118.41370841860771L233.2876,167.2365151941776L234.192,228.4395650625229L234.47760000000002,151.42394533753392L235.47719999999998,129.95387470722196L237.3098,183.206924110651L239.19000000000003,172.84551268815994L239.23760000000001,103.72444322705269L240.5228,246.057270526886L241.1892,190.87552732229233L243.6882,142.58323690295217L246.21099999999998,137.5251740813255L246.5442,130.44815441966057L247.996,129.22842210531235L251.0662,134.11016768217084L254.1602,56.579396188259125L255.2074,154.01231503486633L257.23040000000003,136.78019499778745L257.7064,141.8583632111549L258.5632,88.24612355232239L258.7298,101.42546600103378L259.5866,168.96406120061874L260.0864,81.62462791800499L261.562,151.17199426889417L262.038,21.381942987442017L264.6798,115.76591438055038L264.9178,92.05672895908356L266.56,89.86848002672195L266.86940000000004,-43.15204614400858L267.0122,-265.5079468488693L268.6782,51.78257828950882L269.2256,81.48165276646614L270.74879999999996,75.20086920261383L274.176,104.84480640292168L275.46119999999996,160.37758818268776L276.15139999999997,98.31108605861664L277.4366,156.18851637840268L278.3648,138.60092988610265L278.4362,124.1124995648861L278.7218,127.02715551853177L279.4596,113.94641554355621L282.1252,207.9237886369228L284.7908,127.63404107093808L285.4096,176.34870117902753L288.12280000000004,117.0715913772583L288.3132,75.15777951478958L289.289,150.80656117200851L291.47860000000003,-20.261283159255925L293.0018,95.97573137283325L294.1442,206.48521265387532L294.6916,210.86656866967675L296.31,130.3138629198074L296.548,117.18477612733841L296.6194,48.341223657131195L296.9764,45.79727357625961L297.7618,214.40881794691083L302.0934,186.98393708467484L303.688,223.3132299631834L304.3544,167.08512237668035L304.5924,183.44153916835782L305.4254,114.68307083845139L309.1858,185.78640675544736L310.9708,180.35266256332395L313.684,203.23119020462036L314.65979999999996,131.87720185518262L317.3492,187.80483162403107L318.0394,226.6385600566864L318.1584,178.10627228021622L318.37260000000003,224.79277557134625L320.51460000000003,227.39652550220487L320.586,191.59542551636696L321.2524,141.09834811091423L321.49039999999997,186.85854828357697L323.7038,178.8045943379402L324.51300000000003,128.14470237493515L325.94100000000003,199.09991553425786L330.2964,-566.2169530391693L330.9866,-166.10188329219818L331.4864,237.5453517436981L331.653,118.69300907850266L333.0334,227.9054344296455L333.1762,231.49074210226536L334.509,261.8013881742954L339.388,170.70324799418447L340.7208,210.2288913577795L341.4824,218.0972107350826L343.553,251.65556600689888L344.33840000000004,226.0416411459446L346.2186,69.05947780609131L346.3852,310.5610585436225L346.6946,-572.2364290952684L348.1226,312.64344906806946L348.8366,258.5958690047264L349.384,276.57452492415905L349.8124,304.06190265342593L353.2634,268.9887606203556L354.7866,203.3220634460449L358.3804,232.2982669472694L358.99920000000003,279.0304767563939L363.5688,239.58156636357307L363.73539999999997,285.1940036416054L366.4248,294.39375369250774L366.4962,273.0857622474432L366.996,277.01120699197054L368.40020000000004,235.46812056005L369.42359999999996,323.8709706477821L371.4466,330.15339168626815L372.1844,-329.3621077537538L372.5652,151.75215607881543L372.96979999999996,110.53744858503342L373.9218,225.77948874235153L375.0166,292.8075008690357L375.0404,304.0051127448678L375.564,276.3234304860234L376.397,269.4558941423893L377.0158,279.73462703078985L377.23,271.7166241854429L378.4676,299.40310983359814L378.539,283.95512817800045L379.3482,267.1620254069567L379.4434,256.8699971437454L379.9908,211.1451574265957L380.1336,220.67068523168564L380.1812,217.90883025527L381.276,244.4437932819128L383.22759999999994,230.70432400703427L383.6798,229.34013015031815L383.89399999999995,215.64355498552322L385.5124,251.38828164339066L385.56,257.5022061020136L386.988,235.31682944297788L390.7722,180.34357210993764L392.03360000000004,206.80600708723068L392.5096,228.92323663830757L393.24739999999997,243.85536244511604L393.46160000000003,253.36796647310257L393.8662,240.53894287347794L394.2708,261.2044692635536L396.22239999999994,259.7576711922884L396.7698,195.364615380764L397.103,256.86930871009827L398.8642,256.01568228006363L401.5774,264.7736926227808L403.8622,248.9775121808052L403.9812,271.5841398239136L404.83799999999997,276.86892418563366L405.57579999999996,261.15555918216705L407.8844,274.81624191999435L408.50320000000005,258.07418493926525L408.5984,272.4860739558935L408.9792,255.63244378566742L409.97880000000004,277.04741625487804L411.502,255.28765587508678L411.5734,263.43475176393986L411.95419999999996,271.7808519154787L414.23900000000003,279.5512650758028L415.50039999999996,268.45962113142014L420.5698,260.12868216633797L421.2362,280.8307190090418L422.18820000000005,255.27666440606117L423.9018,292.0677671805024L425.3774,271.484610311687L427.23380000000003,299.71077317744493L427.6384,249.80259208381176L428.281,199.89585435390472L428.7808,286.1684032380581L429.0664,306.96011443063617L429.4234,265.1014965623617L430.78000000000003,286.4225330427289L432.5174,282.99303433299065L435.13540000000006,277.36472158133984L436.3968,297.6079565137625L436.49199999999996,300.5165104418993L438.8244,207.74960710108277L439.824,322.79538695141673L441.0378,242.2943313270807L441.58520000000004,310.3339673615992L442.9894,278.2101963311434L443.06080000000003,296.94729490578175L445.298,305.7103863582015L446.10720000000003,308.32340471819043L446.9402,321.86006378754973L447.8684,326.2875761501491L450.058,85.44815710186958L450.5816,-361.5812405347825L452.5332,302.1085367202759L455.88899999999995,288.00899709016085L457.45980000000003,317.95780478417873L457.6264,279.93077977001667L457.8406,261.41275173425674L458.2452,324.93255293369293L458.67359999999996,306.81746784970164L460.07779999999997,276.2463063597679L461.2678,276.4179375618696L462.3864,283.7979149669409L463.8858,302.831505484879L465.6708,296.1964797824621L465.8136,226.52329435944554L466.5276,285.0127969533205L466.74179999999996,275.2681907862425L466.9798,304.04998219013214L469.1694,217.75890035927293L469.3836,300.81744199991226L469.8834,251.05727022886276L471.4066,248.2849479317665L471.85880000000003,276.0820054113865L475.0718,292.80998861789703L476.5712,293.17166271060705L477.66600000000005,266.515867844224L478.7132,287.85425989329815L480.76,247.42835654318333L482.1404,290.6450447291136L485.6866,290.2686279863119L485.7342,285.93913136422634L486.49580000000003,290.83545921742916L487.2336,267.6505394876003L488.6378,293.92182460427284L492.0412,293.0060670375824L492.6124,290.74583376199007L492.82660000000004,289.5021509975195L494.1356,307.4559255167842L497.72940000000006,312.8081313930452L498.0626,301.55103063583374L500.49019999999996,296.5383027344942L500.99,274.971190340817L504.1554,307.70673245564103L505.869,312.9787729717791L506.3926,306.00333834439516L506.7972,306.5462249927223L507.89200000000005,292.90444484353065L508.70120000000003,312.4839006587863L510.2482,297.48403845727444L512.1522,307.8778884038329L513.961,313.31231125071645L514.8178,310.42913157865405L517.4596,316.3418613038957L517.4834,283.7176733314991L518.2926,297.9041355326772L518.6258,309.6133513972163L519.6254,281.0346166267991L523.5999999999999,314.50246829912066L524.3378,292.6577821969986L525.147,279.5591507703066L527.7174,309.35085086524487L528.5028,308.8158420883119L528.9312,309.0371559038758L528.9788,315.1660303249955L529.5500000000001,275.8421801626682L529.5738,286.46687833964825L529.6452,258.4624536931515L530.0974,328.33566184993833L530.9304000000001,304.50116634741426L531.6682000000001,-1510.2146937847137L532.5964,312.56708769500256L532.8344,329.94608612637967L534.9526,318.7024944126606L535.2858,315.7750652767718L535.976,299.7775043025613L536.1664,296.3803815320134L536.8566,318.7862153761089L539.2128,327.43507475964725L544.7106,325.7176518570632L545.3770000000001,313.4330237880349L545.5912,311.96499379724264L546.2576,309.3442814089358L547.0906,332.1438772967085L547.3762,306.87209075689316L548.8994,302.0332627594471L552.1124,174.57197910547256L553.3976,312.95069974288344L556.563,322.60885468125343L556.5867999999999,312.47000094875693L559.9188,330.84326380770653L562.7986,324.9455490745604L562.9652,327.8545371852815L565.9402,326.4705743305385L568.6296,305.206537026912L569.0818,332.95055773481727L569.7482,128.6720894873142L570.2718,335.8535968901706L570.7716,303.08722338080406L572.39,281.32574974000454L573.6514,326.72611033916473L575.0318,279.90666894614697L576.079,329.5264325235039L581.1722,301.73193222284317L581.6006,294.6245119571686L582.1242,284.02011474967003L582.267,303.2682384029031L584.8612,285.50340762734413L585.1944,282.98891155421734L585.4562,289.50947342813015L586.7651999999999,306.166184194386L587.027,315.19696290045977L587.1698,316.12000769376755L588.5740000000001,289.4086335450411L589.2166000000001,298.5224506482482L589.764,308.21411783248186L591.4300000000001,295.58914048969746L591.9535999999999,305.17055072262883L592.739,316.72501569986343L593.3102,313.05771792680025L594.2622,307.3597247377038L594.6906,296.9919648617506L594.8334,290.76517248898745L594.9048,309.0960600078106L596.7136,316.19896829500794L596.7374,303.975721322L597.856,285.7264288365841L598.5938,293.24659636616707L599.2364,297.55064050108194L599.3078,261.2219382673502L599.4268000000001,290.9028944224119L601.1166,305.5611057803035L601.3784,308.0039480365813L602.5446,308.4145126529038L603.9012,326.8750887494534L604.9722,302.2086060270667L605.948,292.8084631115198L606.2574,322.8935728445649L606.2812,327.8931872583926L606.8048,298.3654134571552L607.1856,304.8947293907404L609.8274,324.6199395172298L610.3272,292.6280700266361L611.9694,324.2466050796211L612.0408,324.42517831362784L612.0645999999999,323.57188143208623L613.207,298.45893873274326L613.7782,-667.4130066633227L616.9198,296.577230527997L618.8238,321.40920820087194L619.1332,287.6798436641693L620.6564,317.42044711858034L622.2034,292.9620816037059L622.7508,331.66116356290877L624.75,305.740569870919L624.8214,302.02970715612173L624.9404,282.0882408544421L626.535,299.4279638528824L626.9634,306.7573648542166L628.7484000000001,283.5308222696185L629.6766,314.02507281303406L633.437,187.25738605856895L634.4366,164.86428236961365L634.4603999999999,268.64261931180954L636.0074000000001,304.00618059933186L636.1502,297.2672992050648L636.769,313.4568686261773L637.2687999999999,324.11854664236307L637.4116,306.8147082477808L641.172,299.07662799954414L646.8602000000001,293.8994192183018L647.1696,324.66767613217235L647.9788,300.8588888347149L648.55,314.3994594588876L647.5742,320.5341611187905L648.2406,317.0707247816026L649.3353999999999,302.612677462399L650.1684,305.6348131634295L651.0490000000001,292.1850981786847L653.2148000000001,304.96418295800686L656.3088,282.7988334596157L658.0938,298.09378335624933L660.2357999999999,313.04056771472096L660.3072,303.7324578166008L663.8058,299.95614109933376L663.901,295.9716905504465L664.9244,294.4758650511503L665.1862,287.4263045042753L665.4242,301.8480232581496L666.2334000000001,297.3633278757334L666.4714,311.1399803906679L667.0902,299.29749785363674L668.1612,299.5673951357603L668.7086,296.2593971416354L669.9224,304.077820725739L670.4936,295.06688533723354L670.9458,306.4880151897669L672.0644,296.97491830587387L674.7538,312.77415758371353L675.92,305.2225802689791L677.8478,314.07615380734205L678.1096,303.14452765882015L678.5856,310.04134003445506L680.323,292.28301221877337L681.6795999999999,311.05716886371374L684.2262000000001,324.9243836514652L687.582,268.17750415205956L688.5102,302.55488424003124L689.2004000000001,298.2480159625411L691.271,300.4490908831358L692.4134,314.11828907579184L692.461,316.8224036358297L693.3654,315.9637352116406L693.9128,305.06629018485546L695.6025999999999,325.875849802047L698.9584,290.98063657432795L700.4816,311.14893785119057L702.814,310.97085062786937L703.0044,319.15993901342154L706.6220000000001,258.48357608914375L707.1456,312.5412401407957L707.931,321.24924516677856L709.6922,326.11745480820537L710.6204,305.55601098015904L712.6672,315.7794305719435L714.4046,304.719339184463L714.9996000000001,325.88205939531326L715.309,273.2335486114025L715.5232,319.3276371471584L717.4033999999999,130.84711736440656L718.8076,259.09317626059055L721.5208,330.98736450914294L721.8778,-52.02079260349274L723.758,314.7225069478154L725.8285999999999,297.70023791491985L727.9468,272.21006291359663L728.8273999999999,320.95864989236L729.6604,300.78850431740284L731.4216,303.6415356807411L734.3728,228.57880076766014L734.8725999999999,273.27827724069357L735.0868,284.18394631147385L735.4676000000001,224.79797011613846L736.967,305.32637337595224L736.9908,185.48894083499906L737.324,313.8755712322891L740.2514,274.4211318567395L740.5132,285.04398769140244L742.8932,260.10191148519516L744.4878,277.87364615499973L749.2477999999999,279.28818172216415L752.2704000000001,303.87067065015435L752.2942,295.58569440990686L752.9843999999999,311.1834847033024L753.0319999999999,291.77162727713585L755.3882,304.1173861026764L758.9581999999999,297.91356629133224L760.4814,303.19309352338314L760.6242,292.6974766552448L760.7669999999999,309.4584851190448L760.8622,303.9952067323029L760.8860000000001,303.46774334460497L763.6229999999999,271.24616975337267L764.9319999999999,299.68068158626556L767.7879999999999,303.9120060056448L769.1207999999999,303.0890813693404L771.4532,311.04428811371326L771.6912,280.3778509274125L771.8578,306.58064276352525L772.2861999999999,305.7946920990944L773.6428,312.56948156654835L774.6899999999999,270.3349378556013L776.7368,287.499380171299L778.9026,308.90569245815277L778.9502,309.0388456955552L779.7118,302.0047044977546L780.1402,303.8783099167049L786.8756000000001,311.36939308047295L787.4944,286.10591614991426L788.5416,326.42633660137653L789.8506000000001,296.22877749055624L791.3262000000001,310.22351483255625L791.6356000000001,321.388565948233L793.8251999999999,274.2569482550025L794.5154,292.28411918878555L795.4436000000001,311.7762534543872L802.1075999999999,301.57963974773884L803.9878000000001,271.0652877241373L804.6066,302.9807430356741L805.1302,314.1465598382056L805.5824,311.67709162831306L806.1774,318.24062975496054L806.5581999999999,314.182571567595L806.8437999999999,285.3222204968333L807.8671999999999,313.52760518342257L809.4856,311.32132202759385L810.9612,325.86726687289774L815.9116,237.02959759533405L816.0782,326.58680227026343L816.2924,333.8639397653751L817.4824,319.5118968039751L817.5538,322.6837678011507L818.0536,319.04725885391235L818.7914000000001,303.5597548484802L819.2436,322.14350482821465L822.4803999999999,253.68071874976158L824.4082000000001,154.11625286936757L824.432,259.6949924379587L825.2411999999999,331.62088237144053L828.5018000000001,332.13604220794514L828.6208,333.67789595061913L829.2396,304.98843068629503L830.3344000000001,333.05428385641426L830.6914,335.2965681682108L832.6429999999999,334.0367732816376L833.6664,329.5066126752645L834.2852,332.9191005220637L835.261,321.81977086141706L836.2844,331.5100088613108L839.4259999999999,335.96368174070085L839.5926,335.3708142457763L839.6877999999999,335.98597951880583L842.1154,335.08329241443425L843.0674,334.277580330614L845.3045999999999,308.772032674402L845.6378,326.465130424127L846.0662000000001,335.21946372196544L847.0658,285.5465246960521L853.5394,335.7096359657007L854.8008,224.82359862327576L857.633,314.738225530833L861.9646,322.3752664066851L862.8452,248.68895678222177L865.0824,250.27530348300934L868.8666000000001,332.0453256731853L869.4854,334.39186361641623L870.4374,283.82671574503183L871.5321999999999,275.5467756316066L873.0792000000001,311.56252609938383L873.2458,304.00339948385954L873.4362,311.36664716899395L874.5786,327.7177031747997L874.7928,317.99702203273773L876.197,242.06728121638298L876.5064,293.4823575094342L879.9574,310.66814713552594L880.2429999999999,282.19391933083534L881.0284,277.23444333672523L882.028,268.5747851282358L883.575,252.91557951271534L885.3362,296.0126914680004L886.4548,299.74593414366245L888.0018,306.13995135203004L888.6919999999999,328.02918419614434L889.0014000000001,333.29238899890333L890.6436,295.77502930909395L890.715,299.4273888543248L891.7384,311.6035543978214L892.9046,300.1920665279031L894.2374,292.97423089295626L897.3789999999999,298.7166045829654L897.5694000000001,282.165881305933L897.7360000000001,302.03000834584236L899.9494,269.27533677220345L900.2349999999999,297.8934100493789L900.711,283.20130898058414L903.4242,296.9190730378032L903.5194,275.957132935524L904.162,271.65525971353054L904.2096,258.2548518329859L906.3516000000001,313.19495482742786L908.0176,308.25917503237724L908.6601999999999,265.52076829969883L908.8267999999999,286.8030803874135L909.4932,244.52006077766416L912.73,310.3608456104994L914.9196000000001,313.38622399047017L915.0862000000001,298.75408901274204L917.2282,304.031058087945L917.4423999999999,307.40012132003903L917.7280000000001,271.80474369227886L918.1802,319.93067568540573L918.5848,297.1400445923209L919.87,296.9370466321707L920.1555999999999,312.85887794941664L920.7506000000001,318.35533218830824L921.6311999999999,299.66434302181005L923.0115999999999,312.88079439103603L924.1064,289.05049158632755L924.5586,251.8779613673687L924.7252,318.29381712153554L925.8199999999999,307.9659335911274L927.0576,300.6305479109287L927.129,299.4585404768586L927.9620000000001,305.53403195366263L931.056,308.84103836864233L932.2936000000001,310.0456212311983L932.3174,303.09178425371647L932.8172,285.59313087165356L934.1262,312.01409163326025L936.1967999999999,315.7279056161642L936.2206,304.4799402952194L937.125,298.458629719913L937.9580000000001,318.12385419756174L938.1722000000001,281.480889827013L939.1003999999999,267.21327459812164L940.2665999999999,272.6059083491564L941.5756,309.6357078887522L942.3372,297.1962301656604L944.5982,323.10308158770204L948.2158000000001,311.2593004144728L949.3820000000001,314.5268451087177L950.2388,319.2293612882495L951.7144,301.6451113522053L953.5469999999999,321.2411316242069L953.6184,312.37076284736395L955.4272000000001,268.528018578887L955.927,315.9737937748432L956.1174,315.9535319209099L956.4268,329.4574771905318L956.4744,318.9044871032238L956.6172,331.6899203360081L958.9495999999999,317.8306440487504L958.9972,267.9581363350153L961.0678,330.0241055097431L961.1392000000001,282.13731522113085L961.7818,319.7199289351702L965.8516,321.52338550798595L966.0182,314.7486928515136L967.5889999999999,311.0256299972534L967.708,289.5596586763859L970.1832,326.9894039388746L970.5878,307.91480956971645L972.1823999999999,318.3773190379143L972.6584,300.0270262956619L975.2049999999999,309.59661776572466L976.4426,318.15071680024266L976.7996,320.7121241502464L977.1566,316.9951144270599L977.5373999999999,323.055030092597L977.8467999999999,322.4265185315162L978.6798,265.5406859368086L979.132,312.44718289375305L979.2986,320.36900353990495L984.8439999999999,317.6448491066694L986.2719999999999,290.7912899404764L986.9860000000001,266.44315204024315L987.4382,282.12676575779915L989.5563999999999,303.2032283619046L990.4846,316.45189725235105L990.5798,287.6143446788192L990.794,316.76947052031755L990.9368,313.92852194979787L991.5318,293.54344817250967L992.8884,292.793724372983L996.3632,303.06535778939724L999.124,334.8212595577352L999.9094,302.24064166098833L1002.5035999999999,89.08482348918915L1002.6464000000001,-254.77107310295116L1006.7399999999999,-205.31938219070435L1012.8328,205.64493244886395L1013.285,320.27238911390305L1014.3084,319.0800259485841L1015.9506,260.59537759423256L1021.0676,264.0912984162569L1023.4714,266.9174984693527L1024.7804,293.736131362617L1025.1374,308.1489689312875L1026.7795999999998,274.26689533889294L1027.5888,284.2219196856022L1029.35,334.1875249708537L1029.7308,210.10803213715553L1029.9926,261.58037750422955L1030.8018,231.65304815769193L1032.7058,239.051433339715L1034.1576,218.96538814902303L1034.1814,261.2616561949253L1035.5618,275.59700390696526L1036.0378,292.08832240104675L1037.0611999999999,275.64086808264256L1037.1802,282.29573319107294L1038.8938,140.54306378960607L1042.2496,232.80893607437608L1042.797,247.97164021432397L1042.8208,230.47326064109802L1046.0576,247.29808612167832L1048.3424,313.07460802048445L1049.7466,297.05416640639305L1050.0084,306.10333724319935L1056.7676,324.96517725661397L1057.7434,288.07328740507364L1059.4094,308.7646144106984L1060.0757999999998,317.8087823688984L1061.2896,307.7707509174943L1063.5982000000001,294.97549968212843L1064.336,281.30605897307396L1064.455,281.03931440413L1064.8596,323.81464914791286L1066.0734,280.4186484441161L1066.9778,302.0123398527503L1071.833,301.15256837010384L1073.5466000000001,332.1673612939194L1076.0456000000001,285.7498473152518L1078.1162,275.75580520927906L1078.4017999999999,299.9169981703162L1079.1634000000001,320.5142503269017L1079.8298,305.0964052453637L1081.9004,294.47005639225245L1082.1384,304.7640130519867L1082.2812000000001,326.5134782195091L1082.3764,289.43168042600155L1083.1142,303.3842531628907L1083.1617999999999,271.3867940604687L1083.4950000000001,285.14162792265415L1083.6378,307.3587312027812L1085.3752,298.72693891078234L1091.2538,305.07379841431975L1093.3482000000001,301.24105556309223L1093.967,314.7087695673108L1096.109,308.1155310049653L1096.7516,312.12245343625546L1098.4176,281.783120021224L1100.036,293.190465554595L1100.4168,283.62631114572287L1101.9876000000002,323.8450458403677L1103.1299999999999,317.72980612143874L1103.5108,273.5932864844799L1104.201,319.4139886312187L1104.7959999999998,314.50968511775136L1105.2482,210.38578382134435L1108.6754,299.5499183088541L1108.8658,303.46923364698887L1110.389,316.4760726168752L1111.0316,327.0472871270031L1114.2446,311.15714038163424L1114.4112,278.785550840199L1114.8396,314.215710259974L1117.291,304.062100186944L1117.8622,301.4087908565998L1118.1002,330.27671909797937L1118.4334000000001,300.91056829690933L1119.909,314.4157725982368L1122.17,330.245933694765L1123.7408,300.4010413438082L1124.8118,318.03928638249636L1125.2402,318.0106068626046L1125.4782,326.2799456845969L1125.978,307.4327769353986L1128.5722,180.7174072265625L1130.2382,330.47553022764623L1132.5706,289.31548377871513L1135.3552,313.13472079485655L1136.2595999999999,284.9358566701412L1137.045,238.84247808158395L1137.4496,332.99578508734703L1138.3778,318.2914956137538L1144.1374,324.288584863767L1144.5182,317.14346992224455L1147.9453999999998,290.096120595932L1149.183,318.81593145802617L1150.2302,256.0741522014141L1151.0632,316.7670531794429L1151.7772,308.4169358611107L1152.3484,305.7470298036933L1152.9196,291.1754828542471L1153.11,296.0028656423092L1153.3718,297.2268967553973L1153.3956,320.3552759382874L1154.8236,266.03627993166447L1155.4662,280.29840333759785L1155.5614,309.1458521448076L1155.9184,285.93980024009943L1156.5372,297.5604154765606L1156.799,250.86155949532986L1157.0608,287.0785711929202L1157.8462,302.4998799562454L1159.8692,299.23451790958643L1161.1306,298.44069915264845L1161.2258000000002,322.356477253139L1161.5352,217.57087191939354L1163.4392,309.5365519300103L1163.5344,299.1142884492874L1164.1770000000001,299.73714096844196L1164.3912,311.3560879267752L1166.4618,292.6776880994439L1166.6283999999998,150.84163999557492L1167.6756,302.60030130296946L1168.937,311.94778295606375L1169.77,211.82723870873448L1169.8652,73.88201808929443L1171.317,280.1466350108385L1173.6255999999998,274.0992617458105L1174.53,292.86802826821804L1175.6248,313.5593200698495L1175.6486,268.63532035052776L1175.72,242.88205808401105L1177.0528000000002,271.9978415071964L1179.052,320.87742939032614L1179.6232,294.4468061104417L1180.7894,308.2221365198493L1181.1226,304.3476084843278L1184.645,281.28217501938343L1185.359,301.14359917491674L1186.7631999999999,317.7459197714925L1187.9769999999999,316.2326135337353L1192.8798000000002,284.82750269025564L1193.094,207.80742770433426L1193.57,335.75601166515844L1194.3078,252.7137198150158L1194.3554000000001,303.00620725750923L1197.5684,268.3312282562256L1198.4252000000001,247.26443892717361L1199.4723999999999,275.32049609720707L1200.8766,274.1660398095846L1201.1622,248.0434250682592L1203.8516,304.4153233654797L1204.7322,270.8073089495301L1205.47,311.2064220607281L1206.303,297.6888552904129L1209.8729999999998,305.6313983760774L1210.0872000000002,315.5087040401995L1210.7298,314.6713320761919L1211.4438,292.1932498589158L1212.253,274.44484370201826L1213.324,285.50221851468086L1213.5144,309.00668684765697L1214.1807999999999,292.23332373797894L1216.8701999999998,311.52866768091917L1217.251,300.4676707684994L1217.7984,308.88493774831295L1218.7266,274.0058655515313L1219.1312,320.69040133059025L1221.1779999999999,280.5676865056157L1221.3922,310.22453574836254L1222.2014,316.5378556251526L1224.9384,299.36886808276176L1225.8666,277.3761902600527L1227.1042,323.39555636420846L1233.9586,301.95746856182814L1234.4584,303.8338590078056L1237.8142,310.79439452290535L1238.8376,328.9876192705706L1240.099,311.91794561594725L1240.2656000000002,273.4272057786584L1240.7416,115.74981442093849L1241.3604,324.05155735462904L1243.5024,312.46441916003823L1244.74,318.86931244656444L1246.1680000000001,335.13117522373796L1246.3346000000001,335.7450627190119L1247.0248,265.7406133264303L1248.2862,289.91357224434614L1248.3814,318.55924154073L1248.6907999999999,311.89590791612864L1249.0240000000001,315.4799462892115L1249.5952,289.1871847808361L1249.8808,265.3126344680786L1250.6424,306.55223705247045L1250.809,321.97810668870807L1251.1422,230.76834051311016L1253.8316,272.2782843410969L1254.0934,326.05754152312875L1254.2362,249.7707207351923L1255.212,-9219.89861869812L1255.3072,-2589.1908659935L1255.6404,294.56511890888214L1256.1878000000002,334.9799139322713L1258.7105999999999,323.83729216083884L1259.734,320.4808026216924L1260.7812000000001,319.9198768604547L1261.2096,311.92367408797145L1261.5904,293.6582171022892L1262.3044,317.45110001787543L1263.9466,278.8205279633403L1266.9216,133.486462444067L1267.945,270.0172491967678L1267.9926,311.8217643946409L1268.8732,271.162802785635L1268.897,275.1161486506462L1269.135,151.6418189406395L1269.3254,334.8159042724874L1269.9204,282.6903621330857L1271.8958,144.17023292183873L1272.0148000000002,317.7646541632712L1272.3718000000001,335.3935733829858L1276.989,278.00510177761316L1280.2734,311.3665689378977L1285.319,278.1511435881257L1287.1754,226.57838469743726L1288.4605999999999,322.58767165616155L1289.0556,299.0071157589555L1292.0544,267.3965857028961L1293.9822,177.42403453588483L1295.1484,289.2234996557236L1295.434,291.40949553251266L1295.8862,295.0252585709095L1297.2903999999999,272.5922022610903L1300.0511999999999,246.79185269773004L1301.9314,303.73466980084777L1302.931,282.4180514216423L1304.6445999999999,301.0015354156494L1305.8346,315.27197478711605L1306.7152,265.68890257179737L1308.048,270.8489239811897L1308.4288,253.01338402926922L1308.9762,285.4336372241378" style="fill: none;" fill="none"></path></g></g></g></g></g></g><g transform="translate(70, 378)" clip-path="url(#clip_1)"><clipPath id="clip_1"><rect width="1428" height="22"></rect></clipPath><g><g><line x1="0" y1="0" x2="0" y2="5" style="visibility: inherit;" fill="rgb(0, 0, 0)" stroke="rgb(204, 204, 204)" stroke-width="1px"></line><line x1="119" y1="0" x2="119" y2="5" style="visibility: inherit;" fill="rgb(0, 0, 0)" stroke="rgb(204, 204, 204)" stroke-width="1px"></line><line x1="238" y1="0" x2="238" y2="5" style="visibility: inherit;" fill="rgb(0, 0, 0)" stroke="rgb(204, 204, 204)" stroke-width="1px"></line><line x1="357" y1="0" x2="357" y2="5" style="visibility: inherit;" fill="rgb(0, 0, 0)" stroke="rgb(204, 204, 204)" stroke-width="1px"></line><line x1="476" y1="0" x2="476" y2="5" style="visibility: inherit;" fill="rgb(0, 0, 0)" stroke="rgb(204, 204, 204)" stroke-width="1px"></line><line x1="595" y1="0" x2="595" y2="5" style="visibility: inherit;" fill="rgb(0, 0, 0)" stroke="rgb(204, 204, 204)" stroke-width="1px"></line><line x1="714" y1="0" x2="714" y2="5" style="visibility: inherit;" fill="rgb(0, 0, 0)" stroke="rgb(204, 204, 204)" stroke-width="1px"></line><line x1="833" y1="0" x2="833" y2="5" style="visibility: inherit;" fill="rgb(0, 0, 0)" stroke="rgb(204, 204, 204)" stroke-width="1px"></line><line x1="952" y1="0" x2="952" y2="5" style="visibility: inherit;" fill="rgb(0, 0, 0)" stroke="rgb(204, 204, 204)" stroke-width="1px"></line><line x1="1071" y1="0" x2="1071" y2="5" style="visibility: inherit;" fill="rgb(0, 0, 0)" stroke="rgb(204, 204, 204)" stroke-width="1px"></line><line x1="1190" y1="0" x2="1190" y2="5" style="visibility: inherit;" fill="rgb(0, 0, 0)" stroke="rgb(204, 204, 204)" stroke-width="1px"></line><line x1="1309" y1="0" x2="1309" y2="5" style="visibility: inherit;" fill="rgb(0, 0, 0)" stroke="rgb(204, 204, 204)" stroke-width="1px"></line><line x1="1428" y1="0" x2="1428" y2="5" style="visibility: inherit;" fill="rgb(0, 0, 0)" stroke="rgb(204, 204, 204)" stroke-width="1px"></line></g><g transform="translate(0, 8)"><text x="0" y="0" dx="0em" dy="0.95em" style="text-anchor: middle; visibility: hidden; font-family: &quot;Helvetica Neue&quot;, sans-serif; font-size: 12px; font-weight: 200;" fill="rgb(50, 49, 63)" stroke="none" stroke-width="1px">-5k</text><text x="119" y="0" dx="0em" dy="0.95em" style="text-anchor: middle; visibility: inherit; font-family: &quot;Helvetica Neue&quot;, sans-serif; font-size: 12px; font-weight: 200;" fill="rgb(50, 49, 63)" stroke="none" stroke-width="1px">0</text><text x="238" y="0" dx="0em" dy="0.95em" style="text-anchor: middle; visibility: inherit; font-family: &quot;Helvetica Neue&quot;, sans-serif; font-size: 12px; font-weight: 200;" fill="rgb(50, 49, 63)" stroke="none" stroke-width="1px">5k</text><text x="357" y="0" dx="0em" dy="0.95em" style="text-anchor: middle; visibility: inherit; font-family: &quot;Helvetica Neue&quot;, sans-serif; font-size: 12px; font-weight: 200;" fill="rgb(50, 49, 63)" stroke="none" stroke-width="1px">10k</text><text x="476" y="0" dx="0em" dy="0.95em" style="text-anchor: middle; visibility: inherit; font-family: &quot;Helvetica Neue&quot;, sans-serif; font-size: 12px; font-weight: 200;" fill="rgb(50, 49, 63)" stroke="none" stroke-width="1px">15k</text><text x="595" y="0" dx="0em" dy="0.95em" style="text-anchor: middle; visibility: inherit; font-family: &quot;Helvetica Neue&quot;, sans-serif; font-size: 12px; font-weight: 200;" fill="rgb(50, 49, 63)" stroke="none" stroke-width="1px">20k</text><text x="714" y="0" dx="0em" dy="0.95em" style="text-anchor: middle; visibility: inherit; font-family: &quot;Helvetica Neue&quot;, sans-serif; font-size: 12px; font-weight: 200;" fill="rgb(50, 49, 63)" stroke="none" stroke-width="1px">25k</text><text x="833" y="0" dx="0em" dy="0.95em" style="text-anchor: middle; visibility: inherit; font-family: &quot;Helvetica Neue&quot;, sans-serif; font-size: 12px; font-weight: 200;" fill="rgb(50, 49, 63)" stroke="none" stroke-width="1px">30k</text><text x="952" y="0" dx="0em" dy="0.95em" style="text-anchor: middle; visibility: inherit; font-family: &quot;Helvetica Neue&quot;, sans-serif; font-size: 12px; font-weight: 200;" fill="rgb(50, 49, 63)" stroke="none" stroke-width="1px">35k</text><text x="1071" y="0" dx="0em" dy="0.95em" style="text-anchor: middle; visibility: inherit; font-family: &quot;Helvetica Neue&quot;, sans-serif; font-size: 12px; font-weight: 200;" fill="rgb(50, 49, 63)" stroke="none" stroke-width="1px">40k</text><text x="1190" y="0" dx="0em" dy="0.95em" style="text-anchor: middle; visibility: inherit; font-family: &quot;Helvetica Neue&quot;, sans-serif; font-size: 12px; font-weight: 200;" fill="rgb(50, 49, 63)" stroke="none" stroke-width="1px">45k</text><text x="1309" y="0" dx="0em" dy="0.95em" style="text-anchor: middle; visibility: inherit; font-family: &quot;Helvetica Neue&quot;, sans-serif; font-size: 12px; font-weight: 200;" fill="rgb(50, 49, 63)" stroke="none" stroke-width="1px">50k</text><text x="1428" y="0" dx="0em" dy="0.95em" style="text-anchor: middle; visibility: hidden; font-family: &quot;Helvetica Neue&quot;, sans-serif; font-size: 12px; font-weight: 200;" fill="rgb(50, 49, 63)" stroke="none" stroke-width="1px">55k</text></g><line x1="0" y1="0" x2="1428" y2="0" fill="rgb(0, 0, 0)" stroke="rgb(204, 204, 204)" stroke-width="1px"></line></g></g></g></g></svg>